<svg xmlns="http://www.w3.org/2000/svg" width="97.273" height="81.348" viewBox="0 0 97.273 81.348">
  <g id="icon" transform="translate(-991.381 -1065.415)">
    <path id="Path_661" data-name="Path 661" d="M1024.313,1069.593l6.733,11.076-24.554,11.933-6.733-11.076Z" transform="translate(-1.971 -0.865)" fill="#fff"/>
    <path id="Path_662" data-name="Path 662" d="M1031.1,1085.778l2.414,3.917,8.049,4.521L1056.989,1120s-1.172.545-3.328,1.37-4.33-3.172-4.33-3.172l-5.045-8.2c-5.317,2.3-10.962-2.641-10.962-2.641L1021.6,1112.8l-10.237-17.433Z" transform="translate(-4.701 -4.672)" fill="#fff"/>
    <path id="Path_663" data-name="Path 663" d="M997.879,1080.243l26.071-12.669,8.092,13.427-26.07,12.671Zm25.915-9.582-23.039,11.2,5.373,8.726,23.037-11.2Z" transform="translate(-1.528 -0.39)" fill="#294c74"/>
    <path id="Path_664" data-name="Path 664" d="M1009.475,1094.1l21.222-10.315,2.83,4.591,8.062,4.529,16.418,27.441-.775.36c-.048.022-1.213.561-3.36,1.385a2.908,2.908,0,0,1-2.57-.41,10.729,10.729,0,0,1-3.157-3.556l-4.388-7.133c-4.485,1.418-9-1.522-10.606-2.737l-12.07,5.608Zm23.739,11.911c.052.044,5.139,4.423,9.952,2.344l.739-.32,5.782,9.4a6.811,6.811,0,0,0,1.824,2.141,1.128,1.128,0,0,0,1.052.139c1.1-.423,1.95-.772,2.509-1.012l-14.426-24.112-8.036-4.514-2-3.241-18.245,8.866,8.87,15.1,11.406-5.3Z" transform="translate(-4.256 -4.202)" fill="#294c74"/>
    <g id="Group_208" data-name="Group 208" transform="translate(1033.673 1122.408)">
      <path id="Path_665" data-name="Path 665" d="M1070.7,1145.412l2.9,4.618c1.37,2.181,3.624,3.328,5.005,2.548h0c1.383-.78,1.392-3.2.021-5.383l-2.9-4.619c-1.37-2.181-3.624-3.328-5.005-2.548h0C1069.338,1140.808,1069.328,1143.231,1070.7,1145.412Z" transform="translate(-1052.09 -1139.783)" fill="#fff"/>
      <path id="Path_666" data-name="Path 666" d="M1063.858,1150.916l2.9,4.619c1.37,2.181,3.623,3.328,5.005,2.547h0c1.383-.779,1.392-3.2.022-5.383l-2.9-4.619c-1.37-2.181-3.623-3.328-5.005-2.547h0C1062.5,1146.313,1062.487,1148.735,1063.858,1150.916Z" transform="translate(-1050.48 -1141.078)" fill="#fff"/>
      <path id="Path_667" data-name="Path 667" d="M1055.9,1154.613l2.9,4.619c1.371,2.181,3.623,3.328,5.005,2.547h0c1.383-.779,1.392-3.2.021-5.383l-2.9-4.619c-1.37-2.181-3.623-3.328-5.006-2.547h0C1054.538,1150.01,1054.528,1152.432,1055.9,1154.613Z" transform="translate(-1048.608 -1141.948)" fill="#fff"/>
      <path id="Path_668" data-name="Path 668" d="M1047.7,1157.9l2.9,4.619c1.371,2.181,3.624,3.328,5.006,2.547h0c1.383-.779,1.392-3.2.021-5.383l-2.9-4.619c-1.37-2.181-3.623-3.328-5.006-2.547h0C1046.341,1153.3,1046.331,1155.723,1047.7,1157.9Z" transform="translate(-1046.68 -1142.722)" fill="#fff"/>
    </g>
    <g id="Group_209" data-name="Group 209" transform="translate(1032.642 1121.182)">
      <path id="Path_669" data-name="Path 669" d="M1072.553,1150.066l-2.9-4.619c-1.772-2.822-1.76-5.939.028-6.949s4.687.468,6.461,3.289l2.9,4.618a7.966,7.966,0,0,1,1.32,4.153,3.026,3.026,0,0,1-1.346,2.8,3.559,3.559,0,0,1-3.462-.328A8.728,8.728,0,0,1,1072.553,1150.066Zm-1.425-9.262c-.983.554-.99,2.268-.016,3.818l2.9,4.619c.973,1.549,2.567,2.362,3.55,1.806a1.665,1.665,0,0,0,.739-1.537,4.387,4.387,0,0,0-.724-2.282l-2.9-4.617a4.794,4.794,0,0,0-1.648-1.628A1.951,1.951,0,0,0,1071.128,1140.8Z" transform="translate(-1050.742 -1138.18)" fill="#294c74"/>
      <path id="Path_670" data-name="Path 670" d="M1065.712,1155.57l-2.9-4.619c-1.773-2.822-1.761-5.939.028-6.95s4.687.467,6.461,3.289l2.9,4.617a7.967,7.967,0,0,1,1.32,4.154,3.025,3.025,0,0,1-1.346,2.8,3.558,3.558,0,0,1-3.462-.327A8.728,8.728,0,0,1,1065.712,1155.57Zm-1.425-9.262c-.983.554-.99,2.267-.016,3.819l2.9,4.618c.974,1.55,2.568,2.362,3.55,1.807a1.663,1.663,0,0,0,.739-1.536,4.379,4.379,0,0,0-.724-2.282l-2.9-4.617a4.79,4.79,0,0,0-1.648-1.627A1.953,1.953,0,0,0,1064.287,1146.308Z" transform="translate(-1049.133 -1139.475)" fill="#294c74"/>
      <path id="Path_671" data-name="Path 671" d="M1057.754,1159.267l-2.9-4.619c-1.773-2.822-1.76-5.939.028-6.95s4.687.467,6.46,3.289l2.9,4.617a7.974,7.974,0,0,1,1.321,4.154,3.025,3.025,0,0,1-1.347,2.8,3.558,3.558,0,0,1-3.462-.328A8.718,8.718,0,0,1,1057.754,1159.267Zm-1.426-9.262c-.984.555-.99,2.268-.015,3.819l2.9,4.618c.974,1.55,2.569,2.363,3.55,1.807a1.664,1.664,0,0,0,.74-1.536,4.391,4.391,0,0,0-.725-2.282l-2.9-4.617a4.78,4.78,0,0,0-1.648-1.627A1.953,1.953,0,0,0,1056.328,1150.005Z" transform="translate(-1047.261 -1140.345)" fill="#294c74"/>
      <path id="Path_672" data-name="Path 672" d="M1049.557,1162.558l-2.9-4.619c-1.772-2.821-1.761-5.938.028-6.949s4.687.467,6.461,3.289l2.9,4.617a7.969,7.969,0,0,1,1.32,4.154,3.025,3.025,0,0,1-1.346,2.8,3.558,3.558,0,0,1-3.462-.327A8.728,8.728,0,0,1,1049.557,1162.558Zm-1.426-9.262c-.983.554-.99,2.267-.015,3.818l2.9,4.619c.973,1.549,2.568,2.362,3.55,1.806a1.663,1.663,0,0,0,.739-1.536,4.381,4.381,0,0,0-.724-2.282l-2.9-4.618a4.786,4.786,0,0,0-1.648-1.627A1.953,1.953,0,0,0,1048.131,1153.3Z" transform="translate(-1045.333 -1141.119)" fill="#294c74"/>
    </g>
    <g id="Group_211" data-name="Group 211" transform="translate(1010.67 1080.974)">
      <g id="Group_210" data-name="Group 210">
        <path id="Path_673" data-name="Path 673" d="M1077.588,1087.733l-10.777,6.61,22.328,39.307,10.777-6.609Z" transform="translate(-1028.413 -1086.106)" fill="#fff"/>
        <path id="Path_674" data-name="Path 674" d="M1041.805,1102.7l7.073,2.568,8.247-4.692,17.943,31.59-17.353,10.233-16.869,6.99-2.858,1.373c-1.35.648-3.48-.72-4.733-3.041-1.179-2.183-1.164-4.444-.035-5.246l-.076.036c-1.35.649-3.48-.72-4.732-3.041-1.2-2.229-1.166-4.542.036-5.3l-.106.051c-1.35.648-3.48-.72-4.733-3.041-1.179-2.183-1.164-4.443-.035-5.245l-.076.036c-1.35.648-3.48-.72-4.733-3.041s-1.174-4.75.177-5.4l1.794-1.107,10.423-6.16s5.453,4.986,10.185,2.38l5.372,8.949s2.132,3.56,3.858,2.684l2.968-1.563Z" transform="translate(-1016.902 -1089.126)" fill="#fff"/>
        <path id="Path_675" data-name="Path 675" d="M1065.029,1093.044l12.123-7.439,23.707,41.733-12.123,7.44Zm12.155-4.183-9.43,5.778,20.949,36.882,9.431-5.779Z" transform="translate(-1027.994 -1085.605)" fill="#294c74"/>
        <path id="Path_676" data-name="Path 676" d="M1035.25,1151.02a9.321,9.321,0,0,1-3.008-3.4,8.54,8.54,0,0,1-1.138-4.464,6.174,6.174,0,0,1-.7-.385,9.3,9.3,0,0,1-3.007-3.4,8.5,8.5,0,0,1-1.127-4.514,6.6,6.6,0,0,1-.67-.372,9.311,9.311,0,0,1-3.007-3.4,8.538,8.538,0,0,1-1.137-4.464,6.011,6.011,0,0,1-.7-.385,9.31,9.31,0,0,1-3.009-3.4,8.729,8.729,0,0,1-1.146-4.293,2.837,2.837,0,0,1,1.334-2.65l12.224-7.272.4-.23.548.5c.2.182,5,4.448,9.25,2.11l.658-.364,6.056,10.09c.06.1,1.477,2.435,2.521,1.9l2.24-1.18-12.738-21.725,9.549,3.517,8.253-4.537,19.3,33.974-18.144,10.525-16.847,6.98-2.858,1.371a3.077,3.077,0,0,1-2.883-.39C1035.4,1151.111,1035.323,1151.067,1035.25,1151.02Zm21.622-49.181-8.645,4.784-4.315-1.826,10.376,17.31-3.7,1.95c-1.89.959-4.221-1.85-5.187-3.467l-4.71-7.846c-4.022,1.653-7.964-.275-9.5-1.493l-10.046,5.938-1.835,1.13a1.566,1.566,0,0,0-.755,1.469,4.806,4.806,0,0,0,.629,2.359c.892,1.652,2.4,2.62,3.36,2.156l.076-.035,1.387,2.416c-.805.571-.8,2.2.021,3.714a5.1,5.1,0,0,0,1.652,1.867,1.773,1.773,0,0,0,1.706.289l.106-.051,1.367,2.43c-.859.54-.872,2.188-.028,3.751a5.1,5.1,0,0,0,1.652,1.867,1.767,1.767,0,0,0,1.7.292l.076-.037,1.393,2.414c-.8.571-.8,2.2.02,3.714a5.11,5.11,0,0,0,1.653,1.868,1.755,1.755,0,0,0,1.7.289l2.88-1.383,16.813-6.961,16.742-9.7Z" transform="translate(-1016.603 -1088.683)" fill="#294c74"/>
        <path id="Path_677" data-name="Path 677" d="M1025.711,1133.476l6.288-3.725-1.395-2.418-6.288,3.725Z" transform="translate(-1018.417 -1095.42)" fill="#294c74"/>
        <path id="Path_678" data-name="Path 678" d="M1031.89,1144.344l6.289-3.725-1.393-2.417-6.289,3.725Z" transform="translate(-1019.871 -1097.977)" fill="#294c74"/>
        <path id="Path_679" data-name="Path 679" d="M1038.237,1155l6.289-3.725-1.393-2.417-6.289,3.725Z" transform="translate(-1021.364 -1100.484)" fill="#294c74"/>
        <path id="Path_680" data-name="Path 680" d="M1085.5,1086.76l-4.619-1.155,23.706,41.733,4.618,1.155Z" transform="translate(-1031.722 -1085.605)" fill="#fff" stroke="gray" stroke-linejoin="round" stroke-width="1"/>
      </g>
      <path id="Path_681" data-name="Path 681" d="M1096.027,1147.613l4.618,1.154,12.123-7.44-4.618-1.155Z" transform="translate(-1035.285 -1098.44)" fill="#fff" stroke="gray" stroke-linejoin="round" stroke-width="1"/>
      <path id="Path_682" data-name="Path 682" d="M1075.683,1154.876l-4.6-1.163,16.565-9.51,1.674,2.878Z" transform="translate(-1029.417 -1099.388)" fill="#fff" stroke="gray" stroke-linejoin="round" stroke-width="1"/>
    </g>
    <path id="Path_683" data-name="Path 683" d="M1058.458,1165.862a3.448,3.448,0,0,1-.786,2.588,2.542,2.542,0,0,1-2.645.65l-5.081-1.3a2.654,2.654,0,0,0,3.138-1.226,4.759,4.759,0,0,0,.278-3,7.119,7.119,0,0,0,3.061,1.761Z" transform="translate(-13.776 -22.971)" fill="#fff" stroke="gray" stroke-linejoin="round" stroke-width="1"/>
    <path id="Path_684" data-name="Path 684" d="M1017.816,1067.934l6.733,11.076-24.554,11.933-6.733-11.076Z" transform="translate(-0.442 -0.475)" fill="#fff"/>
    <path id="Path_685" data-name="Path 685" d="M1024.6,1084.119l2.415,3.917,8.049,4.521,15.427,25.785s-1.172.545-3.328,1.37-4.33-3.172-4.33-3.172l-5.045-8.2c-5.317,2.3-10.962-2.641-10.962-2.641l-11.722,5.445-10.237-17.433Z" transform="translate(-3.172 -4.282)" fill="#fff"/>
    <path id="Path_686" data-name="Path 686" d="M991.381,1078.585l26.071-12.67,8.092,13.428-26.069,12.67ZM1017.3,1069l-23.039,11.2,5.374,8.725,23.037-11.2Z" transform="translate(0 0)" fill="#5eb0c3"/>
    <path id="Path_687" data-name="Path 687" d="M1002.977,1092.437l21.222-10.315,2.83,4.591,8.062,4.529,16.418,27.441-.776.36c-.048.022-1.213.561-3.36,1.385a2.909,2.909,0,0,1-2.57-.41,10.733,10.733,0,0,1-3.157-3.555l-4.388-7.134c-4.484,1.418-9-1.522-10.606-2.737l-12.07,5.608Zm23.74,11.911c.051.044,5.139,4.423,9.952,2.344l.739-.32,5.782,9.4a6.8,6.8,0,0,0,1.824,2.141,1.129,1.129,0,0,0,1.052.139c1.1-.423,1.95-.772,2.509-1.012l-14.426-24.112-8.036-4.514-2-3.241-18.245,8.866,8.869,15.1,11.407-5.3Z" transform="translate(-2.728 -3.812)" fill="#5eb0c3"/>
    <g id="Group_212" data-name="Group 212" transform="translate(1028.703 1121.139)">
      <path id="Path_688" data-name="Path 688" d="M1064.2,1143.753l2.9,4.618c1.371,2.181,3.623,3.328,5.005,2.548h0c1.383-.78,1.392-3.2.021-5.383l-2.9-4.619c-1.37-2.181-3.623-3.328-5.005-2.548h0C1062.84,1139.149,1062.83,1141.572,1064.2,1143.753Z" transform="translate(-1045.592 -1138.124)" fill="#fff"/>
      <path id="Path_689" data-name="Path 689" d="M1057.36,1149.257l2.9,4.619c1.371,2.181,3.624,3.328,5.005,2.548h0c1.383-.78,1.392-3.2.021-5.384l-2.9-4.619c-1.371-2.181-3.623-3.328-5.005-2.547h0C1056,1144.654,1055.989,1147.076,1057.36,1149.257Z" transform="translate(-1043.983 -1139.419)" fill="#fff"/>
      <path id="Path_690" data-name="Path 690" d="M1049.4,1152.954l2.9,4.619c1.371,2.181,3.623,3.327,5.006,2.548h0c1.382-.78,1.392-3.2.021-5.384l-2.9-4.618c-1.371-2.181-3.623-3.328-5-2.548h0C1048.041,1148.351,1048.031,1150.773,1049.4,1152.954Z" transform="translate(-1042.111 -1140.289)" fill="#fff"/>
      <path id="Path_691" data-name="Path 691" d="M1041.2,1156.245l2.9,4.619c1.371,2.181,3.623,3.328,5.005,2.547h0c1.383-.779,1.392-3.2.021-5.383l-2.9-4.619c-1.371-2.181-3.623-3.328-5.005-2.547h0C1039.843,1151.642,1039.833,1154.064,1041.2,1156.245Z" transform="translate(-1040.182 -1141.063)" fill="#fff"/>
    </g>
    <g id="Group_213" data-name="Group 213" transform="translate(1027.673 1119.913)">
      <path id="Path_692" data-name="Path 692" d="M1066.056,1148.407l-2.9-4.619c-1.772-2.822-1.76-5.939.028-6.949s4.687.469,6.461,3.29l2.9,4.617a7.965,7.965,0,0,1,1.32,4.154,3.026,3.026,0,0,1-1.346,2.8,3.558,3.558,0,0,1-3.462-.328A8.714,8.714,0,0,1,1066.056,1148.407Zm-1.426-9.262c-.984.554-.99,2.267-.015,3.818l2.9,4.619c.973,1.549,2.567,2.362,3.55,1.806a1.664,1.664,0,0,0,.739-1.537,4.381,4.381,0,0,0-.724-2.281l-2.9-4.618a4.8,4.8,0,0,0-1.648-1.628A1.952,1.952,0,0,0,1064.63,1139.145Z" transform="translate(-1044.244 -1136.521)" fill="#5eb0c3"/>
      <path id="Path_693" data-name="Path 693" d="M1059.215,1153.911l-2.9-4.619c-1.772-2.822-1.76-5.939.028-6.95s4.687.467,6.461,3.289l2.9,4.617a7.969,7.969,0,0,1,1.32,4.154,3.024,3.024,0,0,1-1.346,2.8,3.558,3.558,0,0,1-3.462-.327A8.712,8.712,0,0,1,1059.215,1153.911Zm-1.426-9.262c-.984.554-.99,2.268-.015,3.819l2.9,4.619c.974,1.55,2.568,2.362,3.55,1.806a1.663,1.663,0,0,0,.739-1.537,4.382,4.382,0,0,0-.724-2.282l-2.9-4.617a4.781,4.781,0,0,0-1.648-1.627A1.953,1.953,0,0,0,1057.789,1144.649Z" transform="translate(-1042.635 -1137.816)" fill="#5eb0c3"/>
      <path id="Path_694" data-name="Path 694" d="M1051.256,1157.609l-2.9-4.619c-1.773-2.822-1.76-5.939.028-6.95s4.687.467,6.46,3.289l2.9,4.618a7.965,7.965,0,0,1,1.321,4.153,3.025,3.025,0,0,1-1.347,2.8,3.556,3.556,0,0,1-3.462-.327A8.711,8.711,0,0,1,1051.256,1157.609Zm-1.426-9.262c-.984.555-.99,2.269-.015,3.819l2.9,4.618c.974,1.55,2.569,2.363,3.55,1.806a1.663,1.663,0,0,0,.74-1.536,4.385,4.385,0,0,0-.725-2.282l-2.9-4.617a4.774,4.774,0,0,0-1.648-1.627A1.952,1.952,0,0,0,1049.83,1148.346Z" transform="translate(-1040.763 -1138.686)" fill="#5eb0c3"/>
      <path id="Path_695" data-name="Path 695" d="M1043.059,1160.9l-2.9-4.619c-1.773-2.822-1.76-5.939.028-6.95s4.687.467,6.46,3.289l2.9,4.617a7.975,7.975,0,0,1,1.321,4.154,3.025,3.025,0,0,1-1.347,2.8,3.558,3.558,0,0,1-3.462-.327A8.72,8.72,0,0,1,1043.059,1160.9Zm-1.426-9.262c-.984.554-.99,2.268-.015,3.819l2.9,4.618c.973,1.549,2.567,2.362,3.55,1.807a1.663,1.663,0,0,0,.74-1.537,4.385,4.385,0,0,0-.725-2.282l-2.9-4.617a4.78,4.78,0,0,0-1.648-1.627A1.952,1.952,0,0,0,1041.633,1151.637Z" transform="translate(-1038.835 -1139.46)" fill="#5eb0c3"/>
    </g>
    <path id="Path_696" data-name="Path 696" d="M1078.041,1156.2l-5.115-1.328a2.691,2.691,0,0,0,3.162-1.188c.916-1.567-.143-4.421-.143-4.421l5,1.289s1.351,3.23-.279,4.979A2.475,2.475,0,0,1,1078.041,1156.2Z" transform="translate(-19.181 -19.604)" fill="#fff" stroke="gray" stroke-linejoin="round" stroke-width="1"/>
    <path id="Path_697" data-name="Path 697" d="M1071.445,1137.95l-4.885-1.247a7.659,7.659,0,0,1,3.782,2.853l3.515,5.55s.456.906.7,1.5l5,1.269a22.485,22.485,0,0,0-1.216-2.3c-.574-.893-2.941-4.64-2.941-4.64A8.045,8.045,0,0,0,1071.445,1137.95Z" transform="translate(-17.683 -16.651)" fill="#fff" stroke="gray" stroke-linejoin="round" stroke-width="1"/>
    <path id="Path_698" data-name="Path 698" d="M1074.453,1157.068a4.458,4.458,0,0,1-.639,4.078,2.66,2.66,0,0,1-2.693.641l-5.074-1.318a2.745,2.745,0,0,0,3.162-1.188c.774-1.328.228-3.323-.034-4.111a7.275,7.275,0,0,0,2.39,1.152Z" transform="translate(-17.563 -20.995)" fill="#fff" stroke="gray" stroke-linejoin="round" stroke-width="1"/>
    <path id="Path_699" data-name="Path 699" d="M1066.621,1162.249a3.564,3.564,0,0,1-.769,2.843,2.539,2.539,0,0,1-2.644.649l-5.082-1.3a2.663,2.663,0,0,0,3.162-1.236,4.884,4.884,0,0,0,.213-3.186,6.979,6.979,0,0,0,2.707,1.6Z" transform="translate(-15.7 -22.135)" fill="#fff" stroke="gray" stroke-linejoin="round" stroke-width="1"/>
    <path id="Path_700" data-name="Path 700" d="M1038.531,1080.611l-4.969-1.269-8.092-13.428,4.969,1.269Z" transform="translate(-8.018 0)" fill="#fff" stroke="gray" stroke-linejoin="round" stroke-width="1"/>
    <path id="Path_701" data-name="Path 701" d="M1040.207,1084.741l-2.639,1.275-4.974-1.259,2.644-1.285Z" transform="translate(-9.694 -4.13)" fill="#fff" stroke="gray" stroke-linejoin="round" stroke-width="1"/>
    <path id="Path_702" data-name="Path 702" d="M1037.568,1086.411l-4.974-1.259,1.4,2.273,4.97,1.269Z" transform="translate(-9.694 -4.525)" fill="#fff" stroke="gray" stroke-linejoin="round" stroke-width="1"/>
    <path id="Path_703" data-name="Path 703" d="M1047.458,1093.923l-4.969-1.269-8.062-4.529,4.969,1.269Z" transform="translate(-10.125 -5.224)" fill="#fff" stroke="gray" stroke-linejoin="round" stroke-width="1"/>
    <path id="Path_704" data-name="Path 704" d="M1066.356,1122.757l-4.969-1.269-16.419-27.441,4.969,1.269Z" transform="translate(-12.605 -6.617)" fill="#fff" stroke="gray" stroke-linejoin="round" stroke-width="1"/>
    <path id="Path_705" data-name="Path 705" d="M1059.263,1131.764l4.888,1.25a2.554,2.554,0,0,0,1.541-.114c.839-.328,4.027-1.7,4.027-1.7l-4.969-1.269-3.641,1.554A3.374,3.374,0,0,1,1059.263,1131.764Z" transform="translate(-15.967 -15.057)" fill="#fff" stroke="gray" stroke-linejoin="round" stroke-width="1"/>
    <path id="Path_706" data-name="Path 706" d="M1046.436,1119.071l-5.3-1.345a9.448,9.448,0,0,0,5.1-.028l.935,1.52Z" transform="translate(-11.703 -12.18)" fill="#fff" stroke="gray" stroke-linejoin="round" stroke-width="1"/>
    <path id="Path_707" data-name="Path 707" d="M1018.152,1119.727l4.969,1.269,10.479-4.869a21.275,21.275,0,0,1-3.379-2.008Z" transform="translate(-6.297 -11.338)" fill="#fff" stroke="gray" stroke-linejoin="round" stroke-width="1"/>
  </g>
</svg>
