<svg xmlns="http://www.w3.org/2000/svg" width="103.33" height="86.862" viewBox="0 0 103.33 86.862">
  <g id="icon" transform="translate(-411.36 -391.33)">
    <path id="Path_2204" data-name="Path 2204" d="M-56.38,0h9.12V-2.08h-2.02V-14.1h-2.64V-2.08H-56.1c-3.74,0-4.96-1.32-4.96-4.14a8.689,8.689,0,0,1,.68-3.3l-2.82.46a10.017,10.017,0,0,0-.52,3.14C-63.72-2.26-61.82,0-56.38,0Zm-2.3-8.24h5.14v-1.5h-1.14c-1.02,0-1.38-.32-1.38-.76,0-.4.34-.68.96-.68a5.627,5.627,0,0,1,1,.1l.24-1.5a8.165,8.165,0,0,0-1.18-.1c-2.1,0-2.9,1.12-2.9,2.24a.905.905,0,0,0,.38.78,5.983,5.983,0,0,0-1.12-.08ZM-41.24,3a1.328,1.328,0,0,0-1.32-1.36A1.34,1.34,0,0,0-43.88,3a1.328,1.328,0,0,0,1.32,1.36A1.34,1.34,0,0,0-41.24,3Zm-3.3,0a1.332,1.332,0,0,0-1.34-1.36A1.34,1.34,0,0,0-47.2,3a1.328,1.328,0,0,0,1.32,1.36A1.344,1.344,0,0,0-44.54,3Zm-3.04-3h6.4V-9.4h-2.64v7.32h-3.76Zm9.38,5.08c4.08,0,4.94-2.44,4.94-5V0h1.98V-2.08h-1.98V-9.4H-35.9V.22c0,2.16-.8,2.8-2.14,2.8a5.426,5.426,0,0,1-1.62-.24l-.22,2.1A7.165,7.165,0,0,0-38.2,5.08ZM-32.78,0h2.38V-2.08h-2.38Zm2.16,0h2.38V-2.08h-2.38Zm2.16,0h2.38V-2.08h-2.38Zm2.16,0h2.38V-2.08H-26.3Zm2.16,0h2.38V-2.08h-2.38Zm2.16,0h2.38V-2.08h-2.38Zm2.16,0h2.38V-2.08h-2.38Zm2.16,0h.62c1.48,0,2.3-.52,2.66-1.48A2.72,2.72,0,0,0-11.54.18a2.991,2.991,0,0,0,2.9-1.66C-8.2-.4-7.14,0-5.4,0h3.72a39.927,39.927,0,0,0,.3-4.66,24.649,24.649,0,0,0-.64-5.54l-2.58.36a24.844,24.844,0,0,1,.58,5.36c0,.62-.06,1.6-.14,2.4h-.7c-1.76,0-2.2-.56-2.2-2.22V-9H-9.58v4.78c0,1.44-.32,2.3-1.48,2.3-1.18,0-1.52-.82-1.52-2.32V-8.2h-2.64v3.62c0,1.98-.5,2.5-1.8,2.5h-.64Zm9.22-13.76A1.238,1.238,0,0,0-7.2-15.02a1.238,1.238,0,0,0-1.24-1.26,1.234,1.234,0,0,0-1.22,1.26A1.234,1.234,0,0,0-8.44-13.76Zm1.68,2.84a1.34,1.34,0,0,0,1.32-1.36,1.328,1.328,0,0,0-1.32-1.36A1.344,1.344,0,0,0-8.1-12.28,1.332,1.332,0,0,0-6.76-10.92Zm-3.32,0a1.34,1.34,0,0,0,1.32-1.36,1.328,1.328,0,0,0-1.32-1.36,1.34,1.34,0,0,0-1.32,1.36A1.328,1.328,0,0,0-10.08-10.92Z" transform="translate(476 459)" fill="#266891"/>
    <path id="Path_2205" data-name="Path 2205" d="M-59.888.16c2.416,0,4.112-1.248,4.112-3.472v-.032c0-1.952-1.28-2.768-3.552-3.36-1.936-.5-2.416-.736-2.416-1.472v-.032c0-.544.5-.976,1.44-.976a5.255,5.255,0,0,1,2.912,1.1l1.28-1.856a6.483,6.483,0,0,0-4.16-1.424c-2.288,0-3.92,1.344-3.92,3.376v.032c0,2.224,1.456,2.848,3.712,3.424,1.872.48,2.256.8,2.256,1.424v.032c0,.656-.608,1.056-1.616,1.056a5.138,5.138,0,0,1-3.344-1.36L-64.64-1.632A7.127,7.127,0,0,0-59.888.16Zm6-.16h2.432V-4.784c0-1.152.592-1.744,1.52-1.744s1.472.592,1.472,1.744V0h2.432V-5.552c0-1.968-1.072-3.184-2.912-3.184A3.034,3.034,0,0,0-51.456-7.36v-4.32h-2.432Zm12.4.16A3.3,3.3,0,0,0-38.9-.928V0h2.352V-4.976a3.738,3.738,0,0,0-.928-2.736,3.959,3.959,0,0,0-2.9-.96,7.567,7.567,0,0,0-3.328.688l.608,1.856a6.308,6.308,0,0,1,2.368-.464c1.216,0,1.84.56,1.84,1.568v.144a6.094,6.094,0,0,0-2.1-.352c-2.032,0-3.456.864-3.456,2.736v.032A2.653,2.653,0,0,0-41.488.16Zm.736-1.68c-.784,0-1.328-.384-1.328-1.04v-.032c0-.768.64-1.184,1.68-1.184a3.771,3.771,0,0,1,1.552.32v.432C-38.848-2.144-39.616-1.52-40.752-1.52Zm6.3,1.52h2.432V-3.168c0-2.048.992-3.024,2.608-3.024h.128V-8.736a2.649,2.649,0,0,0-2.736,1.888V-8.576h-2.432Zm10.512.192a4.289,4.289,0,0,0,3.5-1.6L-21.824-2.64a2.81,2.81,0,0,1-2.08.88A1.989,1.989,0,0,1-26-3.44h5.968c.016-.224.032-.448.032-.64,0-2.432-1.312-4.656-4.176-4.656a4.27,4.27,0,0,0-4.24,4.464v.032A4.289,4.289,0,0,0-23.936.192Zm-2.1-5.152a1.912,1.912,0,0,1,1.856-1.824A1.839,1.839,0,0,1-22.368-4.96Zm11.9,5.152a4.289,4.289,0,0,0,3.5-1.6L-12.016-2.64a2.81,2.81,0,0,1-2.08.88,1.989,1.989,0,0,1-2.1-1.68h5.968c.016-.224.032-.448.032-.64,0-2.432-1.312-4.656-4.176-4.656a4.27,4.27,0,0,0-4.24,4.464v.032A4.289,4.289,0,0,0-14.128.192Zm-2.1-5.152a1.912,1.912,0,0,1,1.856-1.824A1.839,1.839,0,0,1-12.56-4.96ZM-8.384,0h2.432V-2.608l.848-.9L-2.864,0H-.08L-3.456-5.2-.192-8.576H-3.1l-2.848,3.12V-11.68H-8.384Z" transform="translate(476 478)" fill="#266891"/>
    <path id="Path_2202" data-name="Path 2202" d="M-12805.482,4066.332v-31.1l15.438,15.439Z" transform="translate(13275 -3634)" fill="#55b6dc"/>
    <path id="Path_2201" data-name="Path 2201" d="M-12771.437,4092.788v-23.582l-21.925-21.925v23.841Z" transform="translate(13275 -3634)" fill="#266891"/>
    <path id="Path_2203" data-name="Path 2203" d="M-12805.482,4066.332v-31.1l15.438,15.439Z" transform="translate(12411.958 6592.832) rotate(45)" fill="#92c841"/>
  </g>
</svg>
