<svg id="XMLID_1031_" xmlns="http://www.w3.org/2000/svg" width="51.55" height="51.55" viewBox="0 0 51.55 51.55">
  <g id="XMLID_1564_" transform="translate(7.563 7.563)">
    <g id="XMLID_1185_">
      <path id="XMLID_1207_" d="M18.212,0A18.212,18.212,0,1,1,0,18.212,18.212,18.212,0,0,1,18.212,0Z" fill="#86c5de"/>
      <g id="XMLID_1187_" transform="translate(15.752 15.752)">
        <circle id="XMLID_1205_" cx="2.46" cy="2.46" r="2.46" fill="#92c841"/>
      </g>
    </g>
  </g>
  <g id="XMLID_971_">
    <g id="XMLID_977_">
      <path id="XMLID_1030_" d="M46.05,9.861h1.593a1.006,1.006,0,1,0,0-2.012H43.819a1.006,1.006,0,0,0-1.006,1.006v3.823a1.006,1.006,0,0,0,2.012,0V11.571a23.763,23.763,0,1,1-19.05-9.558,24.121,24.121,0,0,1,2.9.175,1.006,1.006,0,0,0,.243-2A26.141,26.141,0,0,0,25.775,0,25.775,25.775,0,0,0,7.549,44a25.775,25.775,0,0,0,38.5-34.14Z" fill="#19557b"/>
      <path id="XMLID_1029_" d="M69.535,73.816a1.006,1.006,0,0,0-1.388.312,19.212,19.212,0,1,0,6.014-6,1.006,1.006,0,1,0,1.073,1.7,17.207,17.207,0,1,1-3,26.734A17.316,17.316,0,0,1,69.847,75.2,1.007,1.007,0,0,0,69.535,73.816Z" transform="translate(-58.62 -58.621)" fill="#19557b"/>
      <path id="XMLID_1028_" d="M377.175,248.342h1.241a1.006,1.006,0,1,0,0-2.012h-1.241a1.006,1.006,0,0,0,0,2.012Z" transform="translate(-338.32 -221.545)" fill="#19557b"/>
      <path id="XMLID_1004_" d="M103.835,247.012a1.006,1.006,0,0,0,1.006,1.006h1.241a1.006,1.006,0,1,0,0-2.012h-1.241A1.006,1.006,0,0,0,103.835,247.012Z" transform="translate(-93.387 -221.254)" fill="#19557b"/>
      <path id="XMLID_1001_" d="M248.342,106.082v-1.241a1.006,1.006,0,1,0-2.012,0v1.241a1.006,1.006,0,1,0,2.012,0Z" transform="translate(-221.545 -93.387)" fill="#19557b"/>
      <path id="XMLID_1415_" d="M246.006,377.175v1.241a1.006,1.006,0,1,0,2.012,0v-1.241a1.006,1.006,0,0,0-2.012,0Z" transform="translate(-221.254 -338.32)" fill="#19557b"/>
      <path id="XMLID_996_" d="M190.967,158.853a1.168,1.168,0,0,0-1.652,1.652l3.96,3.96a4.025,4.025,0,1,0,7.1,0l7.989-7.989a1.168,1.168,0,0,0-1.652-1.652l-7.989,7.989a4.016,4.016,0,0,0-3.793,0Zm7.544,7.508a1.688,1.688,0,1,1-1.688-1.688A1.69,1.69,0,0,1,198.511,166.361Z" transform="translate(-171.328 -140.041)" fill="#19557b"/>
      <path id="XMLID_980_" d="M119.9,119.9a1.006,1.006,0,1,0-.711.295A1.01,1.01,0,0,0,119.9,119.9Z" transform="translate(-106.287 -106.287)" fill="#19557b"/>
      <path id="XMLID_979_" d="M316.444,11.89a1.007,1.007,0,1,0-.711-.295A1.01,1.01,0,0,0,316.444,11.89Z" transform="translate(-283.7 -8.884)" fill="#19557b"/>
    </g>
  </g>
</svg>
