<svg xmlns="http://www.w3.org/2000/svg" width="58.877" height="94.139" viewBox="0 0 58.877 94.139">
  <g id="icon" transform="translate(-1830.403 -1277.392)">
    <g id="Group_112" data-name="Group 112" transform="translate(1830.653 1277.892)">
      <g id="Group_107" data-name="Group 107" transform="translate(15.568 8.339)">
        <path id="Path_339" data-name="Path 339" d="M1896.045,1313.2v60l-40.43-23.546v-60Z" transform="translate(-1853.486 -1289.654)" fill="#4d4d4d"/>
        <g id="Group_106" data-name="Group 106" transform="translate(0 1.253)">
          <g id="Group_104" data-name="Group 104" transform="translate(0.709 1.233)">
            <path id="Path_340" data-name="Path 340" d="M1892.625,1315.881l-39.012-22.721v58.361l39.012,22.721Z" transform="translate(-1853.612 -1293.16)" fill="#fff"/>
          </g>
          <g id="Group_105" data-name="Group 105">
            <path id="Path_341" data-name="Path 341" d="M1852.612,1351.423v-60l40.431,23.546v60Zm1.418-57.535v56.72l37.595,21.9v-56.72Z" transform="translate(-1852.612 -1291.421)" fill="#55b6dc"/>
          </g>
        </g>
        <path id="Path_342" data-name="Path 342" d="M1854.741,1289.654l-2.128,1.253,40.43,23.546,2.128-1.253Z" transform="translate(-1852.612 -1289.654)" fill="#fff" stroke="gray" stroke-linejoin="round" stroke-width="1"/>
        <path id="Path_343" data-name="Path 343" d="M1909.639,1384.12l2.128-1.252v-60l-2.128,1.252Z" transform="translate(-1869.208 -1299.319)" fill="#fff" stroke="gray" stroke-linejoin="round" stroke-width="1"/>
      </g>
      <g id="Group_109" data-name="Group 109" transform="translate(9.344)">
        <path id="Path_344" data-name="Path 344" d="M1887.264,1301.438v60l-40.43-23.546v-60Z" transform="translate(-1844.706 -1277.892)" fill="#4d4d4d"/>
        <g id="Group_108" data-name="Group 108" transform="translate(0 1.419)">
          <path id="Path_345" data-name="Path 345" d="M1883.844,1304.353l-39.012-22.72v58.361l39.012,22.72Z" transform="translate(-1844.123 -1280.399)" fill="#fff"/>
          <path id="Path_346" data-name="Path 346" d="M1843.832,1339.895v-60l40.43,23.546v60Zm1.418-57.535v56.719l37.594,21.9v-56.721Z" transform="translate(-1843.832 -1279.893)" fill="#266891"/>
          <path id="Path_347" data-name="Path 347" d="M1877.92,1313.864l8.824,5.139v8.624l-8.824-5.14Z" transform="translate(-1853.753 -1289.779)" fill="#266891"/>
          <path id="Path_348" data-name="Path 348" d="M1874.2,1308.066l14.1,8.209v13.775l-14.1-8.209Z" transform="translate(-1852.671 -1288.092)" fill="none" stroke="#266891" stroke-miterlimit="10" stroke-width="1"/>
          <path id="Path_349" data-name="Path 349" d="M1850.4,1319.811l30.968,18.035v.855l-30.968-18.036Z" transform="translate(-1845.745 -1291.51)" fill="#55b6dc"/>
          <path id="Path_350" data-name="Path 350" d="M1863.4,1301.772l-12.992-7.567v.855l12.992,7.567Z" transform="translate(-1845.745 -1284.058)" fill="#55b6dc"/>
          <path id="Path_351" data-name="Path 351" d="M1863.4,1308l-12.992-7.567v.855l12.992,7.567Z" transform="translate(-1845.745 -1285.87)" fill="#266891"/>
          <path id="Path_352" data-name="Path 352" d="M1850.4,1326.79l30.968,18.035v.855l-30.968-18.035Z" transform="translate(-1845.745 -1293.541)" fill="#55b6dc"/>
          <path id="Path_353" data-name="Path 353" d="M1850.4,1333.768l30.968,18.036v.855l-30.968-18.036Z" transform="translate(-1845.745 -1295.572)" fill="#55b6dc"/>
          <path id="Path_354" data-name="Path 354" d="M1850.4,1340.747l30.968,18.035v.855L1850.4,1341.6Z" transform="translate(-1845.745 -1297.603)" fill="#55b6dc"/>
          <path id="Path_355" data-name="Path 355" d="M1850.4,1351.783l11.266,6.561v-3.2l-11.266-6.561Z" transform="translate(-1845.745 -1299.883)" fill="#266891"/>
          <path id="Path_356" data-name="Path 356" d="M1861.671,1363.576l-11.266-6.561v.855l11.266,6.561Z" transform="translate(-1845.745 -1302.337)" fill="#55b6dc"/>
        </g>
        <path id="Path_357" data-name="Path 357" d="M1845.961,1277.892l40.43,23.546-2.128,1.418-40.43-23.546Z" transform="translate(-1843.832 -1277.892)" fill="#fff" stroke="gray" stroke-linejoin="round" stroke-width="1"/>
        <path id="Path_358" data-name="Path 358" d="M1900.859,1372.524l2.128-1.419v-60l-2.128,1.419Z" transform="translate(-1860.428 -1287.557)" fill="#fff" stroke="gray" stroke-linejoin="round" stroke-width="1"/>
      </g>
      <g id="Group_111" data-name="Group 111" transform="translate(0 25.826)">
        <path id="Path_359" data-name="Path 359" d="M1833.655,1314.755l1.117.65v-1.086l3.171,1.847v1.085l1.116.65v32.391l-1.116-.65v1.233l-1.586-.923.5.293v2.711l-1.006-.586v-2.711l-1.083-.631v-1.233l-1.117-.65Z" transform="translate(-1831.527 -1314.319)" fill="#fff" stroke="gray" stroke-linejoin="round" stroke-width="0.5"/>
        <path id="Path_360" data-name="Path 360" d="M1836.7,1319.705l2.128-1.25,1.116.65-2.128,1.25Z" transform="translate(-1832.413 -1315.523)" fill="#fff" stroke="gray" stroke-linejoin="round" stroke-width="0.5"/>
        <path id="Path_361" data-name="Path 361" d="M1830.654,1316.184l2.128-1.25,1.116.65-2.128,1.25Z" transform="translate(-1830.653 -1314.498)" fill="#fff" stroke="gray" stroke-linejoin="round" stroke-width="0.5"/>
        <g id="Group_110" data-name="Group 110" transform="translate(0 1.25)">
          <path id="Path_362" data-name="Path 362" d="M1833.756,1365.928l1.006.586v2.711l-1.006-.586Z" transform="translate(-1831.556 -1330.589)" fill="#266891"/>
          <path id="Path_363" data-name="Path 363" d="M1832.229,1316.082l3.171,1.847v1.344l-3.171-1.847Z" transform="translate(-1831.112 -1316.082)" fill="#55b6dc"/>
          <path id="Path_364" data-name="Path 364" d="M1832.229,1362.142l3.171,1.847v2.053l-3.171-1.847Z" transform="translate(-1831.112 -1329.487)" fill="#55b6dc"/>
          <path id="Path_365" data-name="Path 365" d="M1831.654,1349.185l3.987,2.322v-30.749l-3.987-2.322Z" transform="translate(-1830.944 -1316.767)" fill="#fff"/>
          <line id="Line_6" data-name="Line 6" x1="3.987" y1="2.322" transform="translate(0.709 4.872)" fill="none" stroke="#266891" stroke-miterlimit="10" stroke-width="1.5"/>
          <line id="Line_7" data-name="Line 7" x1="3.987" y1="2.322" transform="translate(0.709 26.58)" fill="none" stroke="#266891" stroke-miterlimit="10" stroke-width="1.5"/>
          <path id="Path_366" data-name="Path 366" d="M1830.653,1349.086V1316.7l5.4,3.146v32.392Zm1.418-29.923v29.108l2.569,1.5V1320.66Z" transform="translate(-1830.653 -1316.261)" fill="#266891"/>
        </g>
        <path id="Path_367" data-name="Path 367" d="M1834.357,1314.319l-2.128,1.25,3.171,1.847,2.128-1.25Z" transform="translate(-1831.112 -1314.319)" fill="#fff" stroke="gray" stroke-linejoin="round" stroke-width="0.5"/>
        <path id="Path_368" data-name="Path 368" d="M1838.276,1353.013l2.128-1.25v-32.391l-2.128,1.25Z" transform="translate(-1832.872 -1315.79)" fill="#fff" stroke="gray" stroke-linejoin="round" stroke-width="0.5"/>
        <path id="Path_369" data-name="Path 369" d="M1836.7,1367.138l1.052-.618-1.052-.615Z" transform="translate(-1832.413 -1329.332)" fill="#fff" stroke="gray" stroke-linejoin="round" stroke-width="0.5"/>
        <path id="Path_370" data-name="Path 370" d="M1835.174,1369.466l2.128-1.25v-1.445l-1.046.614-1.083-.63Z" transform="translate(-1831.969 -1329.579)" fill="#fff" stroke="gray" stroke-linejoin="round" stroke-width="0.5"/>
      </g>
    </g>
  </g>
</svg>
