<svg xmlns="http://www.w3.org/2000/svg" width="73.262" height="42.86" viewBox="0 0 73.262 42.86">
  <g id="icon" transform="translate(-537.063 -2884.555)">
    <g id="Group_1146" data-name="Group 1146" transform="translate(576.648 2885.555)">
      <g id="Group_1144" data-name="Group 1144" transform="translate(9.838 10.869)">
        <g id="Group_1143" data-name="Group 1143">
          <g id="Group_1142" data-name="Group 1142">
            <g id="Group_1141" data-name="Group 1141">
              <path id="Path_2284" data-name="Path 2284" d="M654.186,2923.889l-5.887-3.623-.679-10.12h13.133l-.679,10.12Z" transform="translate(-647.62 -2910.146)" fill="none" stroke="#53b3dd" stroke-linecap="round" stroke-linejoin="round" stroke-width="2"/>
            </g>
            <path id="Path_2285" data-name="Path 2285" d="M661.347,2944.062l-4.3,8.883-4.3-8.773" transform="translate(-650.478 -2929.072)" fill="none" stroke="#296c92" stroke-linecap="round" stroke-linejoin="round" stroke-width="2"/>
          </g>
        </g>
      </g>
      <line id="Line_50" data-name="Line 50" x1="18.59" transform="translate(7.109 8.582)" fill="none" stroke="#296c92" stroke-linecap="round" stroke-linejoin="round" stroke-width="2"/>
      <g id="Group_1145" data-name="Group 1145" transform="translate(8.779 1.539)">
        <path id="Path_2286" data-name="Path 2286" d="M670.922,2889.037a7.98,7.98,0,0,1,3.892,4.677" transform="translate(-659.564 -2889.037)" fill="none" stroke="#296c92" stroke-linecap="round" stroke-linejoin="round" stroke-width="2"/>
        <path id="Path_2287" data-name="Path 2287" d="M645.224,2893.953a7.979,7.979,0,0,1,3.827-4.777" transform="translate(-645.224 -2889.115)" fill="none" stroke="#296c92" stroke-linecap="round" stroke-linejoin="round" stroke-width="2"/>
      </g>
      <path id="Path_2288" data-name="Path 2288" d="M656.765,2892.653v-7.1h5.048v7.1" transform="translate(-642.885 -2885.555)" fill="none" stroke="#296c92" stroke-linecap="round" stroke-linejoin="round" stroke-width="2"/>
      <path id="Path_2289" data-name="Path 2289" d="M672.455,2947.087l4.166,1.58v6.888h-8.029" transform="translate(-649.485 -2919.891)" fill="none" stroke="#4ab6d9" stroke-linecap="round" stroke-linejoin="round" stroke-width="2"/>
      <path id="Path_2290" data-name="Path 2290" d="M668.187,2971.9H676.4v2.588" transform="translate(-649.259 -2933.739)" fill="none" stroke="#4ab6d9" stroke-linecap="round" stroke-linejoin="round" stroke-width="2"/>
      <path id="Path_2291" data-name="Path 2291" d="M691.907,2963.5v-11.293l2.638,1.592.57,9.7" transform="translate(-662.494 -2922.749)" fill="none" stroke="#266a94" stroke-linecap="round" stroke-linejoin="round" stroke-width="2"/>
      <path id="Path_2292" data-name="Path 2292" d="M641.935,2947.087l-4.166,1.58v6.888H645.8" transform="translate(-632.285 -2919.891)" fill="none" stroke="#4ab6d9" stroke-linecap="round" stroke-linejoin="round" stroke-width="2"/>
      <path id="Path_2293" data-name="Path 2293" d="M645.977,2971.9h-8.208v2.588" transform="translate(-632.285 -2933.739)" fill="none" stroke="#4ab6d9" stroke-linecap="round" stroke-linejoin="round" stroke-width="2"/>
      <path id="Path_2294" data-name="Path 2294" d="M628.57,2963.5v-11.293l-2.638,1.592-.57,9.7" transform="translate(-625.361 -2922.749)" fill="none" stroke="#266a94" stroke-linecap="round" stroke-linejoin="round" stroke-width="2"/>
    </g>
    <g id="Group_1148" data-name="Group 1148" transform="translate(538.063 2886.627)">
      <g id="Group_1147" data-name="Group 1147" transform="translate(10.001 0)">
        <path id="Path_2295" data-name="Path 2295" d="M569.823,2887.981l9.132,5.218H560.691Z" transform="translate(-560.691 -2887.981)" fill="none" stroke="#2c6e93" stroke-linejoin="round" stroke-width="2"/>
        <line id="Line_51" data-name="Line 51" x2="2.609" y2="22.177" transform="translate(18.263 5.218)" fill="none" stroke="#2c6e93" stroke-linejoin="round" stroke-width="2"/>
        <path id="Path_2296" data-name="Path 2296" d="M573.392,2923.862l-5.653-3.479-.652-11.741,6.305.435,6.305-.435-.652,11.741Z" transform="translate(-564.26 -2899.51)" fill="none" stroke="#4ab6d9" stroke-linejoin="round" stroke-width="2"/>
      </g>
      <path id="Path_2297" data-name="Path 2297" d="M545.456,2921.964l-6.088,1.3-1.3,11.089h38.266l-1.3-11.089-13.7-3.044-4.131,2.392-4.131-2.392-8.7,10.871,3.7-31.309" transform="translate(-538.063 -2894.569)" fill="none" stroke="#2c6e93" stroke-linejoin="round" stroke-width="2"/>
    </g>
  </g>
</svg>
