<svg xmlns="http://www.w3.org/2000/svg" width="95.163" height="84.73" viewBox="0 0 95.163 84.73">
  <g id="Group_1077" data-name="Group 1077" transform="translate(0.5 0.5)">
    <path id="Path_2184" data-name="Path 2184" d="M154.841,221.84l30.568-17.9V176.7l-30.568,17.9Z" transform="translate(-92.068 -139.046)" fill="#fff"/>
    <g id="Group_1075" data-name="Group 1075" transform="translate(68.753 49.791)">
      <path id="Path_2185" data-name="Path 2185" d="M178.575,191.563,172,198.14l-6.578,1.127" transform="translate(-162.694 -191.469)" fill="none" stroke="#5eb0c3" stroke-miterlimit="10" stroke-width="1.886"/>
      <path id="Path_2186" data-name="Path 2186" d="M178.575,207.321,172,208.448l-6.578,6.577" transform="translate(-162.694 -194.258)" fill="none" stroke="#5eb0c3" stroke-miterlimit="10" stroke-width="1.886"/>
      <line id="Line_42" data-name="Line 42" y1="10.896" x2="18.606" transform="translate(0 4.983)" fill="none" stroke="#5eb0c3" stroke-miterlimit="10" stroke-width="1.886"/>
      <line id="Line_43" data-name="Line 43" y1="18.606" transform="translate(9.303 1.127)" fill="none" stroke="#5eb0c3" stroke-miterlimit="10" stroke-width="1.886"/>
      <path id="Path_2187" data-name="Path 2187" d="M171.411,192.576l6.578-1.127,2.725,4.983-2.725,8.174-6.578,6.577-6.578,1.127-2.725-4.983,2.725-8.174Z" transform="translate(-162.108 -191.449)" fill="none" stroke="#5eb0c3" stroke-miterlimit="10" stroke-width="1.886"/>
      <path id="Path_2188" data-name="Path 2188" d="M173.412,192.819l3.408.729,1.411,5.751L176.82,206.7l-3.408,4.721" transform="translate(-164.109 -191.691)" fill="none" stroke="#5eb0c3" stroke-miterlimit="10" stroke-width="1.886"/>
      <path id="Path_2189" data-name="Path 2189" d="M172.375,211.425l-3.408-.729-1.412-5.752,1.412-7.4,3.408-4.721" transform="translate(-163.072 -191.691)" fill="none" stroke="#5eb0c3" stroke-miterlimit="10" stroke-width="1.886"/>
    </g>
    <path id="Path_2190" data-name="Path 2190" d="M79.567,182.857l60.3,35.251V190.863l-60.3-35.251Z" transform="translate(-78.744 -135.314)" fill="#fff"/>
    <g id="Group_1076" data-name="Group 1076" transform="translate(9.226 33.698)">
      <path id="Path_2191" data-name="Path 2191" d="M89.779,176v-.038c-.043-2.985.949-4.77,2.419-3.807,1.686,1.1,2.5,4.32,2.541,7.284,0,.234,0,.5-.008.769l-3.514-2.3a3.872,3.872,0,0,0,1.264,2.857c.48.314.824.23,1.209-.273l.841,2.039a1.252,1.252,0,0,1-2.036.6C90.977,182.138,89.825,179.2,89.779,176Zm3.55,1.455a4.023,4.023,0,0,0-1.1-2.922c-.593-.388-.967.237-1.062,1.509Z" transform="translate(-89.777 -171.895)" fill="#266891"/>
      <path id="Path_2192" data-name="Path 2192" d="M96.848,178.743l2.9,1.9.04,2.848-2.9-1.9Z" transform="translate(-91.029 -173.107)" fill="#266891"/>
      <path id="Path_2193" data-name="Path 2193" d="M101.673,178.308l1.431.937.021,1.482c.318-.661.74-1.177,1.465-.7a4.148,4.148,0,0,1,1.447,2.591c.427-.784.947-1.024,1.634-.574,1.064.7,1.724,2.443,1.76,4.959l.1,6.807-1.432-.937-.083-5.832c-.021-1.4-.332-2.324-.87-2.676s-.856.155-.836,1.559l.084,5.833-1.432-.937-.083-5.833c-.021-1.4-.332-2.323-.87-2.676s-.857.154-.836,1.559l.083,5.832-1.432-.937Z" transform="translate(-91.883 -173.03)" fill="#266891"/>
      <path id="Path_2194" data-name="Path 2194" d="M112.342,190.8v-.039c-.044-3,1.09-4.677,2.663-3.647s2.758,4.182,2.8,7.185v.04c.043,3-1.09,4.676-2.664,3.646S112.385,193.8,112.342,190.8Zm4.052,2.652v-.04c-.022-1.541-.579-3.238-1.37-3.756-.82-.536-1.29.449-1.269,1.991v.039c.022,1.541.579,3.238,1.369,3.755C115.944,195.976,116.416,194.99,116.393,193.45Z" transform="translate(-93.771 -174.534)" fill="#266891"/>
      <path id="Path_2195" data-name="Path 2195" d="M119.964,195.2v-.039c-.049-3.492,1.025-4.682,2.222-3.9a4.889,4.889,0,0,1,1.6,2.591l-.074-5.15,1.433.938.2,14.239-1.432-.937-.021-1.5c-.335.747-.8,1.154-1.55.667C121.163,201.338,120.015,198.692,119.964,195.2Zm3.891,2.547v-.039c-.026-1.736-.6-3.251-1.267-3.689s-1.218.324-1.193,2.08v.039c.026,1.736.607,3.257,1.276,3.694S123.88,199.485,123.856,197.749Z" transform="translate(-95.12 -174.87)" fill="#266891"/>
      <path id="Path_2196" data-name="Path 2196" d="M127.67,200.832v-.039c-.043-3,1.09-4.679,2.664-3.647s2.758,4.182,2.8,7.186v.039c.043,3-1.091,4.677-2.664,3.647S127.712,203.835,127.67,200.832Zm4.052,2.652v-.038c-.021-1.541-.579-3.24-1.369-3.756-.82-.538-1.291.448-1.269,1.989v.04c.021,1.54.578,3.237,1.369,3.755C131.272,206.01,131.743,205.025,131.721,203.483Z" transform="translate(-96.484 -176.31)" fill="#266891"/>
      <path id="Path_2197" data-name="Path 2197" d="M135.476,200.437l1.433.938.021,1.482c.318-.662.73-1.184,1.456-.709,1.083.709,1.735,2.6,1.769,5l.1,6.767-1.432-.937-.083-5.831c-.021-1.406-.351-2.336-.9-2.693s-.885.135-.865,1.54l.083,5.832-1.432-.938Z" transform="translate(-97.866 -176.947)" fill="#266891"/>
    </g>
    <path id="Path_2198" data-name="Path 2198" d="M78.567,183.021V153.869l61.95,36.213v29.153Zm1.646-26.283v25.337l58.658,34.29V191.027Z" transform="translate(-78.567 -135.006)" fill="#266891"/>
    <path id="Path_2199" data-name="Path 2199" d="M153.841,193.815l32.213-18.864V204.1l-32.213,18.864Zm30.568-15.993-28.922,16.936V220.1l28.922-16.936Z" transform="translate(-91.891 -138.737)" fill="#55b6dc"/>
    <path id="Path_2200" data-name="Path 2200" d="M110.781,130.949,78.567,149.812l61.949,36.214,32.214-18.864Z" transform="translate(-78.567 -130.949)" fill="#fff" stroke="#919191" stroke-linejoin="round" stroke-width="1"/>
  </g>
</svg>
