<svg xmlns="http://www.w3.org/2000/svg" width="84.718" height="77.583" viewBox="0 0 84.718 77.583">
  <g id="icon" transform="translate(-522.038 -1033.293)">
    <g id="Group_231" data-name="Group 231" transform="translate(522.538 1033.293)">
      <g id="Group_229" data-name="Group 229" transform="translate(0 11.868)">
        <g id="Group_228" data-name="Group 228">
          <path id="Path_740" data-name="Path 740" d="M533.663,1057.714l5.169,2.3,9.577-3.743-5.169-2.3Z" transform="translate(-527.278 -1053.971)" fill="#fff" stroke="gray" stroke-linejoin="round" stroke-width="1"/>
          <path id="Path_741" data-name="Path 741" d="M536.925,1067.4l5.169,2.3-6.715,5.834-5.169-2.3Z" transform="translate(-525.807 -1059.691)" fill="#fff" stroke="gray" stroke-linejoin="round" stroke-width="1"/>
          <path id="Path_742" data-name="Path 742" d="M652.321,1112.086l5.169,2.3h-9.8l-.11-2.3Z" transform="translate(-575.813 -1078.731)" fill="#fff" stroke="gray" stroke-linejoin="round" stroke-width="1"/>
          <path id="Path_743" data-name="Path 743" d="M523.529,1076.22l5.169,2.3-.991,5.945-5.169-2.3Z" transform="translate(-522.538 -1063.45)" fill="#fff" stroke="gray" stroke-linejoin="round" stroke-width="1"/>
          <path id="Path_744" data-name="Path 744" d="M554.529,1128.5l5.169,2.3-3.413-12-5.169-2.3Z" transform="translate(-534.714 -1080.611)" fill="#fff" stroke="gray" stroke-linejoin="round" stroke-width="1"/>
          <path id="Path_745" data-name="Path 745" d="M533.663,1060.493l5.169,2.3,4.734,3.963-5.169-2.3Z" transform="translate(-527.278 -1056.75)" fill="#fff" stroke="gray" stroke-linejoin="round" stroke-width="1"/>
          <path id="Path_746" data-name="Path 746" d="M527.677,1076.99l5.169,2.3-3.413-.771-5.169-2.3Z" transform="translate(-523.274 -1063.45)" fill="#fff" stroke="gray" stroke-linejoin="round" stroke-width="1"/>
          <path id="Path_747" data-name="Path 747" d="M527.632,1088.841l2.245,1,1.945.147,14.458,17.026-5.169-2.3Z" transform="translate(-524.708 -1068.828)" fill="#fff" stroke="gray" stroke-linejoin="round" stroke-width="1"/>
          <path id="Path_748" data-name="Path 748" d="M571.083,1142.123l8.7,13.87-5.169-2.3-7.623-12.158Z" transform="translate(-541.476 -1091.279)" fill="#fff" stroke="gray" stroke-linejoin="round" stroke-width="1"/>
        </g>
        <path id="Path_749" data-name="Path 749" d="M598.255,1091.329h9.8l1.541,2.422-1.651,8.477-10.678,5.064-11.449,2.2-5.174,6.825-13.871-1.1-2.092,5.174-8.7-13.871-4.623-.66-3.413-12-14.458-17.026-1.945-.147.991-5.944,3.413.77,6.715-5.834-4.734-3.963,9.577-3.743,11.342,5.979" transform="translate(-526.375 -1055.677)" fill="#fff" stroke="#266891" stroke-linejoin="round" stroke-width="2"/>
      </g>
      <g id="Group_230" data-name="Group 230" transform="translate(27.489)">
        <path id="Path_750" data-name="Path 750" d="M629.237,1059.575v17.8l9.652,4.758v-17.817Z" transform="translate(-595.486 -1044.491)" fill="#55b6dc"/>
        <path id="Path_751" data-name="Path 751" d="M583.841,1070.294v14.189l-2.611-1.271v-11.633Z" transform="translate(-575.033 -1049.057)" fill="#55b6dc"/>
        <path id="Path_752" data-name="Path 752" d="M613.818,1033.293l7.079,4.736v9.6l-4.936,2.418v28.479l-2.143.646Z" transform="translate(-588.916 -1033.293)" fill="#266891"/>
        <path id="Path_753" data-name="Path 753" d="M589.433,1056.193v6.009l2.573-1.26v16.543l6.651-3.214v-12.388l-4.29-2.105v-6Z" transform="translate(-578.528 -1042.02)" fill="#92c841"/>
        <path id="Path_754" data-name="Path 754" d="M594.339,1122.145l-9.537,4.072h-14.37l19.11-6.121Z" transform="translate(-570.432 -1070.275)" fill="#266891"/>
        <path id="Path_755" data-name="Path 755" d="M630.139,1109.1h3.166l-12.962,5.536-4.4-1.312Z" transform="translate(-589.821 -1065.591)" fill="#55b6dc"/>
        <path id="Path_756" data-name="Path 756" d="M584.4,1109.1l13.956,4.152,1.521.453,4.627,1.378.439.13,19.739,6.317H610.35l-9.81-4.188-.662-.284-4.629-1.975-1.3-.558-12.711-5.425Z" transform="translate(-575.035 -1065.591)" fill="#92c841"/>
      </g>
    </g>
  </g>
</svg>
