<svg xmlns="http://www.w3.org/2000/svg" width="53.764" height="70.918" viewBox="0 0 53.764 70.918">
  <g id="icon" transform="translate(0)">
    <path id="Path_607" data-name="Path 607" d="M829.938,632.271l1.431-1.433-3.034-3.033-1.434,1.433a7.607,7.607,0,0,0-1.579-.65V626.6a3.817,3.817,0,0,0,2.147-3.475,4.3,4.3,0,0,0-2.861-4.04l-.572-.2v3.507l-.858.286-.859-.286v-3.507l-.572.2a4.294,4.294,0,0,0-2.86,4.04,3.817,3.817,0,0,0,2.145,3.475v1.99a7.626,7.626,0,0,0-1.578.65l-1.434-1.434-3.035,3.035,1.434,1.434a7.66,7.66,0,0,0-.655,1.578h-2.026v4.292h2.026a7.722,7.722,0,0,0,.655,1.578l-1.434,1.434,3.035,3.034,1.434-1.433a7.682,7.682,0,0,0,1.578.655v2.026h4.291v-2.026a7.707,7.707,0,0,0,1.578-.655l1.434,1.433,3.035-3.034-1.434-1.434a7.689,7.689,0,0,0,.655-1.578h2.031v-4.291h-2.027A7.661,7.661,0,0,0,829.938,632.271Zm-10.191-9.151a3.435,3.435,0,0,1,1.716-2.968V623l1.716.572L824.9,623v-2.848a3.437,3.437,0,0,1,1.715,2.968,3,3,0,0,1-1.9,2.823l-.245.117v6.929h.858v-.715a4.287,4.287,0,0,1,0,7.429v-5.854h-.858v6.238a4.269,4.269,0,0,1-2.574,0V626.061l-.246-.116A3.008,3.008,0,0,1,819.747,623.12Zm12.014,14.16h-1.836l-.081.328a6.818,6.818,0,0,1-.811,1.954l-.177.288,1.3,1.3-1.819,1.822-1.3-1.3-.288.177a6.844,6.844,0,0,1-1.955.811l-.328.081v1.836h-2.574V642.74l-.328-.081a6.808,6.808,0,0,1-1.956-.81l-.287-.176-1.3,1.3-1.817-1.821,1.3-1.3-.177-.288a6.785,6.785,0,0,1-.81-1.954l-.081-.329H814.6v-2.574h1.837l.081-.328a6.8,6.8,0,0,1,.81-1.954l.177-.288-1.3-1.3,1.82-1.821,1.3,1.3.288-.177a6.8,6.8,0,0,1,1.425-.658v1.835a5.149,5.149,0,1,0,4.291,0v-1.835a6.773,6.773,0,0,1,1.424.658l.288.177,1.3-1.3,1.816,1.822-1.3,1.3.177.288a6.848,6.848,0,0,1,.811,1.954l.08.328h1.837Zm-10.727-5v7.429a4.287,4.287,0,0,1,0-7.429Z" transform="translate(-796.298 -605.503)" fill="#266891"/>
    <g id="Group_39" data-name="Group 39" transform="translate(0 0)">
      <path id="Path_609" data-name="Path 609" d="M825.735,678.381l-1.067-1.168c-1.054-1.154-25.815-28.424-25.815-42.869a26.882,26.882,0,0,1,53.764,0c0,14.445-24.759,41.715-25.815,42.869Zm0-68.026a24.017,24.017,0,0,0-23.99,23.989c0,11.727,19.206,34.283,23.99,39.72,4.785-5.438,23.99-27.993,23.99-39.72A24.016,24.016,0,0,0,825.735,610.355Zm0,43.643a19.654,19.654,0,1,1,19.654-19.654A19.677,19.677,0,0,1,825.735,654Zm0-36.416A16.762,16.762,0,1,0,842.5,634.344,16.782,16.782,0,0,0,825.735,617.582Z" transform="translate(-798.853 -607.463)" fill="#266891"/>
    </g>
  </g>
</svg>
