<svg xmlns="http://www.w3.org/2000/svg" width="96.29" height="70.72" viewBox="0 0 96.29 70.72">
  <g id="icon" transform="translate(-1902.3 -399.78)">
    <path id="Path_752" data-name="Path 752" d="M1997.59,466.286l-46.883,27.068L1903.3,466.013l10.915-6.3v6.326l35.861,20.7,17.931-10.351,17.931-10.35V459.61Z" transform="translate(0 -23.855)" fill="none" stroke="#266891" stroke-linejoin="round" stroke-width="2"/>
    <g id="Group_478" data-name="Group 478" transform="translate(1914.215 400.78)">
      <path id="Path_753" data-name="Path 753" d="M1957.521,456.3V477l-35.861-20.7V435.6l12.449,7.188Z" transform="translate(-1921.66 -414.899)" fill="none" stroke="#266891" stroke-linejoin="round" stroke-width="2"/>
      <path id="Path_754" data-name="Path 754" d="M1975.452,421.481l-2.319,2.681-15.612,18.02-23.412-13.513-12.449-7.188,17.931-20.7Z" transform="translate(-1921.66 -400.78)" fill="none" stroke="#266891" stroke-linejoin="round" stroke-width="2"/>
      <path id="Path_755" data-name="Path 755" d="M2017.841,435.6v20.7l-17.931,10.351L1981.98,477V456.3l15.612-18.02,2.319-2.681Z" transform="translate(-1946.119 -414.899)" fill="none" stroke="#266891" stroke-linejoin="round" stroke-width="2"/>
      <path id="Path_756" data-name="Path 756" d="M2005.612,421.481h-17.931l-35.861-20.7h17.93Z" transform="translate(-1933.889 -400.78)" fill="none" stroke="#266891" stroke-linejoin="round" stroke-width="2"/>
    </g>
  </g>
</svg>
