<svg xmlns="http://www.w3.org/2000/svg" width="84.29" height="83.846" viewBox="0 0 84.29 83.846">
  <g id="icon" transform="translate(-1698.52 -392.26)">
    <path id="Path_738" data-name="Path 738" d="M1781.81,472.305l-53.631,31.019-28.658-16.4,5.63-3.243,22.394,12.931,22.966-13.26,22.966-13.26V467.79Z" transform="translate(0 -28.219)" fill="none" stroke="#266891" stroke-linejoin="round" stroke-width="2"/>
    <g id="Group_474" data-name="Group 474" transform="translate(1727.544 393.26)">
      <path id="Path_739" data-name="Path 739" d="M1797.008,406.52l-17.467,23.532-5.5,7.407V419.774l-12.372-7.14,2.5,1.435,3.828-5.114v-7.562l6.04-8.134Z" transform="translate(-1751.075 -393.26)" fill="none" stroke="#266891" stroke-linejoin="round" stroke-width="2"/>
      <path id="Path_740" data-name="Path 740" d="M1790.552,414.6v35.357l-22.966,13.26-22.966,13.26V458.8l4.592-6.189,6.264-8.438,2.927-3.94,9.184-12.378v17.684l5.5-7.407Z" transform="translate(-1744.62 -401.34)" fill="none" stroke="#266891" stroke-linejoin="round" stroke-width="2"/>
    </g>
    <g id="Group_475" data-name="Group 475" transform="translate(1736.728 396.392)">
      <path id="Path_741" data-name="Path 741" d="M1769.528,401.87v10.346l-3.828,5.114V404.07l.006.006Z" transform="translate(-1761.785 -399.652)" fill="none" stroke="#266891" stroke-linejoin="round" stroke-width="2"/>
      <path id="Path_742" data-name="Path 742" d="M1769.528,401.86v.006l-3.822,2.206-.006-.006Z" transform="translate(-1761.785 -399.648)" fill="none" stroke="#266891" stroke-linejoin="round" stroke-width="2"/>
      <path id="Path_743" data-name="Path 743" d="M1763.315,404.066v13.26l-2.5-1.435-1.4-.814h-.006v-.006l.087-13.211h.006Z" transform="translate(-1759.4 -399.648)" fill="none" stroke="#266891" stroke-linejoin="round" stroke-width="2"/>
      <path id="Path_744" data-name="Path 744" d="M1767.2,400.512v.006l-3.821,2.206-.006-.006-3.821-2.206,3.828-2.212Z" transform="translate(-1759.457 -398.3)" fill="none" stroke="#266891" stroke-linejoin="round" stroke-width="2"/>
    </g>
    <g id="Group_476" data-name="Group 476" transform="translate(1704.578 406.514)">
      <path id="Path_745" data-name="Path 745" d="M1753.592,427.85l-9.184,12.378-2.927,3.94-6.264,8.438-4.592,6.189-7.158-4.132-15.808-9.134,9.184-12.378,3.915,2.256,3.828-5.114v-7.568l6.04-8.134,9.184,5.3v.006h.006l1.4.814Z" transform="translate(-1707.66 -414.59)" fill="none" stroke="#266891" stroke-linejoin="round" stroke-width="2"/>
      <path id="Path_746" data-name="Path 746" d="M1730.626,477.646v17.678l-22.394-12.931-.572-.329V464.38l15.808,9.134Z" transform="translate(-1707.66 -433.441)" fill="none" stroke="#266891" stroke-linejoin="round" stroke-width="2"/>
    </g>
    <g id="Group_477" data-name="Group 477" transform="translate(1713.762 409.652)">
      <path id="Path_747" data-name="Path 747" d="M1732.568,423.2v10.352l-3.828,5.114V425.412Z" transform="translate(-1724.825 -420.988)" fill="none" stroke="#266891" stroke-linejoin="round" stroke-width="2"/>
      <path id="Path_748" data-name="Path 748" d="M1732.568,423.2l-3.828,2.212v-.006Z" transform="translate(-1724.825 -420.988)" fill="none" stroke="#266891" stroke-linejoin="round" stroke-width="2"/>
      <path id="Path_749" data-name="Path 749" d="M1726.355,425.412v13.254l-3.915-2.256.087-13.211h.006Z" transform="translate(-1722.44 -420.988)" fill="none" stroke="#266891" stroke-linejoin="round" stroke-width="2"/>
      <path id="Path_750" data-name="Path 750" d="M1726.412,425.406v.006l-3.822-2.212Z" transform="translate(-1722.497 -420.988)" fill="none" stroke="#266891" stroke-linejoin="round" stroke-width="2"/>
      <path id="Path_751" data-name="Path 751" d="M1730.239,421.852l-3.828,2.212-3.822-2.212,3.822-2.212Z" transform="translate(-1722.497 -419.64)" fill="none" stroke="#266891" stroke-linejoin="round" stroke-width="2"/>
    </g>
  </g>
</svg>
