<svg xmlns="http://www.w3.org/2000/svg" width="96.291" height="89.605" viewBox="0 0 96.291 89.605">
  <g id="icon" transform="translate(-1289.612 -387.14)">
    <path id="Path_708" data-name="Path 708" d="M1376.831,474.574l8.072,4.608-46.493,26.705-47.8-27.46,7.36-4.229" transform="translate(0 -30.142)" fill="none" stroke="#266891" stroke-linejoin="round" stroke-width="2"/>
    <g id="Group_462" data-name="Group 462" transform="translate(1294.935 388.14)">
      <path id="Path_709" data-name="Path 709" d="M1305.138,434.627l-7.872,4.545,42.79,24.706,42.791-24.706-42.791-24.7-4.62,2.667" transform="translate(-1297.266 -397.361)" fill="none" stroke="#266891" stroke-linejoin="round" stroke-width="2"/>
      <path id="Path_710" data-name="Path 710" d="M1333.609,430.648l-2.759,1.593" transform="translate(-1309.029 -403.028)" fill="none" stroke="#266891" stroke-linejoin="round" stroke-width="2"/>
      <path id="Path_711" data-name="Path 711" d="M1405.914,452.489v12.353l-42.791,24.705V477.194Z" transform="translate(-1320.332 -410.678)" fill="none" stroke="#266891" stroke-linejoin="round" stroke-width="2"/>
      <path id="Path_712" data-name="Path 712" d="M1340.057,477.194l-42.79-24.7v12.353l42.79,24.705Z" transform="translate(-1297.266 -410.678)" fill="none" stroke="#266891" stroke-linejoin="round" stroke-width="2"/>
      <path id="Path_713" data-name="Path 713" d="M1341.444,398.248l-6.9-3.981v23.887l6.9,3.98Z" transform="translate(-1310.324 -390.286)" fill="none" stroke="#266891" stroke-linecap="round" stroke-linejoin="round" stroke-width="2"/>
      <path id="Path_714" data-name="Path 714" d="M1345.16,422.135l7.052-4.058-.156-23.809-6.9,3.981Z" transform="translate(-1314.041 -390.286)" fill="none" stroke="#266891" stroke-linecap="round" stroke-linejoin="round" stroke-width="2"/>
      <path id="Path_715" data-name="Path 715" d="M1348.339,392.122l-6.9-3.982-6.9,3.982,6.9,3.981Z" transform="translate(-1310.324 -388.14)" fill="none" stroke="#266891" stroke-linecap="round" stroke-linejoin="round" stroke-width="2"/>
      <path id="Path_716" data-name="Path 716" d="M1316.278,412.774l-6.9-3.981V432.68l6.9,3.981Z" transform="translate(-1301.51 -395.374)" fill="none" stroke="#266891" stroke-linejoin="round" stroke-width="2"/>
      <path id="Path_717" data-name="Path 717" d="M1320,436.662l7.052-4.059-.156-23.81-6.9,3.981Z" transform="translate(-1305.227 -395.374)" fill="none" stroke="#266891" stroke-linejoin="round" stroke-width="2"/>
      <path id="Path_718" data-name="Path 718" d="M1323.173,406.647l-6.9-3.981-6.9,3.981,6.9,3.981Z" transform="translate(-1301.509 -393.228)" fill="none" stroke="#266891" stroke-linejoin="round" stroke-width="2"/>
    </g>
  </g>
</svg>
