<svg xmlns="http://www.w3.org/2000/svg" width="96.29" height="93.631" viewBox="0 0 96.29 93.631">
  <g id="icon" transform="translate(-1471.08 -381.232)">
    <g id="Group_472" data-name="Group 472" transform="translate(1472.08 412.203)">
      <path id="Path_726" data-name="Path 726" d="M1562.972,451.557l-1.442.916a8.534,8.534,0,0,0,1.235-1.033Z" transform="translate(-1503.411 -436.425)" fill="none" stroke="#266891" stroke-linejoin="round" stroke-width="2"/>
      <path id="Path_727" data-name="Path 727" d="M1566.37,479.335l-46.5,26.7-47.795-27.458,7.712-4.431,39.4,22.747,38.75-22.371Z" transform="translate(-1472.08 -444.379)" fill="none" stroke="#266891" stroke-linejoin="round" stroke-width="2"/>
      <g id="Group_471" data-name="Group 471" transform="translate(4.321)">
        <path id="Path_728" data-name="Path 728" d="M1521.522,476.83v12.352l-39.4-22.747-3.392-1.956V452.12l14.119,8.154Z" transform="translate(-1478.73 -436.663)" fill="none" stroke="#266891" stroke-linejoin="round" stroke-width="2"/>
        <path id="Path_729" data-name="Path 729" d="M1587.382,452.12v12.358l-4.041,2.333-38.75,22.371V476.83l27.991-16.165Z" transform="translate(-1501.798 -436.663)" fill="none" stroke="#266891" stroke-linejoin="round" stroke-width="2"/>
        <path id="Path_730" data-name="Path 730" d="M1564.313,443.787l-14.8,8.544L1521.522,468.5l-28.673-16.555-14.119-8.154L1505.5,428.33a40.507,40.507,0,0,0,2.982,4.964l-5.692,3.288,6.244,3.6v.006l2.131,1.228,22.845,13.2,6.25-3.606-9.733-5.62a8.377,8.377,0,0,0,2-1.007l1.442-.916,2.67-1.709h-.013c3.021-1.878,4.88-5.659,4.893-10.968v-.156Z" transform="translate(-1478.73 -428.33)" fill="none" stroke="#266891" stroke-linejoin="round" stroke-width="2"/>
        <path id="Path_731" data-name="Path 731" d="M1522,436.743v6.114l-6.244-3.6,5.692-3.288C1521.627,436.23,1521.809,436.49,1522,436.743Z" transform="translate(-1491.7 -431.006)" fill="none" stroke="#266891" stroke-linejoin="round" stroke-width="2"/>
        <path id="Path_732" data-name="Path 732" d="M1562.972,451.557l-1.442.916a8.534,8.534,0,0,0,1.235-1.033Z" transform="translate(-1507.732 -436.425)" fill="none" stroke="#266891" stroke-linejoin="round" stroke-width="2"/>
        <g id="Group_470" data-name="Group 470" transform="translate(24.06 4.964)">
          <path id="Path_733" data-name="Path 733" d="M1556.6,454.1l-6.25,3.606-22.845-13.2-2.131-1.228v-6.12a37.21,37.21,0,0,0,5.061,5.666,28.5,28.5,0,0,0,5.2,3.814c4.256,2.4,8.167,2.924,11.234,1.839Z" transform="translate(-1519.126 -436.387)" fill="none" stroke="#266891" stroke-linejoin="round" stroke-width="2"/>
          <path id="Path_734" data-name="Path 734" d="M1522,436.743v6.114l-6.244-3.6,5.692-3.288C1521.627,436.23,1521.809,436.49,1522,436.743Z" transform="translate(-1515.76 -435.97)" fill="none" stroke="#266891" stroke-linejoin="round" stroke-width="2"/>
        </g>
      </g>
    </g>
    <g id="Group_473" data-name="Group 473" transform="translate(1499.259 382.286)">
      <path id="Path_735" data-name="Path 735" d="M1556.557,414.5v.156c-.013,5.308-1.871,9.09-4.893,10.968h.013l-2.67,1.709-.208-.117c2.1-2.092,3.333-5.406,3.346-9.733a26.519,26.519,0,0,0-.682-5.926c-2.105-9.538-8.921-19.5-17.023-24.073-5.01-2.826-9.545-3.054-12.78-1.124l3.547-2.235a8.61,8.61,0,0,1,1.377-.864l.046-.026c3.2-1.585,7.5-1.241,12.228,1.429C1548.618,390.183,1556.512,403.509,1556.557,414.5Z" transform="translate(-1516.625 -382.286)" fill="none" stroke="#266891" stroke-linejoin="round" stroke-width="2"/>
      <path id="Path_736" data-name="Path 736" d="M1562.972,451.557l-1.442.916a8.534,8.534,0,0,0,1.235-1.033Z" transform="translate(-1530.589 -406.508)" fill="none" stroke="#266891" stroke-linejoin="round" stroke-width="2"/>
      <path id="Path_737" data-name="Path 737" d="M1549.431,419c-.013,4.327-1.247,7.641-3.346,9.733a8.537,8.537,0,0,1-1.234,1.033,8.383,8.383,0,0,1-2,1.007c-3.067,1.085-6.978.565-11.234-1.839a28.5,28.5,0,0,1-5.2-3.814,37.217,37.217,0,0,1-5.062-5.666c-.195-.253-.377-.513-.552-.773a40.492,40.492,0,0,1-2.982-4.964,33.2,33.2,0,0,1-3.911-14.782c.013-5.393,1.93-9.213,5.036-11.059,3.236-1.93,7.771-1.7,12.78,1.124,8.1,4.574,14.918,14.535,17.023,24.073A26.505,26.505,0,0,1,1549.431,419Z" transform="translate(-1513.91 -383.806)" fill="none" stroke="#266891" stroke-linejoin="round" stroke-width="2"/>
    </g>
  </g>
</svg>
