<svg xmlns="http://www.w3.org/2000/svg" width="13.938" height="10.468" viewBox="0 0 13.938 10.468">
  <path id="Shape_40" data-name="Shape 40" d="M1407.228,553.01h-10.541l3.255,3.188a.346.346,0,0,1,.087.268.352.352,0,0,1-.1.282l-.6.612a.3.3,0,0,1-.249.1.307.307,0,0,1-.25-.1l-4.72-4.9a.323.323,0,0,1-.1-.258.316.316,0,0,1,.1-.253l4.639-4.852a.354.354,0,0,1,.5,0l.6.612a.444.444,0,0,1,0,.564l-3.187,3.275h10.575a.724.724,0,0,1,.717.732h0A.724.724,0,0,1,1407.228,553.01Z" transform="translate(-1394.006 -546.993)" fill="#fff"/>
</svg>
