<svg xmlns="http://www.w3.org/2000/svg" width="136" height="126.498" viewBox="0 0 136 126.498">
  <g id="icon" transform="translate(-1289.612 -387.14)">
    <path id="Path_708" data-name="Path 708" d="M1413.14,474.732l11.472,6.549-66.073,37.952-67.927-39.024,10.46-6.009" transform="translate(0 -6.594)" fill="none" stroke="#fff" stroke-linejoin="round" stroke-width="2"/>
    <g id="Group_462" data-name="Group 462" transform="translate(1296.756 388.14)">
      <path id="Path_709" data-name="Path 709" d="M1308.454,443.117l-11.188,6.459,60.811,35.111,60.811-35.111-60.811-35.109-6.565,3.79" transform="translate(-1297.266 -390.157)" fill="none" stroke="#fff" stroke-linejoin="round" stroke-width="2"/>
      <path id="Path_710" data-name="Path 710" d="M1334.771,430.648l-3.922,2.264" transform="translate(-1299.839 -391.397)" fill="none" stroke="#fff" stroke-linejoin="round" stroke-width="2"/>
      <path id="Path_711" data-name="Path 711" d="M1423.934,452.489v17.555l-60.811,35.11V487.6Z" transform="translate(-1302.312 -393.07)" fill="none" stroke="#fff" stroke-linejoin="round" stroke-width="2"/>
      <path id="Path_712" data-name="Path 712" d="M1358.077,487.6l-60.811-35.109v17.555l60.811,35.11Z" transform="translate(-1297.266 -393.07)" fill="none" stroke="#fff" stroke-linejoin="round" stroke-width="2"/>
      <path id="Path_713" data-name="Path 713" d="M1344.348,399.925l-9.8-5.658v33.947l9.8,5.657Z" transform="translate(-1300.123 -388.609)" fill="none" stroke="#fff" stroke-linecap="round" stroke-linejoin="round" stroke-width="2"/>
      <path id="Path_714" data-name="Path 714" d="M1345.16,433.871l10.021-5.767-.222-33.836-9.8,5.658Z" transform="translate(-1300.936 -388.609)" fill="none" stroke="#fff" stroke-linecap="round" stroke-linejoin="round" stroke-width="2"/>
      <path id="Path_715" data-name="Path 715" d="M1354.147,393.8l-9.8-5.658-9.8,5.658,9.8,5.658Z" transform="translate(-1300.123 -388.14)" fill="none" stroke="#fff" stroke-linecap="round" stroke-linejoin="round" stroke-width="2"/>
      <path id="Path_716" data-name="Path 716" d="M1319.182,414.451l-9.8-5.658V442.74l9.8,5.658Z" transform="translate(-1298.194 -389.722)" fill="none" stroke="#fff" stroke-linejoin="round" stroke-width="2"/>
      <path id="Path_717" data-name="Path 717" d="M1320,448.4l10.021-5.768-.222-33.837-9.8,5.658Z" transform="translate(-1299.007 -389.722)" fill="none" stroke="#fff" stroke-linejoin="round" stroke-width="2"/>
      <path id="Path_718" data-name="Path 718" d="M1328.981,408.324l-9.8-5.658-9.8,5.658,9.8,5.658Z" transform="translate(-1298.194 -389.253)" fill="none" stroke="#fff" stroke-linejoin="round" stroke-width="2"/>
    </g>
  </g>
</svg>
