<svg xmlns="http://www.w3.org/2000/svg" width="89.263" height="93.656" viewBox="0 0 89.263 93.656">
  <g id="_3PLWarehouse-icon" data-name="3PLWarehouse-icon" transform="translate(-276.476 -56.445)">
    <g id="Group_766" data-name="Group 766" transform="translate(277.476 57.445)">
      <g id="Group_763" data-name="Group 763">
        <path id="Path_1742" data-name="Path 1742" d="M381.886,82.69l-43.632,24.455-24.8-23.661,43.632-24.455Z" transform="translate(-294.623 -58.235)" fill="#fff" stroke="#929497" stroke-linejoin="round" stroke-width="2"/>
        <path id="Path_1743" data-name="Path 1743" d="M339.935,58.239,296.3,82.694,277.476,81.9l43.632-24.455Z" transform="translate(-277.476 -57.445)" fill="#fff" stroke="#929497" stroke-linejoin="round" stroke-width="2"/>
        <path id="Path_1744" data-name="Path 1744" d="M404.477,106.236,360.846,130.69v42.747l43.632-24.455Z" transform="translate(-317.214 -81.781)" fill="#fff" stroke="#929497" stroke-linejoin="round" stroke-width="2"/>
        <path id="Path_1745" data-name="Path 1745" d="M277.476,148.982V106.236l18.827.819,24.8,23.635v42.747Z" transform="translate(-277.476 -81.781)" fill="#fff" stroke="#2d6c8e" stroke-linejoin="round" stroke-width="2"/>
      </g>
      <g id="Group_765" data-name="Group 765" transform="translate(9.566 30.285)">
        <path id="Path_1746" data-name="Path 1746" d="M310.123,133.167a.535.535,0,0,0,.178-.03.5.5,0,0,0,.345-.471v-4.349a.524.524,0,0,0-1.047,0v2.961l-1.621-1.87a.522.522,0,0,0-.418-.181l-2.008.056v-5.838a.524.524,0,0,0-1.047,0V129.8a.491.491,0,0,0,.159.36.532.532,0,0,0,.38.141l2.292-.065,2.384,2.75A.535.535,0,0,0,310.123,133.167Z" transform="translate(-299.925 -120.4)" fill="#49b5d8"/>
        <path id="Path_1747" data-name="Path 1747" d="M310.331,165.76a.547.547,0,0,0,.178-.03.5.5,0,0,0,.345-.471V160.91a.524.524,0,0,0-1.047,0v2.96L308.187,162a.522.522,0,0,0-.418-.181l-2.008.057v-5.838a.524.524,0,0,0-1.047,0v6.354a.49.49,0,0,0,.159.359.52.52,0,0,0,.38.141l2.292-.064,2.383,2.749A.533.533,0,0,0,310.331,165.76Z" transform="translate(-300.025 -136.657)" fill="#49b5d8"/>
        <path id="Path_1748" data-name="Path 1748" d="M310.268,143.03l-14.255-7.955a.5.5,0,0,1-.26-.433V118.369a.5.5,0,0,1,.263-.435.542.542,0,0,1,.524,0l14.255,7.955a.5.5,0,0,1,.26.433V142.6a.5.5,0,0,1-.263.435.538.538,0,0,1-.261.067A.545.545,0,0,1,310.268,143.03ZM296.8,119.242v15.112l13.208,7.371V126.613Z" transform="translate(-295.754 -117.868)" fill="#49b5d8"/>
        <path id="Path_1749" data-name="Path 1749" d="M310.268,175.53l-14.255-7.955a.5.5,0,0,1-.26-.433V150.869a.5.5,0,0,1,.263-.435.544.544,0,0,1,.524,0l14.255,7.955a.5.5,0,0,1,.26.433V175.1a.5.5,0,0,1-.263.435.538.538,0,0,1-.261.067A.545.545,0,0,1,310.268,175.53ZM296.8,151.742v15.112l13.208,7.371V159.112Z" transform="translate(-295.754 -134.079)" fill="#49b5d8"/>
        <g id="Group_764" data-name="Group 764" transform="translate(7.174 23.206)">
          <path id="Path_1750" data-name="Path 1750" d="M309.462,173.923l1.386-.908a5.946,5.946,0,0,0,2.212,2.728c.758.445,1.3.2,1.3-.689v-.034a3.153,3.153,0,0,0-1.793-2.567l-.837-.491-.314-1.854,2.185-1.583-3.6-2.109v-2.249l6.189,3.627v1.977l-2.316,1.522a6.088,6.088,0,0,1,2.46,4.782v.034c0,2.249-1.257,3.166-3.3,1.97A9.193,9.193,0,0,1,309.462,173.923Z" transform="translate(-309.462 -164.167)" fill="#2d687f"/>
          <path id="Path_1751" data-name="Path 1751" d="M326.136,173.744l3.742,2.193a7.273,7.273,0,0,1,3.507,6.18v.034c0,2.76-1.649,3.225-3.7,2.021l-1.531-.9v3.579l-2.015-1.181Zm3.612,8.132c1.007.59,1.6.152,1.6-.871v-.035a3.17,3.17,0,0,0-1.635-2.764l-1.557-.913v3.646Z" transform="translate(-317.41 -168.944)" fill="#2d687f"/>
          <path id="Path_1752" data-name="Path 1752" d="M342.838,183.965l2.015,1.181v9.542l4.567,2.677v2.386l-6.582-3.858Z" transform="translate(-325.371 -174.042)" fill="#2d687f"/>
        </g>
      </g>
    </g>
  </g>
</svg>
