<svg xmlns="http://www.w3.org/2000/svg" width="79.674" height="95.334" viewBox="0 0 79.674 95.334">
  <g id="Banking-services-icon" transform="translate(-70.752 -341.04)">
    <g id="Group_640" data-name="Group 640" transform="translate(70.752 341.54)">
      <g id="Group_632" data-name="Group 632" transform="translate(26.242)">
        <path id="Path_1258" data-name="Path 1258" d="M130.257,366.044l-3.539-2.058.083-7.32,3.539,2.058a19.921,19.921,0,0,1,.808-3.468l-3.034-4.191,2.754-4.779,3.037,4.2a8.751,8.751,0,0,1,2.13-1.643l-1.722-5.21,4.687-.959,1.72,5.2a11.294,11.294,0,0,1,2.878.625l.055-4.83,5.364,3.119-.055,4.83a26.83,26.83,0,0,1,2.854,2.708l1.814-3.149,4.6,6.36-1.817,3.153a42.758,42.758,0,0,1,2.064,4.081l3.091-.633,2.61,7.9-3.089.632a37.936,37.936,0,0,1,.719,4.356l3.539,2.057-.083,7.32-3.539-2.058a19.894,19.894,0,0,1-.807,3.468L163.958,392l-2.754,4.78-3.037-4.2a8.737,8.737,0,0,1-2.129,1.642l1.721,5.21-4.687.959-1.72-5.2a11.292,11.292,0,0,1-2.879-.625l-.055,4.83-5.364-3.118.055-4.83a27,27,0,0,1-2.855-2.708l-1.814,3.149-4.6-6.361,1.817-3.153a42.682,42.682,0,0,1-2.064-4.081l-3.092.633-2.61-7.9,3.089-.631A38.093,38.093,0,0,1,130.257,366.044Z" transform="translate(-113.122 -341.865)" fill="#fff" stroke="#929497" stroke-linejoin="round" stroke-width="1"/>
        <path id="Path_1259" data-name="Path 1259" d="M129.323,366.142l-3.586-2.085.1-8.915,3.7,2.153a20.125,20.125,0,0,1,.557-2.242l-3.09-4.27,3.514-6.1,3.2,4.418a9.4,9.4,0,0,1,1.2-.9l-1.79-5.419,6.056-1.239,1.772,5.362a11.727,11.727,0,0,1,1.678.332l.058-5.089,6.743,3.92-.056,4.9a27.259,27.259,0,0,1,2.022,1.878l1.885-3.27,5.5,7.593-1.843,3.2c.6,1.059,1.157,2.162,1.671,3.287l3.151-.645,3.048,9.225-3.165.648c.232,1.13.415,2.266.544,3.393l3.586,2.085-.1,8.914-3.7-2.151a20.2,20.2,0,0,1-.557,2.242l3.09,4.27-3.513,6.1-3.2-4.418a9.4,9.4,0,0,1-1.2.9l1.79,5.419-6.056,1.239-1.772-5.362a11.824,11.824,0,0,1-1.678-.332l-.058,5.089-6.743-3.92.056-4.9a27.094,27.094,0,0,1-2.022-1.878l-1.884,3.27-5.5-7.592,1.842-3.2c-.6-1.059-1.157-2.162-1.671-3.287l-3.151.645-3.048-9.225,3.166-.648C129.635,368.405,129.452,367.269,129.323,366.142Z" transform="translate(-112.839 -341.54)" fill="#fff" stroke="#929497" stroke-linejoin="round" stroke-width="1"/>
        <path id="Path_1260" data-name="Path 1260" d="M139.405,341.54l-12.9,7.342,1.772,5.362,12.9-7.342Z" transform="translate(-113.061 -341.54)" fill="#fff" stroke="#929497" stroke-linejoin="round" stroke-width="1"/>
        <path id="Path_1261" data-name="Path 1261" d="M129,356.414s1.084.162,1.678.332l12.9-7.342a12.247,12.247,0,0,0-1.678-.332Z" transform="translate(-113.778 -343.71)" fill="#fff" stroke="#929497" stroke-linejoin="round" stroke-width="1"/>
        <path id="Path_1262" data-name="Path 1262" d="M138.178,353.652l12.9-7.342-6.743-3.92-12.9,7.342Z" transform="translate(-114.481 -341.785)" fill="#fff" stroke="#929497" stroke-linejoin="round" stroke-width="1"/>
        <path id="Path_1263" data-name="Path 1263" d="M153.782,347.9l-12.9,7.342-.056,4.9,12.9-7.342Z" transform="translate(-117.188 -343.372)" fill="#fff" stroke="#929497" stroke-linejoin="round" stroke-width="1"/>
        <path id="Path_1264" data-name="Path 1264" d="M153.726,354.784l-12.9,7.343s1.336,1.164,2.022,1.877l12.9-7.342S154.414,355.339,153.726,354.784Z" transform="translate(-117.188 -345.356)" fill="#fff" stroke="#929497" stroke-linejoin="round" stroke-width="1"/>
        <path id="Path_1265" data-name="Path 1265" d="M159.214,352.828l-12.9,7.342,5.5,7.593,12.9-7.342Z" transform="translate(-118.769 -344.793)" fill="#fff" stroke="#929497" stroke-linejoin="round" stroke-width="1"/>
        <g id="Group_631" data-name="Group 631" transform="translate(0 7.342)">
          <path id="Path_1266" data-name="Path 1266" d="M108.6,374.3l.083-7.32,3.539,2.058a19.99,19.99,0,0,1,.808-3.468L110,361.378l2.754-4.779,3.037,4.2a8.759,8.759,0,0,1,2.13-1.643l-1.721-5.21,4.687-.959,1.72,5.2a11.324,11.324,0,0,1,2.878.624l.056-4.829L130.9,357.1l-.055,4.83a26.771,26.771,0,0,1,2.854,2.708l1.815-3.149,4.6,6.36L138.3,371a42.941,42.941,0,0,1,2.065,4.081l3.091-.633,2.61,7.9-3.088.632a38.1,38.1,0,0,1,.719,4.356l3.539,2.057-.083,7.32-3.539-2.058a19.958,19.958,0,0,1-.808,3.468l3.034,4.191-2.754,4.78-3.037-4.2a8.757,8.757,0,0,1-2.13,1.642l1.721,5.21-4.687.959-1.72-5.2a11.3,11.3,0,0,1-2.879-.625l-.055,4.83-5.364-3.119.055-4.83a26.847,26.847,0,0,1-2.854-2.708l-1.815,3.15-4.6-6.361,1.817-3.153a42.857,42.857,0,0,1-2.065-4.081l-3.091.633-2.61-7.9,3.088-.631a38.1,38.1,0,0,1-.719-4.356Z" transform="translate(-107.901 -352.179)" fill="#fff"/>
          <ellipse id="Ellipse_15" data-name="Ellipse 15" cx="8.916" cy="15.714" rx="8.916" ry="15.714" transform="matrix(0.93, -0.367, 0.367, 0.93, 5.914, 18.294)" fill="#fff" stroke="#49b5d8" stroke-miterlimit="10" stroke-width="1.95"/>
          <g id="Group_630" data-name="Group 630" transform="translate(13.853 18.935)">
            <path id="Path_1267" data-name="Path 1267" d="M127.079,389.069l.894-1.493a7.966,7.966,0,0,0,1.868,3.339c.577.489.94.28.962-.547v-.041c.021-.787-.187-1.377-1.243-2.891a8.972,8.972,0,0,1-2.007-6.119v-.041c.07-2.563,1.051-3.465,2.362-2.355a9,9,0,0,1,2.333,3.815l-.8,1.719a7.735,7.735,0,0,0-1.63-2.805c-.54-.458-.839-.154-.858.532v.041c-.026.928.241,1.464,1.333,3.028a9.158,9.158,0,0,1,1.918,5.962v.04c-.077,2.805-1.091,3.556-2.475,2.383A10.455,10.455,0,0,1,127.079,389.069Z" transform="translate(-127.079 -378.455)" fill="#2d687f"/>
            <path id="Path_1268" data-name="Path 1268" d="M136.242,383.92l2.932,2.485a6.326,6.326,0,0,1,1.83,3.017,11.625,11.625,0,0,1,.461,3.694v.041c-.062,2.279-.66,3.238-1.494,3.213l1.429,6.372-1.649-1.4L138.5,395.66l-1.109-.939-.124,4.519-1.411-1.2Zm2.653,9.267c.687.582,1.1.11,1.135-1.081v-.041a3.657,3.657,0,0,0-1.054-2.957l-1.4-1.188-.11,4.055Z" transform="translate(-129.608 -380.03)" fill="#2d687f"/>
          </g>
          <path id="Path_1269" data-name="Path 1269" d="M132.434,405.828a11.718,11.718,0,0,1-1.677-.332l-.058,5.089-6.743-3.92.056-4.9a27.368,27.368,0,0,1-2.022-1.878l-1.884,3.27-5.5-7.592,1.842-3.2c-.6-1.059-1.157-2.162-1.67-3.287l-3.152.645-3.048-9.225,3.166-.648c-.233-1.129-.415-2.266-.545-3.392l-3.586-2.085.1-8.915,3.7,2.152a20,20,0,0,1,.557-2.242l-3.09-4.27L112.4,355l3.2,4.418a9.348,9.348,0,0,1,1.2-.9l-1.791-5.42,6.056-1.239,1.771,5.362a11.809,11.809,0,0,1,1.678.332l.058-5.089,6.743,3.92-.056,4.9a27.36,27.36,0,0,1,2.022,1.877l1.884-3.27,5.5,7.593-1.842,3.2c.6,1.059,1.156,2.162,1.67,3.287l3.152-.645,3.048,9.226-3.166.648c.233,1.129.415,2.266.545,3.392l3.586,2.085-.1,8.915-3.7-2.152a20.191,20.191,0,0,1-.557,2.242l3.09,4.27-3.513,6.1-3.2-4.418a9.4,9.4,0,0,1-1.2.9l1.791,5.419-6.056,1.24Zm4.362-1.943.508-.277a8.067,8.067,0,0,0,1.961-1.513l.575-.6,2.9,4,2-3.461-2.98-4.117.114-.338a19.338,19.338,0,0,0,.779-3.347l.148-1.016,3.4,1.975.065-5.725-3.494-2.032-.037-.35a37.411,37.411,0,0,0-.706-4.276l-.155-.69,3.017-.617-2.172-6.572-3.035.621-.226-.512a42.377,42.377,0,0,0-2.032-4.015l-.2-.347,1.792-3.109L135.3,362.44l-1.753,3.042-.641-.7a26.212,26.212,0,0,0-2.78-2.638l-.259-.211.054-4.76-3.986-2.317-.052,4.606-.912-.319a10.629,10.629,0,0,0-2.7-.588l-.462-.035-1.671-5.058-3.318.679,1.659,5.018-.508.278A8.072,8.072,0,0,0,116,360.949l-.575.6-2.9-4-2,3.462,2.98,4.117-.114.339a19.307,19.307,0,0,0-.779,3.347l-.148,1.016-3.4-1.975-.065,5.725,3.494,2.032.037.35a37.382,37.382,0,0,0,.706,4.276l.155.69-3.017.617,2.172,6.571,3.035-.621.226.512a42.3,42.3,0,0,0,2.032,4.015l.2.346-1.792,3.11,3.712,5.129,1.753-3.043.641.7a26.146,26.146,0,0,0,2.78,2.639l.259.211-.054,4.759,3.986,2.317.052-4.6.912.319a10.653,10.653,0,0,0,2.7.587l.462.035,1.671,5.058,3.318-.678Z" transform="translate(-107.618 -351.854)" fill="#2d6c8e"/>
        </g>
        <path id="Path_1270" data-name="Path 1270" d="M171.119,371.7l-12.9,7.342,3.048,9.226,12.9-7.342Z" transform="translate(-122.2 -350.231)" fill="#fff" stroke="#929497" stroke-linejoin="round" stroke-width="1"/>
        <path id="Path_1271" data-name="Path 1271" d="M166.188,363.495l-12.9,7.342-1.843,3.2,12.9-7.342Z" transform="translate(-120.248 -347.867)" fill="#fff" stroke="#929497" stroke-linejoin="round" stroke-width="1"/>
        <path id="Path_1272" data-name="Path 1272" d="M164.345,367.987l-12.9,7.342s1.233,2.3,1.67,3.287l12.9-7.342S164.667,368.435,164.345,367.987Z" transform="translate(-120.248 -349.161)" fill="#fff" stroke="#929497" stroke-linejoin="round" stroke-width="1"/>
        <path id="Path_1273" data-name="Path 1273" d="M166.692,372.344l-12.9,7.342,3.152-.645,12.9-7.342Z" transform="translate(-120.924 -350.231)" fill="#fff" stroke="#929497" stroke-linejoin="round" stroke-width="1"/>
        <path id="Path_1274" data-name="Path 1274" d="M176.715,393.264l-12.9,7.342-.1,8.915,12.9-7.342Z" transform="translate(-123.784 -356.445)" fill="#fff" stroke="#929497" stroke-linejoin="round" stroke-width="1"/>
        <path id="Path_1275" data-name="Path 1275" d="M171.5,389.383l-12.9,7.342s-.32-2.306-.545-3.392l3.166-.648,9.931-5.653S171.381,388.313,171.5,389.383Z" transform="translate(-122.153 -354.649)" fill="#fff" stroke="#929497" stroke-linejoin="round" stroke-width="1"/>
        <path id="Path_1276" data-name="Path 1276" d="M171.718,390.335l-12.9,7.342,3.586,2.085,12.9-7.342Z" transform="translate(-122.373 -355.601)" fill="#fff" stroke="#929497" stroke-linejoin="round" stroke-width="1"/>
        <path id="Path_1277" data-name="Path 1277" d="M173.722,410.853l-12.9,7.342-3.09-4.269,2.232-1.271,2.027,1.18,9.835-5.6Z" transform="translate(-122.06 -360.76)" fill="#fff" stroke="#929497" stroke-linejoin="round" stroke-width="1"/>
        <path id="Path_1278" data-name="Path 1278" d="M159.966,414.051l-1.674-.972a22.179,22.179,0,0,1-.557,2.242Z" transform="translate(-122.06 -362.155)" fill="#fff" stroke="#929497" stroke-linejoin="round" stroke-width="1"/>
        <path id="Path_1279" data-name="Path 1279" d="M173.55,411.913l-12.9,7.342-3.513,6.1,12.9-7.342Z" transform="translate(-121.889 -361.819)" fill="#fff" stroke="#929497" stroke-linejoin="round" stroke-width="1"/>
        <path id="Path_1280" data-name="Path 1280" d="M165.649,423.011l-12.9,7.342-1.791-5.419,1.314-.748,3.085,4.262,10.173-5.791Z" transform="translate(-120.108 -364.915)" fill="#fff" stroke="#929497" stroke-linejoin="round" stroke-width="1"/>
        <path id="Path_1281" data-name="Path 1281" d="M152.161,424.587a11.443,11.443,0,0,1-1.2.9l1.314-.747Z" transform="translate(-120.108 -365.471)" fill="#fff" stroke="#929497" stroke-linejoin="round" stroke-width="1"/>
        <path id="Path_1282" data-name="Path 1282" d="M136.954,341.54l-6.056,1.239L118,350.121l6.056-1.239Z" transform="translate(-110.61 -341.54)" fill="#fff" stroke="#929497" stroke-linejoin="round" stroke-width="1"/>
        <path id="Path_1283" data-name="Path 1283" d="M114.337,355.644l2.723-1.55,1.675,5.065a13.422,13.422,0,0,0-1.2.9Z" transform="translate(-109.554 -345.158)" fill="#fff" stroke="#929497" stroke-linejoin="round" stroke-width="1"/>
        <path id="Path_1284" data-name="Path 1284" d="M107.76,370.258l3.061-1.743,1.2,1.652s-.32,1.043-.557,2.242Z" transform="translate(-107.659 -349.313)" fill="#fff" stroke="#929497" stroke-linejoin="round" stroke-width="1"/>
        <path id="Path_1285" data-name="Path 1285" d="M108.973,391.407l2.967-1.689.2,1.041Z" transform="translate(-108.009 -355.423)" fill="#fff" stroke="#929497" stroke-linejoin="round" stroke-width="1"/>
        <path id="Path_1286" data-name="Path 1286" d="M140.042,432.3l2.783-1.584-1.048-3.173a15.666,15.666,0,0,1-1.677-.332Z" transform="translate(-116.961 -366.227)" fill="#fff" stroke="#929497" stroke-linejoin="round" stroke-width="1"/>
        <path id="Path_1287" data-name="Path 1287" d="M125.161,422.6l3.326-1.893-1.441-1.377Z" transform="translate(-112.673 -363.956)" fill="#fff" stroke="#929497" stroke-linejoin="round" stroke-width="1"/>
      </g>
      <g id="Group_639" data-name="Group 639" transform="translate(0 24.718)">
        <g id="Group_635" data-name="Group 635" transform="translate(2.851 0.713)">
          <path id="Path_1288" data-name="Path 1288" d="M143,414.353l-13.451,8.3,13.774,24.249,13.451-8.3Z" transform="translate(-90.548 -387.952)" fill="#fff"/>
          <path id="Path_1289" data-name="Path 1289" d="M118.2,427.073l3.523,2.064,1.469-.751,11.07,19.489-6.246,3.691-10.407,4.312-1.763.847c-.833.4-2.146-.444-2.919-1.876-.727-1.348-.718-2.742-.022-3.236l-.046.022c-.833.4-2.147-.444-2.92-1.876-.742-1.375-.718-2.8.022-3.268l-.065.032c-.833.4-2.146-.444-2.919-1.876-.727-1.347-.718-2.741-.022-3.236l-.046.023c-.833.4-2.147-.445-2.92-1.876s-.724-2.93.109-3.33l1.107-.683,6.431-3.8s3.364,3.077,6.283,1.469l3.314,5.521s1.315,2.2,2.38,1.656l1.831-.965Z" transform="translate(-83.022 -391.618)" fill="#fff"/>
          <line id="Line_12" data-name="Line 12" y1="2.298" x2="3.879" transform="translate(23.885 47.516)" fill="none" stroke="#49b5d8" stroke-miterlimit="10" stroke-width="1.82"/>
          <line id="Line_13" data-name="Line 13" y1="2.298" x2="3.879" transform="translate(26.801 52.644)" fill="none" stroke="#49b5d8" stroke-miterlimit="10" stroke-width="1.82"/>
          <line id="Line_14" data-name="Line 14" y1="2.298" x2="3.879" transform="translate(29.795 57.674)" fill="none" stroke="#49b5d8" stroke-miterlimit="10" stroke-width="1.82"/>
          <path id="Path_1290" data-name="Path 1290" d="M128.373,421.757l14.281-8.815,14.625,25.746L143,447.5Zm14.3-6.807-12.621,7.791,12.924,22.753L155.6,437.7Z" transform="translate(-90.207 -387.546)" fill="#49b5d8"/>
          <path id="Path_1291" data-name="Path 1291" d="M114.1,456.523a5.739,5.739,0,0,1-1.856-2.1,5.263,5.263,0,0,1-.7-2.754,3.781,3.781,0,0,1-.431-.237,5.735,5.735,0,0,1-1.855-2.1,5.244,5.244,0,0,1-.695-2.785,4.133,4.133,0,0,1-.414-.229,5.756,5.756,0,0,1-1.855-2.1,5.269,5.269,0,0,1-.7-2.754,3.737,3.737,0,0,1-.431-.237,5.758,5.758,0,0,1-1.856-2.1,5.384,5.384,0,0,1-.707-2.649,1.75,1.75,0,0,1,.823-1.635l7.541-4.487.246-.142.339.306c.123.112,3.083,2.743,5.706,1.3l.406-.224,3.736,6.224c.038.061.911,1.5,1.556,1.173l1.382-.728-7.859-13.4,4.763,2.79,1.722-.881,11.905,20.959-6.7,3.954L117.774,456l-1.762.846a1.9,1.9,0,0,1-1.78-.241Zm8.841-27.8-1.215.621-2.282-1.337,6.624,11.3-2.285,1.2c-1.165.592-2.6-1.142-3.2-2.139l-2.906-4.84c-2.481,1.02-5.137-.789-6.085-1.54l-6.2,3.663-1.132.7a.965.965,0,0,0-.466.906,2.966,2.966,0,0,0,.387,1.455c.551,1.019,1.48,1.616,2.074,1.33l.046-.021.856,1.491c-.5.352-.491,1.358.013,2.291a3.15,3.15,0,0,0,1.019,1.152,1.1,1.1,0,0,0,1.053.179l.065-.031.844,1.5c-.53.334-.538,1.35-.018,2.315a3.143,3.143,0,0,0,1.019,1.151,1.09,1.09,0,0,0,1.05.18l.046-.023.859,1.489c-.5.352-.49,1.359.012,2.291a3.157,3.157,0,0,0,1.021,1.152,1.08,1.08,0,0,0,1.051.178l1.777-.853,10.371-4.294,5.831-3.445Z" transform="translate(-82.779 -390.983)" fill="#49b5d8"/>
          <path id="Path_1292" data-name="Path 1292" d="M108.567,446.759l3.879-2.3-.86-1.492-3.879,2.3Z" transform="translate(-84.252 -396.199)" fill="#49b5d8"/>
          <path id="Path_1293" data-name="Path 1293" d="M112.663,453.963l3.88-2.3-.859-1.491-3.88,2.3Z" transform="translate(-85.433 -398.275)" fill="#49b5d8"/>
          <path id="Path_1294" data-name="Path 1294" d="M116.869,461.028l3.88-2.3-.859-1.491-3.88,2.3Z" transform="translate(-86.645 -400.311)" fill="#49b5d8"/>
          <path id="Path_1295" data-name="Path 1295" d="M89.388,378.676l13.774,24.249-13.451,8.3L75.938,386.979Z" transform="translate(-75.097 -377.672)" fill="#fff"/>
          <path id="Path_1296" data-name="Path 1296" d="M107.747,414.015l1.5,2.49,4.7,2.756,9.616,16.4s-.643.38-1.831.965-2.557-1.963-2.557-1.963l-3.137-5.213c-2.923,1.611-6.283-1.469-6.283-1.469l-6.431,3.8-6.392-11.093Z" transform="translate(-81.149 -387.855)" fill="#fff"/>
          <path id="Path_1297" data-name="Path 1297" d="M74.757,386.08l14.282-8.815,14.624,25.746-14.281,8.815Zm14.3-6.807-12.621,7.791,12.924,22.753,12.62-7.791Z" transform="translate(-74.757 -377.265)" fill="#2d6c8e"/>
          <path id="Path_1298" data-name="Path 1298" d="M95.751,419.8l11.625-7.177,1.759,2.918,4.712,2.76,10.235,17.455-.426.251c-.027.016-.666.392-1.85.975a1.475,1.475,0,0,1-1.466-.209,6.966,6.966,0,0,1-1.908-2.238L115.7,430c-2.483,1.021-5.136-.787-6.086-1.54L103,432.373Zm13.825,7.2c.031.027,3.057,2.758,5.7,1.3l.406-.224,3.595,5.978a4.431,4.431,0,0,0,1.1,1.35.574.574,0,0,0,.6.067c.608-.3,1.074-.545,1.381-.714l-8.993-15.336-4.7-2.751-1.242-2.061-9.995,6.169,5.539,9.61,6.257-3.7Z" transform="translate(-80.807 -387.453)" fill="#2d6c8e"/>
          <g id="Group_633" data-name="Group 633" transform="translate(33.395 53.156)">
            <path id="Path_1299" data-name="Path 1299" d="M135.85,455.619l1.8,2.935c.851,1.385,2.163,2.079,2.916,1.542h0c.754-.537.674-2.111-.177-3.5l-1.8-2.934c-.851-1.386-2.163-2.08-2.916-1.543h0C134.921,452.659,135,454.233,135.85,455.619Z" transform="translate(-125.557 -451.939)" fill="#fff"/>
            <path id="Path_1300" data-name="Path 1300" d="M131.906,459.625l1.8,2.934c.851,1.386,2.163,2.08,2.916,1.543h0c.753-.537.674-2.111-.177-3.5l-1.8-2.935c-.851-1.386-2.163-2.08-2.916-1.542h0C130.976,456.666,131.056,458.239,131.906,459.625Z" transform="translate(-124.421 -453.094)" fill="#fff"/>
            <path id="Path_1301" data-name="Path 1301" d="M127.215,462.4l1.8,2.934c.851,1.386,2.163,2.08,2.916,1.543h0c.754-.537.674-2.111-.177-3.5l-1.8-2.934c-.851-1.386-2.163-2.08-2.916-1.543h0C126.286,459.438,126.365,461.012,127.215,462.4Z" transform="translate(-123.069 -453.893)" fill="#fff"/>
            <path id="Path_1302" data-name="Path 1302" d="M122.365,464.892l1.8,2.934c.851,1.386,2.163,2.08,2.916,1.543h0c.753-.538.674-2.112-.177-3.5l-1.8-2.935c-.851-1.386-2.163-2.08-2.916-1.542h0C121.435,461.933,121.514,463.506,122.365,464.892Z" transform="translate(-121.671 -454.612)" fill="#fff"/>
          </g>
          <g id="Group_634" data-name="Group 634" transform="translate(32.794 52.369)">
            <path id="Path_1303" data-name="Path 1303" d="M137.009,458.519l-1.8-2.934c-1.1-1.793-1.2-3.818-.227-4.514s2.664.2,3.764,1.991l1.8,2.934a5.808,5.808,0,0,1,.891,2.668,2.044,2.044,0,0,1-.663,1.847,1.794,1.794,0,0,1-1.967-.135A5.453,5.453,0,0,1,137.009,458.519Zm-1.129-5.984c-.536.382-.48,1.5.125,2.48l1.8,2.935c.6.985,1.533,1.476,2.068,1.094a1.125,1.125,0,0,0,.364-1.015,3.184,3.184,0,0,0-.489-1.466l-1.8-2.934a3,3,0,0,0-.988-1.02A.986.986,0,0,0,135.88,452.535Z" transform="translate(-124.712 -450.834)" fill="#2d6c8e"/>
            <path id="Path_1304" data-name="Path 1304" d="M133.065,462.526l-1.8-2.935c-1.1-1.793-1.2-3.818-.227-4.514s2.664.2,3.764,1.992L136.6,460a5.806,5.806,0,0,1,.891,2.668,2.045,2.045,0,0,1-.663,1.847,1.8,1.8,0,0,1-1.967-.135A5.451,5.451,0,0,1,133.065,462.526Zm-1.129-5.984c-.537.382-.48,1.495.125,2.48l1.8,2.935c.605.985,1.534,1.476,2.069,1.093a1.123,1.123,0,0,0,.364-1.014,3.207,3.207,0,0,0-.489-1.466l-1.8-2.934a2.989,2.989,0,0,0-.987-1.02A.985.985,0,0,0,131.936,456.542Z" transform="translate(-123.576 -451.988)" fill="#2d6c8e"/>
            <path id="Path_1305" data-name="Path 1305" d="M128.375,465.3l-1.8-2.935c-1.1-1.792-1.2-3.818-.227-4.514s2.664.2,3.764,1.992l1.8,2.933a5.825,5.825,0,0,1,.891,2.668,2.045,2.045,0,0,1-.663,1.847,1.794,1.794,0,0,1-1.967-.135A5.44,5.44,0,0,1,128.375,465.3Zm-1.13-5.984c-.536.382-.48,1.495.125,2.48l1.8,2.935c.6.985,1.533,1.477,2.069,1.093a1.127,1.127,0,0,0,.364-1.014,3.2,3.2,0,0,0-.49-1.466l-1.8-2.934a2.984,2.984,0,0,0-.988-1.02A.985.985,0,0,0,127.245,459.314Z" transform="translate(-122.224 -452.787)" fill="#2d6c8e"/>
            <path id="Path_1306" data-name="Path 1306" d="M123.524,467.793l-1.8-2.935c-1.1-1.793-1.2-3.818-.227-4.514s2.664.2,3.764,1.991l1.8,2.934a5.8,5.8,0,0,1,.891,2.668,2.045,2.045,0,0,1-.663,1.846,1.8,1.8,0,0,1-1.967-.135A5.451,5.451,0,0,1,123.524,467.793Zm-1.129-5.984c-.537.383-.48,1.5.125,2.481l1.8,2.935c.6.984,1.533,1.476,2.069,1.093a1.124,1.124,0,0,0,.364-1.015,3.187,3.187,0,0,0-.489-1.466l-1.8-2.933a3,3,0,0,0-.988-1.02A.985.985,0,0,0,122.4,461.808Z" transform="translate(-120.826 -453.506)" fill="#2d6c8e"/>
          </g>
        </g>
        <path id="Path_1307" data-name="Path 1307" d="M151.285,413.654l-2.849-.712,14.625,25.746,2.849.712Z" transform="translate(-93.138 -386.833)" fill="#fff" stroke="#929497" stroke-linejoin="round" stroke-width="1"/>
        <path id="Path_1308" data-name="Path 1308" d="M148.918,457.926l2.849.712,14.281-8.816-2.849-.712Z" transform="translate(-93.277 -397.256)" fill="#fff" stroke="#929497" stroke-linejoin="round" stroke-width="1"/>
        <path id="Path_1309" data-name="Path 1309" d="M141.541,461.763l-2.84-.717,5.722-3.328,1.032,1.776Z" transform="translate(-90.333 -399.736)" fill="#fff" stroke="#929497" stroke-linejoin="round" stroke-width="1"/>
        <path id="Path_1310" data-name="Path 1310" d="M128.913,470.347a2.458,2.458,0,0,1-.354,1.7,1.316,1.316,0,0,1-1.471.481l-2.916-.728a1.386,1.386,0,0,0,1.73-.867,3.525,3.525,0,0,0,.052-1.958,4.06,4.06,0,0,0,1.79,1.076Z" transform="translate(-86.146 -402.98)" fill="#fff" stroke="#929497" stroke-linejoin="round" stroke-width="1"/>
        <g id="Group_638" data-name="Group 638">
          <path id="Path_1311" data-name="Path 1311" d="M85.383,377.675l13.774,24.249-13.451,8.3L71.932,385.979Z" transform="translate(-71.092 -376.671)" fill="#fff"/>
          <path id="Path_1312" data-name="Path 1312" d="M103.741,413.014l1.5,2.49,4.7,2.756,9.616,16.4s-.643.38-1.832.965-2.557-1.963-2.557-1.963l-3.136-5.213c-2.923,1.612-6.284-1.469-6.284-1.469l-6.43,3.8-6.393-11.094Z" transform="translate(-77.143 -386.854)" fill="#fff"/>
          <path id="Path_1313" data-name="Path 1313" d="M70.752,385.08l14.281-8.816L99.657,402.01l-14.281,8.816Zm14.3-6.807-12.62,7.792,12.924,22.753,12.62-7.792Z" transform="translate(-70.752 -376.264)" fill="#2d6c8e"/>
          <path id="Path_1314" data-name="Path 1314" d="M91.745,418.8l11.626-7.177,1.759,2.919,4.712,2.76,10.234,17.455-.426.251c-.026.016-.666.392-1.849.975a1.475,1.475,0,0,1-1.466-.208,6.953,6.953,0,0,1-1.908-2.239L111.7,429c-2.483,1.022-5.136-.787-6.086-1.54l-6.621,3.914ZM105.57,426c.031.028,3.058,2.758,5.7,1.3l.406-.224,3.6,5.978a4.422,4.422,0,0,0,1.1,1.35.572.572,0,0,0,.6.067c.608-.3,1.074-.545,1.381-.713l-8.992-15.337-4.7-2.751-1.241-2.06-9.995,6.169,5.538,9.61,6.258-3.7Z" transform="translate(-76.801 -386.452)" fill="#2d6c8e"/>
          <g id="Group_636" data-name="Group 636" transform="translate(33.395 53.156)">
            <path id="Path_1315" data-name="Path 1315" d="M131.845,454.618l1.8,2.934c.85,1.386,2.163,2.08,2.916,1.543h0c.753-.538.673-2.112-.177-3.5l-1.8-2.935c-.851-1.386-2.163-2.08-2.916-1.543h0C130.915,451.658,130.994,453.232,131.845,454.618Z" transform="translate(-121.552 -450.938)" fill="#fff"/>
            <path id="Path_1316" data-name="Path 1316" d="M127.9,458.625l1.8,2.934c.851,1.386,2.163,2.08,2.916,1.543h0c.754-.537.674-2.111-.177-3.5l-1.8-2.934c-.851-1.386-2.163-2.08-2.916-1.543h0C126.971,455.665,127.05,457.239,127.9,458.625Z" transform="translate(-120.415 -452.093)" fill="#fff"/>
            <path id="Path_1317" data-name="Path 1317" d="M123.21,461.4l1.8,2.935c.851,1.386,2.163,2.08,2.916,1.542h0c.753-.537.674-2.111-.177-3.5l-1.8-2.934c-.851-1.386-2.163-2.08-2.916-1.543h0C122.28,458.437,122.36,460.011,123.21,461.4Z" transform="translate(-119.064 -452.892)" fill="#fff"/>
            <path id="Path_1318" data-name="Path 1318" d="M118.359,463.892l1.8,2.934c.851,1.386,2.163,2.08,2.916,1.543h0c.754-.537.674-2.111-.177-3.5l-1.8-2.934c-.85-1.386-2.163-2.08-2.916-1.543h0C117.43,460.932,117.509,462.506,118.359,463.892Z" transform="translate(-117.666 -453.611)" fill="#fff"/>
          </g>
          <g id="Group_637" data-name="Group 637" transform="translate(32.793 52.369)">
            <path id="Path_1319" data-name="Path 1319" d="M133,457.519l-1.8-2.935c-1.1-1.793-1.2-3.818-.228-4.514s2.664.2,3.764,1.991l1.8,2.934a5.8,5.8,0,0,1,.891,2.668,2.045,2.045,0,0,1-.663,1.847,1.8,1.8,0,0,1-1.967-.135A5.45,5.45,0,0,1,133,457.519Zm-1.13-5.984c-.536.383-.479,1.5.125,2.481l1.8,2.935c.6.984,1.533,1.476,2.069,1.093a1.124,1.124,0,0,0,.364-1.015,3.2,3.2,0,0,0-.489-1.466l-1.8-2.933a2.984,2.984,0,0,0-.988-1.02A.985.985,0,0,0,131.874,451.534Z" transform="translate(-120.707 -449.833)" fill="#2d6c8e"/>
            <path id="Path_1320" data-name="Path 1320" d="M129.06,461.525l-1.8-2.934c-1.1-1.793-1.2-3.818-.228-4.514s2.664.2,3.764,1.991L132.6,459a5.826,5.826,0,0,1,.891,2.668,2.045,2.045,0,0,1-.663,1.846,1.794,1.794,0,0,1-1.967-.134A5.441,5.441,0,0,1,129.06,461.525Zm-1.13-5.984c-.536.382-.48,1.5.125,2.48l1.8,2.935c.6.985,1.533,1.477,2.069,1.094a1.129,1.129,0,0,0,.364-1.015,3.194,3.194,0,0,0-.49-1.466l-1.8-2.934a2.99,2.99,0,0,0-.988-1.02A.986.986,0,0,0,127.93,455.541Z" transform="translate(-119.57 -450.988)" fill="#2d6c8e"/>
            <path id="Path_1321" data-name="Path 1321" d="M124.369,464.3l-1.8-2.935c-1.1-1.793-1.2-3.818-.227-4.514s2.664.2,3.764,1.991l1.8,2.934a5.8,5.8,0,0,1,.891,2.668,2.046,2.046,0,0,1-.663,1.846,1.8,1.8,0,0,1-1.967-.135A5.45,5.45,0,0,1,124.369,464.3Zm-1.129-5.984c-.536.382-.48,1.5.125,2.481l1.8,2.935c.605.984,1.534,1.476,2.069,1.093a1.125,1.125,0,0,0,.364-1.015,3.184,3.184,0,0,0-.489-1.466l-1.8-2.934a3.01,3.01,0,0,0-.988-1.02A.986.986,0,0,0,123.24,458.313Z" transform="translate(-118.219 -451.787)" fill="#2d6c8e"/>
            <path id="Path_1322" data-name="Path 1322" d="M119.519,466.792l-1.8-2.935c-1.1-1.792-1.2-3.818-.228-4.514s2.664.2,3.764,1.992l1.8,2.933a5.825,5.825,0,0,1,.891,2.668,2.045,2.045,0,0,1-.663,1.846,1.8,1.8,0,0,1-1.967-.135A5.447,5.447,0,0,1,119.519,466.792Zm-1.13-5.984c-.536.382-.48,1.495.125,2.48l1.8,2.935c.6.984,1.533,1.476,2.069,1.093a1.125,1.125,0,0,0,.364-1.014,3.2,3.2,0,0,0-.49-1.466l-1.8-2.933a2.984,2.984,0,0,0-.988-1.02A.985.985,0,0,0,118.389,460.808Z" transform="translate(-116.821 -452.506)" fill="#2d6c8e"/>
          </g>
        </g>
        <path id="Path_1323" data-name="Path 1323" d="M140.583,462.9l-2.936-.748a1.4,1.4,0,0,0,1.744-.843,4.826,4.826,0,0,0-.236-2.869l2.868.725s.876,2.067.016,3.241A1.285,1.285,0,0,1,140.583,462.9Z" transform="translate(-90.029 -399.945)" fill="#fff" stroke="#929497" stroke-linejoin="round" stroke-width="1"/>
        <path id="Path_1324" data-name="Path 1324" d="M135.839,450.631l-2.8-.7a4.46,4.46,0,0,1,2.236,1.769l2.18,3.526s.29.578.445.956l2.87.712a15.907,15.907,0,0,0-.768-1.468c-.356-.567-1.824-2.948-1.824-2.948A4.834,4.834,0,0,0,135.839,450.631Z" transform="translate(-88.7 -397.492)" fill="#fff" stroke="#929497" stroke-linejoin="round" stroke-width="1"/>
        <path id="Path_1325" data-name="Path 1325" d="M138.309,463.846a3.249,3.249,0,0,1-.218,2.663,1.373,1.373,0,0,1-1.5.477l-2.912-.742a1.426,1.426,0,0,0,1.744-.843,4.132,4.132,0,0,0-.163-2.669,4,4,0,0,0,1.389.695Z" transform="translate(-88.886 -401.181)" fill="#fff" stroke="#929497" stroke-linejoin="round" stroke-width="1"/>
        <path id="Path_1326" data-name="Path 1326" d="M133.735,467.632a2.559,2.559,0,0,1-.335,1.864,1.316,1.316,0,0,1-1.471.481l-2.916-.728a1.39,1.39,0,0,0,1.743-.874,3.615,3.615,0,0,0,.009-2.074,3.99,3.99,0,0,0,1.585.977Z" transform="translate(-87.541 -402.21)" fill="#fff" stroke="#929497" stroke-linejoin="round" stroke-width="1"/>
        <path id="Path_1327" data-name="Path 1327" d="M108.29,402.723l-2.851-.712L90.814,376.264l2.851.712Z" transform="translate(-76.533 -376.264)" fill="#fff" stroke="#929497" stroke-linejoin="round" stroke-width="1"/>
        <path id="Path_1328" data-name="Path 1328" d="M113.624,413.145l-1.446.887-2.854-.706,1.448-.894Z" transform="translate(-81.867 -386.687)" fill="#fff" stroke="#929497" stroke-linejoin="round" stroke-width="1"/>
        <path id="Path_1329" data-name="Path 1329" d="M112.178,414.395l-2.854-.706.871,1.445,2.851.712Z" transform="translate(-81.867 -387.049)" fill="#fff" stroke="#929497" stroke-linejoin="round" stroke-width="1"/>
        <path id="Path_1330" data-name="Path 1330" d="M118.111,419.191l-2.851-.712-4.712-2.76,2.851.712Z" transform="translate(-82.22 -387.634)" fill="#fff" stroke="#929497" stroke-linejoin="round" stroke-width="1"/>
        <path id="Path_1331" data-name="Path 1331" d="M130.253,437.763l-2.851-.712L117.168,419.6l2.851.712Z" transform="translate(-84.127 -388.751)" fill="#fff" stroke="#929497" stroke-linejoin="round" stroke-width="1"/>
        <path id="Path_1332" data-name="Path 1332" d="M127.282,445.432l2.8.7a1.265,1.265,0,0,0,.866-.109c.463-.232,2.215-1.2,2.215-1.2l-2.852-.713-2,1.091A1.676,1.676,0,0,1,127.282,445.432Z" transform="translate(-87.042 -395.817)" fill="#fff" stroke="#929497" stroke-linejoin="round" stroke-width="1"/>
        <path id="Path_1333" data-name="Path 1333" d="M118.774,436.92l-3.041-.755a4.677,4.677,0,0,0,2.879-.132l.581.966Z" transform="translate(-83.714 -393.487)" fill="#bbbdbf"/>
        <path id="Path_1334" data-name="Path 1334" d="M101.926,437.784l2.851.712,5.749-3.4a12.009,12.009,0,0,1-1.979-1.229Z" transform="translate(-79.735 -392.864)" fill="#fff" stroke="#929497" stroke-linejoin="round" stroke-width="1"/>
      </g>
    </g>
  </g>
</svg>
