<svg xmlns="http://www.w3.org/2000/svg" width="89.264" height="93.656" viewBox="0 0 89.264 93.656">
  <g id="Cold-warehouse-icon" transform="translate(-52.223 -56.445)">
    <g id="Group_773" data-name="Group 773" transform="translate(53.223 57.445)">
      <g id="Group_769" data-name="Group 769">
        <path id="Path_1753" data-name="Path 1753" d="M157.633,82.69,114,107.144,89.2,83.483l43.632-24.455Z" transform="translate(-70.369 -58.235)" fill="#fff" stroke="#929497" stroke-linejoin="round" stroke-width="2"/>
        <path id="Path_1754" data-name="Path 1754" d="M115.682,58.239,72.05,82.694,53.223,81.9,96.855,57.445Z" transform="translate(-53.223 -57.445)" fill="#fff" stroke="#929497" stroke-linejoin="round" stroke-width="2"/>
        <path id="Path_1755" data-name="Path 1755" d="M180.224,106.236,136.592,130.69v42.747l43.632-24.455Z" transform="translate(-92.961 -81.781)" fill="#fff" stroke="#929497" stroke-linejoin="round" stroke-width="2"/>
        <path id="Path_1756" data-name="Path 1756" d="M53.223,148.982V106.236l18.827.819,24.8,23.635v42.747Z" transform="translate(-53.223 -81.781)" fill="#fff" stroke="#2d6c8e" stroke-linejoin="round" stroke-width="2"/>
      </g>
      <g id="Group_772" data-name="Group 772" transform="translate(2.961 30.285)">
        <g id="Group_770" data-name="Group 770">
          <path id="Path_1757" data-name="Path 1757" d="M74.3,134.282a.586.586,0,0,0,.191-.032.54.54,0,0,0,.371-.506v-4.665a.562.562,0,0,0-1.123,0v3.176L72,130.249a.562.562,0,0,0-.449-.194l-2.155.061v-6.264a.562.562,0,0,0-1.123,0v6.818a.527.527,0,0,0,.171.386.572.572,0,0,0,.408.152l2.459-.07,2.558,2.95A.572.572,0,0,0,74.3,134.282Z" transform="translate(-63.356 -120.585)" fill="#49b5d8"/>
          <path id="Path_1758" data-name="Path 1758" d="M74.521,169.251a.586.586,0,0,0,.191-.032.54.54,0,0,0,.371-.506v-4.666a.562.562,0,0,0-1.123,0v3.176l-1.739-2.006a.562.562,0,0,0-.449-.194l-2.155.061v-6.264a.562.562,0,0,0-1.123,0v6.818a.526.526,0,0,0,.171.385.559.559,0,0,0,.408.152l2.459-.069,2.558,2.95A.572.572,0,0,0,74.521,169.251Z" transform="translate(-63.463 -138.027)" fill="#49b5d8"/>
          <path id="Path_1759" data-name="Path 1759" d="M74.453,144.865,59.16,136.33a.535.535,0,0,1-.279-.465V118.406a.535.535,0,0,1,.282-.466.583.583,0,0,1,.563,0l15.294,8.535a.534.534,0,0,1,.278.465V144.4a.533.533,0,0,1-.282.466.58.58,0,0,1-.279.072A.586.586,0,0,1,74.453,144.865ZM60,119.342v16.214l14.171,7.908V127.25Z" transform="translate(-58.881 -117.869)" fill="#49b5d8"/>
          <path id="Path_1760" data-name="Path 1760" d="M74.453,179.733,59.16,171.2a.535.535,0,0,1-.279-.465V153.275a.535.535,0,0,1,.282-.466.584.584,0,0,1,.563,0l15.294,8.535a.536.536,0,0,1,.278.465v17.459a.533.533,0,0,1-.282.466.582.582,0,0,1-.563,0ZM60,154.211v16.213l14.171,7.908V162.119Z" transform="translate(-58.881 -135.261)" fill="#49b5d8"/>
        </g>
        <g id="Group_771" data-name="Group 771" transform="translate(19.397 11.929)">
          <path id="Path_1761" data-name="Path 1761" d="M95.944,169.075c0-2.323,1.246-3.8,3.276-3.934V143.814c0-2.06,1.75-2.759,3.9-1.558s3.9,3.854,3.9,5.914V169.5a12.691,12.691,0,0,1,3.276,7.591c0,3.79-3.219,5.075-7.176,2.866S95.944,172.865,95.944,169.075Zm4.526-24.563V166.52h-.312c-1.828-.006-2.964,1.241-2.964,3.254,0,3.13,2.658,7.159,5.926,8.984s5.925.762,5.925-2.367a10.681,10.681,0,0,0-2.964-6.564l-.311-.347V147.471a5.289,5.289,0,0,0-2.65-4.018C101.659,142.637,100.47,143.112,100.47,144.512Z" transform="translate(-95.944 -141.668)" fill="#2d6c8e"/>
          <path id="Path_1762" data-name="Path 1762" d="M105.337,187.551a4.511,4.511,0,0,0,2.26,3.427c1.247.7,2.261.291,2.261-.9a4.259,4.259,0,0,0-1.427-2.807v-13.13l-1.668-.931v13.13A1.12,1.12,0,0,0,105.337,187.551Zm1.25.7c0-.533.453-.714,1.01-.4a2.016,2.016,0,0,1,1.011,1.531c0,.534-.453.715-1.011.4A2.016,2.016,0,0,1,106.587,188.249Z" transform="translate(-100.421 -157.399)" fill="#49b5d8"/>
          <path id="Path_1763" data-name="Path 1763" d="M125.278,182.246l3.231,1.8v1.1l-3.231-1.8Z" transform="translate(-109.926 -161.908)" fill="#49b5d8"/>
        </g>
      </g>
    </g>
  </g>
</svg>
