<svg xmlns="http://www.w3.org/2000/svg" width="79.905" height="95.318" viewBox="0 0 79.905 95.318">
  <g id="Communications-services-icon" transform="translate(-769.18 -562.957)">
    <g id="Group_658" data-name="Group 658" transform="translate(769.18 563.457)">
      <g id="Group_645" data-name="Group 645" transform="translate(22.376 9.11)">
        <g id="Group_643" data-name="Group 643" transform="translate(11.984 57.553)">
          <path id="Path_1335" data-name="Path 1335" d="M822.111,661.915l.421.215c.039.02,3.919,2.008,5.133,2.429,4.438,1.541,4.522-4.661,4.523-4.922v-3.194l9.293,5.487v3.19c0,.267.085,6.565,4.524,10.267,1.213,1.012,5.094,3.607,5.133,3.632l.42.281v2.645L822.111,664.56Z" transform="translate(-818.524 -656.444)" fill="#fff"/>
          <path id="Path_1336" data-name="Path 1336" d="M822.111,661.915l.421.215c.039.02,3.919,2.008,5.133,2.429,4.438,1.541,4.522-4.661,4.523-4.922v-3.194l9.293,5.487v3.19c0,.267.085,6.565,4.524,10.267,1.213,1.012,5.094,3.607,5.133,3.632l.42.281v2.645L822.111,664.56Zm28.551,17.94c-1.057-.713-3.789-2.571-4.824-3.434-5.171-4.311-5.253-11.749-5.253-11.826v-2.042l-7.5-4.43v2.044c0,.075-.082,7.416-5.252,5.621-1.036-.359-3.768-1.727-4.825-2.263v.41l27.655,16.33Z" transform="translate(-818.524 -656.444)" fill="#2d6c8e"/>
          <path id="Path_1337" data-name="Path 1337" d="M817.108,664.917l.42.216c.039.02,3.92,2.008,5.133,2.429,4.439,1.541,4.522-4.661,4.524-4.922v-3.194l9.292,5.487v3.19c0,.267.085,6.565,4.524,10.267,1.213,1.012,5.094,3.607,5.133,3.633l.42.281v2.645l-29.446-17.387Z" transform="translate(-817.108 -657.294)" fill="#fff"/>
          <path id="Path_1338" data-name="Path 1338" d="M817.108,664.917l.42.216c.039.02,3.92,2.008,5.133,2.429,4.439,1.541,4.522-4.661,4.524-4.922v-3.194l9.292,5.487v3.19c0,.267.085,6.565,4.524,10.267,1.213,1.012,5.094,3.607,5.133,3.633l.42.281v2.645l-29.446-17.387Zm28.551,17.941c-1.057-.713-3.789-2.571-4.824-3.435-5.171-4.311-5.253-11.749-5.253-11.825v-2.042l-7.5-4.43v2.044c0,.075-.082,7.416-5.252,5.621-1.036-.359-3.768-1.727-4.825-2.263v.411l27.655,16.33Z" transform="translate(-817.108 -657.294)" fill="#2d6c8e"/>
          <path id="Path_1339" data-name="Path 1339" d="M861.769,688.328l-3.587,2.152v2.645l3.587-2.152Z" transform="translate(-828.736 -665.47)" fill="#fff" stroke="#929497" stroke-linejoin="round" stroke-width="1"/>
          <path id="Path_1340" data-name="Path 1340" d="M857.8,682.809l-3.587,2.152-4.418-3.049a13.218,13.218,0,0,1-5.643-10.731v-2.347L848,671.107a13.251,13.251,0,0,0,4.782,8.211Z" transform="translate(-824.763 -659.952)" fill="#fff" stroke="#929497" stroke-linejoin="round" stroke-width="1"/>
          <path id="Path_1341" data-name="Path 1341" d="M820.695,664.076l-3.587,2.151,4.61,2.255s3.559,2.2,4.96-1.635a29.028,29.028,0,0,1-2.827-1.2C822.387,664.933,820.695,664.076,820.695,664.076Z" transform="translate(-817.108 -658.605)" fill="#fff" stroke="#929497" stroke-linejoin="round" stroke-width="1"/>
        </g>
        <g id="Group_644" data-name="Group 644">
          <path id="Path_1342" data-name="Path 1342" d="M803,625.744l48.757,28.789c.886.523,1.612.143,1.612-.845v-41.78a3.572,3.572,0,0,0-1.612-2.748L803,580.37c-.886-.523-1.612-.143-1.612.845V623A3.572,3.572,0,0,0,803,625.744Z" transform="translate(-800.675 -577.288)" fill="#fff"/>
          <path id="Path_1343" data-name="Path 1343" d="M801.392,631.579l51.979,30.691v-1.151l-51.979-30.691Z" transform="translate(-800.675 -591.526)" fill="#2d6c8e"/>
          <path id="Path_1344" data-name="Path 1344" d="M834.427,656.931l4.614,2.724v-1.571l-4.614-2.724Z" transform="translate(-810.027 -598.584)" fill="#2d6c8e"/>
          <path id="Path_1345" data-name="Path 1345" d="M851.112,654.867l-48.757-28.788h0a4.293,4.293,0,0,1-1.964-3.365v-41.78a1.759,1.759,0,0,1,.812-1.6,1.857,1.857,0,0,1,1.881.136l48.756,28.789a4.291,4.291,0,0,1,1.964,3.366V653.4a1.761,1.761,0,0,1-.812,1.6,1.529,1.529,0,0,1-.764.2A2.216,2.216,0,0,1,851.112,654.867Zm-49.2-74.288c-.028.016-.089.127-.089.354v41.78a2.86,2.86,0,0,0,1.259,2.131h0l48.757,28.789c.27.159.416.141.441.126s.088-.127.088-.354v-41.78a2.854,2.854,0,0,0-1.259-2.131L802.356,580.7a.8.8,0,0,0-.384-.135A.129.129,0,0,0,801.915,580.579Z" transform="translate(-800.392 -577.005)" fill="#2d6c8e"/>
          <path id="Path_1346" data-name="Path 1346" d="M877.2,664.972l-3.439,2.012a1.7,1.7,0,0,0,.812-1.6V623.6l3.587-2.152v41.656A1.921,1.921,0,0,1,877.2,664.972Z" transform="translate(-821.164 -588.984)" fill="#fff" stroke="#929497" stroke-linejoin="round" stroke-width="1"/>
          <path id="Path_1347" data-name="Path 1347" d="M805.111,576.34l-3.587,2.152a2.037,2.037,0,0,1,1.881.136c.967.6,48.757,28.789,48.757,28.789a4.585,4.585,0,0,1,1.964,3.366l3.587-2.152a4.683,4.683,0,0,0-2.261-3.569c-2.151-1.255-48.459-28.586-48.459-28.586A2.094,2.094,0,0,0,805.111,576.34Z" transform="translate(-800.712 -576.164)" fill="#fff" stroke="#929497" stroke-linejoin="round" stroke-width="1"/>
          <path id="Path_1348" data-name="Path 1348" d="M874.378,622.559a4.005,4.005,0,0,0-1.314-2.812l3.763-1.986a4.6,4.6,0,0,1,1.138,2.645" transform="translate(-820.965 -587.94)" fill="#fff" stroke="#929497" stroke-linejoin="round" stroke-width="1"/>
        </g>
      </g>
      <g id="Group_647" data-name="Group 647" transform="translate(0 21.36)">
        <g id="Group_646" data-name="Group 646" transform="translate(0 0.707)">
          <path id="Path_1349" data-name="Path 1349" d="M772.8,595.617l17.961,10.605a5.815,5.815,0,0,1,2.623,4.474v40.57c0,1.609-1.181,2.228-2.623,1.376L772.8,642.038a5.815,5.815,0,0,1-2.623-4.474v-40.57C770.18,595.385,771.361,594.765,772.8,595.617Z" transform="translate(-769.463 -594.519)" fill="#fff"/>
          <path id="Path_1350" data-name="Path 1350" d="M770.18,649.944l23.207,13.7V662.5l-23.207-13.7Z" transform="translate(-769.463 -609.682)" fill="#49b5d8"/>
          <path id="Path_1351" data-name="Path 1351" d="M783.432,662.155l4.208,2.484v-1.571l-4.208-2.484Z" transform="translate(-773.215 -613.02)" fill="#49b5d8"/>
          <path id="Path_1352" data-name="Path 1352" d="M790.116,652.979l-17.961-10.605a6.5,6.5,0,0,1-2.976-5.092v-40.57a2.4,2.4,0,0,1,1.095-2.213,2.586,2.586,0,0,1,2.61.219l17.961,10.605a6.5,6.5,0,0,1,2.975,5.091v40.57a2.4,2.4,0,0,1-1.095,2.213,2.041,2.041,0,0,1-1.021.261A3.166,3.166,0,0,1,790.116,652.979Zm-19.131-57.235a1.076,1.076,0,0,0-.371.967v40.57a5.085,5.085,0,0,0,2.271,3.857l17.961,10.605a1.265,1.265,0,0,0,1.17.209,1.077,1.077,0,0,0,.371-.968v-40.57a5.082,5.082,0,0,0-2.271-3.856l-17.961-10.605a1.769,1.769,0,0,0-.856-.283A.626.626,0,0,0,770.985,595.744Z" transform="translate(-769.18 -594.237)" fill="#2d6c8e"/>
        </g>
        <path id="Path_1353" data-name="Path 1353" d="M804.043,657.94l-2.491,1.584a2.474,2.474,0,0,0,1.434-2.574V616.923l2.151-.865v39.488S805.17,657.317,804.043,657.94Z" transform="translate(-778.344 -599.708)" fill="#fff" stroke="#929497" stroke-linejoin="round" stroke-width="1"/>
        <path id="Path_1354" data-name="Path 1354" d="M771.18,594.067l2.087-.694a2.677,2.677,0,0,1,2.212.279c1.175.69,18.085,10.674,18.085,10.674a6.552,6.552,0,0,1,2.974,5.276l-2.151.865a6.39,6.39,0,0,0-3.376-5.659l-17.471-10.315A3,3,0,0,0,771.18,594.067Z" transform="translate(-769.746 -593.251)" fill="#fff" stroke="#929497" stroke-linejoin="round" stroke-width="1"/>
      </g>
      <g id="Group_657" data-name="Group 657" transform="translate(7.783)">
        <g id="Group_649" data-name="Group 649">
          <path id="Path_1355" data-name="Path 1355" d="M785.04,584.771v-10.9l4.418,2.6a12.621,12.621,0,0,1,1.328-3.207l-3.126-5.742,6.183-4.066,3.126,5.742a9.967,9.967,0,0,1,3.2.229v-5.509l8.743,5.155v5.509a32.636,32.636,0,0,1,3.2,3.542l3.126-2.055,6.182,11.355-3.126,2.056a36.539,36.539,0,0,1,1.328,4.772l4.418,2.6v10.9l-4.418-2.6a12.613,12.613,0,0,1-1.328,3.207l3.126,5.741-6.182,4.066-3.126-5.742a9.984,9.984,0,0,1-3.2-.229v5.509l-8.743-5.154v-5.509a32.732,32.732,0,0,1-3.2-3.543l-3.126,2.056L787.66,594.2l3.126-2.055a36.609,36.609,0,0,1-1.328-4.773Z" transform="translate(-781.453 -563.457)" fill="#fff" stroke="#929497" stroke-linejoin="round" stroke-width="1"/>
          <g id="Group_648" data-name="Group 648" transform="translate(0 1.435)">
            <path id="Path_1356" data-name="Path 1356" d="M780.65,586.789v-9.807l4.312,2.542A12.261,12.261,0,0,1,786.5,575.8l-3.051-5.6,5.56-3.657,3.052,5.6a9.7,9.7,0,0,1,3.714.267v-5.378l7.864,4.635v5.378a31.7,31.7,0,0,1,3.714,4.111l3.052-2.007,5.56,10.213-3.051,2.007a35.485,35.485,0,0,1,1.541,5.54l4.312,2.542v9.807l-4.312-2.542a12.244,12.244,0,0,1-1.541,3.722l3.051,5.6-5.56,3.657-3.052-5.6a9.7,9.7,0,0,1-3.714-.267v5.377l-7.864-4.635V609.2a31.7,31.7,0,0,1-3.714-4.111l-3.052,2.007-5.56-10.213,3.051-2.007a35.559,35.559,0,0,1-1.541-5.54Z" transform="translate(-780.211 -565.764)" fill="#fff"/>
            <path id="Path_1357" data-name="Path 1357" d="M795.165,609.047a32.656,32.656,0,0,1-3.2-3.543l-3.126,2.056-6.183-11.355,3.126-2.056a36.625,36.625,0,0,1-1.328-4.773l-4.418-2.6v-10.9l4.418,2.6a12.628,12.628,0,0,1,1.328-3.207l-3.126-5.742,6.183-4.066,3.126,5.742a9.971,9.971,0,0,1,3.2.229V565.92l8.743,5.155v5.509a32.734,32.734,0,0,1,3.2,3.543l3.126-2.056,6.183,11.355-3.126,2.056a36.527,36.527,0,0,1,1.328,4.773l4.418,2.6v10.9l-4.418-2.6a12.6,12.6,0,0,1-1.328,3.207l3.126,5.742-6.183,4.066-3.126-5.742a9.967,9.967,0,0,1-3.2-.229v5.509l-8.743-5.155Zm7.864,3.8.326.084a9.429,9.429,0,0,0,3.607.26l.293-.039,2.979,5.473,4.939-3.248-2.979-5.473.17-.265a11.9,11.9,0,0,0,1.5-3.615l.087-.356,4.211,2.482v-8.71l-4.211-2.483-.087-.458a34.49,34.49,0,0,0-1.5-5.38l-.17-.465,2.979-1.96-4.939-9.07-2.979,1.96-.293-.384a30.881,30.881,0,0,0-3.607-3.993l-.326-.3v-5.251l-6.985-4.118v5.251l-.326-.084a9.428,9.428,0,0,0-3.606-.26l-.292.039-2.98-5.473-4.938,3.248,2.979,5.473-.17.265a11.93,11.93,0,0,0-1.5,3.615l-.087.356-4.21-2.482v8.71l4.21,2.482.087.459a34.558,34.558,0,0,0,1.5,5.38l.17.465-2.979,1.96,4.938,9.07,2.98-1.96.292.384a30.825,30.825,0,0,0,3.606,3.992l.326.3v5.251l6.985,4.118Z" transform="translate(-780.037 -565.458)" fill="#49b5d8"/>
          </g>
          <path id="Path_1358" data-name="Path 1358" d="M804.725,564.1l-3.587,1.435,8.743,5.154,3.587-1.435Z" transform="translate(-786.011 -563.639)" fill="#fff" stroke="#929497" stroke-linejoin="round" stroke-width="1"/>
          <path id="Path_1359" data-name="Path 1359" d="M825.745,581.05l-3.587,1.435,6.183,11.355,3.587-1.435Z" transform="translate(-791.961 -568.437)" fill="#fff" stroke="#929497" stroke-linejoin="round" stroke-width="1"/>
          <path id="Path_1360" data-name="Path 1360" d="M838.023,610.047l-3.587,1.435v10.9l3.587-1.435Z" transform="translate(-795.437 -576.646)" fill="#fff" stroke="#929497" stroke-linejoin="round" stroke-width="1"/>
          <path id="Path_1361" data-name="Path 1361" d="M816.921,576.8l-3.587,1.435v-5.509l3.587-1.435Z" transform="translate(-789.464 -565.675)" fill="#fff" stroke="#929497" stroke-linejoin="round" stroke-width="1"/>
          <path id="Path_1362" data-name="Path 1362" d="M796.676,572.962l3.2-1.28v1.509A10.372,10.372,0,0,0,796.676,572.962Z" transform="translate(-784.747 -565.785)" fill="#fff" stroke="#929497" stroke-linejoin="round" stroke-width="1"/>
          <path id="Path_1363" data-name="Path 1363" d="M830.009,598.945l-3.587,1.435,3.126-2.056,3.587-1.435Z" transform="translate(-793.168 -572.921)" fill="#fff" stroke="#929497" stroke-linejoin="round" stroke-width="1"/>
          <path id="Path_1364" data-name="Path 1364" d="M830.009,625.4l-3.587,1.435a13.835,13.835,0,0,0,1.328-3.207l2.448,1.442Z" transform="translate(-793.168 -580.491)" fill="#fff" stroke="#929497" stroke-linejoin="round" stroke-width="1"/>
          <path id="Path_1365" data-name="Path 1365" d="M831.927,634.106l-3.587,1.435-6.183,4.066,3.587-1.435Z" transform="translate(-791.961 -583.458)" fill="#fff" stroke="#929497" stroke-linejoin="round" stroke-width="1"/>
          <path id="Path_1366" data-name="Path 1366" d="M816.922,637.524l-3.587,1.435V633.45a11.392,11.392,0,0,0,3.2.229l.388.712Z" transform="translate(-789.464 -583.272)" fill="#fff" stroke="#929497" stroke-linejoin="round" stroke-width="1"/>
          <path id="Path_1367" data-name="Path 1367" d="M795.9,621.939l-3.587,1.435,3.126-2.056.386.485Z" transform="translate(-783.513 -579.837)" fill="#fff" stroke="#929497" stroke-linejoin="round" stroke-width="1"/>
          <path id="Path_1368" data-name="Path 1368" d="M795.9,563.457l-3.587,1.435,3.126,5.742,3.2-1.28v-.867Z" transform="translate(-783.513 -563.457)" fill="#fff" stroke="#929497" stroke-linejoin="round" stroke-width="1"/>
          <path id="Path_1369" data-name="Path 1369" d="M816.922,578.976l-3.587,1.435a35.241,35.241,0,0,1,3.2,3.543l3.126-2.056S817.995,579.978,816.922,578.976Z" transform="translate(-789.464 -567.85)" fill="#fff" stroke="#929497" stroke-linejoin="round" stroke-width="1"/>
          <path id="Path_1370" data-name="Path 1370" d="M831.336,604.529l-3.587,1.435a43.511,43.511,0,0,0-1.328-4.773l3.587-1.435A42.885,42.885,0,0,1,831.336,604.529Z" transform="translate(-793.168 -573.733)" fill="#fff" stroke="#929497" stroke-linejoin="round" stroke-width="1"/>
          <path id="Path_1371" data-name="Path 1371" d="M783.624,577.977l-3.587,1.435,4.418,2.6a15.1,15.1,0,0,1,1.139-2.877Z" transform="translate(-780.037 -567.567)" fill="#fff" stroke="#929497" stroke-linejoin="round" stroke-width="1"/>
          <path id="Path_1372" data-name="Path 1372" d="M831.861,606.414l-3.587,1.435,4.418,2.6,3.587-1.435Z" transform="translate(-793.693 -575.618)" fill="#fff" stroke="#929497" stroke-linejoin="round" stroke-width="1"/>
          <path id="Path_1373" data-name="Path 1373" d="M826.422,627.532l3.126,5.742,3.587-1.435-3.126-5.742Z" transform="translate(-793.168 -581.19)" fill="#fff" stroke="#929497" stroke-linejoin="round" stroke-width="1"/>
        </g>
        <g id="Group_656" data-name="Group 656" transform="translate(7.477 13.172)">
          <g id="Group_655" data-name="Group 655" transform="translate(0 0.717)">
            <g id="Group_650" data-name="Group 650" transform="translate(0 4.428)">
              <path id="Path_1374" data-name="Path 1374" d="M790.466,590.159l20.289,11.98v-1.151l-20.289-11.98Z" transform="translate(-790.466 -589.007)" fill="#2d6c8e"/>
              <path id="Path_1375" data-name="Path 1375" d="M790.466,596.132l20.289,11.98v-1.151l-20.289-11.98Z" transform="translate(-790.466 -590.698)" fill="#2d6c8e"/>
              <path id="Path_1376" data-name="Path 1376" d="M790.466,602.1l20.289,11.98v-1.151l-20.289-11.98Z" transform="translate(-790.466 -592.389)" fill="#2d6c8e"/>
            </g>
            <g id="Group_651" data-name="Group 651" transform="translate(6.367)">
              <path id="Path_1377" data-name="Path 1377" d="M808.637,614.406l.9.529v-26.09l-.9-.529Z" transform="translate(-801.977 -584.384)" fill="#2d6c8e"/>
              <path id="Path_1378" data-name="Path 1378" d="M803.992,611.664l.9.529V586.1l-.9-.529Z" transform="translate(-800.662 -583.607)" fill="#2d6c8e"/>
              <path id="Path_1379" data-name="Path 1379" d="M799.347,608.921l.9.529V583.36l-.9-.529Z" transform="translate(-799.347 -582.831)" fill="#2d6c8e"/>
            </g>
            <g id="Group_654" data-name="Group 654" transform="translate(2.686 2.468)">
              <g id="Group_653" data-name="Group 653" transform="translate(0.538 0.537)">
                <path id="Path_1380" data-name="Path 1380" d="M796.573,605.058l10.621,6.271c.886.523,1.611.143,1.611-.845V596.277a3.569,3.569,0,0,0-1.611-2.748l-10.621-6.271c-.886-.523-1.611-.143-1.611.845V602.31A3.571,3.571,0,0,0,796.573,605.058Z" transform="translate(-794.962 -587.022)" fill="#fff"/>
                <g id="Group_652" data-name="Group 652" transform="translate(2.782 8.725)">
                  <path id="Path_1381" data-name="Path 1381" d="M798.843,605.887l8.279,4.888v1.571l-8.279-4.888Z" transform="translate(-798.843 -601.088)" fill="#2d6c8e"/>
                  <path id="Path_1382" data-name="Path 1382" d="M808.687,602.726v-3.533l1.221.721v3.533Z" transform="translate(-801.63 -599.193)" fill="#2d6c8e"/>
                  <path id="Path_1383" data-name="Path 1383" d="M798.843,600.045l2.558,1.51v1.571l-2.558-1.511Z" transform="translate(-798.843 -599.435)" fill="#2d6c8e"/>
                </g>
              </g>
              <path id="Path_1384" data-name="Path 1384" d="M806.708,611.58l-10.62-6.271h0a4.1,4.1,0,0,1-1.875-3.211V587.891a1.585,1.585,0,0,1,.721-1.444,1.677,1.677,0,0,1,1.7.135l10.62,6.271a4.1,4.1,0,0,1,1.875,3.211v14.207a1.585,1.585,0,0,1-.721,1.444,1.342,1.342,0,0,1-.675.173A2.035,2.035,0,0,1,806.708,611.58Zm-11.242-24.2a.589.589,0,0,0-.179.51V602.1a3.064,3.064,0,0,0,1.347,2.285h0l10.622,6.271a.7.7,0,0,0,.62.127c.112-.064.179-.254.179-.51V596.064a3.061,3.061,0,0,0-1.347-2.286l-10.62-6.271a1.016,1.016,0,0,0-.477-.16A.289.289,0,0,0,795.467,587.381Z" transform="translate(-794.212 -586.273)" fill="#49b5d8"/>
            </g>
          </g>
          <path id="Path_1385" data-name="Path 1385" d="M810.967,587.844l-1.435.717-.9-.529,1.435-.717Z" transform="translate(-795.61 -583.383)" fill="#fff" stroke="#929497" stroke-linejoin="round" stroke-width="0.5"/>
          <path id="Path_1386" data-name="Path 1386" d="M806.323,585.1l-1.435.717-.9-.529,1.435-.717Z" transform="translate(-794.295 -582.607)" fill="#fff" stroke="#929497" stroke-linejoin="round" stroke-width="0.5"/>
          <path id="Path_1387" data-name="Path 1387" d="M801.677,582.359l-1.435.717-.9-.529,1.435-.717Z" transform="translate(-792.98 -581.83)" fill="#fff" stroke="#929497" stroke-linejoin="round" stroke-width="0.5"/>
          <path id="Path_1388" data-name="Path 1388" d="M816.456,602.505l-1.435.717,2.686,1.586,1.435-.717Z" transform="translate(-797.417 -587.683)" fill="#fff" stroke="#929497" stroke-linejoin="round" stroke-width="0.5"/>
          <path id="Path_1389" data-name="Path 1389" d="M816.456,608.479l-1.435.717,2.686,1.586,1.435-.717Z" transform="translate(-797.417 -589.374)" fill="#fff" stroke="#929497" stroke-linejoin="round" stroke-width="0.5"/>
          <path id="Path_1390" data-name="Path 1390" d="M816.456,614.451l-1.435.717,2.686,1.586,1.435-.717Z" transform="translate(-797.417 -591.065)" fill="#fff" stroke="#929497" stroke-linejoin="round" stroke-width="0.5"/>
          <path id="Path_1391" data-name="Path 1391" d="M791.9,588.006l-1.435.717,2.686,1.586v-1.565Z" transform="translate(-790.466 -583.579)" fill="#fff" stroke="#929497" stroke-linejoin="round" stroke-width="0.5"/>
          <path id="Path_1392" data-name="Path 1392" d="M791.9,593.98l-1.435.717,2.686,1.586v-1.565Z" transform="translate(-790.466 -585.27)" fill="#fff" stroke="#929497" stroke-linejoin="round" stroke-width="0.5"/>
          <path id="Path_1393" data-name="Path 1393" d="M791.9,599.953l-1.435.717,2.686,1.586v-1.565Z" transform="translate(-790.466 -586.961)" fill="#fff" stroke="#929497" stroke-linejoin="round" stroke-width="0.5"/>
          <path id="Path_1394" data-name="Path 1394" d="M811.321,591.574l-1.435.728v-3.531l1.435-.717Z" transform="translate(-795.964 -583.592)" fill="#fff" stroke="#929497" stroke-linejoin="round" stroke-width="0.5"/>
          <path id="Path_1395" data-name="Path 1395" d="M806.676,588.831l-1.435.717v-3.521l1.435-.717Z" transform="translate(-794.649 -582.816)" fill="#fff" stroke="#929497" stroke-linejoin="round" stroke-width="0.5"/>
          <path id="Path_1396" data-name="Path 1396" d="M802.031,586.088l-1.435.717v-3.52l1.435-.717Z" transform="translate(-793.334 -582.039)" fill="#fff" stroke="#929497" stroke-linejoin="round" stroke-width="0.5"/>
          <path id="Path_1397" data-name="Path 1397" d="M820.2,605.869l-1.435.717v-1.151l1.435-.717Z" transform="translate(-798.478 -588.31)" fill="#fff" stroke="#929497" stroke-linejoin="round" stroke-width="0.5"/>
          <path id="Path_1398" data-name="Path 1398" d="M816.456,605.959l-1.435-.847v3.131l1.435-.717Z" transform="translate(-797.417 -588.421)" fill="#fff" stroke="#929497" stroke-linejoin="round" stroke-width="0.5"/>
          <path id="Path_1399" data-name="Path 1399" d="M820.2,611.842l-1.435.717v-1.151l1.435-.717Z" transform="translate(-798.478 -590.001)" fill="#fff" stroke="#929497" stroke-linejoin="round" stroke-width="0.5"/>
          <path id="Path_1400" data-name="Path 1400" d="M816.456,611.932l-1.435-.847v3.131l1.435-.717Z" transform="translate(-797.417 -590.112)" fill="#fff" stroke="#929497" stroke-linejoin="round" stroke-width="0.5"/>
          <path id="Path_1401" data-name="Path 1401" d="M818.767,618.532l1.435-.717v-1.151l-1.435.717Z" transform="translate(-798.478 -591.691)" fill="#fff" stroke="#929497" stroke-linejoin="round" stroke-width="0.5"/>
          <path id="Path_1402" data-name="Path 1402" d="M815.353,619.762l-1.338.668a1.6,1.6,0,0,0,.721-1.5v-1.873l1.435.847v.443A1.615,1.615,0,0,1,815.353,619.762Z" transform="translate(-797.133 -591.803)" fill="#fff" stroke="#929497" stroke-linejoin="round" stroke-width="0.5"/>
          <path id="Path_1403" data-name="Path 1403" d="M811.321,623.339l-1.435.717v-3.521l1.435.838Z" transform="translate(-795.964 -592.788)" fill="#fff" stroke="#929497" stroke-linejoin="round" stroke-width="0.5"/>
          <path id="Path_1404" data-name="Path 1404" d="M806.676,620.6l-1.435.717v-3.521l1.435.847Z" transform="translate(-794.649 -592.011)" fill="#fff" stroke="#929497" stroke-linejoin="round" stroke-width="0.5"/>
          <path id="Path_1405" data-name="Path 1405" d="M802.031,617.853l-1.435.717V615.05l1.435.847Z" transform="translate(-793.334 -591.235)" fill="#fff" stroke="#929497" stroke-linejoin="round" stroke-width="0.5"/>
          <path id="Path_1406" data-name="Path 1406" d="M811.321,592.965l-1.435.728,1.86,1.088a4.236,4.236,0,0,1,1.822,3.35v2.391L815,599.8v-2.469a3.92,3.92,0,0,0-1.771-3.24Z" transform="translate(-795.964 -584.982)" fill="#fff" stroke="#929497" stroke-linejoin="round" stroke-width="0.5"/>
          <path id="Path_1407" data-name="Path 1407" d="M806.676,590.222l-1.435.717,2.435,1.444v-1.571Z" transform="translate(-794.649 -584.206)" fill="#fff" stroke="#929497" stroke-linejoin="round" stroke-width="0.5"/>
          <path id="Path_1408" data-name="Path 1408" d="M803.031,588.079v1.554L800.6,588.2l1.435-.717Z" transform="translate(-793.334 -583.429)" fill="#fff" stroke="#929497" stroke-linejoin="round" stroke-width="0.5"/>
          <path id="Path_1409" data-name="Path 1409" d="M796.9,585.361l-1.453.725s.629-.321,1.737.333l1.057.646,0-1.576A1.671,1.671,0,0,0,796.9,585.361Z" transform="translate(-791.877 -582.805)" fill="#fff" stroke="#929497" stroke-linejoin="round" stroke-width="0.5"/>
        </g>
      </g>
    </g>
  </g>
</svg>
