<svg xmlns="http://www.w3.org/2000/svg" width="80.852" height="95.318" viewBox="0 0 80.852 95.318">
  <g id="commercial-services-icon" transform="translate(-290.516 -319.29)">
    <g id="Group_607" data-name="Group 607" transform="translate(290.928 319.79)">
      <g id="Group_603" data-name="Group 603" transform="translate(14.148 32.168)">
        <path id="Path_1119" data-name="Path 1119" d="M335.207,405.913" transform="translate(-321.956 -384.789)" fill="#bbbdbf"/>
        <g id="Group_598" data-name="Group 598" transform="translate(48.29)">
          <g id="Group_597" data-name="Group 597" transform="translate(0 3.979)">
            <path id="Path_1120" data-name="Path 1120" d="M391.921,419.754l-.088-41.548,10.558,6.1.133,41.559Z" transform="translate(-391.832 -378.206)" fill="#fff"/>
            <path id="Path_1121" data-name="Path 1121" d="M398.634,393.59l1.875,1.083-.014-3.612-1.875-1.083Z" transform="translate(-394.42 -382.694)" fill="#49b5d8"/>
            <path id="Path_1122" data-name="Path 1122" d="M398.68,405.442l1.875,1.083-.014-3.612-1.875-1.083Z" transform="translate(-394.437 -387.212)" fill="#49b5d8"/>
            <path id="Path_1123" data-name="Path 1123" d="M398.725,417.295l1.875,1.084-.014-3.612-1.875-1.083Z" transform="translate(-394.455 -391.73)" fill="#49b5d8"/>
            <path id="Path_1124" data-name="Path 1124" d="M401.218,425.112l1.3.754-.133-41.559-10.558-6.1.088,41.548,1.3.754-.081-39.525,7.949,4.593Z" transform="translate(-391.832 -378.206)" fill="#49b5d8"/>
          </g>
          <path id="Path_1125" data-name="Path 1125" d="M409.027,427.172l6.811-3.979-.133-41.559-6.811,3.979Z" transform="translate(-398.337 -375.534)" fill="#fff" stroke="#929497" stroke-linejoin="round" stroke-width="1"/>
          <path id="Path_1126" data-name="Path 1126" d="M398.643,371.776l-6.811,3.979,10.558,6.1,6.811-3.979Z" transform="translate(-391.832 -371.776)" fill="#fff" stroke="#929497" stroke-linejoin="round" stroke-width="1"/>
        </g>
        <g id="Group_600" data-name="Group 600" transform="translate(0 12.455)">
          <g id="Group_599" data-name="Group 599" transform="translate(0 6.192)">
            <path id="Path_1127" data-name="Path 1127" d="M328.134,427.662c2.169,1.253,4.194,1.411,5.854.453,2.28-1.315,3.535-4.608,3.535-9.271l-.051-13.46L350.48,412.9v27.9Z" transform="translate(-319.259 -403.235)" fill="#fff"/>
            <path id="Path_1128" data-name="Path 1128" d="M352.905,420.681l.011,2.887-10.646-6.152-.011-2.887Z" transform="translate(-324.644 -406.721)" fill="#49b5d8"/>
            <path id="Path_1129" data-name="Path 1129" d="M350.187,430.378l.011,2.887-7.884-4.556-.011-2.887Z" transform="translate(-324.661 -411.026)" fill="#49b5d8"/>
            <path id="Path_1130" data-name="Path 1130" d="M345.013,439.48l1.238.778v-29.4l-15.492-8.951.059,15.611c0,4.138-1.062,7.127-2.916,8.2-1.254.723-2.851.567-4.616-.454-4.291-2.479-7.843-9.708-8.219-16.491l12.78,7.4V414.73l-14.055-8.121,0,1.077c.028,7.475,4.007,15.842,8.87,18.652,2.169,1.253,4.194,1.411,5.854.453,2.28-1.316,3.535-4.608,3.535-9.271L332,404.06l13.009,7.516Z" transform="translate(-313.792 -401.911)" fill="#49b5d8"/>
          </g>
          <path id="Path_1131" data-name="Path 1131" d="M376.773,435.766l-10.526,6.192v-29.4l10.526-6.192Z" transform="translate(-333.788 -397.419)" fill="#fff" stroke="#929497" stroke-linejoin="round" stroke-width="1"/>
          <path id="Path_1132" data-name="Path 1132" d="M351.737,391.9,341.211,398.1l15.492,8.952,10.526-6.192Z" transform="translate(-324.244 -391.905)" fill="#fff" stroke="#929497" stroke-linejoin="round" stroke-width="1"/>
          <path id="Path_1133" data-name="Path 1133" d="M324.318,399.5l-10.526,6.192,14.055,8.121,2.96-1.741-.048-8.85Z" transform="translate(-313.792 -394.799)" fill="#fff" stroke="#929497" stroke-linejoin="round" stroke-width="1"/>
          <path id="Path_1134" data-name="Path 1134" d="M336.505,421.555V423l2.96-1.741v-1.446Z" transform="translate(-322.45 -402.544)" fill="#fff" stroke="#929497" stroke-linejoin="round" stroke-width="1"/>
          <path id="Path_1135" data-name="Path 1135" d="M331.592,418.664l-2.96,1.741-12.78-7.4a25.875,25.875,0,0,0,4.352,12.744c4.149,5.86,7.726,4.763,8.538,4.2C329.678,429.292,332.029,427.915,331.592,418.664Z" transform="translate(-314.577 -399.948)" fill="#fff"/>
        </g>
        <g id="Group_602" data-name="Group 602" transform="translate(22.798 31.415)">
          <path id="Path_1136" data-name="Path 1136" d="M388.377,443.461s-.245-11.5-6.49-17.515c-5.092-4.9-8.144-3.061-8.144-3.061L357.025,432.7s3.181-1.7,8.26,3.216c6.169,5.975,6.375,17.359,6.375,17.359Z" transform="translate(-353.071 -422.545)" fill="#fff" stroke="#929497" stroke-linejoin="round" stroke-width="1"/>
          <g id="Group_601" data-name="Group 601" transform="translate(0 9.84)">
            <path id="Path_1137" data-name="Path 1137" d="M351.939,449.356l15.98,9.232,1.3.754c0-.144-.161-14.392-9.349-19.7s-9.24,8.818-9.239,8.961Z" transform="translate(-350.635 -438.448)" fill="#fff"/>
            <path id="Path_1138" data-name="Path 1138" d="M351.939,449.356c0-.5.069-12.241,7.942-7.692,7.9,4.564,8.036,16.422,8.037,16.924l1.3.754c0-.144-.161-14.392-9.349-19.7s-9.24,8.818-9.239,8.961Z" transform="translate(-350.635 -438.448)" fill="#2d6c8e"/>
            <path id="Path_1139" data-name="Path 1139" d="M369.362,453.171l1.861,1.075.03,7.756-1.861-1.075Z" transform="translate(-357.774 -444.061)" fill="#2d6c8e"/>
            <path id="Path_1140" data-name="Path 1140" d="M362.087,453.131l1.875,1.083-.016-4.173-1.875-1.083Z" transform="translate(-354.995 -442.455)" fill="#2d6c8e"/>
          </g>
        </g>
      </g>
      <g id="Group_606" data-name="Group 606">
        <path id="Path_1141" data-name="Path 1141" d="M313.1,341.238l-3.077-1.789.072-6.363,3.077,1.789a17.317,17.317,0,0,1,.7-3.015l-2.637-3.643,2.394-4.155,2.64,3.647a7.6,7.6,0,0,1,1.851-1.428l-1.5-4.529,4.074-.833,1.5,4.524a9.844,9.844,0,0,1,2.5.543l.048-4.2,4.663,2.711-.048,4.2a23.336,23.336,0,0,1,2.482,2.354l1.577-2.738,4,5.529-1.579,2.741a37.31,37.31,0,0,1,1.794,3.547l2.687-.55,2.269,6.866-2.685.549a33.092,33.092,0,0,1,.625,3.786l3.077,1.788-.072,6.363-3.077-1.789a17.352,17.352,0,0,1-.7,3.015L342.4,363.8l-2.394,4.155-2.64-3.647a7.6,7.6,0,0,1-1.851,1.428l1.5,4.529-4.075.833-1.495-4.524a9.846,9.846,0,0,1-2.5-.543l-.048,4.2-4.663-2.711.048-4.2a23.409,23.409,0,0,1-2.481-2.354l-1.577,2.738-4-5.529,1.579-2.741A37.119,37.119,0,0,1,316,351.889l-2.687.55-2.269-6.866,2.685-.549A32.811,32.811,0,0,1,313.1,341.238Z" transform="translate(-298.209 -320.22)" fill="#fff" stroke="#929497" stroke-linejoin="round" stroke-width="1"/>
        <path id="Path_1142" data-name="Path 1142" d="M312.163,341.176l-3.117-1.812.089-7.75,3.218,1.871a17.523,17.523,0,0,1,.484-1.95l-2.686-3.711,3.054-5.3,2.78,3.84a8.126,8.126,0,0,1,1.043-.785l-1.557-4.711,5.265-1.077,1.54,4.661a10.207,10.207,0,0,1,1.458.289l.05-4.424,5.862,3.408-.049,4.262a23.927,23.927,0,0,1,1.757,1.632l1.639-2.843,4.776,6.6-1.6,2.78c.519.921,1.006,1.879,1.452,2.858l2.739-.561,2.65,8.019-2.752.563c.2.982.361,1.97.473,2.949l3.117,1.812-.088,7.749-3.218-1.87a17.442,17.442,0,0,1-.485,1.949l2.686,3.712-3.054,5.3-2.78-3.84a8.265,8.265,0,0,1-1.043.785l1.556,4.711-5.264,1.077-1.54-4.661a10.279,10.279,0,0,1-1.458-.289l-.05,4.424-5.862-3.408.048-4.262a23.809,23.809,0,0,1-1.757-1.632l-1.638,2.843-4.778-6.6,1.6-2.78c-.519-.921-1.006-1.879-1.452-2.858l-2.739.561-2.65-8.019,2.752-.563C312.434,343.144,312.276,342.155,312.163,341.176Z" transform="translate(-297.835 -319.79)" fill="#fff" stroke="#929497" stroke-linejoin="round" stroke-width="1"/>
        <path id="Path_1143" data-name="Path 1143" d="M321.029,319.79l-11.212,6.382,1.54,4.661,11.212-6.382Z" transform="translate(-298.129 -319.79)" fill="#fff" stroke="#929497" stroke-linejoin="round" stroke-width="1"/>
        <path id="Path_1144" data-name="Path 1144" d="M312.306,333.7s.942.141,1.458.289l11.212-6.382a10.667,10.667,0,0,0-1.458-.289Z" transform="translate(-299.078 -322.661)" fill="#fff" stroke="#929497" stroke-linejoin="round" stroke-width="1"/>
        <path id="Path_1145" data-name="Path 1145" d="M320.606,330.43l11.212-6.382-5.862-3.408-11.212,6.382Z" transform="translate(-300.007 -320.114)" fill="#fff" stroke="#929497" stroke-linejoin="round" stroke-width="1"/>
        <path id="Path_1146" data-name="Path 1146" d="M335.4,326.147l-11.212,6.382-.049,4.262,11.212-6.382Z" transform="translate(-303.588 -322.213)" fill="#fff" stroke="#929497" stroke-linejoin="round" stroke-width="1"/>
        <path id="Path_1147" data-name="Path 1147" d="M335.35,333.034l-11.212,6.383s1.161,1.012,1.757,1.632l11.212-6.382S335.948,333.516,335.35,333.034Z" transform="translate(-303.588 -324.839)" fill="#fff" stroke="#929497" stroke-linejoin="round" stroke-width="1"/>
        <path id="Path_1148" data-name="Path 1148" d="M340.837,331.078l-11.212,6.382,4.777,6.6,11.212-6.382Z" transform="translate(-305.68 -324.093)" fill="#fff" stroke="#929497" stroke-linejoin="round" stroke-width="1"/>
        <g id="Group_604" data-name="Group 604" transform="translate(0 6.382)">
          <path id="Path_1149" data-name="Path 1149" d="M291.909,349.763l.072-6.363,3.077,1.789a17.32,17.32,0,0,1,.7-3.015l-2.637-3.643,2.394-4.155,2.64,3.647a7.593,7.593,0,0,1,1.851-1.428l-1.5-4.529,4.075-.833,1.5,4.524a9.844,9.844,0,0,1,2.5.543l.048-4.2,4.663,2.711-.048,4.2a23.4,23.4,0,0,1,2.481,2.354l1.577-2.738,4,5.529-1.579,2.741a37.174,37.174,0,0,1,1.794,3.547l2.687-.55,2.269,6.866-2.685.549a32.962,32.962,0,0,1,.625,3.786l3.077,1.788-.072,6.363-3.077-1.789a17.293,17.293,0,0,1-.7,3.015l2.637,3.643-2.394,4.155-2.64-3.647a7.6,7.6,0,0,1-1.851,1.427l1.5,4.529-4.074.833-1.495-4.524a9.843,9.843,0,0,1-2.5-.543l-.048,4.2-4.663-2.711.048-4.2a23.4,23.4,0,0,1-2.482-2.354l-1.577,2.738-4-5.53,1.579-2.741a37.12,37.12,0,0,1-1.794-3.548l-2.687.55-2.269-6.866,2.685-.549a33.084,33.084,0,0,1-.625-3.786Z" transform="translate(-291.302 -330.534)" fill="#fff"/>
          <path id="Path_1150" data-name="Path 1150" d="M312.5,377.023a10.2,10.2,0,0,1-1.458-.289l-.05,4.424-5.862-3.408.049-4.262a23.569,23.569,0,0,1-1.757-1.632l-1.638,2.843-4.777-6.6,1.6-2.78c-.519-.921-1.006-1.879-1.452-2.858l-2.739.561L291.766,355l2.752-.563c-.2-.981-.361-1.97-.473-2.949l-3.117-1.812.088-7.75,3.218,1.871a17.533,17.533,0,0,1,.484-1.949l-2.686-3.711,3.054-5.3,2.78,3.841a8.116,8.116,0,0,1,1.043-.786l-1.556-4.711,5.264-1.077,1.54,4.661a10.277,10.277,0,0,1,1.458.289l.05-4.424,5.862,3.408-.049,4.262a23.549,23.549,0,0,1,1.757,1.632l1.638-2.843,4.777,6.6-1.6,2.78c.519.921,1.006,1.879,1.452,2.858l2.739-.561,2.65,8.02-2.752.563c.2.981.361,1.97.473,2.948l3.117,1.812-.088,7.75-3.218-1.871a17.563,17.563,0,0,1-.484,1.949l2.686,3.711-3.054,5.3-2.78-3.84a8.17,8.17,0,0,1-1.043.785l1.556,4.711-5.264,1.078Zm3.791-1.689.442-.241a7.006,7.006,0,0,0,1.7-1.316l.5-.522,2.517,3.478,1.734-3.009-2.59-3.578.1-.294a16.808,16.808,0,0,0,.678-2.91l.129-.883,2.953,1.717.057-4.976-3.038-1.766-.032-.3a32.367,32.367,0,0,0-.613-3.717l-.135-.6,2.622-.536-1.887-5.713-2.638.54-.2-.445a36.853,36.853,0,0,0-1.766-3.49l-.174-.3,1.558-2.7-3.227-4.458-1.524,2.645-.556-.608a22.784,22.784,0,0,0-2.417-2.293l-.226-.184.048-4.138-3.465-2.014-.045,4-.793-.277a9.25,9.25,0,0,0-2.349-.511l-.4-.03-1.453-4.4-2.884.59,1.442,4.362-.442.241a7.026,7.026,0,0,0-1.7,1.315l-.5.522-2.517-3.478-1.734,3.009,2.59,3.578-.1.295a16.774,16.774,0,0,0-.677,2.909l-.129.883-2.953-1.717-.057,4.976,3.038,1.766.032.3a32.5,32.5,0,0,0,.613,3.717l.135.6-2.622.537,1.888,5.712,2.638-.54.2.445a36.849,36.849,0,0,0,1.765,3.49l.174.3-1.558,2.7,3.226,4.458,1.525-2.645.556.608a22.8,22.8,0,0,0,2.418,2.294l.225.184-.047,4.137,3.464,2.014.045-4,.793.277a9.25,9.25,0,0,0,2.348.511l.4.03,1.453,4.4,2.884-.59Z" transform="translate(-290.928 -330.104)" fill="#2d6c8e"/>
        </g>
        <path id="Path_1151" data-name="Path 1151" d="M352.743,349.949l-11.212,6.382,2.65,8.02,11.212-6.382Z" transform="translate(-310.219 -331.287)" fill="#fff" stroke="#929497" stroke-linejoin="round" stroke-width="1"/>
        <path id="Path_1152" data-name="Path 1152" d="M347.571,341.745l-11.212,6.382-1.6,2.78,11.212-6.382Z" transform="translate(-307.636 -328.159)" fill="#fff" stroke="#929497" stroke-linejoin="round" stroke-width="1"/>
        <path id="Path_1153" data-name="Path 1153" d="M345.969,346.237l-11.212,6.382s1.072,2,1.452,2.858l11.212-6.382S346.249,346.627,345.969,346.237Z" transform="translate(-307.636 -329.872)" fill="#fff" stroke="#929497" stroke-linejoin="round" stroke-width="1"/>
        <path id="Path_1154" data-name="Path 1154" d="M348.315,350.51,337.1,356.892l2.74-.561,11.212-6.382Z" transform="translate(-308.531 -331.287)" fill="#fff" stroke="#929497" stroke-linejoin="round" stroke-width="1"/>
        <path id="Path_1155" data-name="Path 1155" d="M358.326,371.514,347.114,377.9l-.088,7.749,11.212-6.382Z" transform="translate(-312.313 -339.508)" fill="#fff" stroke="#929497" stroke-linejoin="round" stroke-width="1"/>
        <path id="Path_1156" data-name="Path 1156" d="M353.051,367.326l-11.212,6.382s-.277-2-.473-2.949l2.752-.563,8.633-4.915S352.949,366.394,353.051,367.326Z" transform="translate(-310.156 -337.132)" fill="#fff" stroke="#929497" stroke-linejoin="round" stroke-width="1"/>
        <path id="Path_1157" data-name="Path 1157" d="M353.342,368.585l-11.212,6.382,3.117,1.812L356.46,370.4Z" transform="translate(-310.447 -338.391)" fill="#fff" stroke="#929497" stroke-linejoin="round" stroke-width="1"/>
        <path id="Path_1158" data-name="Path 1158" d="M354.942,388.761l-11.212,6.382-2.686-3.711,1.94-1.1,1.762,1.026,8.549-4.867Z" transform="translate(-310.033 -345.216)" fill="#fff" stroke="#929497" stroke-linejoin="round" stroke-width="1"/>
        <path id="Path_1159" data-name="Path 1159" d="M342.984,392.174l-1.456-.845a19.363,19.363,0,0,1-.484,1.949Z" transform="translate(-310.033 -347.062)" fill="#fff" stroke="#929497" stroke-linejoin="round" stroke-width="1"/>
        <path id="Path_1160" data-name="Path 1160" d="M354.715,390.163,343.5,396.545l-3.054,5.3,11.212-6.382Z" transform="translate(-309.806 -346.617)" fill="#fff" stroke="#929497" stroke-linejoin="round" stroke-width="1"/>
        <path id="Path_1161" data-name="Path 1161" d="M347.039,401.215,335.828,407.6l-1.557-4.711,1.142-.65,2.681,3.7,8.843-5.034Z" transform="translate(-307.451 -350.713)" fill="#fff" stroke="#929497" stroke-linejoin="round" stroke-width="1"/>
        <path id="Path_1162" data-name="Path 1162" d="M335.314,402.837a9.95,9.95,0,0,1-1.043.785l1.142-.65Z" transform="translate(-307.451 -351.449)" fill="#fff" stroke="#929497" stroke-linejoin="round" stroke-width="1"/>
        <path id="Path_1163" data-name="Path 1163" d="M317.786,319.79l-5.264,1.077-11.212,6.382,5.264-1.077Z" transform="translate(-294.886 -319.79)" fill="#fff" stroke="#929497" stroke-linejoin="round" stroke-width="1"/>
        <path id="Path_1164" data-name="Path 1164" d="M297.647,333.691l2.367-1.348,1.455,4.4a11.7,11.7,0,0,0-1.043.786Z" transform="translate(-293.489 -324.575)" fill="#fff" stroke="#929497" stroke-linejoin="round" stroke-width="1"/>
        <path id="Path_1165" data-name="Path 1165" d="M291.07,348.28l2.661-1.515,1.041,1.436s-.278.907-.484,1.949Z" transform="translate(-290.982 -330.073)" fill="#fff" stroke="#929497" stroke-linejoin="round" stroke-width="1"/>
        <path id="Path_1166" data-name="Path 1166" d="M292.283,369.436l2.579-1.468.173.905Z" transform="translate(-291.445 -338.156)" fill="#fff" stroke="#929497" stroke-linejoin="round" stroke-width="1"/>
        <path id="Path_1167" data-name="Path 1167" d="M323.352,409.885l2.419-1.377-.91-2.758a13.622,13.622,0,0,1-1.458-.289Z" transform="translate(-303.288 -352.449)" fill="#fff" stroke="#929497" stroke-linejoin="round" stroke-width="1"/>
        <path id="Path_1168" data-name="Path 1168" d="M308.471,400.421l2.891-1.646-1.253-1.2Z" transform="translate(-297.616 -349.444)" fill="#fff" stroke="#929497" stroke-linejoin="round" stroke-width="1"/>
        <g id="Group_605" data-name="Group 605" transform="translate(5.488 18.176)">
          <path id="Path_1169" data-name="Path 1169" d="M315.513,356.619a7.026,7.026,0,0,1-2.841-5.195,2.118,2.118,0,0,1,1.023-2.06,2.425,2.425,0,0,1,2.52.407,7.029,7.029,0,0,1,2.84,5.195,2.119,2.119,0,0,1-1.023,2.06,1.779,1.779,0,0,1-.835.2A3.03,3.03,0,0,1,315.513,356.619Zm-1.243-6.159c-.23.121-.361.472-.361.965a5.839,5.839,0,0,0,2.306,4.175c.509.35.974.472,1.242.331.23-.121.361-.473.361-.965a5.841,5.841,0,0,0-2.3-4.176,1.88,1.88,0,0,0-.981-.388A.558.558,0,0,0,314.269,350.46Z" transform="translate(-304.705 -349.163)" fill="#2d6c8e"/>
          <path id="Path_1170" data-name="Path 1170" d="M329.662,386.525a7.027,7.027,0,0,1-2.841-5.2,2.12,2.12,0,0,1,1.022-2.059,2.428,2.428,0,0,1,2.521.406,7.029,7.029,0,0,1,2.84,5.195,2.119,2.119,0,0,1-1.022,2.06,1.775,1.775,0,0,1-.836.2A3.03,3.03,0,0,1,329.662,386.525Zm-1.243-6.159c-.23.12-.361.472-.361.964a5.842,5.842,0,0,0,2.3,4.176c.507.349.973.473,1.242.33.23-.121.361-.472.361-.965a5.844,5.844,0,0,0-2.3-4.176,1.885,1.885,0,0,0-.981-.388A.557.557,0,0,0,328.418,380.365Z" transform="translate(-310.099 -360.563)" fill="#2d6c8e"/>
          <path id="Path_1171" data-name="Path 1171" d="M316.829,380.472l1.238.722v-20.8h-1.238Z" transform="translate(-306.29 -353.443)" fill="#2d6c8e"/>
          <path id="Path_1172" data-name="Path 1172" d="M321.789,391.934l1.238.735v-4.463l3.476-1.271-.425-1.162-4.288,1.568Z" transform="translate(-308.181 -363.12)" fill="#2d6c8e"/>
          <path id="Path_1173" data-name="Path 1173" d="M328.335,371.2a7.031,7.031,0,0,1-2.84-5.195,2.12,2.12,0,0,1,1.022-2.06,2.425,2.425,0,0,1,2.52.407,7.031,7.031,0,0,1,2.84,5.195,2.12,2.12,0,0,1-1.022,2.06,1.781,1.781,0,0,1-.836.2A3.036,3.036,0,0,1,328.335,371.2Zm-1.241-6.159c-.23.121-.361.472-.361.965a5.842,5.842,0,0,0,2.3,4.176c.507.349.972.473,1.242.33.23-.121.361-.472.361-.965a5.841,5.841,0,0,0-2.3-4.176,1.871,1.871,0,0,0-.98-.388A.555.555,0,0,0,327.093,365.042Z" transform="translate(-309.593 -354.722)" fill="#2d6c8e"/>
          <path id="Path_1174" data-name="Path 1174" d="M321.789,377.964l1.238.729v-5.77l2.707-.99-.425-1.162-3.519,1.286Z" transform="translate(-308.181 -357.4)" fill="#2d6c8e"/>
          <path id="Path_1175" data-name="Path 1175" d="M302.638,357.57a7.027,7.027,0,0,1-2.841-5.195,2.119,2.119,0,0,1,1.023-2.061,2.428,2.428,0,0,1,2.52.406,7.031,7.031,0,0,1,2.84,5.195,2.118,2.118,0,0,1-1.023,2.06,1.772,1.772,0,0,1-.835.2A3.031,3.031,0,0,1,302.638,357.57Zm-1.243-6.159c-.23.12-.361.472-.361.965a5.839,5.839,0,0,0,2.306,4.175c.508.35.974.471,1.242.33.23-.12.361-.472.361-.965a5.84,5.84,0,0,0-2.3-4.175,1.882,1.882,0,0,0-.981-.389A.558.558,0,0,0,301.4,351.411Z" transform="translate(-299.797 -349.526)" fill="#2d6c8e"/>
          <path id="Path_1176" data-name="Path 1176" d="M309.95,376.26l1.238.747v-9.962l-3.2-5.567-1.073.616,3.031,5.281Z" transform="translate(-302.512 -353.858)" fill="#2d6c8e"/>
        </g>
      </g>
    </g>
  </g>
</svg>
