<svg xmlns="http://www.w3.org/2000/svg" width="77.211" height="94.818" viewBox="0 0 77.211 94.818">
  <g id="Container-yard-icon" transform="translate(-301.864 -334.423)">
    <g id="Group_726" data-name="Group 726" transform="translate(302.364 334.923)">
      <path id="Path_1620" data-name="Path 1620" d="M350.361,438.026V389.612l-47-27.487v48.414Z" transform="translate(-302.728 -344.817)" fill="#fff"/>
      <path id="Path_1621" data-name="Path 1621" d="M302.679,410.455l-.315-.185V360.382l47.955,28.047.315.185V438.5Zm.958-47.855v46.941l45.725,26.742v-46.94Z" transform="translate(-302.364 -344.183)" fill="#2d6c8e"/>
      <g id="Group_725" data-name="Group 725" transform="translate(6.145 33.102)">
        <path id="Path_1622" data-name="Path 1622" d="M356.047,439.572V412.137l3.315,1.931V412.6l-4.588-2.673v27.435l-3.315-1.932V436.9Z" transform="translate(-326.366 -395.303)" fill="#49b5d8"/>
        <path id="Path_1623" data-name="Path 1623" d="M336.329,428.083V400.648l3.315,1.932,0-1.471-4.592-2.675v27.435l-3.315-1.931,0,1.474Z" transform="translate(-319.194 -391.125)" fill="#49b5d8"/>
        <path id="Path_1624" data-name="Path 1624" d="M316.611,416.6V389.161l3.316,1.931v-1.474l-4.587-2.672v27.435l-3.316-1.931v1.473Z" transform="translate(-312.022 -386.947)" fill="#49b5d8"/>
      </g>
      <path id="Path_1625" data-name="Path 1625" d="M379.227,444.893V396.479l26.668-15.474v48.414Z" transform="translate(-330.319 -351.683)" fill="#fff"/>
      <path id="Path_1626" data-name="Path 1626" d="M404.3,423.678l-9.809,5.7v-1.91l9.809-5.7Z" transform="translate(-335.87 -366.509)" fill="#2d6c8e"/>
      <path id="Path_1627" data-name="Path 1627" d="M379.315,414.1l3.987-2.315v1.91l-3.987,2.315Z" transform="translate(-330.351 -362.877)" fill="#2d6c8e"/>
      <path id="Path_1628" data-name="Path 1628" d="M418.859,391.136l-3.987,2.315v1.91l3.987-2.315Z" transform="translate(-343.284 -355.368)" fill="#2d6c8e"/>
      <path id="Path_1629" data-name="Path 1629" d="M379.315,468.59l3.987-2.315v-1.91l-3.987,2.315Z" transform="translate(-330.351 -382.002)" fill="#2d6c8e"/>
      <path id="Path_1630" data-name="Path 1630" d="M418.859,445.631l-3.987,2.315v-1.91l3.987-2.315Z" transform="translate(-343.284 -374.493)" fill="#2d6c8e"/>
      <path id="Path_1631" data-name="Path 1631" d="M378.227,395.481l27.94-16.212v49.886l-27.94,16.211Zm26.667-14L379.5,396.214v46.943l25.395-14.735Z" transform="translate(-329.956 -351.052)" fill="#49b5d8"/>
      <line id="Line_15" data-name="Line 15" y2="48.414" transform="translate(63.761 36.056)" fill="none" stroke="#49b5d8" stroke-miterlimit="10" stroke-width="2"/>
      <path id="Path_1632" data-name="Path 1632" d="M330.305,334.923l-27.941,16.2,48.271,28.229,27.94-16.212Z" transform="translate(-302.364 -334.923)" fill="#fff" stroke="#929497" stroke-linejoin="round" stroke-width="1"/>
    </g>
  </g>
</svg>
