<svg xmlns="http://www.w3.org/2000/svg" width="92.615" height="95.318" viewBox="0 0 92.615 95.318">
  <g id="Distribution-centers-icon" transform="translate(-1007.988 -113.362)">
    <g id="Group_753" data-name="Group 753" transform="translate(1008.488 113.862)">
      <path id="Path_1703" data-name="Path 1703" d="M1073.662,124.931l-15.219,9.3-18.827-11.069,15.219-9.3Z" transform="translate(-1013.313 -113.862)" fill="#fff" stroke="#929497" stroke-linejoin="round" stroke-width="1"/>
      <path id="Path_1704" data-name="Path 1704" d="M1058.443,135.938l-18.827-11.069v51.981l18.827,11.069Z" transform="translate(-1013.313 -115.568)" fill="#fff" stroke="#2d6c8e" stroke-linejoin="round" stroke-width="1"/>
      <g id="Group_747" data-name="Group 747" transform="translate(30.719 18.287)">
        <path id="Path_1705" data-name="Path 1705" d="M1058.362,148.844v-5.382l-1.691-1v5.382Z" transform="translate(-1046.676 -136.582)" fill="#49b5d8"/>
        <path id="Path_1706" data-name="Path 1706" d="M1050.757,144.363v-5.382l1.691,1v5.382Z" transform="translate(-1045.759 -136.043)" fill="#49b5d8"/>
        <path id="Path_1707" data-name="Path 1707" d="M1044.842,140.886V135.5l1.691,1v5.382Z" transform="translate(-1044.842 -135.504)" fill="#49b5d8"/>
      </g>
      <path id="Path_1708" data-name="Path 1708" d="M1093.164,143.858l15.219-9.3-31.266-18.382-15.219,9.3Z" transform="translate(-1016.768 -114.22)" fill="#fff" stroke="#929497" stroke-linejoin="round" stroke-width="1"/>
      <path id="Path_1709" data-name="Path 1709" d="M1114.12,199.025l-15.219,9.3V147.231l15.219-9.3Z" transform="translate(-1022.505 -117.593)" fill="#fff" stroke="#929497" stroke-linejoin="round" stroke-width="1"/>
      <path id="Path_1710" data-name="Path 1710" d="M1061.9,127.182l31.266,18.382v61.095L1061.9,188.277Z" transform="translate(-1016.768 -115.927)" fill="#fff" stroke="#2d6c8e" stroke-linejoin="round" stroke-width="1"/>
      <path id="Path_1711" data-name="Path 1711" d="M1069.1,140.03l19.093,11.225v1.691L1069.1,141.721Z" transform="translate(-1017.885 -117.919)" fill="#49b5d8"/>
      <path id="Path_1712" data-name="Path 1712" d="M1088.194,159.2,1069.1,147.976v1.691l19.093,11.225Z" transform="translate(-1017.885 -119.151)" fill="#49b5d8"/>
      <path id="Path_1713" data-name="Path 1713" d="M1088.194,167.148,1069.1,155.922v1.691l19.093,11.225Z" transform="translate(-1017.885 -120.382)" fill="#49b5d8"/>
      <g id="Group_752" data-name="Group 752" transform="translate(0 37.152)">
        <path id="Path_1714" data-name="Path 1714" d="M1037.6,190.134l-15.151,9.245-7.327-9.245,15.218-9.3Z" transform="translate(-1009.516 -161.397)" fill="#2d6c8e" stroke="#2d6c8e" stroke-miterlimit="10" stroke-width="1"/>
        <path id="Path_1715" data-name="Path 1715" d="M1069.955,209.089l-15.493,9.47-7-9.47,15.307-9.373Z" transform="translate(-1014.529 -164.324)" fill="#2d6c8e" stroke="#2d6c8e" stroke-miterlimit="10" stroke-width="1"/>
        <path id="Path_1716" data-name="Path 1716" d="M1044.536,209.428l15.219-9.3-1.844-5.869-15.579,8.863Z" transform="translate(-1013.734 -163.478)" fill="#2d6c8e" stroke="#2d6c8e" stroke-linejoin="round" stroke-width="1"/>
        <path id="Path_1717" data-name="Path 1717" d="M1012.256,190.711l15.219-9.3-1.53-4.35-15.738,8.809Z" transform="translate(-1008.754 -160.812)" fill="#2d6c8e" stroke="#2d6c8e" stroke-linejoin="round" stroke-width="1"/>
        <ellipse id="Ellipse_17" data-name="Ellipse 17" cx="3.308" cy="5.908" rx="3.308" ry="5.908" transform="translate(30.428 46.621) rotate(-36.809)" fill="#fff" stroke="#2d6c8e" stroke-linejoin="round" stroke-width="1"/>
        <ellipse id="Ellipse_18" data-name="Ellipse 18" cx="3.308" cy="5.908" rx="3.308" ry="5.908" transform="translate(3.128 30.57) rotate(-36.809)" fill="#fff" stroke="#2d6c8e" stroke-linejoin="round" stroke-width="1"/>
        <ellipse id="Ellipse_19" data-name="Ellipse 19" cx="3.308" cy="5.908" rx="3.308" ry="5.908" transform="translate(45.647 37.32) rotate(-36.809)" fill="#fff" stroke="#231f20" stroke-miterlimit="10" stroke-width="1"/>
        <ellipse id="Ellipse_20" data-name="Ellipse 20" cx="3.308" cy="5.908" rx="3.308" ry="5.908" transform="translate(18.347 21.27) rotate(-36.809)" fill="#fff" stroke="#231f20" stroke-miterlimit="10" stroke-width="1"/>
        <path id="Path_1718" data-name="Path 1718" d="M1033.033,161.484l-15.219,9.3,8.938,5.255V167.7l8.262-5.049Z" transform="translate(-1009.933 -158.397)" fill="#fff" stroke="#929497" stroke-linejoin="round" stroke-width="1"/>
        <path id="Path_1719" data-name="Path 1719" d="M1023.707,165.668l-15.219,9.3,2.178,1.281,5.7-4.816,8.406-5.137Z" transform="translate(-1008.488 -159.046)" fill="#fff" stroke="#929497" stroke-linejoin="round" stroke-width="1"/>
        <path id="Path_1720" data-name="Path 1720" d="M1082.737,180.834l-15.219,9.3v28.428l15.219-9.3Z" transform="translate(-1017.639 -161.397)" fill="#fff" stroke="#929497" stroke-linejoin="round" stroke-width="1"/>
        <path id="Path_1721" data-name="Path 1721" d="M1043.611,157.83l-15.219,9.3,33.061,19.437,15.219-9.3Z" transform="translate(-1011.573 -157.83)" fill="#fff" stroke="#929497" stroke-linejoin="round" stroke-width="1"/>
        <path id="Path_1722" data-name="Path 1722" d="M1061.452,188.275V216.7L1054,212.324c0-3.212-2.6-7.345-5.815-9.233s-5.814-.815-5.814,2.4l-13.984-8.221V168.837Z" transform="translate(-1011.573 -159.537)" fill="#2d6c8e"/>
        <g id="Group_749" data-name="Group 749" transform="translate(31.338 31.2)">
          <path id="Path_1723" data-name="Path 1723" d="M1066.9,210.2l-21.319-12.534v-1.691l21.319,12.534Z" transform="translate(-1045.576 -194.944)" fill="#3e9ac3"/>
          <path id="Path_1724" data-name="Path 1724" d="M1087.717,200.273l-16.91,10.331v-1.691l16.91-10.331Z" transform="translate(-1049.487 -195.349)" fill="#fff" stroke="#929497" stroke-linejoin="round" stroke-width="1"/>
          <g id="Group_748" data-name="Group 748">
            <path id="Path_1725" data-name="Path 1725" d="M1082.737,195.472l-15.219,9.3,4.47,2.628,15.219-9.3Z" transform="translate(-1048.978 -194.866)" fill="#fff" stroke="#929497" stroke-linejoin="round" stroke-width="1"/>
            <path id="Path_1726" data-name="Path 1726" d="M1068.586,207.29l-1.691,1.03-21.319-12.534,1.691-1.03Z" transform="translate(-1045.576 -194.755)" fill="#7fcbec"/>
          </g>
        </g>
        <g id="Group_751" data-name="Group 751" transform="translate(24.018 20.457)">
          <path id="Path_1727" data-name="Path 1727" d="M1036.912,184.952l26.766,15.736v-1.734l-26.766-15.693Z" transform="translate(-1036.912 -182.23)" fill="#3e9ac3"/>
          <g id="Group_750" data-name="Group 750">
            <path id="Path_1728" data-name="Path 1728" d="M1082.737,187.852l-15.219,9.3,2.6,1.526,15.219-9.3Z" transform="translate(-1041.657 -182.942)" fill="#fff" stroke="#929497" stroke-linejoin="round" stroke-width="1"/>
            <path id="Path_1729" data-name="Path 1729" d="M1038.6,182.041l-1.691,1.03,26.753,15.693,1.7-.987Z" transform="translate(-1036.912 -182.041)" fill="#7fcbec"/>
          </g>
          <path id="Path_1730" data-name="Path 1730" d="M1085.5,191.349l-16.91,10.331v-1.737l16.91-10.285Z" transform="translate(-1041.823 -183.222)" fill="#fff" stroke="#929497" stroke-linejoin="round" stroke-width="1"/>
        </g>
        <path id="Path_1731" data-name="Path 1731" d="M1010.666,177.307l5.7-4.816,8.938,5.255v20.087l-1.688-.993c0-3.211-2.6-7.344-5.814-9.233s-5.814-.815-5.814,2.4l-3.5-2.059V176.026Z" transform="translate(-1008.488 -160.103)" fill="#49b5d8"/>
      </g>
    </g>
  </g>
</svg>
