<svg xmlns="http://www.w3.org/2000/svg" width="67.293" height="95.318" viewBox="0 0 67.293 95.318">
  <g id="Factory-and-industrial-loan-icon" transform="translate(-538.339 -316.672)">
    <g id="Group_786" data-name="Group 786" transform="translate(538.839 317.172)">
      <g id="Group_777" data-name="Group 777" transform="translate(22.471)">
        <path id="Path_1764" data-name="Path 1764" d="M599,337.653l-2.93-1.7.069-6.06,2.93,1.7a16.462,16.462,0,0,1,.669-2.871l-2.512-3.47,2.28-3.957,2.514,3.473a7.224,7.224,0,0,1,1.763-1.36l-1.426-4.313,3.88-.794,1.424,4.309a9.348,9.348,0,0,1,2.383.517l.045-4,4.441,2.582-.045,4a22.407,22.407,0,0,1,2.363,2.242l1.5-2.607,3.812,5.266-1.5,2.61a35.292,35.292,0,0,1,1.709,3.379l2.56-.524,2.161,6.539-2.557.523a31.505,31.505,0,0,1,.6,3.605l2.93,1.7-.069,6.06-2.93-1.7a16.5,16.5,0,0,1-.669,2.871l2.512,3.47-2.28,3.957-2.514-3.473a7.232,7.232,0,0,1-1.763,1.36l1.426,4.313-3.88.794-1.424-4.309a9.375,9.375,0,0,1-2.383-.517l-.045,4-4.441-2.582.045-4a22.279,22.279,0,0,1-2.363-2.242l-1.5,2.607-3.812-5.266,1.5-2.61a35.4,35.4,0,0,1-1.709-3.379l-2.559.524-2.161-6.539,2.557-.523A31.54,31.54,0,0,1,599,337.653Z" transform="translate(-584.813 -317.636)" fill="#fff" stroke="#929497" stroke-linejoin="round" stroke-width="1"/>
        <path id="Path_1765" data-name="Path 1765" d="M598.057,337.54l-2.969-1.726.084-7.381,3.065,1.781a16.7,16.7,0,0,1,.461-1.856l-2.558-3.535,2.908-5.048,2.648,3.657a7.775,7.775,0,0,1,.994-.748l-1.482-4.487,5.013-1.026,1.467,4.439a9.786,9.786,0,0,1,1.389.275l.048-4.213,5.583,3.245-.047,4.059a22.308,22.308,0,0,1,1.674,1.555l1.561-2.707,4.55,6.286-1.526,2.647c.494.877.958,1.79,1.383,2.722l2.609-.534,2.523,7.638-2.621.536c.193.935.344,1.876.451,2.808l2.969,1.726-.084,7.381-3.064-1.782a16.7,16.7,0,0,1-.461,1.856l2.558,3.535-2.909,5.048-2.647-3.657a7.722,7.722,0,0,1-.994.748l1.482,4.486L617.1,366.3l-1.467-4.439a9.7,9.7,0,0,1-1.389-.275l-.048,4.213-5.583-3.245.047-4.059a22.429,22.429,0,0,1-1.674-1.555l-1.56,2.708-4.55-6.286,1.526-2.648c-.494-.877-.958-1.79-1.383-2.722l-2.609.534-2.524-7.638,2.621-.536C598.315,339.414,598.164,338.472,598.057,337.54Z" transform="translate(-584.41 -317.172)" fill="#fff" stroke="#929497" stroke-linejoin="round" stroke-width="1"/>
        <path id="Path_1766" data-name="Path 1766" d="M606.536,317.172l-10.678,6.078,1.467,4.439L608,321.611Z" transform="translate(-584.726 -317.172)" fill="#fff" stroke="#929497" stroke-linejoin="round" stroke-width="1"/>
        <path id="Path_1767" data-name="Path 1767" d="M598.347,330.783s.9.134,1.389.275l10.678-6.078a10.087,10.087,0,0,0-1.389-.275Z" transform="translate(-585.748 -320.266)" fill="#fff" stroke="#929497" stroke-linejoin="round" stroke-width="1"/>
        <path id="Path_1768" data-name="Path 1768" d="M606.368,327.346l10.678-6.078-5.583-3.246L600.785,324.1Z" transform="translate(-586.75 -317.521)" fill="#fff" stroke="#929497" stroke-linejoin="round" stroke-width="1"/>
        <path id="Path_1769" data-name="Path 1769" d="M620.9,323.529l-10.678,6.078-.046,4.059,10.678-6.078Z" transform="translate(-590.608 -319.783)" fill="#fff" stroke="#929497" stroke-linejoin="round" stroke-width="1"/>
        <path id="Path_1770" data-name="Path 1770" d="M620.857,330.417,610.18,336.5s1.105.964,1.674,1.555l10.677-6.078S621.427,330.876,620.857,330.417Z" transform="translate(-590.608 -322.611)" fill="#fff" stroke="#929497" stroke-linejoin="round" stroke-width="1"/>
        <path id="Path_1771" data-name="Path 1771" d="M626.345,328.46l-10.678,6.078,4.549,6.286,10.678-6.078Z" transform="translate(-592.862 -321.808)" fill="#fff" stroke="#929497" stroke-linejoin="round" stroke-width="1"/>
        <g id="Group_776" data-name="Group 776" transform="translate(0 6.079)">
          <path id="Path_1772" data-name="Path 1772" d="M577.95,346.264l.069-6.06,2.93,1.7a16.517,16.517,0,0,1,.669-2.871l-2.512-3.47,2.28-3.957,2.514,3.473a7.237,7.237,0,0,1,1.763-1.36l-1.425-4.313,3.881-.794,1.424,4.309a9.346,9.346,0,0,1,2.383.517l.045-4,4.441,2.582-.045,4a22.341,22.341,0,0,1,2.363,2.242l1.5-2.607,3.811,5.266-1.5,2.61a35.359,35.359,0,0,1,1.709,3.379l2.56-.524,2.16,6.539-2.557.523a31.281,31.281,0,0,1,.6,3.606l2.93,1.7-.068,6.06-2.93-1.7a16.544,16.544,0,0,1-.669,2.871l2.511,3.47-2.28,3.957-2.514-3.474a7.248,7.248,0,0,1-1.763,1.36l1.425,4.313-3.88.794-1.424-4.309a9.381,9.381,0,0,1-2.383-.517l-.045,4L591.476,373l.045-4a22.208,22.208,0,0,1-2.364-2.242l-1.5,2.607-3.811-5.266,1.5-2.61a35.433,35.433,0,0,1-1.71-3.379l-2.559.524-2.16-6.539,2.557-.523a31.5,31.5,0,0,1-.6-3.606Z" transform="translate(-577.372 -327.951)" fill="#fff"/>
          <ellipse id="Ellipse_21" data-name="Ellipse 21" cx="7.381" cy="13.01" rx="7.381" ry="13.01" transform="matrix(0.93, -0.367, 0.367, 0.93, 4.896, 15.145)" fill="#fff" stroke="#49b5d8" stroke-miterlimit="10" stroke-width="1.95"/>
          <g id="Group_775" data-name="Group 775" transform="translate(11.469 15.676)">
            <path id="Path_1773" data-name="Path 1773" d="M596.43,362.875l.74-1.236a6.592,6.592,0,0,0,1.546,2.763c.478.4.777.232.8-.453v-.034c.018-.651-.155-1.139-1.029-2.393a7.431,7.431,0,0,1-1.662-5.066v-.034c.058-2.121.87-2.869,1.955-1.949a7.465,7.465,0,0,1,1.932,3.158l-.66,1.424a6.39,6.39,0,0,0-1.349-2.323c-.447-.38-.695-.128-.711.44v.034c-.021.768.2,1.212,1.1,2.508a7.583,7.583,0,0,1,1.588,4.936v.033c-.063,2.322-.9,2.943-2.048,1.972A8.654,8.654,0,0,1,596.43,362.875Z" transform="translate(-596.43 -354.087)" fill="#2d687f"/>
            <path id="Path_1774" data-name="Path 1774" d="M605.526,359.552l2.427,2.057a5.242,5.242,0,0,1,1.515,2.5,9.65,9.65,0,0,1,.382,3.059v.034c-.051,1.888-.547,2.681-1.237,2.66l1.183,5.276-1.366-1.157-1.035-4.706-.918-.778-.1,3.742-1.168-.99Zm2.2,7.673c.569.482.914.091.941-.9V366.3a3.027,3.027,0,0,0-.872-2.448l-1.161-.984-.092,3.357Z" transform="translate(-600.034 -356.331)" fill="#2d687f"/>
          </g>
          <path id="Path_1775" data-name="Path 1775" d="M597.514,372.172a9.8,9.8,0,0,1-1.389-.276l-.048,4.214-5.583-3.245.047-4.059a22.47,22.47,0,0,1-1.674-1.555l-1.56,2.708-4.55-6.286,1.525-2.647c-.494-.877-.958-1.79-1.383-2.722l-2.61.534-2.523-7.638,2.621-.536c-.193-.934-.344-1.875-.451-2.808l-2.969-1.726.084-7.381,3.065,1.781a16.565,16.565,0,0,1,.461-1.856l-2.558-3.535,2.908-5.048,2.648,3.657a7.781,7.781,0,0,1,.993-.748l-1.482-4.487,5.013-1.025,1.467,4.439a9.764,9.764,0,0,1,1.389.275l.048-4.213,5.583,3.246-.046,4.059a22.809,22.809,0,0,1,1.674,1.555l1.56-2.707,4.549,6.286-1.526,2.647c.494.877.958,1.79,1.383,2.722l2.609-.534,2.523,7.638-2.621.536c.193.935.344,1.876.451,2.809l2.969,1.725-.084,7.381-3.064-1.782a16.865,16.865,0,0,1-.461,1.857l2.558,3.534-2.908,5.048-2.648-3.657a7.732,7.732,0,0,1-.994.748l1.483,4.486-5.014,1.027Zm3.611-1.609.421-.23a6.676,6.676,0,0,0,1.623-1.252l.477-.5,2.4,3.312,1.652-2.866-2.467-3.408.094-.281a15.939,15.939,0,0,0,.645-2.771l.123-.841,2.813,1.635.054-4.739-2.893-1.682-.031-.29a30.818,30.818,0,0,0-.584-3.54l-.128-.572,2.5-.511-1.8-5.44-2.513.514-.187-.424a35.152,35.152,0,0,0-1.682-3.324l-.166-.287,1.484-2.574-3.074-4.246-1.451,2.519-.53-.58a21.762,21.762,0,0,0-2.3-2.184l-.214-.175.045-3.941-3.3-1.918-.043,3.812-.755-.264a8.837,8.837,0,0,0-2.237-.487l-.382-.028-1.384-4.188-2.747.562,1.373,4.155-.421.229a6.693,6.693,0,0,0-1.623,1.253l-.476.5-2.4-3.313-1.651,2.866,2.467,3.408-.094.28a15.989,15.989,0,0,0-.645,2.771l-.123.841-2.813-1.635-.054,4.739,2.892,1.682.031.291a30.941,30.941,0,0,0,.585,3.539l.128.572-2.5.511,1.8,5.44,2.512-.514.187.424a35.069,35.069,0,0,0,1.682,3.324l.165.286-1.484,2.575,3.073,4.245,1.451-2.519.53.579a21.681,21.681,0,0,0,2.3,2.185l.215.175-.045,3.941,3.3,1.918.043-3.812.755.263a8.789,8.789,0,0,0,2.237.487l.383.029,1.384,4.188,2.747-.562Z" transform="translate(-576.969 -327.487)" fill="#2d6c8e"/>
        </g>
        <path id="Path_1776" data-name="Path 1776" d="M638.25,347.332l-10.678,6.078,2.523,7.638,10.678-6.078Z" transform="translate(-597.751 -329.558)" fill="#fff" stroke="#929497" stroke-linejoin="round" stroke-width="1"/>
        <path id="Path_1777" data-name="Path 1777" d="M633,339.127l-10.678,6.078-1.525,2.647,10.678-6.078Z" transform="translate(-594.969 -326.189)" fill="#fff" stroke="#929497" stroke-linejoin="round" stroke-width="1"/>
        <path id="Path_1778" data-name="Path 1778" d="M631.476,343.619,620.8,349.7s1.021,1.9,1.383,2.722l10.678-6.078S631.742,343.99,631.476,343.619Z" transform="translate(-594.969 -328.033)" fill="#fff" stroke="#929497" stroke-linejoin="round" stroke-width="1"/>
        <path id="Path_1779" data-name="Path 1779" d="M633.823,347.866l-10.678,6.078,2.609-.534,10.678-6.078Z" transform="translate(-595.932 -329.558)" fill="#fff" stroke="#929497" stroke-linejoin="round" stroke-width="1"/>
        <path id="Path_1780" data-name="Path 1780" d="M643.829,368.9l-10.678,6.078-.084,7.38,10.678-6.078Z" transform="translate(-600.007 -338.414)" fill="#fff" stroke="#929497" stroke-linejoin="round" stroke-width="1"/>
        <path id="Path_1781" data-name="Path 1781" d="M638.535,364.611l-10.677,6.079s-.265-1.91-.451-2.809l2.621-.536,8.222-4.68S638.438,363.724,638.535,364.611Z" transform="translate(-597.683 -335.855)" fill="#fff" stroke="#929497" stroke-linejoin="round" stroke-width="1"/>
        <path id="Path_1782" data-name="Path 1782" d="M638.849,365.967l-10.678,6.078,2.969,1.726,10.678-6.078Z" transform="translate(-597.997 -337.211)" fill="#fff" stroke="#929497" stroke-linejoin="round" stroke-width="1"/>
        <path id="Path_1783" data-name="Path 1783" d="M640.321,386.035l-10.678,6.078-2.558-3.535,1.848-1.052,1.678.977,8.142-4.635Z" transform="translate(-597.55 -344.563)" fill="#fff" stroke="#929497" stroke-linejoin="round" stroke-width="1"/>
        <path id="Path_1784" data-name="Path 1784" d="M628.932,389.516l-1.386-.8a18.4,18.4,0,0,1-.461,1.857Z" transform="translate(-597.551 -346.552)" fill="#fff" stroke="#929497" stroke-linejoin="round" stroke-width="1"/>
        <path id="Path_1785" data-name="Path 1785" d="M640.077,387.545,629.4,393.623l-2.909,5.048,10.678-6.078Z" transform="translate(-597.306 -346.073)" fill="#fff" stroke="#929497" stroke-linejoin="round" stroke-width="1"/>
        <path id="Path_1786" data-name="Path 1786" d="M632.472,398.583l-10.678,6.078-1.482-4.486,1.088-.619,2.554,3.528,8.422-4.794Z" transform="translate(-594.769 -350.485)" fill="#fff" stroke="#929497" stroke-linejoin="round" stroke-width="1"/>
        <path id="Path_1787" data-name="Path 1787" d="M621.306,400.219a9.541,9.541,0,0,1-.994.748l1.088-.619Z" transform="translate(-594.769 -351.278)" fill="#fff" stroke="#929497" stroke-linejoin="round" stroke-width="1"/>
        <path id="Path_1788" data-name="Path 1788" d="M603.042,317.172l-5.014,1.026-10.678,6.078,5.014-1.026Z" transform="translate(-581.233 -317.172)" fill="#fff" stroke="#929497" stroke-linejoin="round" stroke-width="1"/>
        <path id="Path_1789" data-name="Path 1789" d="M583.688,331.01l2.255-1.284,1.386,4.193a11.182,11.182,0,0,0-.993.748Z" transform="translate(-579.728 -322.328)" fill="#fff" stroke="#929497" stroke-linejoin="round" stroke-width="1"/>
        <path id="Path_1790" data-name="Path 1790" d="M577.111,345.59l2.534-1.442.992,1.367s-.265.863-.461,1.856Z" transform="translate(-577.027 -328.25)" fill="#fff" stroke="#929497" stroke-linejoin="round" stroke-width="1"/>
        <path id="Path_1791" data-name="Path 1791" d="M578.324,366.749l2.456-1.4.165.862Z" transform="translate(-577.526 -336.958)" fill="#fff" stroke="#929497" stroke-linejoin="round" stroke-width="1"/>
        <path id="Path_1792" data-name="Path 1792" d="M609.393,407.057l2.3-1.312-.867-2.626a12.91,12.91,0,0,1-1.389-.276Z" transform="translate(-590.285 -352.355)" fill="#fff" stroke="#929497" stroke-linejoin="round" stroke-width="1"/>
        <path id="Path_1793" data-name="Path 1793" d="M594.512,397.668l2.753-1.567-1.193-1.14Z" transform="translate(-584.174 -349.118)" fill="#fff" stroke="#929497" stroke-linejoin="round" stroke-width="1"/>
      </g>
      <path id="Path_1794" data-name="Path 1794" d="M566.258,407.915" transform="translate(-550.099 -354.438)" fill="#bbbdbf"/>
      <g id="Group_779" data-name="Group 779" transform="translate(31.481 43.766)">
        <path id="Path_1795" data-name="Path 1795" d="M618.8,424.049l4.26-2.244-.084-21.138-4.261,2.244Z" transform="translate(-603.125 -395.228)" fill="#fff" stroke="#929497" stroke-linejoin="round" stroke-width="1"/>
        <g id="Group_778" data-name="Group 778" transform="translate(0 1.333)">
          <path id="Path_1796" data-name="Path 1796" d="M602.636,416.6l-.063-21.337,9.515,5.444.083,21.127Z" transform="translate(-596.494 -394.342)" fill="#fff"/>
          <path id="Path_1797" data-name="Path 1797" d="M592.295,413.522l-.037-17.135,7.288,4.21.036,17.134Z" transform="translate(-592.258 -394.803)" fill="#fff"/>
          <path id="Path_1798" data-name="Path 1798" d="M592.295,413.535l-.037-17.148,7.288,4.21.036,17.147Zm1.15-15.1.026,14.419L598.4,415.7l-.026-14.419Z" transform="translate(-592.258 -394.803)" fill="#2d6c8e"/>
          <path id="Path_1799" data-name="Path 1799" d="M602.636,416.6l-.063-21.337,9.515,5.444.083,21.127Zm1.119-18.5.057,17.822,7.171,3.868-.068-17.6Z" transform="translate(-596.494 -394.342)" fill="#49b5d8"/>
          <path id="Path_1800" data-name="Path 1800" d="M594.984,393.7l-2.726,1.585,6.105,3.527-.012-3.167Z" transform="translate(-592.258 -393.699)" fill="#fff" stroke="#929497" stroke-linejoin="round" stroke-width="1"/>
        </g>
        <path id="Path_1801" data-name="Path 1801" d="M602.573,393.7l4.26-2.26,9.515,5.44-4.26,2.26Z" transform="translate(-596.494 -391.437)" fill="#fff" stroke="#929497" stroke-linejoin="round" stroke-width="1"/>
      </g>
      <g id="Group_781" data-name="Group 781" transform="translate(49.529 33.359)">
        <g id="Group_780" data-name="Group 780" transform="translate(0 3.789)">
          <path id="Path_1802" data-name="Path 1802" d="M622.967,419.777l-.084-39.57,10.055,5.81.126,39.58Z" transform="translate(-622.883 -380.207)" fill="#fff"/>
          <path id="Path_1803" data-name="Path 1803" d="M629.684,395.419l1.786,1.032-.013-3.44-1.786-1.032Z" transform="translate(-625.671 -385.042)" fill="#49b5d8"/>
          <path id="Path_1804" data-name="Path 1804" d="M629.73,407.271l1.786,1.032-.013-3.44-1.786-1.032Z" transform="translate(-625.689 -389.909)" fill="#49b5d8"/>
          <path id="Path_1805" data-name="Path 1805" d="M629.775,419.124l1.786,1.032-.013-3.44-1.786-1.032Z" transform="translate(-625.708 -394.777)" fill="#49b5d8"/>
          <path id="Path_1806" data-name="Path 1806" d="M631.822,424.879l1.242.718-.126-39.58-10.055-5.81.084,39.57,1.242.718-.077-37.643,7.571,4.374Z" transform="translate(-622.883 -380.207)" fill="#2d6c8e"/>
        </g>
        <path id="Path_1807" data-name="Path 1807" d="M640.072,427.005l6.487-3.789-.126-39.58-6.487,3.789Z" transform="translate(-629.89 -377.826)" fill="#fff" stroke="#929497" stroke-linejoin="round" stroke-width="1"/>
        <path id="Path_1808" data-name="Path 1808" d="M629.37,373.777l-6.487,3.789,10.055,5.81,6.487-3.789Z" transform="translate(-622.883 -373.777)" fill="#fff" stroke="#929497" stroke-linejoin="round" stroke-width="1"/>
      </g>
      <g id="Group_783" data-name="Group 783" transform="translate(0 46.99)">
        <g id="Group_782" data-name="Group 782" transform="translate(0 5.897)">
          <path id="Path_1809" data-name="Path 1809" d="M553.181,431.6c2.066,1.193,3.994,1.344,5.575.431,2.171-1.253,3.367-4.389,3.367-8.83l-.049-12.818,12.389,7.158v26.574Z" transform="translate(-544.729 -408.341)" fill="#fff"/>
          <path id="Path_1810" data-name="Path 1810" d="M577.445,425.391l.011,2.749-10.139-5.859-.011-2.749Z" transform="translate(-550.53 -412.096)" fill="#49b5d8"/>
          <path id="Path_1811" data-name="Path 1811" d="M574.858,435.164l.011,2.749-7.509-4.339-.011-2.749Z" transform="translate(-550.548 -416.734)" fill="#49b5d8"/>
          <path id="Path_1812" data-name="Path 1812" d="M568.573,442.694l1.179.741v-28L555,406.914l.057,14.868c0,3.941-1.012,6.788-2.777,7.807-1.194.689-2.715.54-4.4-.431-4.087-2.361-7.47-9.246-7.828-15.706l12.172,7.049v-1.377l-13.385-7.734,0,1.025c.027,7.12,3.817,15.088,8.449,17.764,2.066,1.193,3.994,1.344,5.575.431,2.171-1.253,3.367-4.389,3.367-8.83l-.049-12.818,12.389,7.158Z" transform="translate(-538.839 -406.914)" fill="#2d6c8e"/>
        </g>
        <path id="Path_1813" data-name="Path 1813" d="M601.318,439.37l-10.025,5.9v-28l10.025-5.9Z" transform="translate(-560.381 -402.849)" fill="#fff" stroke="#929497" stroke-linejoin="round" stroke-width="1"/>
        <path id="Path_1814" data-name="Path 1814" d="M576.282,396.908l-10.025,5.9,14.754,8.525,10.025-5.9Z" transform="translate(-550.099 -396.908)" fill="#fff" stroke="#929497" stroke-linejoin="round" stroke-width="1"/>
        <path id="Path_1815" data-name="Path 1815" d="M548.863,404.5l-10.025,5.9,13.386,7.735,2.819-1.658L555,408.045Z" transform="translate(-538.839 -400.026)" fill="#fff" stroke="#929497" stroke-linejoin="round" stroke-width="1"/>
        <path id="Path_1816" data-name="Path 1816" d="M561.552,426.476v1.377l2.819-1.658v-1.378Z" transform="translate(-548.167 -408.369)" fill="#fff" stroke="#929497" stroke-linejoin="round" stroke-width="1"/>
        <path id="Path_1817" data-name="Path 1817" d="M555.889,423.4l-2.819,1.658L540.9,418.007a24.643,24.643,0,0,0,4.145,12.138c3.951,5.581,7.358,4.536,8.132,4C554.067,433.519,556.305,432.208,555.889,423.4Z" transform="translate(-539.684 -405.573)" fill="#fff"/>
      </g>
      <g id="Group_785" data-name="Group 785" transform="translate(21.713 65.047)">
        <path id="Path_1818" data-name="Path 1818" d="M611.931,447.468s-.233-10.953-6.181-16.681c-4.849-4.671-7.756-2.915-7.756-2.915l-15.922,9.351s3.03-1.621,7.866,3.063c5.875,5.691,6.071,16.533,6.071,16.533Z" transform="translate(-578.306 -427.548)" fill="#fff" stroke="#929497" stroke-linejoin="round" stroke-width="1"/>
        <g id="Group_784" data-name="Group 784" transform="translate(0 9.372)">
          <path id="Path_1819" data-name="Path 1819" d="M576.924,453.84l15.219,8.792,1.242.718c0-.137-.154-13.707-8.9-18.763s-8.8,8.4-8.8,8.534Z" transform="translate(-575.682 -443.451)" fill="#fff"/>
          <path id="Path_1820" data-name="Path 1820" d="M576.924,453.84c0-.478.065-11.659,7.564-7.326,7.523,4.347,7.653,15.64,7.655,16.119l1.242.718c0-.137-.154-13.707-8.9-18.763s-8.8,8.4-8.8,8.534Z" transform="translate(-575.682 -443.451)" fill="#2d6c8e"/>
          <path id="Path_1821" data-name="Path 1821" d="M594.409,458.174l1.773,1.024.028,7.386-1.773-1.024Z" transform="translate(-583.373 -449.497)" fill="#2d6c8e"/>
          <path id="Path_1822" data-name="Path 1822" d="M587.133,457.936l1.786,1.032-.015-3.974-1.786-1.032Z" transform="translate(-580.378 -447.767)" fill="#2d6c8e"/>
        </g>
      </g>
    </g>
  </g>
</svg>
