<svg xmlns="http://www.w3.org/2000/svg" width="90.907" height="108.759" viewBox="0 0 90.907 108.759">
  <g id="Financing-solutions-icon" transform="translate(-309.221 -103.99)">
    <g id="Group_541" data-name="Group 541" transform="translate(310.221 104.545)">
      <path id="Path_868" data-name="Path 868" d="M393.981,180.047,372.968,192.3l13.492,16.65L407.472,196.7Z" transform="translate(-318.065 -113.983)" fill="#fff" stroke="#929497" stroke-linejoin="round" stroke-width="1"/>
      <path id="Path_869" data-name="Path 869" d="M388.387,211.334v12.233L409.4,211.309V199.076Z" transform="translate(-319.992 -116.362)" fill="#fff" stroke="#929497" stroke-linejoin="round" stroke-width="1"/>
      <path id="Path_870" data-name="Path 870" d="M378.121,182.384l-21.013,12.258,13.877-2.337L392,180.047Z" transform="translate(-316.082 -113.983)" fill="#fff" stroke="#929497" stroke-linejoin="round" stroke-width="1"/>
      <path id="Path_871" data-name="Path 871" d="M333.759,181.557,354.772,169.3,375.2,181.04,354.189,193.3Z" transform="translate(-313.164 -112.64)" fill="#fff" stroke="#929497" stroke-linejoin="round" stroke-width="1"/>
      <path id="Path_872" data-name="Path 872" d="M337.379,152.291l-21.013,12.258,15.219,18.812V179.43l18.839-10.989Z" transform="translate(-310.99 -110.514)" fill="#fff" stroke="#929497" stroke-linejoin="round" stroke-width="1"/>
      <path id="Path_873" data-name="Path 873" d="M330.6,184.873l-15-18.574-5.377,5.1,34.473,42.679,24.67.075,9.251,5.317V207.236l-13.492-16.65-13.877,2.337-20.43-11.741v9.705l22.55,12.96" transform="translate(-310.221 -112.265)" fill="#fff"/>
      <path id="Path_874" data-name="Path 874" d="M330.6,184.873l-15-18.574-5.377,5.1,34.473,42.679,24.67.075,9.251,5.317V207.236l-13.492-16.65-13.877,2.337-20.43-11.741v9.705l22.55,12.96" transform="translate(-310.221 -112.265)" fill="none" stroke="#49b5d8" stroke-linecap="round" stroke-linejoin="round" stroke-width="2"/>
      <path id="Path_875" data-name="Path 875" d="M381.931,136.478l-21.014,12.258s10.107,10.755,9.635,23.917c0,0-.231,5.979-4.343,8.732L387.194,169.1s4.362-2.313,4.416-10.027S386.926,141.939,381.931,136.478Z" transform="translate(-316.559 -108.537)" fill="#fff" stroke="#929497" stroke-linejoin="round" stroke-width="1"/>
      <path id="Path_876" data-name="Path 876" d="M381.382,129.326l-20.759,12.355a6.616,6.616,0,0,1,3.625,5.232,2.107,2.107,0,0,1-.485,1.263l21.087-12.341s.7-.651.2-2.525S383.074,130.3,381.382,129.326Z" transform="translate(-316.522 -107.643)" fill="#fff" stroke="#929497" stroke-linejoin="round" stroke-width="1"/>
      <path id="Path_877" data-name="Path 877" d="M345.892,123.156s.136-2.5-2.548-5.068c0,0-2.1-1.985-3.712-1.045l20.884-12.223s.973-.762,2.8.248a7.628,7.628,0,0,1,3.59,5.829Z" transform="translate(-313.898 -104.545)" fill="#fff" stroke="#929497" stroke-linejoin="round" stroke-width="1"/>
      <path id="Path_878" data-name="Path 878" d="M354.116,127.871s.13-3.109-3.325-5.666a3.381,3.381,0,0,0-2.8-.533l20.646-12.082a2.419,2.419,0,0,1,2.526,0,7.61,7.61,0,0,1,3.963,6.023Z" transform="translate(-314.943 -105.135)" fill="#fff" stroke="#929497" stroke-linejoin="round" stroke-width="1"/>
      <path id="Path_879" data-name="Path 879" d="M355.96,126.521l21.2-12.418a3.566,3.566,0,0,1,3.518,1.094,7.349,7.349,0,0,1,2.623,5.583v4.61s.142,1.638-.753,2.09l-21.212,12.344s.953-.227.953-1.9v-4.957a7.4,7.4,0,0,0-2.813-5.669S357.419,125.6,355.96,126.521Z" transform="translate(-315.939 -105.726)" fill="#fff" stroke="#929497" stroke-linejoin="round" stroke-width="1"/>
      <g id="Group_540" data-name="Group 540" transform="translate(17.129 12.253)">
        <g id="Group_538" data-name="Group 538">
          <path id="Path_880" data-name="Path 880" d="M339.477,138.96l17.55,10.086c5.764,6.588,9.68,15.238,9.68,22.6,0,10.692-8.263,14.612-18.455,8.754S329.8,161.124,329.8,150.432C329.8,143.072,333.713,138.921,339.477,138.96Z" transform="translate(-329.797 -121.1)" fill="#fff"/>
          <path id="Path_881" data-name="Path 881" d="M339.854,137.7l18.6,10.689c1.564.9,2.843.292,2.843-1.348h0a6.014,6.014,0,0,0-2.843-4.616l-18.6-10.689c-1.564-.9-2.843-.292-2.843,1.348h0A6.014,6.014,0,0,0,339.854,137.7Z" transform="translate(-330.699 -120.146)" fill="#fff" stroke="#2d6c8e" stroke-miterlimit="10" stroke-width="2"/>
          <path id="Path_882" data-name="Path 882" d="M341.086,130.738a6.051,6.051,0,0,1-2.505-4.624V120.78c0-2.08,1.607-2.842,3.589-1.7a7.566,7.566,0,0,1,3.59,5.829c0-2.08,1.607-2.843,3.589-1.7a7.565,7.565,0,0,1,3.59,5.828c0-2.08,1.607-2.842,3.589-1.7a7.566,7.566,0,0,1,3.59,5.829v5.332c0,2.932-2.505,1.745-2.505,1.745Z" transform="translate(-330.895 -118.549)" fill="#fff" stroke="#2d6c8e" stroke-linejoin="round" stroke-width="2"/>
          <path id="Path_883" data-name="Path 883" d="M329.811,150.085c.123-7.139,4-11.162,9.668-11.125l17.55,10.086c5.764,6.588,9.68,15.238,9.68,22.6,0,10.692-8.263,14.612-18.455,8.754-6.879-3.953-12.875-11.351-16.049-19.03" transform="translate(-329.799 -121.1)" fill="none" stroke="#2d6c8e" stroke-miterlimit="10" stroke-width="2"/>
        </g>
        <g id="Group_539" data-name="Group 539" transform="translate(9.514 26.439)">
          <path id="Path_884" data-name="Path 884" d="M340.67,160.239l1.318-1.41a11.78,11.78,0,0,0,2.762,4.353c.854.733,1.388.608,1.42-.32v-.045c.031-.884-.278-1.615-1.838-3.654-1.881-2.454-3.083-4.394-2.974-7.542l0-.045c.1-2.876,1.546-3.593,3.482-1.93a13.779,13.779,0,0,1,3.45,5.036l-1.174,1.7a11.619,11.619,0,0,0-2.41-3.677c-.8-.686-1.239-.435-1.266.335l0,.045c-.036,1.042.359,1.73,1.973,3.839,1.893,2.488,2.936,4.572,2.84,7.334l0,.045c-.108,3.147-1.6,3.681-3.65,1.926A15.727,15.727,0,0,1,340.67,160.239Z" transform="translate(-340.67 -148.765)" fill="#231f20"/>
          <path id="Path_885" data-name="Path 885" d="M351.774,155.543l4.332,3.719a9.622,9.622,0,0,1,2.706,3.979,11.36,11.36,0,0,1,.687,4.32l0,.046c-.088,2.558-.97,3.457-2.2,3.17l2.119,7.647-2.437-2.091-1.856-6.815-1.638-1.406-.175,5.071-2.085-1.789Zm3.93,11.3c1.015.871,1.628.466,1.675-.87l0-.045a4.549,4.549,0,0,0-1.56-3.67l-2.071-1.779-.157,4.551Z" transform="translate(-341.989 -149.613)" fill="#231f20"/>
        </g>
      </g>
    </g>
  </g>
</svg>
