<svg xmlns="http://www.w3.org/2000/svg" width="83.208" height="95.318" viewBox="0 0 83.208 95.318">
  <g id="Food-service-icon" transform="translate(-755.769 -556.151)">
    <g id="Group_615" data-name="Group 615" transform="translate(755.769 556.651)">
      <g id="Group_610" data-name="Group 610" transform="translate(0 33.282)">
        <path id="Path_1177" data-name="Path 1177" d="M760.07,654.434l-.193-.114-4.107-10.828,4.188-6.665,44.028,25.735.193.114,4.107,10.828-4.189,6.664Z" transform="translate(-755.769 -619.132)" fill="#fff"/>
        <path id="Path_1178" data-name="Path 1178" d="M760.07,654.434l-.193-.114-4.107-10.828,4.188-6.665,44.028,25.735.193.114,4.107,10.828-4.189,6.664Zm43.079,9.112-42.77-25-3.2,5.087,3.724,9.817,42.77,25,3.2-5.086Z" transform="translate(-755.769 -619.132)" fill="#2d6c8e"/>
        <path id="Path_1179" data-name="Path 1179" d="M805.316,673.731,766.7,651.158V653.7l38.618,22.573Z" transform="translate(-759.749 -624.352)" fill="#49b5d8"/>
        <path id="Path_1180" data-name="Path 1180" d="M806.578,652.54l30.191-17.695L792.548,609l-30.191,17.695Z" transform="translate(-758.168 -608.997)" fill="#fff" stroke="#929497" stroke-linejoin="round" stroke-width="1"/>
        <path id="Path_1181" data-name="Path 1181" d="M836.014,678.174l30.191-17.695L862.1,649.652l-30.191,17.695Z" transform="translate(-783.498 -623.803)" fill="#fff" stroke="#929497" stroke-linejoin="round" stroke-width="1"/>
        <path id="Path_1182" data-name="Path 1182" d="M831.778,691.041l30.191-17.695,4.189-6.664-30.191,17.695Z" transform="translate(-783.451 -630.005)" fill="#fff" stroke="#929497" stroke-linejoin="round" stroke-width="1"/>
      </g>
      <g id="Group_611" data-name="Group 611" transform="translate(11.413)">
        <path id="Path_1183" data-name="Path 1183" d="M777.092,610.844l-3.274-8.752-.1-7.087,3.869-24.345,11.846,6.925,4.469,28.426.1,7.2-3.395,5.542Z" transform="translate(-773.72 -561.753)" fill="#fff"/>
        <path id="Path_1184" data-name="Path 1184" d="M777.092,610.844l-3.274-8.752-.1-7.087,3.869-24.345,11.846,6.925,4.469,28.426.1,7.2-3.395,5.542Zm15.549-4.681-4.368-27.785-9.72-5.682-3.56,22.4.093,6.757,3.038,8.121,12.058,7.047,2.551-4.166Z" transform="translate(-773.72 -561.753)" fill="#2d6c8e"/>
        <path id="Path_1185" data-name="Path 1185" d="M792.513,621.938,778.936,614v-2.545l13.577,7.936Z" transform="translate(-775.62 -576.611)" fill="#49b5d8"/>
        <path id="Path_1186" data-name="Path 1186" d="M791.651,572.482l15.269-8.907-11.846-6.925L779.8,565.558Z" transform="translate(-775.936 -556.651)" fill="#fff" stroke="#929497" stroke-linejoin="round" stroke-width="1"/>
        <path id="Path_1187" data-name="Path 1187" d="M802.906,604.875l15.269-8.907-4.469-28.427-15.269,8.907Z" transform="translate(-782.722 -560.617)" fill="#fff" stroke="#929497" stroke-linejoin="round" stroke-width="1"/>
        <path id="Path_1188" data-name="Path 1188" d="M805.571,628.354l15.269-8.907-.1-7.2-15.269,8.907Z" transform="translate(-785.282 -576.9)" fill="#fff" stroke="#929497" stroke-linejoin="round" stroke-width="1"/>
        <path id="Path_1189" data-name="Path 1189" d="M800.292,638.019l15.269-8.907,3.394-5.543-15.269,8.907Z" transform="translate(-783.397 -581.022)" fill="#fff" stroke="#929497" stroke-linejoin="round" stroke-width="1"/>
      </g>
      <g id="Group_614" data-name="Group 614" transform="translate(37.164 20.779)">
        <path id="Path_1190" data-name="Path 1190" d="M814.282,614.622H844.92l-3.336,23.592c-.144,3.538-5.457,6.384-12,6.384s-11.878-2.855-12-6.4Z" transform="translate(-814.243 -598.543)" fill="#fff" stroke="#49b5d8" stroke-miterlimit="10" stroke-width="2"/>
        <ellipse id="Ellipse_11" data-name="Ellipse 11" cx="15.339" cy="8.335" rx="15.339" ry="8.335" transform="translate(0 7.348)" fill="#fff" stroke="#49b5d8" stroke-miterlimit="10" stroke-width="2"/>
        <ellipse id="Ellipse_12" data-name="Ellipse 12" cx="12.313" cy="4.431" rx="12.313" ry="4.431" transform="translate(3.026 12.544)" fill="none" stroke="#49b5d8" stroke-miterlimit="10" stroke-width="2"/>
        <ellipse id="Ellipse_13" data-name="Ellipse 13" cx="12.778" cy="6.021" rx="12.778" ry="6.021" transform="translate(2.561 9.364)" fill="none" stroke="#49b5d8" stroke-miterlimit="10" stroke-width="1.921"/>
        <path id="Path_1191" data-name="Path 1191" d="M821.945,640.414a1.127,1.127,0,0,0,.6.675,1.359,1.359,0,0,0,.75.076l-1.57-11.946a27.4,27.4,0,0,0,9.96,1.856V629.8a25.225,25.225,0,0,1-10.448-2.188l-1.078-.551Z" transform="translate(-816.382 -603.074)" fill="#2d6c8e"/>
        <g id="Group_613" data-name="Group 613" transform="translate(17.101)">
          <path id="Path_1192" data-name="Path 1192" d="M841.9,605.332l7.305-14.437h0a1.4,1.4,0,0,1,1.228-.82,1.272,1.272,0,0,1,.66.193l.009,0,9.193,5.282-1.127,2.942-7.668-4.7-6.083,11.87c-.148.4-.877.7-1.759.7-.989,0-1.789-.378-1.791-.844A.451.451,0,0,1,841.9,605.332Z" transform="translate(-841.389 -589.603)" fill="#fff"/>
          <path id="Path_1193" data-name="Path 1193" d="M841.116,605.239a.9.9,0,0,1,.073-.376l7.314-14.454.09-.171.012,0a1.8,1.8,0,0,1,2.251-.755l.02-.008,9.737,5.595-1.478,3.859-7.719-4.736-5.825,11.361c-.259.7-1.3,1.008-2.206,1.008C842.074,606.557,841.12,606,841.116,605.239Zm17.538-7.728.776-2.026-8.648-4.968-.014,0-.194-.116a.839.839,0,0,0-1.215.431l-7.286,14.39a1.82,1.82,0,0,0,1.311.376c.81,0,1.268-.277,1.335-.438l6.317-12.328Z" transform="translate(-841.116 -589.333)" fill="#49b5d8"/>
          <g id="Group_612" data-name="Group 612" transform="translate(16.535 5.372)">
            <ellipse id="Ellipse_14" data-name="Ellipse 14" cx="1.416" cy="1.608" rx="1.416" ry="1.608" transform="translate(0.477 0.477)" fill="#fff"/>
            <path id="Path_1194" data-name="Path 1194" d="M867.122,599.867a1.9,1.9,0,1,1,1.894,2.084A2,2,0,0,1,867.122,599.867Zm.954,0a.956.956,0,1,0,.94-1.131A1.05,1.05,0,0,0,868.076,599.867Z" transform="translate(-867.122 -597.782)" fill="#49b5d8"/>
          </g>
        </g>
      </g>
    </g>
  </g>
</svg>
