<svg xmlns="http://www.w3.org/2000/svg" width="71.432" height="95.35" viewBox="0 0 71.432 95.35">
  <g id="Gas-station-lands-icon" transform="translate(-74.878 -549.691)">
    <g id="Group_744" data-name="Group 744" transform="translate(74.878 550.271)">
      <path id="Path_1685" data-name="Path 1685" d="M87.066,605.858l1.361-.682c.946-.443,2.3-.115,4.248,1.035a1.492,1.492,0,0,1,.71,1.127c0,.392-.318.523-.71.291-1.535-.9-2.556-1.181-3.216-.872-1,.47-1.358,2.339-1.154,6.06.225,4.109-.894,6.71-2.748,7.685a10.545,10.545,0,0,1-1.086.555c-.994.215-1.508-.481-2.761-1.22a11.974,11.974,0,0,1-2.046-1.082,9.556,9.556,0,0,1-2.783-3.7c-1.756-4.543.818-10.028,2.606-13.563,1.714-3.389,2.2-9.086,2.2-9.143.03-.372.368-.464.762-.2a1.45,1.45,0,0,1,.653,1.146c-.019.242-.5,5.952-2.293,9.494-.973,1.925-3.936,7.782-2.258,12.121a6.227,6.227,0,0,0,1.787,2.5c1.491,1.292,2.8,1.829,3.884,1.594,1.857-.4,2.879-3.062,2.667-6.942-.176-3.219-.768-5.022-.067-6.043" transform="translate(-75.381 -565.116)" fill="#fff" stroke="#929497" stroke-linejoin="round" stroke-width="1"/>
      <path id="Path_1686" data-name="Path 1686" d="M92.341,577.993s2.362,5.783,2.391,10.08c.023,3.294-1.662,4.376-1.662,4.376l2.457-1.437s1.683-1.009,1.683-4.333a27.869,27.869,0,0,0-1.655-8.074Z" transform="translate(-81.091 -560.133)" fill="#fff" stroke="#929497" stroke-linejoin="round" stroke-width="1"/>
      <path id="Path_1687" data-name="Path 1687" d="M95.174,643.662l15.4-8.981a2.457,2.457,0,0,1,1.866.03l-15.008,8.755A2.552,2.552,0,0,0,95.174,643.662Z" transform="translate(-82.098 -580.243)" fill="#7fcbec"/>
      <g id="Group_743" data-name="Group 743" transform="translate(0 8.755)">
        <path id="Path_1688" data-name="Path 1688" d="M75.527,605.412a9.467,9.467,0,0,0,2.676,3.76,12.04,12.04,0,0,0,1.752,1.283,4.8,4.8,0,0,0,3.4.8c2.241-.484,3.434-3.407,3.193-7.817-.2-3.721.152-5.591,1.154-6.06.551-.259,1.361-.1,2.507.484v20.472c-3.51-1.311-3.992,4.108-4.012,4.355a1.143,1.143,0,0,0,.187.647,1.557,1.557,0,0,0,.521.534l43.185,25.445a.568.568,0,0,0,.521.079.405.405,0,0,0,.187-.426c-.02-.271-.5-6.259-4.011-9.083V589.423a11,11,0,0,0-1.719-5.79,13.867,13.867,0,0,0-4.9-4.733L96.833,565.151c-2.093-1.233-3.743-1.585-4.9-1.045-1.848.861-1.724,3.684-1.718,3.8v.466l-9.362-1.792c-.3-.057-.476.136-.443.472a87.761,87.761,0,0,1-.474,15.895v.015c0,.057-.486,5.754-2.2,9.142C75.944,595.643,73.771,600.869,75.527,605.412ZM79.054,593.4a29.434,29.434,0,0,0,2.232-8.874l4.91,2.893a.581.581,0,0,0,.509.085c.184-.081,4.35-2.085-.577-14.541l4.084.78v22.685c-1.576-.825-2.711-1.028-3.538-.64-1.31.614-1.77,2.674-1.54,6.888.213,3.88-.809,6.541-2.667,6.942-1.087.235-2.393-.3-3.884-1.593a6.232,6.232,0,0,1-1.788-2.5C75.118,601.185,78.081,595.327,79.054,593.4Z" transform="translate(-74.878 -563.861)" fill="#fff"/>
        <g id="Group_742" data-name="Group 742">
          <path id="Path_1689" data-name="Path 1689" d="M87.488,593.252c.233.138.462.157.6.026a5.679,5.679,0,0,0,1.577-3.631,10.278,10.278,0,0,0-.481-3.621,1.394,1.394,0,0,0-.944-.9c-.355-.042-.507.291-.34.743a8.819,8.819,0,0,1,.347,2.9,4.935,4.935,0,0,1-1.352,3.039c-.211.205-.115.7.215,1.106A1.47,1.47,0,0,0,87.488,593.252Z" transform="translate(-79.112 -571.426)" fill="#49b5d8"/>
          <path id="Path_1690" data-name="Path 1690" d="M98.677,618.954V567.91c-.006-.12-.13-2.943,1.718-3.8,1.16-.54,2.81-.188,4.9,1.045L128.632,578.9a13.869,13.869,0,0,1,4.9,4.733,10.987,10.987,0,0,1,1.718,5.79V640.5c0,.392-.317.522-.709.292L99.387,620.081A1.494,1.494,0,0,1,98.677,618.954Zm35.158-30.4a8.742,8.742,0,0,0-1.33-4.547,10.92,10.92,0,0,0-3.874-3.684L105.3,566.571c-1.683-.992-2.984-1.29-3.865-.885-1.429.656-1.339,2.962-1.337,3.022V619.08l33.739,19.879Z" transform="translate(-83.344 -563.861)" fill="#2d6c8e"/>
          <path id="Path_1691" data-name="Path 1691" d="M107.336,586.625V573.74c0-.392.318-.522.709-.292l24,14.143a1.492,1.492,0,0,1,.71,1.127V601.6c0,.392-.318.523-.71.291l-24-14.142A1.494,1.494,0,0,1,107.336,586.625Zm24,1.967-22.585-13.307v11.466l22.585,13.307Z" transform="translate(-86.425 -567.231)" fill="#49b5d8"/>
          <g id="Group_740" data-name="Group 740" transform="translate(20.408 24.076)">
            <path id="Path_1692" data-name="Path 1692" d="M120.458,613.068v-4.405c0-.392.318-.523.709-.291l7.1,4.18a1.493,1.493,0,0,1,.709,1.127v4.405c0,.392-.318.522-.709.292l-7.1-4.181A1.493,1.493,0,0,1,120.458,613.068Zm7.1.485-5.676-3.345V613.2l5.676,3.344Z" transform="translate(-111.501 -603.731)" fill="#2d6c8e"/>
            <path id="Path_1693" data-name="Path 1693" d="M137.482,621.311c0-1.793,1.459-2.392,3.252-1.336a6.855,6.855,0,0,1,3.252,5.168c0,1.793-1.459,2.392-3.252,1.336A6.855,6.855,0,0,1,137.482,621.311Zm1.419.836a3.865,3.865,0,0,0,1.833,2.913c1.01.6,1.833.258,1.833-.753a3.864,3.864,0,0,0-1.833-2.913C139.723,620.8,138.9,621.137,138.9,622.148Z" transform="translate(-117.557 -607.714)" fill="#2d6c8e"/>
            <path id="Path_1694" data-name="Path 1694" d="M106.555,603.089c0-1.794,1.459-2.393,3.252-1.336a6.855,6.855,0,0,1,3.252,5.168c0,1.794-1.459,2.393-3.252,1.336A6.854,6.854,0,0,1,106.555,603.089Zm1.419.836a3.862,3.862,0,0,0,1.833,2.913c1.01.6,1.832.258,1.832-.753a3.863,3.863,0,0,0-1.832-2.913C108.8,602.576,107.974,602.914,107.974,603.925Z" transform="translate(-106.555 -601.231)" fill="#2d6c8e"/>
          </g>
          <g id="Group_741" data-name="Group 741" transform="translate(46.437 50.35)">
            <path id="Path_1695" data-name="Path 1695" d="M147.668,665.824c.392.231.709.1.709-.291V651.7a1.494,1.494,0,0,0-.709-1.127c-.392-.231-.71-.1-.71.291V664.7A1.492,1.492,0,0,0,147.668,665.824Z" transform="translate(-146.958 -645.017)" fill="#2d6c8e"/>
            <path id="Path_1696" data-name="Path 1696" d="M147.668,645.2c.392.231.709.1.709-.291v-1.656a1.493,1.493,0,0,0-.709-1.127c-.392-.231-.71-.1-.71.291v1.656A1.493,1.493,0,0,0,147.668,645.2Z" transform="translate(-146.958 -642.014)" fill="#2d6c8e"/>
          </g>
          <path id="Path_1697" data-name="Path 1697" d="M83.429,585.645l5.557,3.275A.58.58,0,0,0,89.5,589c.184-.081,4.35-2.085-.577-14.541l5.052.965c.364.069.542-.238.4-.688a1.441,1.441,0,0,0-.922-.94l-5.789-1.1a.339.339,0,0,0-.405.181.793.793,0,0,0,.046.608c4.387,10.578,2.067,13.28,1.355,13.819l-4.441-2.617a91.725,91.725,0,0,0,.441-14.883l9.32,1.784c.364.07.542-.238.4-.688a1.438,1.438,0,0,0-.921-.939l-9.809-1.877c-.3-.057-.476.136-.444.472a87.637,87.637,0,0,1-.473,15.894,1.127,1.127,0,0,0,.18.653A1.566,1.566,0,0,0,83.429,585.645Z" transform="translate(-77.668 -565.359)" fill="#2d6c8e"/>
          <path id="Path_1698" data-name="Path 1698" d="M79.955,620.809a4.8,4.8,0,0,0,3.4.8c2.241-.484,3.434-3.407,3.193-7.817-.2-3.722.152-5.591,1.154-6.061.66-.309,1.681-.032,3.216.872.392.231.709.1.709-.291a1.493,1.493,0,0,0-.709-1.127c-1.951-1.15-3.3-1.479-4.248-1.035-1.31.615-1.77,2.674-1.54,6.888.213,3.88-.809,6.541-2.667,6.942-1.087.235-2.393-.3-3.884-1.593a6.225,6.225,0,0,1-1.788-2.5c-1.677-4.339,1.285-10.2,2.258-12.121,1.792-3.542,2.274-9.252,2.294-9.494a1.451,1.451,0,0,0-.653-1.147c-.394-.261-.732-.169-.762.2,0,.057-.487,5.754-2.2,9.143-1.788,3.535-3.961,8.76-2.205,13.3a9.46,9.46,0,0,0,2.676,3.76A12.086,12.086,0,0,0,79.955,620.809Z" transform="translate(-74.878 -574.216)" fill="#2d6c8e"/>
          <path id="Path_1699" data-name="Path 1699" d="M92.638,653.294a1.148,1.148,0,0,1-.187-.647c.021-.265.572-6.466,4.806-3.972l34.988,20.615c4.235,2.5,4.785,9.346,4.807,9.636a.407.407,0,0,1-.187.426.567.567,0,0,1-.521-.079L93.158,653.828A1.556,1.556,0,0,1,92.638,653.294Zm39.607,17.415L97.257,650.094c-2.251-1.327-3.043,1.426-3.291,2.79l41.565,24.49C135.275,675.714,134.467,672.018,132.245,670.709Z" transform="translate(-81.129 -593.824)" fill="#49b5d8"/>
        </g>
      </g>
      <path id="Path_1700" data-name="Path 1700" d="M174.33,677.756,159.3,686.52s.2-.092.158-.482c0,0-.439-6.138-4.005-9.015l15.008-8.754s2.43,1.723,3.534,6.3a18.526,18.526,0,0,1,.48,2.8S174.47,677.674,174.33,677.756Z" transform="translate(-103.543 -592.249)" fill="#fff" stroke="#929497" stroke-linejoin="round" stroke-width="1"/>
      <path id="Path_1701" data-name="Path 1701" d="M101.347,559.272l14.82-8.657s1.6-1.053,4.327.526,24.858,14.647,24.858,14.647a12.748,12.748,0,0,1,5.861,10.461v50.041l-15.008,8.754V584.426s.245-6.316-6.815-10.475-23.741-13.97-23.741-13.97S103.027,558.439,101.347,559.272Z" transform="translate(-84.294 -550.271)" fill="#fff" stroke="#929497" stroke-linejoin="round" stroke-width="1"/>
      <path id="Path_1702" data-name="Path 1702" d="M93.546,566.748l-6.714-1.285a.466.466,0,0,0-.259.045l-2.859,1.672a.393.393,0,0,1,.28-.027c.175.039,9.362,1.792,9.362,1.792v-.738A6.192,6.192,0,0,1,93.546,566.748Z" transform="translate(-78.021 -555.674)" fill="#fff" stroke="#929497" stroke-linejoin="round" stroke-width="1"/>
    </g>
  </g>
</svg>
