<svg xmlns="http://www.w3.org/2000/svg" width="84.819" height="95.318" viewBox="0 0 84.819 95.318">
  <g id="Health-Services-icon" transform="translate(-766.405 -336.252)">
    <g id="Group_661" data-name="Group 661" transform="translate(766.905 336.752)">
      <path id="Path_1410" data-name="Path 1410" d="M814.757,383.181V341.573l50.786,30.04v41.608Z" transform="translate(-781.723 -338.245)" fill="#bbbdbf"/>
      <path id="Path_1411" data-name="Path 1411" d="M767.9,371.344l49.4,29.224v40.816L767.9,412.16Z" transform="translate(-767.214 -347.464)" fill="#fff"/>
      <path id="Path_1412" data-name="Path 1412" d="M791.261,412.633l5.851,3.461v9.093l-5.851-3.461Z" transform="translate(-774.447 -360.25)" fill="none" stroke="#2d6c8e" stroke-miterlimit="10" stroke-width="2"/>
      <path id="Path_1413" data-name="Path 1413" d="M776.987,404.19l5.851,3.461v9.093l-5.851-3.461Z" transform="translate(-770.027 -357.635)" fill="none" stroke="#2d6c8e" stroke-miterlimit="10" stroke-width="2"/>
      <path id="Path_1414" data-name="Path 1414" d="M817.69,399.631v41.608l-1.381-.817v-40l-48.024-28.407v40L766.9,411.2V369.591Z" transform="translate(-766.905 -346.921)" fill="#49b5d8"/>
      <path id="Path_1415" data-name="Path 1415" d="M824.644,431.218V453.86l-1.381-.817V432.005l-15.653-9.259v21.038l-1.381-.817V420.325Z" transform="translate(-779.083 -362.632)" fill="#2d6c8e"/>
      <path id="Path_1416" data-name="Path 1416" d="M790.745,362.645s3.745,10.409-1.14,14.624-11.316-4.408-11.316-4.408,2.2,7.333,7.978,11.808,10.543-.117,10.095-7.343C795.873,369.445,790.745,362.645,790.745,362.645Z" transform="translate(-770.43 -344.77)" fill="#fff"/>
      <path id="Path_1417" data-name="Path 1417" d="M817.69,390.955l33.034-19.341-50.785-30.04L766.9,360.914Z" transform="translate(-766.905 -338.245)" fill="#fff" stroke="#929497" stroke-linejoin="round" stroke-width="1"/>
      <path id="Path_1418" data-name="Path 1418" d="M779.939,370.62V336.752l29.142,17.239v33.868Z" transform="translate(-770.941 -336.752)" fill="#231f20"/>
      <path id="Path_1419" data-name="Path 1419" d="M775.215,341.844l27.762,16.422v32.264l-27.762-16.422Z" transform="translate(-769.478 -338.329)" fill="#fff"/>
      <path id="Path_1420" data-name="Path 1420" d="M774.214,373.958V340.09l29.143,17.239V391.2Zm1.381-31.447v30.66l26.382,15.6V358.117Z" transform="translate(-769.168 -337.786)" fill="#49b5d8"/>
      <path id="Path_1421" data-name="Path 1421" d="M788.537,383.154c-5.887-4.559-8.125-11.848-8.217-12.156a.69.69,0,0,1,1.214-.611c.037.048,3.669,4.866,7.308,5.265a3.767,3.767,0,0,0,3-.968c4.467-3.854.976-13.768.94-13.867a.691.691,0,0,1,1.2-.649c.215.284,5.26,7.057,5.755,15.054.266,4.291-1.214,7.828-3.86,9.229a5.281,5.281,0,0,1-2.5.62A8.064,8.064,0,0,1,788.537,383.154Z" transform="translate(-771.05 -343.918)" fill="#231f20"/>
      <path id="Path_1422" data-name="Path 1422" d="M840.471,446.038,873.505,426.7V385.089L840.471,404.43Z" transform="translate(-789.686 -351.72)" fill="#fff" stroke="#929497" stroke-linejoin="round" stroke-width="1"/>
      <path id="Path_1423" data-name="Path 1423" d="M803.357,356.3l3.951-2.3-29.142-17.239-3.952,2.3Z" transform="translate(-769.168 -336.752)" fill="#fff" stroke="#929497" stroke-linejoin="round" stroke-width="1"/>
      <path id="Path_1424" data-name="Path 1424" d="M816.43,397.9l3.951-2.3V361.724l-3.951,2.3Z" transform="translate(-782.241 -344.485)" fill="#fff" stroke="#929497" stroke-linejoin="round" stroke-width="1"/>
      <path id="Path_1425" data-name="Path 1425" d="M790.745,362.645s3.745,10.409-1.14,14.624-11.316-4.408-11.316-4.408,2.2,7.333,7.978,11.808,10.543-.117,10.095-7.343C795.873,369.445,790.745,362.645,790.745,362.645Z" transform="translate(-770.43 -344.77)" fill="#fff"/>
      <path id="Path_1426" data-name="Path 1426" d="M785.535,384.906c-5.887-4.558-8.125-11.848-8.217-12.156a.69.69,0,0,1,1.214-.611c.037.049,3.669,4.867,7.308,5.265a3.765,3.765,0,0,0,3-.968c4.467-3.854.976-13.767.94-13.867a.691.691,0,0,1,1.2-.65c.215.284,5.26,7.057,5.755,15.054.266,4.292-1.213,7.828-3.86,9.229a5.272,5.272,0,0,1-2.5.62A8.065,8.065,0,0,1,785.535,384.906Zm4.212-7.424a5.148,5.148,0,0,1-4.056,1.294,10.8,10.8,0,0,1-5.6-2.942,23.41,23.41,0,0,0,6.286,7.98c2.111,1.635,4.19,2.048,5.854,1.169,2.129-1.127,3.357-4.237,3.129-7.924a27.174,27.174,0,0,0-3.164-10.493C792.775,370.09,792.814,374.835,789.747,377.482Z" transform="translate(-770.12 -344.46)" fill="#2d6c8e"/>
      <path id="Path_1427" data-name="Path 1427" d="M799.217,385.29l2.027-1.178s3.407-1.954,3.332-8.145-3.595-12.791-5.686-15.661a.74.74,0,0,0-1.007-.309h0l-2.088,1.218a.724.724,0,0,1,.922.164s5.626,7.533,5.8,15.882C802.515,377.26,802.714,382.834,799.217,385.29Z" transform="translate(-775.851 -343.919)" fill="#fff" stroke="#929497" stroke-linejoin="round" stroke-width="1"/>
      <path id="Path_1428" data-name="Path 1428" d="M779.847,374.8a.811.811,0,0,1,1.064.331c.475.661,4.746,5.8,8.4,5.062a3.99,3.99,0,0,1-2.862,1.28c-1.7-.057-4.156-1.007-7.565-5.048,0,0-.387-.746-1.044-.445Z" transform="translate(-770.291 -348.51)" fill="#fff" stroke="#929497" stroke-linejoin="round" stroke-width="1"/>
    </g>
  </g>
</svg>
