<svg xmlns="http://www.w3.org/2000/svg" width="70.311" height="95.318" viewBox="0 0 70.311 95.318">
  <g id="housing-services-icon" transform="translate(-1005.011 -341.341)">
    <g id="Group_627" data-name="Group 627" transform="translate(1005.511 341.841)">
      <g id="Group_618" data-name="Group 618" transform="translate(35.052 16.468)">
        <path id="Path_1195" data-name="Path 1195" d="M1064.1,394.082V364.2l14.357,8.372v29.885Z" transform="translate(-1055.995 -364.197)" fill="#a6a8ab"/>
        <path id="Path_1196" data-name="Path 1196" d="M1054.1,372.391l12.885,7.513v29.043l-12.885-7.513Z" transform="translate(-1053.359 -366.355)" fill="#fff"/>
        <path id="Path_1197" data-name="Path 1197" d="M1057.637,380.389l7.668,4.471v-1.7l-7.668-4.471Z" transform="translate(-1054.292 -368.015)" fill="#49b5d8"/>
        <path id="Path_1198" data-name="Path 1198" d="M1057.637,386.192l7.668,4.471v-1.7l-7.668-4.471Z" transform="translate(-1054.292 -369.543)" fill="#49b5d8"/>
        <path id="Path_1199" data-name="Path 1199" d="M1057.637,391.995l7.668,4.471v-1.7l-7.668-4.471Z" transform="translate(-1054.292 -371.072)" fill="#49b5d8"/>
        <path id="Path_1200" data-name="Path 1200" d="M1057.637,397.8l7.668,4.471v-1.7l-7.668-4.471Z" transform="translate(-1054.292 -372.6)" fill="#49b5d8"/>
        <path id="Path_1201" data-name="Path 1201" d="M1067.454,379.022v29.885l-1.473-.859V379.869l-11.411-6.654v28.18l-1.473-.859V370.651Z" transform="translate(-1053.096 -365.897)" fill="#2d6c8e"/>
        <path id="Path_1202" data-name="Path 1202" d="M1080.7,375.562l-8.108,4.754V410.2l8.108-4.754Z" transform="translate(-1058.23 -367.19)" fill="#fff" stroke="#929497" stroke-linejoin="round" stroke-width="1"/>
        <path id="Path_1203" data-name="Path 1203" d="M1061.2,364.2l-8.108,4.754,14.358,8.372,8.108-4.754Z" transform="translate(-1053.096 -364.197)" fill="#fff" stroke="#929497" stroke-linejoin="round" stroke-width="1"/>
      </g>
      <g id="Group_619" data-name="Group 619">
        <path id="Path_1204" data-name="Path 1204" d="M1024.522,398.327V341.841l18.166,10.592v56.486Z" transform="translate(-1010.518 -341.841)" fill="#d0d2d3"/>
        <path id="Path_1205" data-name="Path 1205" d="M1006.51,354.705l16.693,9.733v55.649l-16.693-9.733Z" transform="translate(-1005.774 -345.229)" fill="#fff"/>
        <path id="Path_1206" data-name="Path 1206" d="M1010.511,365.439l10.8,6.3v-1.493l-10.8-6.3Z" transform="translate(-1006.828 -347.663)" fill="#2d6c8e"/>
        <path id="Path_1207" data-name="Path 1207" d="M1010.511,373.015l10.8,6.3v-1.493l-10.8-6.3Z" transform="translate(-1006.828 -349.659)" fill="#2d6c8e"/>
        <path id="Path_1208" data-name="Path 1208" d="M1010.511,380.591l10.8,6.3v-1.493l-10.8-6.3Z" transform="translate(-1006.828 -351.654)" fill="#2d6c8e"/>
        <path id="Path_1209" data-name="Path 1209" d="M1010.511,388.167l10.8,6.3v-1.493l-10.8-6.3Z" transform="translate(-1006.828 -353.65)" fill="#2d6c8e"/>
        <path id="Path_1210" data-name="Path 1210" d="M1010.511,395.744l10.8,6.3v-1.493l-10.8-6.3Z" transform="translate(-1006.828 -355.645)" fill="#2d6c8e"/>
        <path id="Path_1211" data-name="Path 1211" d="M1010.511,403.32l10.8,6.3v-1.493l-10.8-6.3Z" transform="translate(-1006.828 -357.64)" fill="#2d6c8e"/>
        <path id="Path_1212" data-name="Path 1212" d="M1010.511,410.9l10.8,6.3V415.7l-10.8-6.3Z" transform="translate(-1006.828 -359.636)" fill="#2d6c8e"/>
        <path id="Path_1213" data-name="Path 1213" d="M1010.511,418.472l10.8,6.3v-1.493l-10.8-6.3Z" transform="translate(-1006.828 -361.631)" fill="#2d6c8e"/>
        <path id="Path_1214" data-name="Path 1214" d="M1010.511,426.048l10.8,6.3v-1.493l-10.8-6.3Z" transform="translate(-1006.828 -363.627)" fill="#2d6c8e"/>
        <path id="Path_1215" data-name="Path 1215" d="M1023.676,363.557v56.486l-1.461-.852V406.46h-.012V364.4l-15.219-8.874v54.78l-1.473-.859V352.965Z" transform="translate(-1005.511 -344.771)" fill="#49b5d8"/>
        <path id="Path_1216" data-name="Path 1216" d="M1030.172,420.9l14-8.194V356.22l-14,8.194Z" transform="translate(-1012.006 -345.628)" fill="#fff" stroke="#929497" stroke-linejoin="round" stroke-width="1"/>
        <path id="Path_1217" data-name="Path 1217" d="M1019.515,341.841l-14,8.194,18.166,10.592,14-8.194Z" transform="translate(-1005.511 -341.841)" fill="#fff" stroke="#929497" stroke-linejoin="round" stroke-width="1"/>
      </g>
      <g id="Group_626" data-name="Group 626" transform="translate(22.521 41.916)">
        <path id="Path_1218" data-name="Path 1218" d="M1053.1,423.96V398.744l34.258,19.976v25.216Z" transform="translate(-1040.565 -398.744)" fill="#d0d2d3"/>
        <path id="Path_1219" data-name="Path 1219" d="M1037.085,434.653l32.786,19.117V429.391l-32.786-19.117Z" transform="translate(-1036.348 -401.781)" fill="#fff"/>
        <g id="Group_625" data-name="Group 625" transform="translate(3.358 13.94)">
          <g id="Group_620" data-name="Group 620">
            <path id="Path_1220" data-name="Path 1220" d="M1074.53,439.056l2.582,1.506v-1.628l-2.582-1.506Z" transform="translate(-1049.569 -422.873)" fill="#2d6c8e"/>
            <path id="Path_1221" data-name="Path 1221" d="M1068.882,435.763l2.582,1.506V435.64l-2.582-1.506Z" transform="translate(-1048.081 -422.006)" fill="#2d6c8e"/>
            <path id="Path_1222" data-name="Path 1222" d="M1063.234,432.47l2.582,1.506v-1.628l-2.582-1.506Z" transform="translate(-1046.594 -421.138)" fill="#2d6c8e"/>
            <path id="Path_1223" data-name="Path 1223" d="M1057.587,429.177l2.582,1.506v-1.628l-2.582-1.506Z" transform="translate(-1045.106 -420.271)" fill="#2d6c8e"/>
            <path id="Path_1224" data-name="Path 1224" d="M1051.939,425.884l2.582,1.506v-1.628l-2.582-1.506Z" transform="translate(-1043.619 -419.404)" fill="#2d6c8e"/>
            <path id="Path_1225" data-name="Path 1225" d="M1046.292,422.59l2.582,1.506v-1.628l-2.582-1.506Z" transform="translate(-1042.131 -418.536)" fill="#2d6c8e"/>
            <path id="Path_1226" data-name="Path 1226" d="M1040.644,419.3l2.582,1.506v-1.628l-2.582-1.506Z" transform="translate(-1040.644 -417.669)" fill="#2d6c8e"/>
          </g>
          <g id="Group_621" data-name="Group 621" transform="translate(0 3.918)">
            <path id="Path_1227" data-name="Path 1227" d="M1074.53,444.375l2.582,1.506v-1.628l-2.582-1.506Z" transform="translate(-1049.569 -428.192)" fill="#2d6c8e"/>
            <path id="Path_1228" data-name="Path 1228" d="M1068.882,441.082l2.582,1.506v-1.628l-2.582-1.506Z" transform="translate(-1048.081 -427.325)" fill="#2d6c8e"/>
            <path id="Path_1229" data-name="Path 1229" d="M1063.234,437.789l2.582,1.506v-1.628l-2.582-1.506Z" transform="translate(-1046.594 -426.458)" fill="#2d6c8e"/>
            <path id="Path_1230" data-name="Path 1230" d="M1057.587,434.5l2.582,1.506v-1.628l-2.582-1.506Z" transform="translate(-1045.106 -425.59)" fill="#2d6c8e"/>
            <path id="Path_1231" data-name="Path 1231" d="M1051.939,431.2l2.582,1.506V431.08l-2.582-1.506Z" transform="translate(-1043.619 -424.723)" fill="#2d6c8e"/>
            <path id="Path_1232" data-name="Path 1232" d="M1046.292,427.91l2.582,1.506v-1.628l-2.582-1.506Z" transform="translate(-1042.131 -423.856)" fill="#2d6c8e"/>
            <path id="Path_1233" data-name="Path 1233" d="M1040.644,424.617l2.582,1.506v-1.628l-2.582-1.506Z" transform="translate(-1040.644 -422.988)" fill="#2d6c8e"/>
          </g>
          <g id="Group_622" data-name="Group 622" transform="translate(0 7.837)">
            <path id="Path_1234" data-name="Path 1234" d="M1074.53,449.695l2.582,1.506v-1.628l-2.582-1.506Z" transform="translate(-1049.569 -433.512)" fill="#2d6c8e"/>
            <path id="Path_1235" data-name="Path 1235" d="M1068.882,446.4l2.582,1.506v-1.628l-2.582-1.506Z" transform="translate(-1048.081 -432.645)" fill="#2d6c8e"/>
            <path id="Path_1236" data-name="Path 1236" d="M1063.234,443.108l2.582,1.506v-1.628l-2.582-1.506Z" transform="translate(-1046.594 -431.777)" fill="#2d6c8e"/>
            <path id="Path_1237" data-name="Path 1237" d="M1057.587,439.815l2.582,1.506v-1.628l-2.582-1.506Z" transform="translate(-1045.106 -430.91)" fill="#2d6c8e"/>
            <path id="Path_1238" data-name="Path 1238" d="M1051.939,436.522l2.582,1.506V436.4l-2.582-1.506Z" transform="translate(-1043.619 -430.042)" fill="#2d6c8e"/>
            <path id="Path_1239" data-name="Path 1239" d="M1046.292,433.229l2.582,1.506v-1.628l-2.582-1.506Z" transform="translate(-1042.131 -429.175)" fill="#2d6c8e"/>
            <path id="Path_1240" data-name="Path 1240" d="M1040.644,429.936l2.582,1.506v-1.628l-2.582-1.506Z" transform="translate(-1040.644 -428.308)" fill="#2d6c8e"/>
          </g>
          <g id="Group_623" data-name="Group 623" transform="translate(0 11.755)">
            <path id="Path_1241" data-name="Path 1241" d="M1074.53,455.014l2.582,1.506v-1.628l-2.582-1.506Z" transform="translate(-1049.569 -438.831)" fill="#2d6c8e"/>
            <path id="Path_1242" data-name="Path 1242" d="M1068.882,451.721l2.582,1.506V451.6l-2.582-1.506Z" transform="translate(-1048.081 -437.964)" fill="#2d6c8e"/>
            <path id="Path_1243" data-name="Path 1243" d="M1063.234,448.428l2.582,1.506v-1.628l-2.582-1.506Z" transform="translate(-1046.594 -437.097)" fill="#2d6c8e"/>
            <path id="Path_1244" data-name="Path 1244" d="M1057.587,445.135l2.582,1.506v-1.628l-2.582-1.506Z" transform="translate(-1045.106 -436.229)" fill="#2d6c8e"/>
            <path id="Path_1245" data-name="Path 1245" d="M1051.939,441.842l2.582,1.506v-1.628l-2.582-1.506Z" transform="translate(-1043.619 -435.362)" fill="#2d6c8e"/>
            <path id="Path_1246" data-name="Path 1246" d="M1046.292,438.549l2.582,1.506v-1.628l-2.582-1.506Z" transform="translate(-1042.131 -434.495)" fill="#2d6c8e"/>
            <path id="Path_1247" data-name="Path 1247" d="M1040.644,435.256l2.582,1.506v-1.628l-2.582-1.506Z" transform="translate(-1040.644 -433.627)" fill="#2d6c8e"/>
          </g>
          <g id="Group_624" data-name="Group 624" transform="translate(0 15.673)">
            <path id="Path_1248" data-name="Path 1248" d="M1074.53,460.333l2.582,1.506v-1.628l-2.582-1.506Z" transform="translate(-1049.569 -444.151)" fill="#2d6c8e"/>
            <path id="Path_1249" data-name="Path 1249" d="M1068.882,457.04l2.582,1.506v-1.628l-2.582-1.506Z" transform="translate(-1048.081 -443.283)" fill="#2d6c8e"/>
            <path id="Path_1250" data-name="Path 1250" d="M1063.234,453.747l2.582,1.506v-1.628l-2.582-1.506Z" transform="translate(-1046.594 -442.416)" fill="#2d6c8e"/>
            <path id="Path_1251" data-name="Path 1251" d="M1057.587,450.454l2.582,1.506v-1.628l-2.582-1.506Z" transform="translate(-1045.106 -441.549)" fill="#2d6c8e"/>
            <path id="Path_1252" data-name="Path 1252" d="M1051.939,447.161l2.582,1.506v-1.628l-2.582-1.506Z" transform="translate(-1043.619 -440.681)" fill="#2d6c8e"/>
            <path id="Path_1253" data-name="Path 1253" d="M1046.292,443.868l2.582,1.506v-1.628l-2.582-1.506Z" transform="translate(-1042.131 -439.814)" fill="#2d6c8e"/>
            <path id="Path_1254" data-name="Path 1254" d="M1040.644,440.575l2.582,1.506v-1.628l-2.582-1.506Z" transform="translate(-1040.644 -438.947)" fill="#2d6c8e"/>
          </g>
        </g>
        <path id="Path_1255" data-name="Path 1255" d="M1070.344,428.509v25.216l-1.473-.859v-23.51L1037.558,411.1v23.51l-1.473-.859V408.533Z" transform="translate(-1036.085 -401.322)" fill="#49b5d8"/>
        <path id="Path_1256" data-name="Path 1256" d="M1082.594,458.289l12.53-7.211V425.863l-12.53,7.211Z" transform="translate(-1048.335 -405.887)" fill="#fff" stroke="#929497" stroke-linejoin="round" stroke-width="1"/>
        <path id="Path_1257" data-name="Path 1257" d="M1036.085,405.955l12.53-7.211,34.259,19.976-12.53,7.211Z" transform="translate(-1036.085 -398.744)" fill="#fff" stroke="#929497" stroke-linejoin="round" stroke-width="1"/>
      </g>
    </g>
  </g>
</svg>
