<svg xmlns="http://www.w3.org/2000/svg" width="95.302" height="95.403" viewBox="0 0 95.302 95.403">
  <g id="Industial-Land-icon" transform="translate(-534.29 -372.477)">
    <path id="Path_886" data-name="Path 886" d="M562.209,413.118" transform="translate(-3.768 -5.516)" fill="#bbbdbf"/>
    <g id="Group_543" data-name="Group 543" transform="translate(574.827 384.77)">
      <path id="Path_887" data-name="Path 887" d="M581.259,422.668l-.053-25.079,10.666,6.162.053,25.079Z" transform="translate(-581.206 -388.152)" fill="#fff"/>
      <path id="Path_888" data-name="Path 888" d="M591.613,426.7l-.093-35.341,8.749-2.018.12,42.43Z" transform="translate(-582.623 -387.019)" fill="#fff"/>
      <path id="Path_889" data-name="Path 889" d="M581.259,422.687l-.053-25.1,10.666,6.162.053,25.1Zm1.684-22.1.038,21.1,7.208,4.165-.038-21.1Z" transform="translate(-581.206 -388.152)" fill="#2d6c8e"/>
      <path id="Path_890" data-name="Path 890" d="M591.613,426.717l-.093-35.36,8.749-2.018.12,42.449Zm1.637-33.988.085,32.99,5.318,3.072-.1-37.287Z" transform="translate(-582.623 -387.019)" fill="#2d6c8e"/>
      <path id="Path_891" data-name="Path 891" d="M605.652,386.649l-3.989,2.32.12,42.449,3.989-2.32Z" transform="translate(-584.017 -386.649)" fill="#fff" stroke="#929497" stroke-linejoin="round" stroke-width="1"/>
      <path id="Path_892" data-name="Path 892" d="M595.51,388.668l-3.989,2.32,8.749-2.019,3.989-2.32Z" transform="translate(-582.623 -386.649)" fill="#fff" stroke="#929497" stroke-linejoin="round" stroke-width="1"/>
      <path id="Path_893" data-name="Path 893" d="M585.2,394.9l-3.989,2.32,8.936,5.163-.018-4.635Z" transform="translate(-581.206 -387.783)" fill="#fff" stroke="#929497" stroke-linejoin="round" stroke-width="1"/>
    </g>
    <g id="Group_544" data-name="Group 544" transform="translate(595.68 380.357)">
      <path id="Path_894" data-name="Path 894" d="M613.848,390.425l.124,47.461-8.467-4.892-.124-47.461Z" transform="translate(-605.381 -382.082)" fill="#fff"/>
      <path id="Path_895" data-name="Path 895" d="M613.848,390.425l.124,47.461-2.614-1.51-.109-43.407L608.01,391.1l.109,43.407-2.614-1.51-.124-47.461Z" transform="translate(-605.381 -382.082)" fill="#2d6c8e"/>
      <path id="Path_896" data-name="Path 896" d="M621.09,387.2l-5.894,3.451.124,47.461,5.894-3.451Z" transform="translate(-606.73 -382.312)" fill="#fff" stroke="#929497" stroke-linejoin="round" stroke-width="1"/>
      <path id="Path_897" data-name="Path 897" d="M605.381,384.983l5.894-3.451,8.467,4.892-5.894,3.451Z" transform="translate(-605.381 -381.532)" fill="#fff" stroke="#929497" stroke-linejoin="round" stroke-width="1"/>
    </g>
    <g id="Group_546" data-name="Group 546" transform="translate(604.696 372.977)">
      <g id="Group_545" data-name="Group 545" transform="translate(0 5.546)">
        <path id="Path_898" data-name="Path 898" d="M615.956,437.324l-.123-57.917,14.718,8.5.185,57.932Z" transform="translate(-615.833 -379.407)" fill="#fff"/>
        <path id="Path_899" data-name="Path 899" d="M622.64,396.214l2.614,1.51-.019-5.035-2.614-1.51Z" transform="translate(-616.766 -381.025)" fill="#49b5d8"/>
        <path id="Path_900" data-name="Path 900" d="M622.686,408.066l2.614,1.51-.019-5.035-2.614-1.51Z" transform="translate(-616.772 -382.653)" fill="#49b5d8"/>
        <path id="Path_901" data-name="Path 901" d="M622.731,419.918l2.614,1.51-.019-5.035-2.614-1.51Z" transform="translate(-616.778 -384.282)" fill="#49b5d8"/>
        <path id="Path_902" data-name="Path 902" d="M628.917,444.792l1.818,1.051-.185-57.932-14.718-8.5.123,57.917,1.818,1.051-.113-55.1,11.081,6.4Z" transform="translate(-615.833 -379.407)" fill="#49b5d8"/>
      </g>
      <path id="Path_903" data-name="Path 903" d="M633.08,446.314l9.494-5.546-.185-57.932-9.494,5.546Z" transform="translate(-618.177 -374.332)" fill="#fff" stroke="#929497" stroke-linejoin="round" stroke-width="1"/>
      <path id="Path_904" data-name="Path 904" d="M625.327,372.977l-9.494,5.546,14.718,8.5,9.494-5.546Z" transform="translate(-615.833 -372.977)" fill="#fff" stroke="#929497" stroke-linejoin="round" stroke-width="1"/>
    </g>
    <g id="Group_548" data-name="Group 548" transform="translate(534.79 398.107)">
      <g id="Group_547" data-name="Group 547" transform="translate(0 8.631)">
        <path id="Path_905" data-name="Path 905" d="M549.133,446.645c3.024,1.748,5.845,1.968,8.16.632,3.178-1.834,4.928-6.424,4.928-12.925l-.072-18.762,18.133,10.478v38.9Z" transform="translate(-536.761 -412.594)" fill="#fff"/>
        <path id="Path_906" data-name="Path 906" d="M578.1,433.311l.016,4.024-14.841-8.575-.016-4.024Z" transform="translate(-538.702 -413.851)" fill="#49b5d8"/>
        <path id="Path_907" data-name="Path 907" d="M574.292,442.379l.016,4.024-10.991-6.35-.015-4.024Z" transform="translate(-538.708 -415.403)" fill="#49b5d8"/>
        <path id="Path_908" data-name="Path 908" d="M578.311,464.487l1.725,1.085V424.6l-21.6-12.479.084,21.762c0,5.77-1.482,9.936-4.065,11.427-1.748,1.008-3.974.791-6.435-.631-5.982-3.456-10.934-13.532-11.458-22.989L554.383,432v-2.016L534.79,418.667l.006,1.5c.04,10.42,5.587,22.083,12.366,26,3.024,1.748,5.845,1.968,8.16.632,3.178-1.834,4.928-6.424,4.928-12.925l-.072-18.762,18.133,10.478Z" transform="translate(-534.79 -412.117)" fill="#49b5d8"/>
      </g>
      <path id="Path_909" data-name="Path 909" d="M601.918,457.554l-14.673,8.631V425.209l14.673-8.631Z" transform="translate(-541.999 -404.099)" fill="#fff" stroke="#929497" stroke-linejoin="round" stroke-width="1"/>
      <path id="Path_910" data-name="Path 910" d="M576.882,402.111l-14.673,8.631,21.6,12.478,14.673-8.631Z" transform="translate(-538.558 -402.111)" fill="#fff" stroke="#929497" stroke-linejoin="round" stroke-width="1"/>
      <path id="Path_911" data-name="Path 911" d="M549.463,409.7l-14.673,8.631,19.592,11.321,4.126-2.427-.068-12.337Z" transform="translate(-534.79 -403.155)" fill="#fff" stroke="#929497" stroke-linejoin="round" stroke-width="1"/>
      <path id="Path_912" data-name="Path 912" d="M557.5,432.448v2.016l4.126-2.427V430.02Z" transform="translate(-537.911 -405.946)" fill="#fff" stroke="#929497" stroke-linejoin="round" stroke-width="1"/>
      <path id="Path_913" data-name="Path 913" d="M558.792,431.1l-4.127,2.427L536.85,423.21a36.067,36.067,0,0,0,6.066,17.766c5.784,8.168,10.771,6.639,11.9,5.85C556.124,445.916,559.4,444,558.792,431.1Z" transform="translate(-535.073 -405.011)" fill="#fff"/>
    </g>
    <g id="Group_550" data-name="Group 550" transform="translate(566.57 424.537)">
      <path id="Path_914" data-name="Path 914" d="M621.727,461.907s-.341-16.03-9.047-24.415c-7.1-6.837-11.353-4.267-11.353-4.267l-23.3,13.687s4.435-2.373,11.515,4.485c8.6,8.329,8.885,24.2,8.885,24.2Z" transform="translate(-572.511 -432.751)" fill="#fff" stroke="#929497" stroke-linejoin="round" stroke-width="1"/>
      <g id="Group_549" data-name="Group 549" transform="translate(0 13.718)">
        <path id="Path_915" data-name="Path 915" d="M573.451,463.86l22.275,12.869,1.818,1.051c0-.2-.224-20.063-13.033-27.463s-12.88,12.291-12.879,12.491Z" transform="translate(-571.633 -448.654)" fill="#fff"/>
        <path id="Path_916" data-name="Path 916" d="M573.451,463.86c0-.7.1-17.064,11.072-10.724,11.011,6.362,11.2,22.892,11.2,23.592l1.818,1.051c0-.2-.224-20.063-13.033-27.463s-12.88,12.291-12.879,12.491Z" transform="translate(-571.633 -448.654)" fill="#2d6c8e"/>
        <path id="Path_917" data-name="Path 917" d="M590.36,463.378l2.595,1.5L593,475.688l-2.595-1.5Z" transform="translate(-574.207 -450.678)" fill="#2d6c8e"/>
        <path id="Path_918" data-name="Path 918" d="M583.092,464.982l2.614,1.51-.022-5.817-2.614-1.51Z" transform="translate(-573.205 -450.099)" fill="#2d6c8e"/>
      </g>
    </g>
  </g>
</svg>
