<svg xmlns="http://www.w3.org/2000/svg" width="136.157" height="106.216" viewBox="0 0 136.157 106.216">
  <g id="Industrial-product-icon" transform="translate(-757.339 -116.021)">
    <g id="Group_523" data-name="Group 523" transform="translate(757.839 116.521)">
      <g id="Group_520" data-name="Group 520">
        <path id="Path_800" data-name="Path 800" d="M768.963,122.577l8.364,3.717,15.5-6.056-8.364-3.717Z" transform="translate(-758.631 -116.521)" fill="#fff" stroke="#929497" stroke-linejoin="round" stroke-width="1"/>
        <path id="Path_801" data-name="Path 801" d="M776.376,129.947l8.364,3.717L773.874,143.1l-8.364-3.717Z" transform="translate(-758.385 -117.478)" fill="#fff" stroke="#929497" stroke-linejoin="round" stroke-width="1"/>
        <path id="Path_802" data-name="Path 802" d="M840.81,134.742l8.364,3.717-19.772.356-7.095-3.74Z" transform="translate(-762.434 -117.82)" fill="#fff" stroke="#929497" stroke-linejoin="round" stroke-width="1"/>
        <path id="Path_803" data-name="Path 803" d="M890.336,174.636l8.364,3.717H882.847l-2.967-3.717Z" transform="translate(-766.537 -120.663)" fill="#fff" stroke="#929497" stroke-linejoin="round" stroke-width="1"/>
        <path id="Path_804" data-name="Path 804" d="M759.442,138.77l8.364,3.717-1.6,9.619-8.364-3.717Z" transform="translate(-757.839 -118.107)" fill="#fff" stroke="#929497" stroke-linejoin="round" stroke-width="1"/>
        <path id="Path_805" data-name="Path 805" d="M791.939,198.463l8.364,3.717-5.522-19.416-8.364-3.717Z" transform="translate(-759.875 -120.977)" fill="#fff" stroke="#929497" stroke-linejoin="round" stroke-width="1"/>
        <path id="Path_806" data-name="Path 806" d="M768.963,123.042l8.364,3.717,7.659,6.413-8.364-3.717Z" transform="translate(-758.631 -116.986)" fill="#fff" stroke="#929497" stroke-linejoin="round" stroke-width="1"/>
        <path id="Path_807" data-name="Path 807" d="M765.087,140.016l8.364,3.717-5.522-1.247-8.364-3.717Z" transform="translate(-757.962 -118.107)" fill="#fff" stroke="#929497" stroke-linejoin="round" stroke-width="1"/>
        <path id="Path_808" data-name="Path 808" d="M762.932,151.39l3.633,1.615,3.147.238,23.394,27.551-8.364-3.717Z" transform="translate(-758.202 -119.006)" fill="#fff" stroke="#929497" stroke-linejoin="round" stroke-width="1"/>
        <path id="Path_809" data-name="Path 809" d="M808.915,205.034l14.072,22.444-8.364-3.717-12.335-19.674Z" transform="translate(-761.007 -122.762)" fill="#fff" stroke="#929497" stroke-linejoin="round" stroke-width="1"/>
      </g>
      <g id="Group_522" data-name="Group 522" transform="translate(8.364 3.717)">
        <path id="Path_810" data-name="Path 810" d="M766.844,150.805l1.6-9.619,5.522,1.247,10.866-9.441-7.659-6.413,15.5-6.056L825.448,137.8l19.772-.356L874.79,174.5h15.853l2.494,3.919-2.672,13.716-17.278,8.194-18.525,3.563-8.372,11.044-22.444-1.781-3.384,8.372-14.072-22.444-7.481-1.069-5.522-19.416-23.394-27.551Z" transform="translate(-766.844 -120.523)" fill="#fff" stroke="#2d6c8e" stroke-linejoin="round" stroke-width="2"/>
        <g id="Group_521" data-name="Group 521" transform="translate(3.705 7.654)">
          <rect id="Rectangle_384" data-name="Rectangle 384" width="3.989" height="3.989" transform="translate(57.624 64.096)" fill="#49b5d8"/>
          <rect id="Rectangle_385" data-name="Rectangle 385" width="3.989" height="3.989" transform="translate(48.421 57.921)" fill="#49b5d8"/>
          <rect id="Rectangle_386" data-name="Rectangle 386" width="3.989" height="3.989" transform="translate(28.649 58.634)" fill="#49b5d8"/>
          <rect id="Rectangle_387" data-name="Rectangle 387" width="3.989" height="3.989" transform="translate(26.393 51.628)" fill="#49b5d8"/>
          <rect id="Rectangle_388" data-name="Rectangle 388" width="3.989" height="3.989" transform="translate(30.896 40.762)" fill="#49b5d8"/>
          <rect id="Rectangle_389" data-name="Rectangle 389" width="3.989" height="3.989" transform="translate(23.236 33.637)" fill="#49b5d8"/>
          <rect id="Rectangle_390" data-name="Rectangle 390" width="3.989" height="3.989" transform="translate(0 15.319)" fill="#49b5d8"/>
          <rect id="Rectangle_391" data-name="Rectangle 391" width="3.989" height="3.989" transform="translate(36.991 25.947)" fill="#49b5d8"/>
          <rect id="Rectangle_392" data-name="Rectangle 392" width="3.989" height="3.989" transform="translate(40.613 16.982)" fill="#49b5d8"/>
          <rect id="Rectangle_393" data-name="Rectangle 393" width="3.989" height="3.989" transform="translate(58.129 18.525)" fill="#49b5d8"/>
          <rect id="Rectangle_394" data-name="Rectangle 394" width="3.989" height="3.989" transform="translate(71.667 15.616)" fill="#49b5d8"/>
          <rect id="Rectangle_395" data-name="Rectangle 395" width="3.989" height="3.989" transform="translate(77.723 20.188)" fill="#49b5d8"/>
          <rect id="Rectangle_396" data-name="Rectangle 396" width="3.989" height="3.989" transform="translate(63.711 26.779)" fill="#49b5d8"/>
          <rect id="Rectangle_397" data-name="Rectangle 397" width="3.989" height="3.989" transform="translate(52.993 33.637)" fill="#49b5d8"/>
          <rect id="Rectangle_398" data-name="Rectangle 398" width="3.989" height="3.989" transform="translate(56.853 40.524)" fill="#49b5d8"/>
          <rect id="Rectangle_399" data-name="Rectangle 399" width="3.989" height="3.989" transform="translate(67.897 36.071)" fill="#49b5d8"/>
          <rect id="Rectangle_400" data-name="Rectangle 400" width="3.989" height="3.989" transform="translate(69.826 43.196)" fill="#49b5d8"/>
          <rect id="Rectangle_401" data-name="Rectangle 401" width="3.989" height="3.989" transform="translate(72.261 48.777)" fill="#49b5d8"/>
          <rect id="Rectangle_402" data-name="Rectangle 402" width="3.989" height="3.989" transform="translate(89.302 34.052)" fill="#49b5d8"/>
          <rect id="Rectangle_403" data-name="Rectangle 403" width="3.989" height="3.989" transform="translate(90.845 40.94)" fill="#49b5d8"/>
          <rect id="Rectangle_404" data-name="Rectangle 404" width="3.989" height="3.989" transform="translate(98.921 49.787)" fill="#49b5d8"/>
          <rect id="Rectangle_405" data-name="Rectangle 405" width="3.989" height="3.989" transform="translate(83.021 26.779)" fill="#49b5d8"/>
          <rect id="Rectangle_406" data-name="Rectangle 406" width="3.989" height="3.989" transform="translate(27.788 12.231)" fill="#49b5d8"/>
          <rect id="Rectangle_407" data-name="Rectangle 407" width="3.989" height="3.989" transform="translate(29.569 1.069)" fill="#49b5d8"/>
          <rect id="Rectangle_408" data-name="Rectangle 408" width="3.989" height="3.989" transform="translate(15.735)" fill="#49b5d8"/>
          <rect id="Rectangle_409" data-name="Rectangle 409" width="3.989" height="3.989" transform="translate(15.963 36.338)" fill="#49b5d8"/>
          <rect id="Rectangle_410" data-name="Rectangle 410" width="3.989" height="3.989" transform="translate(49.846 67.6)" fill="#49b5d8"/>
          <rect id="Rectangle_411" data-name="Rectangle 411" width="3.989" height="3.989" transform="translate(45.809 77.812)" fill="#49b5d8"/>
          <rect id="Rectangle_412" data-name="Rectangle 412" width="3.989" height="3.989" transform="translate(69.322 78.584)" fill="#49b5d8"/>
        </g>
      </g>
    </g>
  </g>
</svg>
