<svg xmlns="http://www.w3.org/2000/svg" width="95.946" height="95.318" viewBox="0 0 95.946 95.318">
  <g id="Industrial-services-icon" transform="translate(-528.139 -570.089)">
    <g id="Group_694" data-name="Group 694" transform="translate(528.519 570.589)">
      <g id="Group_681" data-name="Group 681" transform="translate(44.044)">
        <path id="Path_1464" data-name="Path 1464" d="M604.86,570.589,615.9,587l-8.245-4.716V616.03l-7.005-4.048v-33.7l-6.824-3.9Z" transform="translate(-589.364 -570.589)" fill="#231f20"/>
        <path id="Path_1465" data-name="Path 1465" d="M595.666,615.442v-33.7l-6.037-3.453,9.469-3.25,9.469,14.081-7.01-4.009v33.738Z" transform="translate(-588.285 -571.733)" fill="#fff"/>
        <path id="Path_1466" data-name="Path 1466" d="M601.466,582.141v35.971l-4.777-2.76V581.646l-5.249-3,7.9-2.711,5.122,7.617,0-.007Z" transform="translate(-588.751 -571.964)" fill="none"/>
        <path id="Path_1467" data-name="Path 1467" d="M598.856,574.14l11.038,16.414-2.143-1.225-4.22-6.239-5.122-7.617-7.9,2.711,5.249,3V614.89l4.777,2.76v1.287l-5.891-3.4v-33.7l-6.825-3.9Z" transform="translate(-587.819 -571.503)" fill="#2d6c8e"/>
        <path id="Path_1468" data-name="Path 1468" d="M604.939,587.017l5.774,3.3-2.778-4.131,4.22,6.239-6.1-3.49v33.743l-1.114-.644v-35.02Z" transform="translate(-592.224 -574.602)" fill="#49b5d8"/>
        <path id="Path_1469" data-name="Path 1469" d="M607.138,570.589l-4.459,2.637,11.038,16.414L618.175,587Z" transform="translate(-591.642 -570.589)" fill="#fff" stroke="#929497" stroke-linejoin="round" stroke-width="1"/>
        <path id="Path_1470" data-name="Path 1470" d="M610.9,621l-4.459,2.637V589.89l4.459,2.55Z" transform="translate(-592.609 -575.554)" fill="#fff" stroke="#929497" stroke-linejoin="round" stroke-width="1"/>
        <path id="Path_1471" data-name="Path 1471" d="M592.279,574.377l-4.459,2.637,11.037-3.788,4.459-2.637Z" transform="translate(-587.819 -570.589)" fill="#fff" stroke="#929497" stroke-linejoin="round" stroke-width="1"/>
      </g>
      <g id="Group_682" data-name="Group 682" transform="translate(59.341 18.493)">
        <path id="Path_1472" data-name="Path 1472" d="M608.414,625.6l.015-26.675,6.8,3.917-.012,26.682Z" transform="translate(-608.414 -596.373)" fill="#fff"/>
        <path id="Path_1473" data-name="Path 1473" d="M608.434,600.291v-1.363l6.8,3.917-.012,26.682-.838-.484.005-25.3-3.134-1.811v-.009Z" transform="translate(-608.419 -596.373)" fill="#49b5d8"/>
        <path id="Path_1474" data-name="Path 1474" d="M609.252,626.559l-.838-.484.015-25.312.837.486Z" transform="translate(-608.414 -596.845)" fill="#2d6c8e"/>
        <path id="Path_1475" data-name="Path 1475" d="M617.579,630l4.373-2.555.013-26.682-4.374,2.555Z" transform="translate(-610.772 -596.845)" fill="#fff" stroke="#929497" stroke-linejoin="round" stroke-width="1"/>
        <path id="Path_1476" data-name="Path 1476" d="M612.736,595.488l-4.3,2.555,6.8,3.917,4.374-2.555Z" transform="translate(-608.42 -595.488)" fill="#fff" stroke="#929497" stroke-linejoin="round" stroke-width="1"/>
      </g>
      <g id="Group_683" data-name="Group 683" transform="translate(67.543 33.358)">
        <path id="Path_1477" data-name="Path 1477" d="M619.457,645.615l.015-26.675,6.8,3.917-.012,26.682Z" transform="translate(-619.457 -616.385)" fill="#fff"/>
        <path id="Path_1478" data-name="Path 1478" d="M628.622,650.011l4.373-2.555.013-26.682-4.374,2.555Z" transform="translate(-621.815 -616.857)" fill="#fff" stroke="#929497" stroke-linejoin="round" stroke-width="1"/>
        <path id="Path_1479" data-name="Path 1479" d="M623.779,615.5l-4.3,2.554,6.8,3.917,4.374-2.555Z" transform="translate(-619.462 -615.501)" fill="#fff" stroke="#929497" stroke-linejoin="round" stroke-width="1"/>
        <path id="Path_1480" data-name="Path 1480" d="M628.341,624.042l-.012,26.682-.837-.484.005-25.3-.015-.009v-1.38Z" transform="translate(-621.521 -617.571)" fill="#2d6c8e"/>
        <path id="Path_1481" data-name="Path 1481" d="M620.295,646.1l-.838-.484.015-26.675,5.944,3.422v1.38l-5.108-2.953Z" transform="translate(-619.457 -616.385)" fill="#49b5d8"/>
      </g>
      <g id="Group_685" data-name="Group 685" transform="translate(28.645 33.333)">
        <path id="Path_1482" data-name="Path 1482" d="M591.293,650.728l4.893-2.577-.1-24.273-4.893,2.577Z" transform="translate(-573.288 -617.631)" fill="#fff" stroke="#929497" stroke-linejoin="round" stroke-width="1"/>
        <g id="Group_684" data-name="Group 684" transform="translate(0 1.53)">
          <path id="Path_1483" data-name="Path 1483" d="M576.557,643.457l-.073-24.5,10.926,6.252.1,24.261Z" transform="translate(-569.504 -617.895)" fill="#fff"/>
          <path id="Path_1484" data-name="Path 1484" d="M567.128,639.655l-.042-19.677,8.368,4.834.042,19.677Z" transform="translate(-567.086 -618.158)" fill="#fff"/>
          <path id="Path_1485" data-name="Path 1485" d="M567.128,639.669l-.042-19.691,8.368,4.834L575.5,644.5Zm1.321-17.341.03,16.557,5.654,3.267L574.1,625.6Z" transform="translate(-567.086 -618.158)" fill="#2d6c8e"/>
          <path id="Path_1486" data-name="Path 1486" d="M576.557,643.457l-.073-24.5,10.926,6.252.1,24.261Zm1.284-21.248.066,20.465,8.235,4.442-.079-20.21Z" transform="translate(-569.504 -617.895)" fill="#49b5d8"/>
          <path id="Path_1487" data-name="Path 1487" d="M570.216,617.528l-3.13,1.82,7.011,4.05-.014-3.636Z" transform="translate(-567.086 -617.528)" fill="#fff" stroke="#929497" stroke-linejoin="round" stroke-width="1"/>
        </g>
        <path id="Path_1488" data-name="Path 1488" d="M576.484,618.063l4.893-2.6,10.927,6.247-4.893,2.6Z" transform="translate(-569.503 -615.468)" fill="#fff" stroke="#929497" stroke-linejoin="round" stroke-width="1"/>
      </g>
      <g id="Group_687" data-name="Group 687" transform="translate(75.926 26.669)">
        <g id="Group_686" data-name="Group 686" transform="translate(0 4.351)">
          <path id="Path_1489" data-name="Path 1489" d="M630.84,657.793l-.1-45.44,11.547,6.672.145,45.451Z" transform="translate(-630.744 -612.354)" fill="#fff"/>
          <path id="Path_1490" data-name="Path 1490" d="M636.944,627.03l2.051,1.185-.015-3.95-2.051-1.185Z" transform="translate(-632.335 -615.113)" fill="#49b5d8"/>
          <path id="Path_1491" data-name="Path 1491" d="M636.985,637.829l2.051,1.185-.015-3.95-2.051-1.185Z" transform="translate(-632.345 -617.891)" fill="#49b5d8"/>
          <path id="Path_1492" data-name="Path 1492" d="M637.027,648.628l2.051,1.185-.015-3.95-2.051-1.185Z" transform="translate(-632.356 -620.67)" fill="#49b5d8"/>
          <path id="Path_1493" data-name="Path 1493" d="M641.009,663.652l1.427.824-.145-45.451-11.547-6.672.1,45.44,1.427.824-.088-43.227,8.694,5.023Z" transform="translate(-630.744 -612.354)" fill="#2d6c8e"/>
        </g>
        <path id="Path_1494" data-name="Path 1494" d="M646.435,665.28l7.449-4.351-.145-45.451-7.449,4.352Z" transform="translate(-634.743 -608.806)" fill="#fff" stroke="#929497" stroke-linejoin="round" stroke-width="1"/>
        <path id="Path_1495" data-name="Path 1495" d="M638.192,606.495l-7.449,4.351,11.547,6.672,7.449-4.352Z" transform="translate(-630.744 -606.495)" fill="#fff" stroke="#929497" stroke-linejoin="round" stroke-width="1"/>
      </g>
      <g id="Group_689" data-name="Group 689" transform="translate(23.253 39.97)">
        <g id="Group_688" data-name="Group 688" transform="translate(0 6.772)">
          <path id="Path_1496" data-name="Path 1496" d="M572.9,661.049c2.372,1.371,4.586,1.543,6.4.5,2.493-1.439,3.866-5.04,3.866-10.14l-.056-14.72,14.226,8.221v30.516Z" transform="translate(-563.188 -634.334)" fill="#fff"/>
          <path id="Path_1497" data-name="Path 1497" d="M597.408,651.745l.012,3.157-11.643-6.728-.012-3.157Z" transform="translate(-566.499 -636.478)" fill="#49b5d8"/>
          <path id="Path_1498" data-name="Path 1498" d="M594.427,660.289l.012,3.157-8.623-4.982-.012-3.157Z" transform="translate(-566.509 -639.125)" fill="#49b5d8"/>
          <path id="Path_1499" data-name="Path 1499" d="M593.971,674.608l1.354.851V643.31l-16.943-9.79.065,17.073c0,4.526-1.162,7.8-3.189,8.965-1.371.791-3.118.621-5.048-.5-4.693-2.712-8.579-10.617-8.989-18.036l13.978,8.1v-1.581l-15.372-8.882.005,1.178c.031,8.175,4.383,17.326,9.7,20.4,2.372,1.371,4.586,1.543,6.4.5,2.493-1.439,3.866-5.04,3.866-10.14l-.056-14.72,14.226,8.221Z" transform="translate(-559.826 -633.52)" fill="#49b5d8"/>
        </g>
        <path id="Path_1500" data-name="Path 1500" d="M619.133,669.732,607.621,676.5V644.355l11.512-6.772Z" transform="translate(-572.122 -627.794)" fill="#fff" stroke="#929497" stroke-linejoin="round" stroke-width="1"/>
        <path id="Path_1501" data-name="Path 1501" d="M596.321,624.4l-11.512,6.772,16.943,9.79,11.512-6.772Z" transform="translate(-566.253 -624.403)" fill="#fff" stroke="#929497" stroke-linejoin="round" stroke-width="1"/>
        <path id="Path_1502" data-name="Path 1502" d="M571.338,631.321l-11.512,6.772,15.371,8.882,3.237-1.9-.053-9.679Z" transform="translate(-559.826 -626.183)" fill="#fff" stroke="#929497" stroke-linejoin="round" stroke-width="1"/>
        <path id="Path_1503" data-name="Path 1503" d="M580.522,651.737v1.582l3.237-1.9v-1.582Z" transform="translate(-565.15 -630.945)" fill="#bbbdbf"/>
        <path id="Path_1504" data-name="Path 1504" d="M578.917,649.818l-3.237,1.9-13.978-8.1a28.292,28.292,0,0,0,4.76,13.938c4.537,6.409,8.449,5.21,9.338,4.59C576.825,661.441,579.4,659.935,578.917,649.818Z" transform="translate(-560.309 -629.349)" fill="#fff"/>
      </g>
      <g id="Group_691" data-name="Group 691" transform="translate(48.187 61.852)">
        <path id="Path_1505" data-name="Path 1505" d="M631.431,676.738s-.268-12.577-7.1-19.155c-5.569-5.363-8.907-3.347-8.907-3.347l-16.207,9.592s3.479-1.862,9.033,3.518c6.746,6.535,6.972,18.985,6.972,18.985Z" transform="translate(-594.894 -653.864)" fill="#fff" stroke="#929497" stroke-linejoin="round" stroke-width="1"/>
        <g id="Group_690" data-name="Group 690" transform="translate(0 9.616)">
          <path id="Path_1506" data-name="Path 1506" d="M594.822,678.741l17.477,10.1,1.427.824c0-.157-.177-15.74-10.225-21.546s-10.1,9.643-10.1,9.8Z" transform="translate(-593.396 -666.811)" fill="#fff"/>
          <path id="Path_1507" data-name="Path 1507" d="M594.822,678.741c0-.549.076-13.389,8.686-8.413,8.639,4.991,8.788,17.959,8.79,18.509l1.427.824c0-.157-.177-15.74-10.225-21.546s-10.1,9.643-10.1,9.8Z" transform="translate(-593.396 -666.811)" fill="#2d6c8e"/>
          <path id="Path_1508" data-name="Path 1508" d="M610.459,680.226l2.036,1.176.033,8.482-2.036-1.176Z" transform="translate(-597.786 -670.262)" fill="#49b5d8"/>
          <path id="Path_1509" data-name="Path 1509" d="M603.833,680.951l2.051,1.185-.018-4.564-2.051-1.185Z" transform="translate(-596.077 -669.275)" fill="#49b5d8"/>
        </g>
      </g>
      <g id="Group_693" data-name="Group 693" transform="translate(0 12.914)">
        <path id="Path_1510" data-name="Path 1510" d="M584.809,634.432" transform="translate(-543 -599.927)" fill="#fff" stroke="#929497" stroke-linejoin="round" stroke-width="1"/>
        <path id="Path_1511" data-name="Path 1511" d="M537.446,621.355l-3.775.772,3.634,11,3.758-.769c.612,1.342,1.28,2.657,1.992,3.92l-2.2,3.813,6.553,9.053,2.246-3.9a32.613,32.613,0,0,0,2.411,2.239L552,653.33l8.04,4.675.069-6.068a14.062,14.062,0,0,0,2,.4l2.112,6.393,7.221-1.479-2.135-6.461a11.2,11.2,0,0,0,1.43-1.078l3.813,5.268,4.189-7.271-3.685-5.09a24.008,24.008,0,0,0,.664-2.674l4.414,2.565.12-10.63-4.276-2.485c-.154-1.344-.372-2.7-.649-4.045l3.775-.773-3.634-11-3.758.77c-.613-1.342-1.281-2.657-1.992-3.92l2.2-3.812-6.552-9.053-2.247,3.9a32.627,32.627,0,0,0-2.41-2.239l.067-5.845-8.041-4.675-.069,6.068a13.933,13.933,0,0,0-2-.4l-2.112-6.393-7.221,1.477,2.135,6.463a11.143,11.143,0,0,0-1.431,1.077l-3.813-5.268L534.035,599l3.685,5.091a23.928,23.928,0,0,0-.664,2.674l-4.413-2.566-.121,10.63,4.276,2.486C536.951,618.653,537.169,620.009,537.446,621.355Zm9.586-19.016a7.019,7.019,0,0,1,3.512-.9,11.283,11.283,0,0,1,5.6,1.7c8.215,4.776,14.793,17.821,14.665,29.08-.067,5.848-1.952,10.25-5.174,12.08-2.523,1.431-5.761,1.15-9.114-.8-8.215-4.776-14.793-17.821-14.665-29.08C541.925,608.572,543.811,604.169,547.032,602.34Z" transform="translate(-529.549 -587.976)" fill="#fff" stroke="#929497" stroke-linejoin="round" stroke-width="1"/>
        <g id="Group_692" data-name="Group 692" transform="translate(0 1.486)">
          <path id="Path_1512" data-name="Path 1512" d="M534.717,624.331l-3.682.753,3.112,9.418,3.686-.755a51.279,51.279,0,0,0,2.461,4.866l-2.166,3.759,5.49,7.584,2.164-3.755a32.078,32.078,0,0,0,3.4,3.229l-.065,5.758,6.4,3.718.065-5.758a13.483,13.483,0,0,0,3.432.745l2.051,6.206,5.588-1.143-2.053-6.212a10.442,10.442,0,0,0,2.539-1.959l3.621,5,3.284-5.7-3.617-5a23.785,23.785,0,0,0,.963-4.135l4.22,2.453.1-8.727-4.22-2.454a45.232,45.232,0,0,0-.857-5.193l3.682-.753-3.112-9.418-3.686.754a51.081,51.081,0,0,0-2.461-4.866l2.166-3.759-5.49-7.584-2.164,3.755a32.079,32.079,0,0,0-3.4-3.229l.065-5.758-6.4-3.719-.065,5.759a13.493,13.493,0,0,0-3.431-.746l-2.051-6.206-5.589,1.144,2.053,6.212a10.44,10.44,0,0,0-2.539,1.958l-3.621-5-3.284,5.7,3.617,5a23.83,23.83,0,0,0-.963,4.135l-4.22-2.454-.1,8.728,4.22,2.454A45.233,45.233,0,0,0,534.717,624.331Zm2.579-7.589c.131-11.55,7.1-16.924,15.563-12s15.22,18.274,15.089,29.824-7.1,16.924-15.563,12S537.165,628.293,537.3,616.743Z" transform="translate(-528.807 -590.309)" fill="#fff"/>
          <ellipse id="Ellipse_16" data-name="Ellipse 16" cx="13.53" cy="23.846" rx="13.53" ry="23.846" transform="matrix(0.93, -0.367, 0.367, 0.93, 2.48, 18.123)" fill="none" stroke="#49b5d8" stroke-miterlimit="10" stroke-width="2.285"/>
          <path id="Path_1513" data-name="Path 1513" d="M558.108,654.334a14.079,14.079,0,0,1-2-.4l-.069,6.068L548,655.331l.067-5.845a32.657,32.657,0,0,1-2.41-2.239l-2.247,3.9-6.552-9.053,2.2-3.813c-.712-1.263-1.38-2.578-1.992-3.92l-3.758.769-3.635-11,3.775-.772c-.278-1.346-.5-2.7-.649-4.045l-4.276-2.486.12-10.629,4.413,2.565a23.912,23.912,0,0,1,.665-2.673L530.033,601l4.189-7.271,3.813,5.267a11.213,11.213,0,0,1,1.43-1.077l-2.135-6.462,7.221-1.478,2.112,6.393a14.055,14.055,0,0,1,2,.4l.069-6.068,8.04,4.675-.067,5.845a32.639,32.639,0,0,1,2.41,2.239l2.248-3.9,6.552,9.053-2.2,3.812c.711,1.263,1.379,2.578,1.991,3.92l3.758-.769,3.634,11-3.775.772c.278,1.347.5,2.7.649,4.045l4.277,2.486-.121,10.629-4.413-2.565a24.157,24.157,0,0,1-.664,2.674l3.684,5.091-4.188,7.27-3.813-5.267a11.208,11.208,0,0,1-1.431,1.077l2.135,6.461-7.221,1.479Zm5.2-2.317.607-.33a9.613,9.613,0,0,0,2.337-1.8l.687-.715,3.452,4.77,2.379-4.127-3.553-4.908.136-.4a22.981,22.981,0,0,0,.928-3.991l.177-1.211,4.051,2.356.078-6.827-4.166-2.422-.045-.417a44.434,44.434,0,0,0-.841-5.1l-.185-.824,3.6-.736-2.589-7.835-3.619.741-.27-.611a50.4,50.4,0,0,0-2.422-4.787l-.238-.413,2.137-3.708-4.426-6.115-2.091,3.628-.764-.834a31.363,31.363,0,0,0-3.315-3.146l-.31-.252.065-5.675-4.751-2.763-.062,5.491-1.087-.38a12.727,12.727,0,0,0-3.221-.7l-.551-.041-1.993-6.031-3.956.809,1.978,5.984-.607.331a9.612,9.612,0,0,0-2.337,1.8l-.686.715-3.453-4.771L532,600.895l3.553,4.909-.136.4a23.015,23.015,0,0,0-.928,3.991l-.177,1.211-4.051-2.355-.078,6.826,4.167,2.422.044.417a44.579,44.579,0,0,0,.842,5.1l.185.824-3.6.736,2.589,7.834,3.619-.74.27.611a50.472,50.472,0,0,0,2.422,4.787l.238.413-2.138,3.708,4.426,6.115,2.091-3.628.763.833a31.293,31.293,0,0,0,3.316,3.147l.309.252-.065,5.675,4.752,2.763.062-5.491,1.088.38a12.671,12.671,0,0,0,3.221.7l.551.042,1.993,6.031,3.956-.809Z" transform="translate(-528.519 -589.977)" fill="#2d6c8e"/>
        </g>
        <path id="Path_1514" data-name="Path 1514" d="M558.708,588.947l-2.973,1.486,8.04,4.674,2.973-1.486Z" transform="translate(-535.521 -588.226)" fill="#fff" stroke="#929497" stroke-linejoin="round" stroke-width="1"/>
        <path id="Path_1515" data-name="Path 1515" d="M575.714,600.876l-2.973,1.486,6.552,9.053,2.973-1.486Z" transform="translate(-539.896 -591.295)" fill="#fff" stroke="#929497" stroke-linejoin="round" stroke-width="1"/>
        <path id="Path_1516" data-name="Path 1516" d="M589.318,622.44l-2.973,1.486,3.634,11,2.973-1.486Z" transform="translate(-543.396 -596.842)" fill="#fff" stroke="#929497" stroke-linejoin="round" stroke-width="1"/>
        <path id="Path_1517" data-name="Path 1517" d="M595.719,647.083l-2.973,1.486-.121,10.63,2.973-1.486Z" transform="translate(-545.011 -603.182)" fill="#fff" stroke="#929497" stroke-linejoin="round" stroke-width="1"/>
        <path id="Path_1518" data-name="Path 1518" d="M550.576,587.976l-2.973,1.486-7.221,1.478,2.973-1.486Z" transform="translate(-531.571 -587.976)" fill="#fff" stroke="#929497" stroke-linejoin="round" stroke-width="1"/>
        <path id="Path_1519" data-name="Path 1519" d="M592.446,666.656l-2.973,1.486-3.685-5.091,2.83-1.415.336.2Z" transform="translate(-543.252 -606.926)" fill="#fff" stroke="#929497" stroke-linejoin="round" stroke-width="1"/>
        <path id="Path_1520" data-name="Path 1520" d="M539.169,593.024,536.2,594.51l3.813,5.267a14.475,14.475,0,0,1,1.43-1.077L539.9,594.03Z" transform="translate(-530.494 -589.275)" fill="#fff" stroke="#929497" stroke-linejoin="round" stroke-width="1"/>
        <path id="Path_1521" data-name="Path 1521" d="M553.077,587.976l-2.973,1.486,2.112,6.393,1.995-1,.058-3.272Z" transform="translate(-534.072 -587.976)" fill="#fff" stroke="#929497" stroke-linejoin="round" stroke-width="1"/>
        <path id="Path_1522" data-name="Path 1522" d="M569.51,595.241l-2.973,1.486-.067,5.846,2.973-1.486Z" transform="translate(-538.282 -589.845)" fill="#fff" stroke="#929497" stroke-linejoin="round" stroke-width="1"/>
        <path id="Path_1523" data-name="Path 1523" d="M583.774,613.065l-2.973,1.486-2.2,3.813,2.973-1.486Z" transform="translate(-541.404 -594.43)" fill="#fff" stroke="#929497" stroke-linejoin="round" stroke-width="1"/>
        <path id="Path_1524" data-name="Path 1524" d="M589.778,642.628l-2.973,1.486s-.384-3-.649-4.045l3.139-.642S589.58,641.078,589.778,642.628Z" transform="translate(-543.347 -601.212)" fill="#fff" stroke="#929497" stroke-linejoin="round" stroke-width="1"/>
        <path id="Path_1525" data-name="Path 1525" d="M585.11,677.151l2.973-1.486,4.189-7.27-2.973,1.486Z" transform="translate(-543.078 -608.665)" fill="#fff" stroke="#929497" stroke-linejoin="round" stroke-width="1"/>
        <path id="Path_1526" data-name="Path 1526" d="M583.157,679.237l-2.973,1.486-2.135-6.461,1.623-.812,2.893,4Z" transform="translate(-541.261 -609.965)" fill="#fff" stroke="#929497" stroke-linejoin="round" stroke-width="1"/>
        <path id="Path_1527" data-name="Path 1527" d="M584.259,623.21l-2.973,1.486,3.758-.769,2.973-1.486Z" transform="translate(-542.094 -596.842)" fill="#fff" stroke="#929497" stroke-linejoin="round" stroke-width="1"/>
        <path id="Path_1528" data-name="Path 1528" d="M531.654,609.812l-2.973,1.487,4.413,2.565a24.4,24.4,0,0,1,.665-2.673l-.194-.267Z" transform="translate(-528.561 -593.594)" fill="#fff" stroke="#929497" stroke-linejoin="round" stroke-width="1"/>
        <path id="Path_1529" data-name="Path 1529" d="M533.04,633.911l-2.973,1.486,3.775-.772-.166-.844Z" transform="translate(-528.917 -599.76)" fill="#fff" stroke="#929497" stroke-linejoin="round" stroke-width="1"/>
        <path id="Path_1530" data-name="Path 1530" d="M551.539,669.5l-2.973,1.486,2.247-3.9,1.358,1.317Z" transform="translate(-533.676 -608.327)" fill="#fff" stroke="#929497" stroke-linejoin="round" stroke-width="1"/>
        <path id="Path_1531" data-name="Path 1531" d="M568.544,680.673l-2.973,1.486.069-6.068a17.973,17.973,0,0,0,2,.4l.919,2.782Z" transform="translate(-538.051 -610.645)" fill="#fff" stroke="#929497" stroke-linejoin="round" stroke-width="1"/>
        <path id="Path_1532" data-name="Path 1532" d="M579.48,673.093a11.907,11.907,0,0,1-1.431,1.077l1.624-.812Z" transform="translate(-541.261 -609.873)" fill="#fff" stroke="#929497" stroke-linejoin="round" stroke-width="1"/>
        <path id="Path_1533" data-name="Path 1533" d="M586.453,659.942s-.224,1.126-.664,2.674l2.83-1.415Z" transform="translate(-543.252 -606.49)" fill="#fff" stroke="#929497" stroke-linejoin="round" stroke-width="1"/>
        <path id="Path_1534" data-name="Path 1534" d="M594.279,646.222,590,643.737l-2.973,1.486,4.276,2.486Z" transform="translate(-543.572 -602.321)" fill="#fff" stroke="#929497" stroke-linejoin="round" stroke-width="1"/>
        <path id="Path_1535" data-name="Path 1535" d="M581.577,618.2l-2.972,1.486s1.572,2.935,1.991,3.92l2.973-1.486S582.394,619.61,581.577,618.2Z" transform="translate(-541.404 -595.751)" fill="#fff" stroke="#929497" stroke-linejoin="round" stroke-width="1"/>
      </g>
    </g>
  </g>
</svg>
