<svg xmlns="http://www.w3.org/2000/svg" width="99.194" height="95.818" viewBox="0 0 99.194 95.818">
  <g id="Lands-icon" transform="translate(-527.588 -88.793)">
    <g id="Group_717" data-name="Group 717" transform="translate(528.088 107.639)">
      <path id="Path_1603" data-name="Path 1603" d="M539.212,120.915l6.068,2.7,11.243-4.394-6.068-2.7Z" transform="translate(-531.716 -116.521)" fill="#fff" stroke="#929497" stroke-linejoin="round" stroke-width="1"/>
      <path id="Path_1604" data-name="Path 1604" d="M543.643,129.947l6.068,2.7-7.883,6.849-6.068-2.7Z" transform="translate(-530.59 -120.9)" fill="#fff" stroke="#929497" stroke-linejoin="round" stroke-width="1"/>
      <path id="Path_1605" data-name="Path 1605" d="M605.98,134.742l6.068,2.7L597.7,137.7l-5.147-2.713Z" transform="translate(-549.118 -122.465)" fill="#d0d2d3"/>
      <path id="Path_1606" data-name="Path 1606" d="M657.715,174.636l6.068,2.7h-11.5l-2.152-2.7Z" transform="translate(-567.898 -135.478)" fill="#fff" stroke="#929497" stroke-linejoin="round" stroke-width="1"/>
      <path id="Path_1607" data-name="Path 1607" d="M529.251,138.769l6.068,2.7-1.163,6.979-6.068-2.7Z" transform="translate(-528.088 -123.778)" fill="#fff" stroke="#929497" stroke-linejoin="round" stroke-width="1"/>
      <path id="Path_1608" data-name="Path 1608" d="M560.672,193.134l6.068,2.7-4.006-14.086-6.068-2.7Z" transform="translate(-537.41 -136.917)" fill="#fff" stroke="#929497" stroke-linejoin="round" stroke-width="1"/>
      <path id="Path_1609" data-name="Path 1609" d="M539.212,123.042l6.068,2.7,5.557,4.652-6.068-2.7Z" transform="translate(-531.716 -118.648)" fill="#fff" stroke="#929497" stroke-linejoin="round" stroke-width="1"/>
      <path id="Path_1610" data-name="Path 1610" d="M533.82,139.674l6.068,2.7-4.006-.9-6.068-2.7Z" transform="translate(-528.651 -123.778)" fill="#fff" stroke="#929497" stroke-linejoin="round" stroke-width="1"/>
      <path id="Path_1611" data-name="Path 1611" d="M533.181,151.39l2.636,1.172,2.283.172,16.973,19.988-6.068-2.7Z" transform="translate(-529.749 -127.895)" fill="#fff" stroke="#929497" stroke-linejoin="round" stroke-width="1"/>
      <path id="Path_1612" data-name="Path 1612" d="M577.345,204.774l10.209,16.283-6.068-2.7-8.949-14.273Z" transform="translate(-542.587 -145.085)" fill="#fff" stroke="#929497" stroke-linejoin="round" stroke-width="1"/>
    </g>
    <path id="Path_1613" data-name="Path 1613" d="M537.093,142.493l1.163-6.979,4.006.9,7.883-6.849-5.557-4.652,11.243-4.394,23.779,12.536,14.345-.258,21.453,26.88h11.5l1.809,2.843-1.938,9.951-12.536,5.945L600.805,181l-6.074,8.012-16.283-1.292-2.456,6.074-10.209-16.283-5.428-.775-4.006-14.086-16.973-19.988Z" transform="translate(-2.938 -10.187)" fill="#fff" stroke="#2d6c8e" stroke-linejoin="round" stroke-width="2"/>
    <g id="Group_722" data-name="Group 722" transform="translate(567.478 89.293)">
      <path id="Path_1614" data-name="Path 1614" d="M614.061,170.253l-1.732-2.884c-3.625-6.033-21.422-35.662-22.625-37.78l-1.384-3.058a27.208,27.208,0,0,1-1.772-9.725,27.513,27.513,0,0,1,55.027,0,27.21,27.21,0,0,1-1.759,9.69l-1.393,3.086c-1.165,2.056-19,31.748-22.63,37.788Z" transform="translate(-586.548 -89.293)" fill="#fff" stroke="#929497" stroke-linejoin="round" stroke-width="1"/>
      <path id="Path_1615" data-name="Path 1615" d="M640.686,128.495h0a25.492,25.492,0,1,0-45.281,0h0l.024.041c.477.916,22.619,37.77,22.619,37.77s22.143-36.855,22.619-37.77Z" transform="translate(-588.506 -89.945)" fill="#fff" stroke="#2d6c8e" stroke-miterlimit="10" stroke-width="2"/>
      <g id="Group_721" data-name="Group 721" transform="translate(14.152 10.273)">
        <g id="Group_718" data-name="Group 718" transform="translate(0 26.447)">
          <path id="Path_1616" data-name="Path 1616" d="M625.407,153.336c0-.335-.12-8.2-8.254-8.2-8.16,0-8.254,7.863-8.254,8.2h-1.348c0-.1.11-9.545,9.6-9.545s9.6,9.45,9.6,9.545Z" transform="translate(-607.551 -143.79)" fill="#2d6c8e"/>
          <rect id="Rectangle_415" data-name="Rectangle 415" width="1.923" height="5.166" transform="translate(5.279 4.38)" fill="#49b5d8"/>
          <rect id="Rectangle_416" data-name="Rectangle 416" width="1.937" height="2.779" transform="translate(9.925 4.38)" fill="#49b5d8"/>
        </g>
        <path id="Path_1617" data-name="Path 1617" d="M646.207,104.54h-4.338v15.418h1.937V106.477h2.4v13.481h1.937V104.54Z" transform="translate(-618.746 -104.54)" fill="#49b5d8"/>
        <g id="Group_719" data-name="Group 719" transform="translate(14.196 16.845)">
          <rect id="Rectangle_417" data-name="Rectangle 417" width="1.923" height="11.633" transform="translate(4.397 7.082) rotate(-90)" fill="#49b5d8"/>
          <rect id="Rectangle_418" data-name="Rectangle 418" width="1.923" height="8.615" transform="translate(7.415 11.736) rotate(-90)" fill="#49b5d8"/>
          <path id="Path_1618" data-name="Path 1618" d="M644.689,144.251h-1.348V130.887H629.967v10.388H628.62V129.54h16.069Z" transform="translate(-628.62 -129.54)" fill="#2d6c8e"/>
        </g>
        <g id="Group_720" data-name="Group 720" transform="translate(9.375)">
          <rect id="Rectangle_419" data-name="Rectangle 419" width="1.937" height="2.406" transform="translate(4.485 3.243)" fill="#49b5d8"/>
          <rect id="Rectangle_420" data-name="Rectangle 420" width="1.937" height="2.406" transform="translate(4.485 8.128)" fill="#49b5d8"/>
          <rect id="Rectangle_421" data-name="Rectangle 421" width="1.937" height="2.406" transform="translate(4.485 13.013)" fill="#49b5d8"/>
          <path id="Path_1619" data-name="Path 1619" d="M622.812,127.505h-1.348V104.54h10.907v15.329h-1.348V105.887h-8.212Z" transform="translate(-621.465 -104.54)" fill="#2d6c8e"/>
        </g>
      </g>
    </g>
  </g>
</svg>
