<svg xmlns="http://www.w3.org/2000/svg" width="59.916" height="97.823" viewBox="0 0 59.916 97.823">
  <g id="Land-Loan-icon" transform="translate(-772.678 -314.515)">
    <g id="Group_551" data-name="Group 551" transform="translate(777.951 315.015)">
      <path id="Path_919" data-name="Path 919" d="M780.494,385.6V320.55l48.125,28.133v65.054Z" transform="translate(-780.494 -316.915)" fill="#fff"/>
      <path id="Path_920" data-name="Path 920" d="M780.494,320.55V385.6l48.125,28.133V348.683Zm1.785,3.283,43.966,26.247v60.283l-43.966-26.247Z" transform="translate(-780.494 -316.915)" fill="#2d6c8e"/>
      <path id="Path_921" data-name="Path 921" d="M859.787,422.9l-6.017,3.635V361.486l6.017-3.635Z" transform="translate(-805.644 -329.717)" fill="#fff" stroke="#929497" stroke-linejoin="round" stroke-width="1"/>
      <path id="Path_922" data-name="Path 922" d="M828.619,346.783,780.494,318.65l6.018-3.635,48.125,28.133Z" transform="translate(-780.494 -315.015)" fill="#fff" stroke="#929497" stroke-linejoin="round" stroke-width="1"/>
      <path id="Path_923" data-name="Path 923" d="M846.238,371.475l2.377,1.387V360.375l-9.855-5.76-.008,2.689,7.488,4.469Z" transform="translate(-800.49 -328.607)" fill="#49b5d8"/>
      <path id="Path_924" data-name="Path 924" d="M790.352,328.652v-2.34l-9.858-5.762.007,12.487,1.778,1.044V323.833Z" transform="translate(-780.494 -316.915)" fill="#49b5d8"/>
      <path id="Path_925" data-name="Path 925" d="M846.243,442.193v9.922l-7.484-4.468v2.078l9.858,5.763V443.581Z" transform="translate(-800.492 -358.666)" fill="#49b5d8"/>
      <path id="Path_926" data-name="Path 926" d="M782.279,402.514v9.376l8.073,4.819v2.431l-9.858-5.763V401.471Z" transform="translate(-780.494 -344.689)" fill="#49b5d8"/>
    </g>
    <g id="Group_554" data-name="Group 554" transform="translate(773.085 336.655)">
      <path id="Path_927" data-name="Path 927" d="M795.451,370.659l-3.266-1.9.077-6.754,3.266,1.9a18.344,18.344,0,0,1,.745-3.2l-2.8-3.867,2.541-4.41,2.8,3.871a8.052,8.052,0,0,1,1.965-1.515l-1.589-4.807,4.324-.885,1.587,4.8a10.42,10.42,0,0,1,2.655.577l.051-4.456,4.949,2.877-.051,4.456a24.9,24.9,0,0,1,2.634,2.5l1.674-2.906,4.248,5.869-1.676,2.909a39.374,39.374,0,0,1,1.9,3.765l2.852-.584,2.408,7.288-2.85.583a35.121,35.121,0,0,1,.663,4.018l3.266,1.9-.077,6.754-3.265-1.9a18.384,18.384,0,0,1-.745,3.2l2.8,3.867L824,399.02l-2.8-3.871a8.06,8.06,0,0,1-1.965,1.516l1.589,4.807-4.324.885-1.587-4.8a10.451,10.451,0,0,1-2.656-.577l-.051,4.456-4.949-2.877.051-4.456a24.771,24.771,0,0,1-2.634-2.5L803,394.507l-4.248-5.868,1.676-2.909a39.483,39.483,0,0,1-1.9-3.765l-2.852.584-2.408-7.288,2.85-.583A35.13,35.13,0,0,1,795.451,370.659Z" transform="translate(-779.641 -348.351)" fill="#fff" stroke="#929497" stroke-linejoin="round" stroke-width="1"/>
      <path id="Path_928" data-name="Path 928" d="M794.513,370.663l-3.309-1.924.093-8.225,3.415,1.985a18.6,18.6,0,0,1,.514-2.069l-2.851-3.939,3.242-5.626,2.95,4.076a8.679,8.679,0,0,1,1.107-.833l-1.652-5,5.587-1.143,1.635,4.947a10.9,10.9,0,0,1,1.548.306l.053-4.7,6.222,3.618-.052,4.523a24.838,24.838,0,0,1,1.865,1.733l1.739-3.017,5.07,7.005-1.7,2.95c.55.977,1.067,1.995,1.541,3.034l2.908-.6,2.812,8.512-2.921.6c.215,1.042.384,2.091.5,3.13l3.309,1.923-.093,8.225-3.415-1.985a18.588,18.588,0,0,1-.514,2.069l2.851,3.939-3.241,5.626-2.951-4.076a8.622,8.622,0,0,1-1.107.834l1.652,5-5.587,1.144-1.635-4.947a10.824,10.824,0,0,1-1.548-.307l-.053,4.7-6.222-3.617.052-4.523a25,25,0,0,1-1.865-1.733l-1.738,3.018-5.071-7.006,1.7-2.95c-.551-.978-1.068-2-1.541-3.034l-2.908.6-2.812-8.512,2.921-.6C794.8,372.751,794.632,371.7,794.513,370.663Z" transform="translate(-779.304 -347.964)" fill="#fff" stroke="#929497" stroke-linejoin="round" stroke-width="1"/>
      <path id="Path_929" data-name="Path 929" d="M803.874,347.964l-11.9,6.774,1.635,4.947,11.9-6.774Z" transform="translate(-779.568 -347.964)" fill="#fff" stroke="#929497" stroke-linejoin="round" stroke-width="1"/>
      <path id="Path_930" data-name="Path 930" d="M794.463,362.27s1,.15,1.548.307l11.9-6.775a11.341,11.341,0,0,0-1.548-.306Z" transform="translate(-780.423 -350.549)" fill="#fff" stroke="#929497" stroke-linejoin="round" stroke-width="1"/>
      <path id="Path_931" data-name="Path 931" d="M803.123,359.2l11.9-6.774-6.222-3.617-11.9,6.774Z" transform="translate(-781.259 -348.255)" fill="#fff" stroke="#929497" stroke-linejoin="round" stroke-width="1"/>
      <path id="Path_932" data-name="Path 932" d="M818.247,354.321l-11.9,6.774-.052,4.523,11.9-6.774Z" transform="translate(-784.484 -350.145)" fill="#fff" stroke="#929497" stroke-linejoin="round" stroke-width="1"/>
      <path id="Path_933" data-name="Path 933" d="M818.2,361.208l-11.9,6.774s1.232,1.074,1.865,1.733l11.9-6.774S818.83,361.72,818.2,361.208Z" transform="translate(-784.484 -352.509)" fill="#fff" stroke="#929497" stroke-linejoin="round" stroke-width="1"/>
      <path id="Path_934" data-name="Path 934" d="M823.683,359.252l-11.9,6.774,5.07,7.006,11.9-6.774Z" transform="translate(-786.367 -351.838)" fill="#fff" stroke="#929497" stroke-linejoin="round" stroke-width="1"/>
      <g id="Group_553" data-name="Group 553" transform="translate(0 6.774)">
        <path id="Path_935" data-name="Path 935" d="M774.066,379.075l.077-6.754,3.266,1.9a18.411,18.411,0,0,1,.745-3.2l-2.8-3.867,2.541-4.41,2.8,3.871a8.068,8.068,0,0,1,1.965-1.515l-1.589-4.807,4.325-.885,1.587,4.8a10.424,10.424,0,0,1,2.655.577l.051-4.456,4.949,2.877-.051,4.456a24.764,24.764,0,0,1,2.634,2.5l1.675-2.906,4.247,5.869-1.676,2.909a39.535,39.535,0,0,1,1.905,3.765l2.852-.584,2.408,7.288-2.849.583a34.957,34.957,0,0,1,.663,4.018l3.266,1.9-.077,6.754-3.265-1.9a18.445,18.445,0,0,1-.745,3.2l2.8,3.867-2.54,4.41-2.8-3.871a8.08,8.08,0,0,1-1.965,1.516l1.588,4.807-4.324.885-1.587-4.8a10.45,10.45,0,0,1-2.656-.576l-.051,4.456-4.949-2.877.051-4.456a24.7,24.7,0,0,1-2.634-2.5l-1.675,2.906-4.247-5.868,1.676-2.909a39.6,39.6,0,0,1-1.905-3.765l-2.852.584-2.408-7.288,2.849-.583a35.155,35.155,0,0,1-.663-4.019Z" transform="translate(-773.422 -358.666)" fill="#fff"/>
        <ellipse id="Ellipse_8" data-name="Ellipse 8" cx="8.226" cy="14.499" rx="8.226" ry="14.499" transform="matrix(0.93, -0.367, 0.367, 0.93, 5.456, 16.878)" fill="#fff" stroke="#49b5d8" stroke-miterlimit="10" stroke-width="1.95"/>
        <g id="Group_552" data-name="Group 552" transform="translate(12.781 17.47)">
          <path id="Path_936" data-name="Path 936" d="M792.546,394.672l.825-1.377a7.347,7.347,0,0,0,1.723,3.08c.533.452.866.258.887-.505v-.037c.02-.726-.173-1.27-1.147-2.667a8.28,8.28,0,0,1-1.852-5.646v-.037c.065-2.364.97-3.2,2.179-2.173a8.311,8.311,0,0,1,2.153,3.52l-.736,1.587a7.122,7.122,0,0,0-1.5-2.588c-.5-.423-.774-.143-.792.491v.037c-.024.856.223,1.35,1.229,2.795a8.452,8.452,0,0,1,1.77,5.5v.037c-.071,2.588-1.007,3.28-2.284,2.2A9.647,9.647,0,0,1,792.546,394.672Z" transform="translate(-792.546 -384.878)" fill="#2d687f"/>
          <path id="Path_937" data-name="Path 937" d="M801.679,390.343l2.705,2.293a5.837,5.837,0,0,1,1.689,2.783,10.725,10.725,0,0,1,.426,3.409v.037c-.057,2.1-.609,2.988-1.379,2.965l1.319,5.879-1.522-1.29-1.155-5.244-1.023-.867-.114,4.17-1.3-1.1Zm2.447,8.551c.634.537,1.018.1,1.048-1v-.037a3.374,3.374,0,0,0-.972-2.728l-1.294-1.1-.1,3.742Z" transform="translate(-795.558 -386.754)" fill="#2d687f"/>
        </g>
        <path id="Path_938" data-name="Path 938" d="M795.982,408.077a10.911,10.911,0,0,1-1.547-.307l-.054,4.7-6.222-3.617.052-4.523a25.435,25.435,0,0,1-1.865-1.733l-1.738,3.017-5.07-7.005,1.7-2.951c-.55-.978-1.067-2-1.541-3.034l-2.908.6-2.812-8.512,2.921-.6c-.215-1.042-.383-2.091-.5-3.13l-3.309-1.924.093-8.225,3.415,1.986a18.414,18.414,0,0,1,.514-2.069l-2.851-3.939,3.241-5.626,2.951,4.076a8.627,8.627,0,0,1,1.107-.833l-1.652-5,5.588-1.143,1.634,4.947a10.8,10.8,0,0,1,1.548.307l.053-4.7,6.222,3.618-.051,4.523a25.422,25.422,0,0,1,1.865,1.733l1.739-3.017,5.07,7.005-1.7,2.951c.55.977,1.067,1.994,1.541,3.033l2.908-.6,2.813,8.512-2.921.6c.215,1.042.383,2.091.5,3.13l3.309,1.923-.093,8.225-3.415-1.985a18.647,18.647,0,0,1-.514,2.07l2.851,3.939-3.241,5.626-2.951-4.076a8.614,8.614,0,0,1-1.107.834l1.652,5-5.588,1.144Zm4.025-1.793.469-.256a7.437,7.437,0,0,0,1.809-1.4l.531-.554,2.672,3.691,1.841-3.194-2.749-3.8.1-.313a17.761,17.761,0,0,0,.719-3.088l.137-.937,3.135,1.823.06-5.282-3.223-1.874-.035-.323a34.385,34.385,0,0,0-.651-3.945l-.143-.636,2.784-.57-2-6.063-2.8.573-.208-.472a39.179,39.179,0,0,0-1.874-3.7l-.184-.32,1.654-2.869-3.426-4.732-1.617,2.808-.591-.646a24.257,24.257,0,0,0-2.565-2.434l-.239-.2.05-4.392-3.677-2.137-.048,4.249-.841-.294a9.84,9.84,0,0,0-2.492-.542l-.426-.032-1.542-4.667-3.061.626,1.53,4.631-.47.255a7.461,7.461,0,0,0-1.809,1.4l-.531.554-2.672-3.692-1.84,3.195,2.749,3.8-.105.313a17.794,17.794,0,0,0-.719,3.087l-.137.937-3.135-1.822-.06,5.281L777.6,380.2l.034.324a34.513,34.513,0,0,0,.652,3.945l.142.637-2.783.569,2,6.063,2.8-.573.209.472a39.052,39.052,0,0,0,1.874,3.7l.184.319-1.654,2.869,3.425,4.731,1.618-2.807.591.645a24.055,24.055,0,0,0,2.565,2.435l.239.2-.05,4.392,3.677,2.138.048-4.249.842.294a9.8,9.8,0,0,0,2.492.542l.426.032,1.542,4.667,3.061-.627Z" transform="translate(-773.085 -358.278)" fill="#2d6c8e"/>
      </g>
      <path id="Path_939" data-name="Path 939" d="M835.588,378.123l-11.9,6.774,2.812,8.512,11.9-6.774Z" transform="translate(-790.453 -358.315)" fill="#fff" stroke="#929497" stroke-linejoin="round" stroke-width="1"/>
      <path id="Path_940" data-name="Path 940" d="M830.514,369.918l-11.9,6.774-1.7,2.95,11.9-6.774Z" transform="translate(-788.128 -355.499)" fill="#fff" stroke="#929497" stroke-linejoin="round" stroke-width="1"/>
      <path id="Path_941" data-name="Path 941" d="M828.814,374.41l-11.9,6.775s1.138,2.119,1.541,3.033l11.9-6.774S829.111,374.824,828.814,374.41Z" transform="translate(-788.128 -357.041)" fill="#fff" stroke="#929497" stroke-linejoin="round" stroke-width="1"/>
      <path id="Path_942" data-name="Path 942" d="M831.161,378.718l-11.9,6.774,2.908-.6,11.9-6.774Z" transform="translate(-788.934 -358.315)" fill="#fff" stroke="#929497" stroke-linejoin="round" stroke-width="1"/>
      <path id="Path_943" data-name="Path 943" d="M841.177,399.687l-11.9,6.774-.093,8.225,11.9-6.774Z" transform="translate(-792.339 -365.716)" fill="#fff" stroke="#929497" stroke-linejoin="round" stroke-width="1"/>
      <path id="Path_944" data-name="Path 944" d="M835.925,395.625l-11.9,6.774s-.295-2.129-.5-3.13l2.921-.6,9.163-5.216S835.817,394.637,835.925,395.625Z" transform="translate(-790.397 -363.577)" fill="#fff" stroke="#929497" stroke-linejoin="round" stroke-width="1"/>
      <path id="Path_945" data-name="Path 945" d="M836.188,396.759l-11.9,6.774,3.309,1.924,11.9-6.774Z" transform="translate(-790.659 -364.711)" fill="#fff" stroke="#929497" stroke-linejoin="round" stroke-width="1"/>
      <path id="Path_946" data-name="Path 946" d="M837.952,417.074l-11.9,6.774-2.851-3.939,2.059-1.172,1.87,1.088,9.074-5.166Z" transform="translate(-790.286 -370.855)" fill="#fff" stroke="#929497" stroke-linejoin="round" stroke-width="1"/>
      <path id="Path_947" data-name="Path 947" d="M825.26,420.4l-1.545-.9a20.509,20.509,0,0,1-.514,2.07Z" transform="translate(-790.286 -372.517)" fill="#fff" stroke="#929497" stroke-linejoin="round" stroke-width="1"/>
      <path id="Path_948" data-name="Path 948" d="M837.748,418.336l-11.9,6.774-3.241,5.626,11.9-6.774Z" transform="translate(-790.082 -372.117)" fill="#fff" stroke="#929497" stroke-linejoin="round" stroke-width="1"/>
      <path id="Path_949" data-name="Path 949" d="M829.98,429.408l-11.9,6.774-1.652-5,1.212-.69,2.846,3.932,9.386-5.343Z" transform="translate(-787.962 -375.805)" fill="#fff" stroke="#929497" stroke-linejoin="round" stroke-width="1"/>
      <path id="Path_950" data-name="Path 950" d="M817.535,431.01a10.621,10.621,0,0,1-1.107.834l1.212-.69Z" transform="translate(-787.961 -376.467)" fill="#fff" stroke="#929497" stroke-linejoin="round" stroke-width="1"/>
      <path id="Path_951" data-name="Path 951" d="M800.954,347.964l-5.588,1.143-11.9,6.774,5.588-1.143Z" transform="translate(-776.648 -347.964)" fill="#fff" stroke="#929497" stroke-linejoin="round" stroke-width="1"/>
      <path id="Path_952" data-name="Path 952" d="M779.8,361.947l2.513-1.43,1.545,4.673a12.42,12.42,0,0,0-1.107.833Z" transform="translate(-775.391 -352.272)" fill="#fff" stroke="#929497" stroke-linejoin="round" stroke-width="1"/>
      <path id="Path_953" data-name="Path 953" d="M773.227,376.546l2.824-1.607,1.105,1.524s-.3.962-.514,2.069Z" transform="translate(-773.134 -357.222)" fill="#fff" stroke="#929497" stroke-linejoin="round" stroke-width="1"/>
      <path id="Path_954" data-name="Path 954" d="M774.44,397.7l2.737-1.558.184.961Z" transform="translate(-773.55 -364.499)" fill="#fff" stroke="#929497" stroke-linejoin="round" stroke-width="1"/>
      <path id="Path_955" data-name="Path 955" d="M805.509,438.33l2.567-1.462-.966-2.927a14.365,14.365,0,0,1-1.547-.307Z" transform="translate(-784.214 -377.368)" fill="#fff" stroke="#929497" stroke-linejoin="round" stroke-width="1"/>
      <path id="Path_956" data-name="Path 956" d="M790.628,428.769l3.069-1.747-1.33-1.271Z" transform="translate(-779.106 -374.662)" fill="#fff" stroke="#929497" stroke-linejoin="round" stroke-width="1"/>
    </g>
  </g>
</svg>
