<svg xmlns="http://www.w3.org/2000/svg" width="136.221" height="126.074" viewBox="0 0 136.221 126.074">
  <g id="Logistic-product-icon" transform="translate(-970.28 -84.622)">
    <g id="Group_529" data-name="Group 529" transform="translate(971.28 85.622)">
      <path id="Path_811" data-name="Path 811" d="M1094.543,97.213l-67.111,39.275,21.909,24.4,67.111-39.275Z" transform="translate(-982.231 -87.883)" fill="#fff" stroke="#929497" stroke-linejoin="round" stroke-width="2"/>
      <path id="Path_812" data-name="Path 812" d="M1121.76,127.53,1054.649,166.8v51.065l67.111-39.275Z" transform="translate(-987.539 -93.795)" fill="#fff" stroke="#929497" stroke-linejoin="round" stroke-width="2"/>
      <path id="Path_813" data-name="Path 813" d="M988.787,124.9,1055.9,85.622l13.185,19.82L1019.9,134.228l-17.2,11.581Z" transform="translate(-974.694 -85.622)" fill="#fff" stroke="#929497" stroke-linejoin="round" stroke-width="2"/>
      <g id="Group_525" data-name="Group 525" transform="translate(73.822 45.362)">
        <path id="Path_814" data-name="Path 814" d="M1128.383,153.218v-7.739l-5.537,3.24v-2.244l7.692-4.5v9.983Z" transform="translate(-1074.661 -141.974)" fill="#2d6c8e"/>
        <path id="Path_815" data-name="Path 815" d="M1116.2,160.405v-7.739l-6.255,3.63v-2.244l8.411-4.891v9.983Z" transform="translate(-1072.145 -143.375)" fill="#2d6c8e"/>
        <path id="Path_816" data-name="Path 816" d="M1103.071,168.213v-7.739l-6.974,4.079v-2.244l9.129-5.34v9.983Z" transform="translate(-1069.444 -144.898)" fill="#2d6c8e"/>
        <path id="Path_817" data-name="Path 817" d="M1088.539,176.58V168.84l-8.411,4.917v-2.244l10.566-6.178v9.983Z" transform="translate(-1066.33 -146.53)" fill="#2d6c8e"/>
        <path id="Path_818" data-name="Path 818" d="M1072.116,185.969V178.23l-9.129,5.336v-2.244l11.285-6.6v9.983Z" transform="translate(-1062.987 -148.361)" fill="#2d6c8e"/>
      </g>
      <path id="Path_819" data-name="Path 819" d="M971.28,179.937V147.883l14.093-13.471,13.913,20.912,17.23-11.462,21.874,24.12v51.23Z" transform="translate(-971.28 -95.137)" fill="#fff" stroke="#49b5d8" stroke-linejoin="round" stroke-width="2"/>
      <g id="Group_528" data-name="Group 528" transform="translate(5.209 65.451)">
        <g id="Group_526" data-name="Group 526" transform="translate(30.222 16.555)">
          <path id="Path_820" data-name="Path 820" d="M1038.786,213.829l-23.491-13.748V202.5l23.491,13.748Z" transform="translate(-1015.295 -189.95)" fill="#296c91"/>
          <path id="Path_821" data-name="Path 821" d="M1038.786,209.634l-23.491-13.748V198.3l23.491,13.748Z" transform="translate(-1015.295 -189.131)" fill="#296c91"/>
          <path id="Path_822" data-name="Path 822" d="M1038.786,205.438l-23.491-13.748v2.416l23.491,13.748Z" transform="translate(-1015.295 -188.313)" fill="#296c91"/>
          <path id="Path_823" data-name="Path 823" d="M1038.786,201.243l-23.491-13.748v2.416l23.491,13.748Z" transform="translate(-1015.295 -187.495)" fill="#296c91"/>
        </g>
        <g id="Group_527" data-name="Group 527">
          <path id="Path_824" data-name="Path 824" d="M977.751,179.516l17.768,10.375v2.416l-17.768-10.375Z" transform="translate(-977.751 -169.384)" fill="#296c91"/>
          <path id="Path_825" data-name="Path 825" d="M977.751,175.321,995.519,185.7v2.416l-17.768-10.375Z" transform="translate(-977.751 -168.566)" fill="#296c91"/>
          <path id="Path_826" data-name="Path 826" d="M977.751,171.125,995.519,181.5v2.416l-17.768-10.375Z" transform="translate(-977.751 -167.748)" fill="#296c91"/>
          <path id="Path_827" data-name="Path 827" d="M977.751,166.929,995.519,177.3v2.416l-17.768-10.375Z" transform="translate(-977.751 -166.929)" fill="#296c91"/>
        </g>
      </g>
    </g>
  </g>
</svg>
