<svg xmlns="http://www.w3.org/2000/svg" width="82.458" height="95.318" viewBox="0 0 82.458 95.318">
  <g id="open-storage-yard-icon" transform="translate(-984.896 -315.551)">
    <path id="Path_1660" data-name="Path 1660" d="M1030.134,423.023l36.22-21.272-44.238-25.812L985.9,397.211Z" transform="translate(0 -25.266)" fill="#fff" stroke="#929497" stroke-linejoin="round" stroke-width="2"/>
    <path id="Path_1661" data-name="Path 1661" d="M1062.892,454.2l36.219-21.272V420.865l-36.219,21.272Z" transform="translate(-32.758 -44.38)" fill="#fff" stroke="#929497" stroke-linejoin="round" stroke-width="2"/>
    <path id="Path_1662" data-name="Path 1662" d="M1033.408,379.794l30.471-17.869-38.754-22.612-30.471,17.869Z" transform="translate(-3.726 -9.684)" fill="#fff" stroke="#929497" stroke-linejoin="round" stroke-width="2"/>
    <path id="Path_1663" data-name="Path 1663" d="M1062.1,420.459l30.472-17.854V378.67L1062.1,396.538Z" transform="translate(-32.423 -26.428)" fill="#fff" stroke="#929497" stroke-linejoin="round" stroke-width="2"/>
    <g id="Group_733" data-name="Group 733" transform="translate(1008.501 316.551)">
      <path id="Path_1664" data-name="Path 1664" d="M1045.182,342l23.572-13.818-19.942-11.636-23.572,13.818Z" transform="translate(-1025.24 -316.551)" fill="#fff" stroke="#929497" stroke-linejoin="round" stroke-width="2"/>
      <path id="Path_1665" data-name="Path 1665" d="M1059.948,374.546l23.572-13.819V336.8l-23.572,13.818Z" transform="translate(-1040.007 -325.167)" fill="#fff" stroke="#929497" stroke-linejoin="round" stroke-width="2"/>
      <path id="Path_1666" data-name="Path 1666" d="M1045.608,353.643l-19.367-11.3v23.833l19.367,11.3Z" transform="translate(-1025.666 -327.524)" fill="#fff"/>
      <path id="Path_1667" data-name="Path 1667" d="M1037.215,353.518v-5.93l6.182,3.606v5.931Zm1.149-3.929v3.269l3.883,2.266v-3.27Z" transform="translate(-1030.335 -329.755)" fill="#49b5d8"/>
      <path id="Path_1668" data-name="Path 1668" d="M1036.1,376.533l-2.85-1.663v-1.725l2.85,1.663Z" transform="translate(-1028.65 -340.629)" fill="#49b5d8"/>
      <path id="Path_1669" data-name="Path 1669" d="M1045.182,352.237v18.075l-1.148-.674V358.906h0V352.9L1026.39,342.6v22.592l-1.149-.671V340.6Z" transform="translate(-1025.24 -326.783)" fill="#2d6c8e"/>
    </g>
    <g id="Group_734" data-name="Group 734" transform="translate(990.928 347.498)">
      <path id="Path_1670" data-name="Path 1670" d="M1014.446,384.676l-18.793-10.965v23.256l18.793,10.965Z" transform="translate(-995.079 -371.816)" fill="#fff"/>
      <path id="Path_1671" data-name="Path 1671" d="M1006.629,383.331V377.4l6.181,3.606v5.93Zm1.149-3.929v3.269l3.883,2.266v-3.27Z" transform="translate(-999.749 -373.386)" fill="#49b5d8"/>
      <path id="Path_1672" data-name="Path 1672" d="M1005.518,406.345l-2.85-1.663v-1.725l2.85,1.663Z" transform="translate(-998.063 -384.259)" fill="#49b5d8"/>
      <path id="Path_1673" data-name="Path 1673" d="M1047.764,402.559l-19.367-11.3v23.955l19.367,11.3Z" transform="translate(-1009.01 -379.282)" fill="#fff"/>
      <path id="Path_1674" data-name="Path 1674" d="M1039.371,402.435v-5.93l6.182,3.606v5.931Zm1.149-3.929v3.269l3.883,2.265v-3.269Z" transform="translate(-1013.679 -381.514)" fill="#49b5d8"/>
      <path id="Path_1675" data-name="Path 1675" d="M1038.26,425.449l-2.85-1.663v-1.725l2.85,1.663Z" transform="translate(-1011.994 -392.387)" fill="#49b5d8"/>
      <path id="Path_1676" data-name="Path 1676" d="M1047.338,401.154v18.071l-1.149-.67V401.813l-17.643-10.295v18.028h-.02V414.1l-1.129-.66V389.518Z" transform="translate(-1008.584 -378.541)" fill="#2d6c8e"/>
      <path id="Path_1677" data-name="Path 1677" d="M1014.6,382.049v23.922l-1.129-.659V388.844h-.02v-6.135L995.8,372.414v22.591l-1.149-.671V370.413Z" transform="translate(-994.654 -370.413)" fill="#2d6c8e"/>
    </g>
    <g id="Group_737" data-name="Group 737" transform="translate(985.896 371.944)">
      <path id="Path_1678" data-name="Path 1678" d="M986.9,414.7l43.664,25.6v12.327L986.9,427.03Z" transform="translate(-986.321 -413.703)" fill="#fff"/>
      <g id="Group_735" data-name="Group 735" transform="translate(6.094 9.893)">
        <path id="Path_1679" data-name="Path 1679" d="M1011.649,440.349V439.02L996.5,430.181v5.74l1.149.664v-4.4Z" transform="translate(-996.502 -430.181)" fill="#49b5d8"/>
        <path id="Path_1680" data-name="Path 1680" d="M1018.4,449.438l1.149.669v-4.739l-1.149-.669Z" transform="translate(-1005.818 -436.357)" fill="#49b5d8"/>
      </g>
      <g id="Group_736" data-name="Group 736" transform="translate(24.847 20.835)">
        <path id="Path_1681" data-name="Path 1681" d="M1043.344,458.843l.007-1.326-14.209-8.291v5.737l1.149.673v-4.409Z" transform="translate(-1029.142 -449.226)" fill="#49b5d8"/>
        <path id="Path_1682" data-name="Path 1682" d="M1049.807,467.761l1.149.673V463.7l-1.149-.673Z" transform="translate(-1037.934 -455.096)" fill="#49b5d8"/>
      </g>
      <path id="Path_1683" data-name="Path 1683" d="M1029.849,438.608l.285.166v12.063l-1.115-.651v-8.821l-.034-.018v-1.913l-41.94-24.471v9.4l.007,0v1.33l-.871-.509-.285-.166V412.962Z" transform="translate(-985.896 -412.962)" fill="#2d6c8e"/>
      <path id="Path_1684" data-name="Path 1684" d="M986.9,424.457l2.123,1.239v-1.725l-2.123-1.239Z" transform="translate(-986.321 -417.119)" fill="#2d6c8e"/>
    </g>
  </g>
</svg>
