<svg xmlns="http://www.w3.org/2000/svg" width="101.839" height="95.318" viewBox="0 0 101.839 95.318">
  <g id="Other-services-icon" transform="translate(-282.692 -560.68)">
    <g id="Group_714" data-name="Group 714" transform="translate(283.064 561.18)">
      <g id="Group_698" data-name="Group 698" transform="translate(35.378)">
        <g id="Group_697" data-name="Group 697" transform="translate(0 2.678)">
          <path id="Path_1536" data-name="Path 1536" d="M337.85,615.529l9.454,5.647V572.66l-9.454-5.647Z" transform="translate(-337.193 -565.854)" fill="#fff"/>
          <path id="Path_1537" data-name="Path 1537" d="M347.62,571.683v49.279l-1.315-.786V572.43l-8.138-4.862v47.747l-1.315-.786V565.251Z" transform="translate(-336.85 -565.251)" fill="#2d6c8e"/>
        </g>
        <path id="Path_1538" data-name="Path 1538" d="M357.831,620.239l-4.607,2.678V573.638l4.607-2.678Z" transform="translate(-342.454 -564.527)" fill="#bbbdbf"/>
        <path id="Path_1539" data-name="Path 1539" d="M341.458,561.18l-4.607,2.678,10.769,6.433,4.607-2.678Z" transform="translate(-336.85 -561.18)" fill="#fff" stroke="#929497" stroke-linejoin="round" stroke-width="1"/>
      </g>
      <g id="Group_700" data-name="Group 700" transform="translate(44.831 1.983)">
        <g id="Group_699" data-name="Group 699" transform="translate(0 2.337)">
          <path id="Path_1540" data-name="Path 1540" d="M352.223,621.8l8.018,4.79V569.445l-8.018-.618Z" transform="translate(-351.566 -568.116)" fill="#fff"/>
          <path id="Path_1541" data-name="Path 1541" d="M360.557,568.466v58.141l-1.315-.786V569.684l-6.7-.516v44.41h-.01v8.233l-1.305-.78V567.747Z" transform="translate(-351.224 -567.747)" fill="#49b5d8"/>
        </g>
        <path id="Path_1542" data-name="Path 1542" d="M355.212,564.194l-3.989,2.337,9.333.719,3.989-2.337Z" transform="translate(-351.224 -564.194)" fill="#fff" stroke="#929497" stroke-linejoin="round" stroke-width="1"/>
        <path id="Path_1543" data-name="Path 1543" d="M369.4,623.429l-3.989,2.337V567.625l3.989-2.337Z" transform="translate(-356.08 -564.568)" fill="#fff" stroke="#929497" stroke-linejoin="round" stroke-width="1"/>
      </g>
      <g id="Group_702" data-name="Group 702" transform="translate(58.91 2.71)">
        <g id="Group_701" data-name="Group 701" transform="translate(0 2.828)">
          <path id="Path_1544" data-name="Path 1544" d="M373.628,631.075l6.483,3.873V575.236l-6.483-3.873Z" transform="translate(-372.97 -570.203)" fill="#fff"/>
          <path id="Path_1545" data-name="Path 1545" d="M380.427,574.26v60.475l-1.315-.786V575.006l-5.168-3.087v58.942l-1.315-.786V569.6Z" transform="translate(-372.628 -569.6)" fill="#49b5d8"/>
        </g>
        <path id="Path_1546" data-name="Path 1546" d="M389.324,572.384l-4.839,2.828v60.475l4.839-2.828Z" transform="translate(-376.686 -567.724)" fill="#fff" stroke="#929497" stroke-linejoin="round" stroke-width="1"/>
        <path id="Path_1547" data-name="Path 1547" d="M377.466,565.3l-4.839,2.828,7.8,4.659,4.839-2.828Z" transform="translate(-372.628 -565.3)" fill="#fff" stroke="#929497" stroke-linejoin="round" stroke-width="1"/>
      </g>
      <g id="Group_707" data-name="Group 707" transform="translate(0 7.869)">
        <g id="Group_704" data-name="Group 704">
          <path id="Path_1548" data-name="Path 1548" d="M350.545,628.834" transform="translate(-306.16 -592.204)" fill="#fff" stroke="#929497" stroke-linejoin="round" stroke-width="1"/>
          <g id="Group_703" data-name="Group 703" transform="translate(0 1.578)">
            <path id="Path_1549" data-name="Path 1549" d="M289.8,612.19l-3.91.8,3.3,10,3.913-.8a54.321,54.321,0,0,0,2.613,5.166l-2.3,3.991,5.828,8.051,2.3-3.987a33.966,33.966,0,0,0,3.614,3.428l-.07,6.114,6.79,3.948.07-6.114a14.338,14.338,0,0,0,3.643.791l2.177,6.588,5.933-1.214-2.179-6.595a11.086,11.086,0,0,0,2.7-2.079l3.844,5.311,3.486-6.051-3.84-5.305a25.224,25.224,0,0,0,1.022-4.39l4.481,2.6.105-9.265-4.481-2.605a47.964,47.964,0,0,0-.91-5.513l3.909-.8-3.3-10-3.913.8A54.248,54.248,0,0,0,322,599.9l2.3-3.991-5.828-8.051-2.3,3.987a34.1,34.1,0,0,0-3.614-3.428l.07-6.114-6.79-3.947-.07,6.113a14.308,14.308,0,0,0-3.643-.791l-2.177-6.588-5.933,1.214,2.179,6.6a11.072,11.072,0,0,0-2.7,2.079l-3.844-5.311-3.486,6.051,3.84,5.305a25.292,25.292,0,0,0-1.022,4.39l-4.481-2.6-.105,9.266,4.481,2.6A47.951,47.951,0,0,0,289.8,612.19Z" transform="translate(-283.524 -576.071)" fill="#fff"/>
            <path id="Path_1550" data-name="Path 1550" d="M314.477,643.864a14.961,14.961,0,0,1-2.124-.421l-.073,6.442-8.536-4.963.071-6.206a34.487,34.487,0,0,1-2.559-2.376l-2.385,4.139-6.956-9.611,2.332-4.048c-.756-1.342-1.465-2.737-2.115-4.162l-3.989.816L284.285,611.8l4.008-.82c-.295-1.429-.526-2.868-.689-4.294l-4.54-2.64.128-11.285,4.685,2.724a25.4,25.4,0,0,1,.706-2.839l-3.912-5.4,4.446-7.719,4.048,5.593a11.792,11.792,0,0,1,1.519-1.144l-2.267-6.86,7.665-1.569,2.243,6.787a14.853,14.853,0,0,1,2.124.42l.073-6.442,8.536,4.963-.071,6.206a34.674,34.674,0,0,1,2.559,2.376l2.386-4.139,6.956,9.612-2.332,4.047c.755,1.341,1.464,2.737,2.115,4.161l3.989-.816,3.858,11.678-4.008.82c.295,1.429.526,2.868.689,4.294l4.54,2.639-.128,11.285-4.685-2.724a25.57,25.57,0,0,1-.705,2.838l3.911,5.4-4.446,7.719-4.048-5.592a11.853,11.853,0,0,1-1.519,1.144l2.267,6.86-7.665,1.569ZM320,641.4l.644-.351a10.2,10.2,0,0,0,2.482-1.916l.729-.759,3.666,5.064,2.525-4.382-3.772-5.211.144-.428a24.46,24.46,0,0,0,.987-4.237l.187-1.285,4.3,2.5.082-7.246-4.423-2.571-.047-.443a47.282,47.282,0,0,0-.894-5.413l-.2-.873,3.819-.781-2.749-8.318-3.842.787-.286-.648a53.5,53.5,0,0,0-2.571-5.082l-.253-.439,2.269-3.936-4.7-6.492-2.219,3.851-.81-.886a33.3,33.3,0,0,0-3.52-3.339l-.328-.267.069-6.026-5.045-2.933-.066,5.83-1.155-.4a13.5,13.5,0,0,0-3.42-.745l-.584-.043-2.116-6.4-4.2.86,2.1,6.352-.644.351a10.217,10.217,0,0,0-2.482,1.915l-.729.76-3.666-5.065-2.525,4.382,3.772,5.211-.144.429a24.423,24.423,0,0,0-.987,4.236l-.187,1.287-4.3-2.5-.082,7.246,4.423,2.572.047.443a47.246,47.246,0,0,0,.894,5.413l.2.874-3.819.781,2.749,8.318,3.842-.785.286.648a53.652,53.652,0,0,0,2.571,5.082l.253.438L294,630.76l4.7,6.492,2.22-3.852.81.885a33.232,33.232,0,0,0,3.52,3.34l.328.268-.069,6.025,5.045,2.933.066-5.829,1.155.4a13.446,13.446,0,0,0,3.42.744l.584.044,2.116,6.4,4.2-.859Z" transform="translate(-283.064 -575.542)" fill="#49b5d8"/>
          </g>
          <path id="Path_1551" data-name="Path 1551" d="M318.847,574.307l-3.156,1.578,8.536,4.963,3.156-1.578Z" transform="translate(-294.231 -573.541)" fill="#fff" stroke="#929497" stroke-linejoin="round" stroke-width="1"/>
          <path id="Path_1552" data-name="Path 1552" d="M339.234,588.607l-3.156,1.578,6.956,9.611,3.156-1.578Z" transform="translate(-301.208 -578.436)" fill="#fff" stroke="#929497" stroke-linejoin="round" stroke-width="1"/>
          <path id="Path_1553" data-name="Path 1553" d="M355.543,614.459l-3.156,1.578,3.858,11.678,3.156-1.578Z" transform="translate(-306.79 -587.284)" fill="#fff" stroke="#929497" stroke-linejoin="round" stroke-width="1"/>
          <path id="Path_1554" data-name="Path 1554" d="M363.2,644l-3.156,1.578-.128,11.285,3.156-1.578Z" transform="translate(-309.367 -597.395)" fill="#fff" stroke="#929497" stroke-linejoin="round" stroke-width="1"/>
          <path id="Path_1555" data-name="Path 1555" d="M308.108,573.143l-3.156,1.578-7.666,1.569,3.156-1.578Z" transform="translate(-287.932 -573.143)" fill="#fff" stroke="#929497" stroke-linejoin="round" stroke-width="1"/>
          <path id="Path_1556" data-name="Path 1556" d="M358.787,666.776l-3.156,1.578-3.912-5.4,3-1.5.357.207Z" transform="translate(-306.562 -603.366)" fill="#fff" stroke="#929497" stroke-linejoin="round" stroke-width="1"/>
          <path id="Path_1557" data-name="Path 1557" d="M295.424,579.194l-3.156,1.578,4.048,5.593a15.415,15.415,0,0,1,1.519-1.144l-1.638-4.959Z" transform="translate(-286.214 -575.214)" fill="#fff" stroke="#929497" stroke-linejoin="round" stroke-width="1"/>
          <path id="Path_1558" data-name="Path 1558" d="M312.1,573.143l-3.156,1.578,2.243,6.787,2.118-1.059.062-3.473Z" transform="translate(-291.921 -573.143)" fill="#fff" stroke="#929497" stroke-linejoin="round" stroke-width="1"/>
          <path id="Path_1559" data-name="Path 1559" d="M331.787,581.852l-3.156,1.578-.071,6.206,3.156-1.578Z" transform="translate(-298.635 -576.124)" fill="#fff" stroke="#929497" stroke-linejoin="round" stroke-width="1"/>
          <path id="Path_1560" data-name="Path 1560" d="M348.6,603.219,345.44,604.8l-2.332,4.048,3.156-1.578Z" transform="translate(-303.614 -583.437)" fill="#fff" stroke="#929497" stroke-linejoin="round" stroke-width="1"/>
          <path id="Path_1561" data-name="Path 1561" d="M356.005,638.221l-3.156,1.578s-.408-3.186-.689-4.294l3.332-.681S355.795,636.575,356.005,638.221Z" transform="translate(-306.713 -594.253)" fill="#fff" stroke="#929497" stroke-linejoin="round" stroke-width="1"/>
          <path id="Path_1562" data-name="Path 1562" d="M350.906,678.845l3.156-1.578,4.447-7.718-3.156,1.578Z" transform="translate(-306.283 -606.138)" fill="#fff" stroke="#929497" stroke-linejoin="round" stroke-width="1"/>
          <path id="Path_1563" data-name="Path 1563" d="M347.864,681.753l-3.156,1.578-2.267-6.859,1.723-.862,3.071,4.242Z" transform="translate(-303.386 -608.213)" fill="#fff" stroke="#929497" stroke-linejoin="round" stroke-width="1"/>
          <path id="Path_1564" data-name="Path 1564" d="M349.478,615.275l-3.156,1.578,3.989-.816,3.156-1.578Z" transform="translate(-304.715 -587.284)" fill="#fff" stroke="#929497" stroke-linejoin="round" stroke-width="1"/>
          <path id="Path_1565" data-name="Path 1565" d="M286.415,599.32l-3.156,1.578,4.685,2.724a25.914,25.914,0,0,1,.706-2.839l-.206-.283Z" transform="translate(-283.131 -582.102)" fill="#fff" stroke="#929497" stroke-linejoin="round" stroke-width="1"/>
          <path id="Path_1566" data-name="Path 1566" d="M288.077,628.193l-3.156,1.578,4.008-.82-.176-.9Z" transform="translate(-283.699 -591.937)" fill="#fff" stroke="#929497" stroke-linejoin="round" stroke-width="1"/>
          <path id="Path_1567" data-name="Path 1567" d="M310.253,670.538l-3.156,1.578,2.385-4.14,1.441,1.4Z" transform="translate(-291.289 -605.6)" fill="#fff" stroke="#929497" stroke-linejoin="round" stroke-width="1"/>
          <path id="Path_1568" data-name="Path 1568" d="M330.639,683.639l-3.156,1.579.073-6.442a19.022,19.022,0,0,0,2.124.421l.976,2.954Z" transform="translate(-298.267 -609.297)" fill="#fff" stroke="#929497" stroke-linejoin="round" stroke-width="1"/>
          <path id="Path_1569" data-name="Path 1569" d="M343.96,675.181a12.6,12.6,0,0,1-1.519,1.144l1.723-.862Z" transform="translate(-303.386 -608.066)" fill="#fff" stroke="#929497" stroke-linejoin="round" stroke-width="1"/>
          <path id="Path_1570" data-name="Path 1570" d="M352.425,659.416s-.238,1.2-.705,2.838l3-1.5Z" transform="translate(-306.562 -602.671)" fill="#fff" stroke="#929497" stroke-linejoin="round" stroke-width="1"/>
          <path id="Path_1571" data-name="Path 1571" d="M360.9,642.628l-4.54-2.639-3.156,1.578,4.54,2.639Z" transform="translate(-307.071 -596.021)" fill="#fff" stroke="#929497" stroke-linejoin="round" stroke-width="1"/>
          <path id="Path_1572" data-name="Path 1572" d="M346.264,609.373l-3.157,1.578s1.669,3.116,2.115,4.161l3.156-1.578S347.13,610.872,346.264,609.373Z" transform="translate(-303.614 -585.543)" fill="#fff" stroke="#929497" stroke-linejoin="round" stroke-width="1"/>
        </g>
        <g id="Group_705" data-name="Group 705" transform="translate(6.009 20.756)">
          <path id="Path_1573" data-name="Path 1573" d="M313.887,648.7l12.134-7.138-.667-1.134-10.981,6.461-20.408-36,3.319-2.079-.7-1.115-4.385,2.747Z" transform="translate(-292.199 -605.726)" fill="#49b5d8"/>
          <path id="Path_1574" data-name="Path 1574" d="M344.58,654.463l-1.974,1.974.667,1.134,1.974-1.974Z" transform="translate(-309.451 -621.731)" fill="#fff" stroke="#929497" stroke-linejoin="round" stroke-width="0.5"/>
          <path id="Path_1575" data-name="Path 1575" d="M327.885,660.924,325.91,662.9l10.981-6.461,1.974-1.974Z" transform="translate(-303.737 -621.731)" fill="#fff" stroke="#929497" stroke-linejoin="round" stroke-width="0.5"/>
          <path id="Path_1576" data-name="Path 1576" d="M301.539,605.814l-1.974,1.974-.7-1.115,1.974-1.974Z" transform="translate(-294.481 -604.699)" fill="#fff" stroke="#929497" stroke-linejoin="round" stroke-width="0.5"/>
          <path id="Path_1577" data-name="Path 1577" d="M294.174,607.445,292.2,609.42l4.385-2.747,1.974-1.974Z" transform="translate(-292.199 -604.699)" fill="#fff" stroke="#929497" stroke-linejoin="round" stroke-width="0.5"/>
          <path id="Path_1578" data-name="Path 1578" d="M317.265,645.837l-1.974,1.974-20.408-36,2.283-1.43Z" transform="translate(-293.118 -606.644)" fill="#fff" stroke="#929497" stroke-linejoin="round" stroke-width="0.5"/>
        </g>
        <g id="Group_706" data-name="Group 706" transform="translate(11.49 21.33)">
          <path id="Path_1579" data-name="Path 1579" d="M329.29,641l1.128-.678-5.785-9.621-7.6,4.437L301.67,608.575l-1.138.659,16.022,27.7,7.621-4.448Z" transform="translate(-300.532 -606.6)" fill="#2d6c8e"/>
          <path id="Path_1580" data-name="Path 1580" d="M339.149,639.211l-1.974,1.974,5.785,9.621,1.974-1.974Z" transform="translate(-313.073 -617.086)" fill="#fff" stroke="#929497" stroke-linejoin="round" stroke-width="0.5"/>
          <path id="Path_1581" data-name="Path 1581" d="M327.593,643.647l-1.974,1.974,7.6-4.437,1.974-1.974Z" transform="translate(-309.118 -617.086)" fill="#fff" stroke="#929497" stroke-linejoin="round" stroke-width="0.5"/>
          <path id="Path_1582" data-name="Path 1582" d="M304.237,605.573l-1.974,1.974,15.362,26.562,1.974-1.974Z" transform="translate(-301.124 -605.573)" fill="#fff" stroke="#929497" stroke-linejoin="round" stroke-width="0.5"/>
          <path id="Path_1583" data-name="Path 1583" d="M302.507,606.232l-1.974,1.974,1.138-.659,1.974-1.974Z" transform="translate(-300.532 -605.573)" fill="#fff" stroke="#929497" stroke-linejoin="round" stroke-width="0.5"/>
        </g>
      </g>
      <g id="Group_709" data-name="Group 709" transform="translate(75.267 7.285)">
        <path id="Path_1584" data-name="Path 1584" d="M431.09,586.031l-10.53,5.923v56l10.53-5.923Z" transform="translate(-405.39 -576.97)" fill="#fff" stroke="#929497" stroke-linejoin="round" stroke-width="1"/>
        <path id="Path_1585" data-name="Path 1585" d="M408.026,572.255l-10.53,5.923,15.17,9.061,10.53-5.923Z" transform="translate(-397.496 -572.255)" fill="#fff" stroke="#929497" stroke-linejoin="round" stroke-width="1"/>
        <g id="Group_708" data-name="Group 708" transform="translate(0 5.923)">
          <path id="Path_1586" data-name="Path 1586" d="M398.5,583.022,412.35,591.3v55.24L398.5,638.262Z" transform="translate(-397.838 -581.864)" fill="#fff"/>
          <path id="Path_1587" data-name="Path 1587" d="M407.559,598.669l1.973,1.179V595.9l-1.973-1.179Z" transform="translate(-400.94 -585.868)" fill="#49b5d8"/>
          <path id="Path_1588" data-name="Path 1588" d="M407.559,611.5l1.973,1.179v-3.946l-1.973-1.179Z" transform="translate(-400.94 -590.26)" fill="#49b5d8"/>
          <path id="Path_1589" data-name="Path 1589" d="M412.666,590.322v56l-1.315-.786V591.068l-12.539-7.49V638.05l-1.315-.786v-56Z" transform="translate(-397.496 -581.261)" fill="#2d6c8e"/>
        </g>
      </g>
      <g id="Group_711" data-name="Group 711" transform="translate(62.618 37.829)">
        <path id="Path_1590" data-name="Path 1590" d="M402.916,628.7l-7.9,4.607v31.7l7.9-4.607Z" transform="translate(-383.999 -622.119)" fill="#fff" stroke="#929497" stroke-linejoin="round" stroke-width="1"/>
        <path id="Path_1591" data-name="Path 1591" d="M386.162,618.693l-7.9,4.607,11.02,6.583,7.9-4.607Z" transform="translate(-378.265 -618.693)" fill="#fff" stroke="#929497" stroke-linejoin="round" stroke-width="1"/>
        <g id="Group_710" data-name="Group 710" transform="translate(0 4.607)">
          <path id="Path_1592" data-name="Path 1592" d="M379.264,627.459l9.7,5.8v31.021l-9.7-5.8Z" transform="translate(-378.607 -626.301)" fill="#fff"/>
          <path id="Path_1593" data-name="Path 1593" d="M379.093,639.822l5.751,3.435v1.54l-5.751-3.435Z" transform="translate(-378.548 -630.532)" fill="#49b5d8"/>
          <path id="Path_1594" data-name="Path 1594" d="M389.284,632.28v31.7l-1.315-.786V633.027l-8.389-5.011v30.167l-1.315-.786V625.7Z" transform="translate(-378.265 -625.698)" fill="#2d6c8e"/>
        </g>
      </g>
      <g id="Group_713" data-name="Group 713" transform="translate(46.079 51.149)">
        <g id="Group_712" data-name="Group 712" transform="translate(0 3.949)">
          <path id="Path_1595" data-name="Path 1595" d="M353.12,673.447v-28.5l17.947,10.721v28.5Z" transform="translate(-353.12 -644.948)" fill="#fff"/>
          <path id="Path_1596" data-name="Path 1596" d="M358.517,655.8l10.848,6.48v1.54l-10.848-6.48Z" transform="translate(-354.967 -648.662)" fill="#49b5d8"/>
          <path id="Path_1597" data-name="Path 1597" d="M358.517,663.8l10.848,6.48v1.54l-10.848-6.48Z" transform="translate(-354.967 -651.401)" fill="#49b5d8"/>
          <path id="Path_1598" data-name="Path 1598" d="M358.517,671.8l10.848,6.48v1.54l-10.848-6.48Z" transform="translate(-354.967 -654.139)" fill="#49b5d8"/>
          <path id="Path_1599" data-name="Path 1599" d="M358.517,679.8l10.848,6.48v1.54l-10.848-6.48Z" transform="translate(-354.967 -656.877)" fill="#49b5d8"/>
          <path id="Path_1600" data-name="Path 1600" d="M371.067,655.668v28.5l-1.315-.786V656.415l-15.316-9.149v26.968l-1.315-.786v-28.5Z" transform="translate(-353.12 -644.948)" fill="#2d6c8e"/>
        </g>
        <path id="Path_1601" data-name="Path 1601" d="M386.988,683.742l-6.582,3.949v-28.5l6.582-3.949Z" transform="translate(-362.459 -644.522)" fill="#fff" stroke="#929497" stroke-linejoin="round" stroke-width="1"/>
        <path id="Path_1602" data-name="Path 1602" d="M359.7,638.944l-6.582,3.949,17.947,10.72,6.582-3.949Z" transform="translate(-353.12 -638.944)" fill="#fff" stroke="#929497" stroke-linejoin="round" stroke-width="1"/>
      </g>
    </g>
  </g>
</svg>
