<svg xmlns="http://www.w3.org/2000/svg" width="51.722" height="104.244" viewBox="0 0 51.722 104.244">
  <g id="ready-factory700-icon" transform="translate(-334.807 -291.304)">
    <path id="Path_1009" data-name="Path 1009" d="M335.807,361.069V292.3l41.967,24.533V385.6Z" transform="translate(0 0)" fill="#fff" stroke="#2d6c8e" stroke-linejoin="round" stroke-width="2"/>
    <line id="Line_10" data-name="Line 10" x1="14.95" y1="8.739" transform="translate(358.63 315.607)" fill="none" stroke="#49b5d8" stroke-linecap="round" stroke-miterlimit="10" stroke-width="3"/>
    <line id="Line_11" data-name="Line 11" x1="33.58" y1="19.63" transform="translate(340 312.754)" fill="none" stroke="#2d6c8e" stroke-linecap="round" stroke-miterlimit="10" stroke-width="3"/>
    <path id="Path_1010" data-name="Path 1010" d="M368.264,365.714l-5.5,1.125-11.712,6.667,5.5-1.125Z" transform="translate(-6.379 -30.713)" fill="#fff" stroke="#929497" stroke-linejoin="round" stroke-width="1"/>
    <g id="Group_575" data-name="Group 575" transform="translate(337.964 335.001)">
      <path id="Path_1011" data-name="Path 1011" d="M363.956,388.194l-3.214-1.868.076-6.647,3.214,1.868a18.089,18.089,0,0,1,.733-3.149l-2.755-3.806,2.5-4.341,2.757,3.81a7.955,7.955,0,0,1,1.934-1.491l-1.563-4.731,4.256-.871,1.562,4.726a10.29,10.29,0,0,1,2.614.568l.05-4.385,4.87,2.832-.049,4.385a24.434,24.434,0,0,1,2.592,2.459l1.648-2.86,4.18,5.776-1.649,2.863a38.919,38.919,0,0,1,1.875,3.706l2.807-.575,2.37,7.173-2.8.573a34.5,34.5,0,0,1,.653,3.955l3.213,1.869-.075,6.647-3.214-1.869a18.119,18.119,0,0,1-.733,3.149l2.754,3.806-2.5,4.34L389.3,412.3a7.945,7.945,0,0,1-1.934,1.491l1.563,4.731-4.256.871-1.562-4.726a10.265,10.265,0,0,1-2.613-.568l-.05,4.386-4.871-2.832.05-4.386a24.436,24.436,0,0,1-2.592-2.459l-1.648,2.86-4.181-5.775,1.65-2.863a39.06,39.06,0,0,1-1.874-3.706l-2.808.575-2.37-7.172,2.8-.574A34.485,34.485,0,0,1,363.956,388.194Z" transform="translate(-348.396 -366.239)" fill="#fff" stroke="#929497" stroke-linejoin="round" stroke-width="1"/>
      <path id="Path_1012" data-name="Path 1012" d="M362.909,388.054l-3.257-1.893.092-8.1,3.361,1.954a18.332,18.332,0,0,1,.505-2.036l-2.806-3.877,3.19-5.537,2.9,4.011a8.544,8.544,0,0,1,1.089-.82l-1.626-4.921,5.5-1.125,1.609,4.869a10.654,10.654,0,0,1,1.523.3l.052-4.622,6.123,3.56-.051,4.452a24.76,24.76,0,0,1,1.836,1.705l1.711-2.97,4.99,6.894-1.673,2.9c.541.962,1.05,1.963,1.517,2.985l2.862-.586,2.768,8.378-2.875.588c.211,1.025.377,2.058.494,3.08l3.256,1.893-.092,8.1-3.361-1.954a18.311,18.311,0,0,1-.506,2.036l2.806,3.877-3.19,5.536-2.9-4.011a8.486,8.486,0,0,1-1.09.821l1.626,4.921-5.5,1.125-1.609-4.869a10.7,10.7,0,0,1-1.523-.3l-.053,4.621-6.123-3.56.051-4.452a24.883,24.883,0,0,1-1.836-1.705l-1.711,2.97L366,405.4l1.673-2.9c-.542-.962-1.051-1.964-1.517-2.985l-2.862.586-2.768-8.378,2.875-.588C363.192,390.109,363.026,389.077,362.909,388.054Z" transform="translate(-347.94 -365.714)" fill="#fff" stroke="#929497" stroke-linejoin="round" stroke-width="1"/>
      <path id="Path_1013" data-name="Path 1013" d="M372.22,365.714l-11.712,6.667,1.609,4.869,11.712-6.667Z" transform="translate(-348.299 -365.714)" fill="#fff" stroke="#929497" stroke-linejoin="round" stroke-width="1"/>
      <path id="Path_1014" data-name="Path 1014" d="M363.274,380.752s.985.147,1.524.3l11.712-6.667a11.107,11.107,0,0,0-1.523-.3Z" transform="translate(-349.456 -369.216)" fill="#fff" stroke="#929497" stroke-linejoin="round" stroke-width="1"/>
      <path id="Path_1015" data-name="Path 1015" d="M372.107,376.885l11.712-6.667-6.123-3.56-11.712,6.667Z" transform="translate(-350.59 -366.109)" fill="#fff" stroke="#929497" stroke-linejoin="round" stroke-width="1"/>
      <path id="Path_1016" data-name="Path 1016" d="M388.187,372.779l-11.712,6.667-.051,4.452,11.712-6.667Z" transform="translate(-354.958 -368.67)" fill="#fff" stroke="#929497" stroke-linejoin="round" stroke-width="1"/>
      <path id="Path_1017" data-name="Path 1017" d="M388.136,380.433,376.424,387.1s1.213,1.057,1.836,1.7l11.712-6.667S388.76,380.937,388.136,380.433Z" transform="translate(-354.957 -371.872)" fill="#fff" stroke="#929497" stroke-linejoin="round" stroke-width="1"/>
      <path id="Path_1018" data-name="Path 1018" d="M394.234,378.259l-11.712,6.667,4.99,6.895,11.712-6.667Z" transform="translate(-357.509 -370.963)" fill="#fff" stroke="#929497" stroke-linejoin="round" stroke-width="1"/>
      <g id="Group_573" data-name="Group 573" transform="translate(0 6.667)">
        <path id="Path_1019" data-name="Path 1019" d="M340.606,397.788l.076-6.647,3.214,1.869a18.061,18.061,0,0,1,.733-3.149l-2.755-3.806,2.5-4.34,2.757,3.81a7.942,7.942,0,0,1,1.934-1.491L347.5,379.3l4.256-.871,1.562,4.726a10.246,10.246,0,0,1,2.614.568l.049-4.386,4.871,2.832-.05,4.386a24.323,24.323,0,0,1,2.592,2.459l1.648-2.86,4.181,5.776-1.65,2.863a38.685,38.685,0,0,1,1.875,3.706l2.807-.575,2.37,7.172-2.8.574a34.562,34.562,0,0,1,.653,3.955l3.213,1.868-.076,6.647-3.213-1.868a18.193,18.193,0,0,1-.733,3.149l2.755,3.806-2.5,4.341-2.757-3.81a7.944,7.944,0,0,1-1.934,1.492l1.563,4.73-4.256.871-1.562-4.726a10.26,10.26,0,0,1-2.613-.567l-.05,4.385-4.871-2.832.05-4.385a24.554,24.554,0,0,1-2.592-2.459l-1.648,2.86-4.181-5.776,1.65-2.863a38.877,38.877,0,0,1-1.875-3.705l-2.807.574-2.37-7.172,2.8-.574a34.453,34.453,0,0,1-.653-3.954Z" transform="translate(-339.972 -377.702)" fill="#fff"/>
        <ellipse id="Ellipse_10" data-name="Ellipse 10" cx="8.096" cy="14.27" rx="8.096" ry="14.27" transform="matrix(0.93, -0.367, 0.367, 0.93, 5.37, 16.611)" fill="#fff" stroke="#49b5d8" stroke-miterlimit="10" stroke-width="2.167"/>
        <path id="Path_1020" data-name="Path 1020" d="M362.05,426.189a10.73,10.73,0,0,1-1.523-.3l-.053,4.622-6.123-3.56.051-4.452a24.713,24.713,0,0,1-1.836-1.7l-1.711,2.97-4.99-6.895,1.673-2.9c-.542-.963-1.051-1.964-1.517-2.985l-2.862.586-2.768-8.377,2.875-.588c-.212-1.025-.377-2.058-.494-3.08l-3.257-1.894.092-8.1,3.361,1.954a18.182,18.182,0,0,1,.505-2.036l-2.806-3.877,3.19-5.537,2.9,4.011a8.491,8.491,0,0,1,1.089-.82l-1.626-4.922,5.5-1.125,1.609,4.869a10.708,10.708,0,0,1,1.524.3l.052-4.621,6.123,3.56-.051,4.452a24.894,24.894,0,0,1,1.836,1.7l1.712-2.969,4.99,6.895-1.673,2.9c.542.962,1.05,1.964,1.517,2.986l2.862-.586,2.768,8.378-2.875.588c.211,1.025.377,2.057.494,3.08l3.257,1.893-.092,8.095-3.361-1.954a18.359,18.359,0,0,1-.506,2.036l2.806,3.876-3.19,5.537-2.9-4.011a8.542,8.542,0,0,1-1.09.821l1.626,4.921-5.5,1.126Zm3.96-1.765.462-.252a7.342,7.342,0,0,0,1.78-1.374l.522-.545,2.63,3.633,1.812-3.144L370.511,419l.1-.307a17.506,17.506,0,0,0,.707-3.04l.135-.922,3.085,1.794.059-5.2-3.173-1.845-.033-.318a34.037,34.037,0,0,0-.641-3.882l-.141-.627,2.739-.561-1.972-5.967-2.756.564-.205-.465a38.536,38.536,0,0,0-1.844-3.646l-.181-.315,1.628-2.824-3.371-4.657-1.592,2.763-.582-.636a23.8,23.8,0,0,0-2.525-2.4l-.236-.192.049-4.323-3.619-2.1-.047,4.182-.829-.29a9.678,9.678,0,0,0-2.453-.534l-.419-.031-1.518-4.593-3.013.616,1.506,4.557-.462.252a7.314,7.314,0,0,0-1.78,1.374l-.523.545-2.629-3.633-1.811,3.144,2.706,3.738-.1.308a17.451,17.451,0,0,0-.707,3.039l-.134.922-3.086-1.794-.059,5.2,3.173,1.844.034.318a33.888,33.888,0,0,0,.641,3.883l.141.627-2.74.56L344,410.1l2.756-.564.205.465a38.468,38.468,0,0,0,1.844,3.646l.181.314-1.627,2.824,3.371,4.656,1.592-2.763.581.635a23.852,23.852,0,0,0,2.525,2.4l.236.192-.049,4.322,3.619,2.1.047-4.182.828.29a9.666,9.666,0,0,0,2.453.533l.419.032L364.5,429.6l3.013-.617Z" transform="translate(-339.516 -377.177)" fill="#2d6c8e"/>
      </g>
      <path id="Path_1021" data-name="Path 1021" d="M407.465,399.231,395.754,405.9l2.768,8.377,11.712-6.667Z" transform="translate(-363.045 -379.737)" fill="#fff" stroke="#929497" stroke-linejoin="round" stroke-width="1"/>
      <path id="Path_1022" data-name="Path 1022" d="M401.61,390.113,389.9,396.78l-1.673,2.9,11.712-6.667Z" transform="translate(-359.895 -375.922)" fill="#fff" stroke="#929497" stroke-linejoin="round" stroke-width="1"/>
      <path id="Path_1023" data-name="Path 1023" d="M399.937,395.106l-11.712,6.667s1.12,2.086,1.517,2.986l11.712-6.667S400.229,395.513,399.937,395.106Z" transform="translate(-359.895 -378.011)" fill="#fff" stroke="#929497" stroke-linejoin="round" stroke-width="1"/>
      <path id="Path_1024" data-name="Path 1024" d="M402.545,399.817l-11.712,6.667,2.862-.586,11.712-6.667Z" transform="translate(-360.986 -379.737)" fill="#fff" stroke="#929497" stroke-linejoin="round" stroke-width="1"/>
      <path id="Path_1025" data-name="Path 1025" d="M413.664,423.2l-11.712,6.667-.092,8.1,11.712-6.667Z" transform="translate(-365.6 -389.764)" fill="#fff" stroke="#929497" stroke-linejoin="round" stroke-width="1"/>
      <path id="Path_1026" data-name="Path 1026" d="M407.776,418.406l-11.712,6.667s-.29-2.094-.494-3.08l2.875-.588,9.018-5.134S407.67,417.434,407.776,418.406Z" transform="translate(-362.968 -386.866)" fill="#fff" stroke="#929497" stroke-linejoin="round" stroke-width="1"/>
      <path id="Path_1027" data-name="Path 1027" d="M408.131,419.942l-11.712,6.667,3.257,1.893,11.712-6.667Z" transform="translate(-363.323 -388.402)" fill="#fff" stroke="#929497" stroke-linejoin="round" stroke-width="1"/>
      <path id="Path_1028" data-name="Path 1028" d="M409.73,442.213l-11.712,6.667L395.212,445l2.027-1.154,1.84,1.071,8.931-5.084Z" transform="translate(-362.818 -396.725)" fill="#fff" stroke="#929497" stroke-linejoin="round" stroke-width="1"/>
      <path id="Path_1029" data-name="Path 1029" d="M397.238,446.1l-1.52-.882a20.151,20.151,0,0,1-.506,2.036Z" transform="translate(-362.818 -398.977)" fill="#fff" stroke="#929497" stroke-linejoin="round" stroke-width="1"/>
      <path id="Path_1030" data-name="Path 1030" d="M409.453,443.923l-11.712,6.667-3.19,5.537,11.712-6.667Z" transform="translate(-362.542 -398.435)" fill="#fff" stroke="#929497" stroke-linejoin="round" stroke-width="1"/>
      <path id="Path_1031" data-name="Path 1031" d="M401.023,456.185l-11.712,6.667-1.626-4.921,1.193-.679,2.8,3.87,9.238-5.259Z" transform="translate(-359.669 -403.431)" fill="#fff" stroke="#929497" stroke-linejoin="round" stroke-width="1"/>
      <path id="Path_1032" data-name="Path 1032" d="M388.775,458.008a10.422,10.422,0,0,1-1.09.821l1.193-.679Z" transform="translate(-359.669 -404.328)" fill="#fff" stroke="#929497" stroke-linejoin="round" stroke-width="1"/>
      <path id="Path_1033" data-name="Path 1033" d="M346.983,381.073l2.473-1.408,1.52,4.6a12.252,12.252,0,0,0-1.089.82Z" transform="translate(-342.64 -371.551)" fill="#fff" stroke="#929497" stroke-linejoin="round" stroke-width="1"/>
      <path id="Path_1034" data-name="Path 1034" d="M339.674,397.275l2.779-1.582,1.088,1.5s-.29.947-.505,2.036Z" transform="translate(-339.582 -378.257)" fill="#fff" stroke="#929497" stroke-linejoin="round" stroke-width="1"/>
      <path id="Path_1035" data-name="Path 1035" d="M341.022,420.791l2.694-1.534.181.946Z" transform="translate(-340.146 -388.115)" fill="#fff" stroke="#929497" stroke-linejoin="round" stroke-width="1"/>
      <path id="Path_1036" data-name="Path 1036" d="M375.55,465.546l2.527-1.438-.951-2.881a14.187,14.187,0,0,1-1.523-.3Z" transform="translate(-354.592 -405.548)" fill="#fff" stroke="#929497" stroke-linejoin="round" stroke-width="1"/>
      <path id="Path_1037" data-name="Path 1037" d="M359.012,455.133l3.02-1.719-1.309-1.251Z" transform="translate(-347.673 -401.883)" fill="#fff" stroke="#929497" stroke-linejoin="round" stroke-width="1"/>
      <g id="Group_574" data-name="Group 574" transform="translate(12.062 22.363)">
        <path id="Path_1038" data-name="Path 1038" d="M362.566,408.206l-2.072-1.733.08-2.31,3.174,2.655-.069,2.014-2.329,8.489-1.1-.916Z" transform="translate(-360.254 -404.164)" fill="#2d6c8e"/>
        <path id="Path_1039" data-name="Path 1039" d="M366.449,416.169v-.035c.122-3.525,1.012-5.622,2.183-4.643s1.858,4.359,1.736,7.884l0,.034c-.122,3.526-1,5.629-2.182,4.644S366.327,419.694,366.449,416.169Zm2.923,2.444v-.034c.076-2.206-.256-4.2-.836-4.684s-1.013.814-1.09,3.038l0,.034c-.076,2.223.251,4.194.836,4.684S369.3,420.818,369.372,418.613Z" transform="translate(-362.84 -407.129)" fill="#2d6c8e"/>
        <path id="Path_1040" data-name="Path 1040" d="M374.038,422.515v-.035c.122-3.525,1.012-5.623,2.183-4.644s1.858,4.359,1.736,7.884l0,.036c-.122,3.525-1,5.628-2.182,4.643S373.916,426.04,374.038,422.515Zm2.923,2.443v-.035c.076-2.206-.257-4.2-.836-4.683s-1.013.814-1.09,3.037l0,.035c-.077,2.222.25,4.194.836,4.684S376.884,427.164,376.961,424.959Z" transform="translate(-366.015 -409.784)" fill="#2d6c8e"/>
      </g>
    </g>
  </g>
</svg>
