<svg xmlns="http://www.w3.org/2000/svg" width="51.721" height="104.243" viewBox="0 0 51.721 104.243">
  <g id="ready-factory1500-icon" transform="translate(-565.993 -291.304)">
    <path id="Path_976" data-name="Path 976" d="M566.993,361.069V292.3l41.966,24.533V385.6Z" transform="translate(0)" fill="#fff" stroke="#2d6c8e" stroke-linejoin="round" stroke-width="2"/>
    <g id="Group_567" data-name="Group 567" transform="translate(571.186 313.918)">
      <line id="Line_8" data-name="Line 8" x1="14.95" y1="8.739" transform="translate(18.63 2.853)" fill="none" stroke="#49b5d8" stroke-linecap="round" stroke-miterlimit="10" stroke-width="3"/>
      <line id="Line_9" data-name="Line 9" x1="33.579" y1="19.63" transform="translate(0 0)" fill="none" stroke="#2d6c8e" stroke-linecap="round" stroke-miterlimit="10" stroke-width="3"/>
    </g>
    <g id="Group_570" data-name="Group 570" transform="translate(569.15 335)">
      <path id="Path_977" data-name="Path 977" d="M595.142,388.194l-3.214-1.868.076-6.647,3.214,1.868a18.092,18.092,0,0,1,.733-3.149l-2.755-3.805,2.5-4.341,2.758,3.81a7.942,7.942,0,0,1,1.933-1.491l-1.563-4.731,4.256-.871,1.562,4.726a10.292,10.292,0,0,1,2.614.568l.05-4.385,4.87,2.832-.049,4.385a24.48,24.48,0,0,1,2.592,2.459l1.648-2.86,4.18,5.775-1.649,2.863a38.926,38.926,0,0,1,1.875,3.705l2.807-.575,2.37,7.173-2.8.573a34.49,34.49,0,0,1,.653,3.955l3.214,1.869-.075,6.647-3.214-1.869a18.088,18.088,0,0,1-.733,3.149l2.755,3.806-2.5,4.34-2.758-3.81a7.93,7.93,0,0,1-1.934,1.491l1.563,4.731-4.256.871-1.562-4.726a10.27,10.27,0,0,1-2.614-.568l-.05,4.386-4.871-2.832.049-4.386a24.439,24.439,0,0,1-2.592-2.459l-1.648,2.86-4.181-5.775,1.65-2.863a38.927,38.927,0,0,1-1.875-3.706l-2.807.575-2.37-7.172,2.8-.574A34.632,34.632,0,0,1,595.142,388.194Z" transform="translate(-579.583 -366.239)" fill="#fff" stroke="#929497" stroke-linejoin="round" stroke-width="1"/>
      <path id="Path_978" data-name="Path 978" d="M594.094,388.054l-3.257-1.893.092-8.1,3.361,1.954a18.175,18.175,0,0,1,.506-2.036l-2.806-3.877,3.19-5.537,2.9,4.011a8.551,8.551,0,0,1,1.089-.82l-1.626-4.921,5.5-1.125,1.609,4.869a10.646,10.646,0,0,1,1.523.3l.052-4.622,6.123,3.56-.051,4.452a24.906,24.906,0,0,1,1.836,1.705l1.711-2.97,4.99,6.894-1.673,2.9c.542.962,1.05,1.963,1.517,2.985l2.861-.586,2.768,8.378-2.875.588c.211,1.025.377,2.058.494,3.08l3.257,1.893-.092,8.095-3.361-1.954a18.188,18.188,0,0,1-.506,2.036l2.806,3.877-3.19,5.536-2.9-4.011a8.442,8.442,0,0,1-1.09.821l1.626,4.921-5.5,1.125-1.609-4.869a10.713,10.713,0,0,1-1.523-.3l-.052,4.621-6.123-3.559.051-4.452a24.875,24.875,0,0,1-1.836-1.705l-1.711,2.97-4.991-6.894,1.673-2.9c-.542-.962-1.05-1.963-1.517-2.985l-2.862.586-2.768-8.378,2.875-.588C594.378,390.109,594.212,389.077,594.094,388.054Z" transform="translate(-579.127 -365.714)" fill="#fff" stroke="#929497" stroke-linejoin="round" stroke-width="1"/>
      <path id="Path_979" data-name="Path 979" d="M603.406,365.714l-11.711,6.667,1.609,4.869,11.711-6.667Z" transform="translate(-579.485 -365.714)" fill="#fff" stroke="#929497" stroke-linejoin="round" stroke-width="1"/>
      <path id="Path_980" data-name="Path 980" d="M594.461,380.752s.984.147,1.523.3l11.711-6.666a11.1,11.1,0,0,0-1.523-.3Z" transform="translate(-580.642 -369.216)" fill="#fff" stroke="#929497" stroke-linejoin="round" stroke-width="1"/>
      <path id="Path_981" data-name="Path 981" d="M603.293,376.885,615,370.218l-6.123-3.56-11.712,6.667Z" transform="translate(-581.776 -366.109)" fill="#fff" stroke="#929497" stroke-linejoin="round" stroke-width="1"/>
      <path id="Path_982" data-name="Path 982" d="M619.373,372.779l-11.711,6.667-.051,4.452,11.711-6.667Z" transform="translate(-586.144 -368.67)" fill="#fff" stroke="#929497" stroke-linejoin="round" stroke-width="1"/>
      <path id="Path_983" data-name="Path 983" d="M619.322,380.433,607.61,387.1s1.213,1.057,1.836,1.7l11.712-6.666S619.946,380.937,619.322,380.433Z" transform="translate(-586.144 -371.872)" fill="#fff" stroke="#929497" stroke-linejoin="round" stroke-width="1"/>
      <path id="Path_984" data-name="Path 984" d="M625.42,378.259l-11.712,6.667,4.99,6.895,11.712-6.667Z" transform="translate(-588.695 -370.963)" fill="#fff" stroke="#929497" stroke-linejoin="round" stroke-width="1"/>
      <g id="Group_568" data-name="Group 568" transform="translate(0 6.667)">
        <path id="Path_985" data-name="Path 985" d="M571.792,397.788l.076-6.647,3.214,1.869a18.065,18.065,0,0,1,.733-3.149l-2.754-3.806,2.5-4.34,2.757,3.81a7.938,7.938,0,0,1,1.934-1.491l-1.563-4.731,4.256-.871,1.562,4.726a10.248,10.248,0,0,1,2.614.568l.05-4.386,4.871,2.832-.05,4.386a24.321,24.321,0,0,1,2.592,2.459l1.648-2.86,4.18,5.776-1.649,2.863a38.7,38.7,0,0,1,1.875,3.706l2.807-.575,2.37,7.172-2.8.574a34.566,34.566,0,0,1,.653,3.955l3.213,1.868-.076,6.647-3.213-1.868a18.179,18.179,0,0,1-.734,3.149l2.755,3.805-2.5,4.341-2.757-3.81a7.947,7.947,0,0,1-1.934,1.492l1.563,4.73-4.256.871-1.562-4.726a10.261,10.261,0,0,1-2.613-.567l-.05,4.385-4.871-2.832.05-4.385a24.558,24.558,0,0,1-2.592-2.459l-1.648,2.86-4.181-5.776,1.649-2.863a38.877,38.877,0,0,1-1.875-3.705l-2.807.574-2.37-7.172,2.8-.574a34.471,34.471,0,0,1-.653-3.954Z" transform="translate(-571.158 -377.702)" fill="#fff"/>
        <ellipse id="Ellipse_9" data-name="Ellipse 9" cx="8.096" cy="14.269" rx="8.096" ry="14.269" transform="matrix(0.93, -0.367, 0.367, 0.93, 5.37, 16.611)" fill="#fff" stroke="#49b5d8" stroke-miterlimit="10" stroke-width="2.167"/>
        <path id="Path_986" data-name="Path 986" d="M593.236,426.188a10.722,10.722,0,0,1-1.523-.3l-.053,4.622-6.123-3.56.051-4.452a24.748,24.748,0,0,1-1.836-1.7l-1.711,2.97-4.99-6.895,1.673-2.9c-.542-.963-1.051-1.964-1.517-2.985l-2.862.586-2.768-8.377,2.875-.588c-.212-1.025-.377-2.058-.494-3.08l-3.256-1.894.092-8.095,3.361,1.954a18.213,18.213,0,0,1,.505-2.036l-2.806-3.877,3.19-5.537,2.9,4.011a8.5,8.5,0,0,1,1.089-.82l-1.626-4.922,5.5-1.125,1.609,4.869a10.736,10.736,0,0,1,1.523.3l.052-4.621,6.123,3.56-.051,4.452a24.876,24.876,0,0,1,1.836,1.7l1.712-2.969,4.99,6.894-1.673,2.9c.542.962,1.05,1.964,1.516,2.985l2.862-.586,2.768,8.378-2.875.588c.211,1.025.377,2.057.494,3.08l3.256,1.893-.092,8.095-3.361-1.954a18.36,18.36,0,0,1-.506,2.036l2.806,3.877-3.19,5.537-2.9-4.011a8.535,8.535,0,0,1-1.09.821l1.626,4.921-5.5,1.126Zm3.96-1.765.462-.252a7.338,7.338,0,0,0,1.78-1.374l.522-.545,2.63,3.633,1.812-3.144L601.7,419l.1-.307a17.491,17.491,0,0,0,.707-3.039l.135-.922,3.085,1.794.059-5.2-3.173-1.845-.033-.318a34.032,34.032,0,0,0-.641-3.882l-.141-.627,2.739-.561-1.972-5.967-2.756.564-.2-.465a38.539,38.539,0,0,0-1.845-3.646l-.181-.315,1.628-2.824-3.371-4.657-1.592,2.763-.582-.636a23.783,23.783,0,0,0-2.525-2.4l-.235-.192.049-4.323-3.619-2.1-.047,4.182-.829-.29a9.669,9.669,0,0,0-2.453-.534l-.419-.031-1.518-4.593-3.013.616,1.506,4.557-.462.252a7.312,7.312,0,0,0-1.78,1.374l-.523.545-2.629-3.633-1.811,3.144,2.706,3.738-.1.308a17.5,17.5,0,0,0-.707,3.039l-.134.922-3.085-1.794-.059,5.2,3.173,1.844.034.318a33.884,33.884,0,0,0,.641,3.883l.141.627-2.739.56,1.972,5.967,2.756-.564.205.465A38.6,38.6,0,0,0,580,413.65l.182.314-1.627,2.824,3.371,4.656,1.592-2.763.581.635a23.919,23.919,0,0,0,2.525,2.4l.236.192-.049,4.322,3.619,2.1.047-4.182.828.29a9.664,9.664,0,0,0,2.453.533l.419.032,1.517,4.593,3.013-.616Z" transform="translate(-570.702 -377.177)" fill="#2d6c8e"/>
      </g>
      <path id="Path_987" data-name="Path 987" d="M638.651,399.231,626.94,405.9l2.768,8.377,11.711-6.667Z" transform="translate(-594.231 -379.737)" fill="#fff" stroke="#929497" stroke-linejoin="round" stroke-width="1"/>
      <path id="Path_988" data-name="Path 988" d="M632.8,390.113l-11.712,6.667-1.673,2.9,11.711-6.667Z" transform="translate(-591.081 -375.922)" fill="#fff" stroke="#929497" stroke-linejoin="round" stroke-width="1"/>
      <path id="Path_989" data-name="Path 989" d="M631.123,395.106l-11.711,6.666s1.12,2.086,1.516,2.985l11.712-6.667S631.415,395.513,631.123,395.106Z" transform="translate(-591.082 -378.011)" fill="#fff" stroke="#929497" stroke-linejoin="round" stroke-width="1"/>
      <path id="Path_990" data-name="Path 990" d="M633.731,399.817l-11.711,6.667,2.862-.586,11.712-6.667Z" transform="translate(-592.172 -379.737)" fill="#fff" stroke="#929497" stroke-linejoin="round" stroke-width="1"/>
      <path id="Path_991" data-name="Path 991" d="M644.85,423.2l-11.712,6.667-.092,8.095,11.711-6.667Z" transform="translate(-596.786 -389.764)" fill="#fff" stroke="#929497" stroke-linejoin="round" stroke-width="1"/>
      <path id="Path_992" data-name="Path 992" d="M638.962,418.406l-11.711,6.667s-.29-2.094-.494-3.08l2.875-.588,9.018-5.134S638.855,417.434,638.962,418.406Z" transform="translate(-594.154 -386.866)" fill="#fff" stroke="#929497" stroke-linejoin="round" stroke-width="1"/>
      <path id="Path_993" data-name="Path 993" d="M639.317,419.942l-11.711,6.667,3.256,1.893,11.711-6.667Z" transform="translate(-594.51 -388.402)" fill="#fff" stroke="#929497" stroke-linejoin="round" stroke-width="1"/>
      <path id="Path_994" data-name="Path 994" d="M640.916,442.213,629.2,448.88,626.4,445l2.026-1.154,1.84,1.071,8.931-5.084Z" transform="translate(-594.004 -396.726)" fill="#fff" stroke="#929497" stroke-linejoin="round" stroke-width="1"/>
      <path id="Path_995" data-name="Path 995" d="M628.425,446.1l-1.521-.882a20.142,20.142,0,0,1-.506,2.036Z" transform="translate(-594.004 -398.978)" fill="#fff" stroke="#929497" stroke-linejoin="round" stroke-width="1"/>
      <path id="Path_996" data-name="Path 996" d="M640.639,443.923l-11.712,6.667-3.19,5.537,11.712-6.667Z" transform="translate(-593.728 -398.435)" fill="#fff" stroke="#929497" stroke-linejoin="round" stroke-width="1"/>
      <path id="Path_997" data-name="Path 997" d="M632.209,456.185,620.5,462.852l-1.626-4.921,1.193-.679,2.8,3.87,9.238-5.259Z" transform="translate(-590.855 -403.431)" fill="#fff" stroke="#929497" stroke-linejoin="round" stroke-width="1"/>
      <path id="Path_998" data-name="Path 998" d="M619.961,458.008a10.413,10.413,0,0,1-1.09.821l1.193-.679Z" transform="translate(-590.855 -404.328)" fill="#fff" stroke="#929497" stroke-linejoin="round" stroke-width="1"/>
      <path id="Path_999" data-name="Path 999" d="M599.45,365.714l-5.5,1.125-11.711,6.667,5.5-1.125Z" transform="translate(-575.529 -365.714)" fill="#fff" stroke="#929497" stroke-linejoin="round" stroke-width="1"/>
      <path id="Path_1000" data-name="Path 1000" d="M578.169,381.073l2.473-1.408,1.52,4.6a12.228,12.228,0,0,0-1.089.82Z" transform="translate(-573.826 -371.551)" fill="#fff" stroke="#929497" stroke-linejoin="round" stroke-width="1"/>
      <path id="Path_1001" data-name="Path 1001" d="M570.86,397.275l2.779-1.582,1.088,1.5s-.29.947-.505,2.036Z" transform="translate(-570.768 -378.257)" fill="#fff" stroke="#929497" stroke-linejoin="round" stroke-width="1"/>
      <path id="Path_1002" data-name="Path 1002" d="M572.208,420.791l2.694-1.534.181.946Z" transform="translate(-571.332 -388.116)" fill="#fff" stroke="#929497" stroke-linejoin="round" stroke-width="1"/>
      <path id="Path_1003" data-name="Path 1003" d="M606.736,465.546l2.527-1.438-.951-2.881a14.184,14.184,0,0,1-1.523-.3Z" transform="translate(-585.778 -405.548)" fill="#fff" stroke="#929497" stroke-linejoin="round" stroke-width="1"/>
      <path id="Path_1004" data-name="Path 1004" d="M590.2,455.133l3.02-1.719-1.309-1.251Z" transform="translate(-578.859 -401.883)" fill="#fff" stroke="#929497" stroke-linejoin="round" stroke-width="1"/>
      <g id="Group_569" data-name="Group 569" transform="translate(11.866 25.03)">
        <path id="Path_1005" data-name="Path 1005" d="M591.863,410.815l-.656-.1-.1-1.964,1.085.013.55.461-.352,10.205-.8-.667Z" transform="translate(-591.103 -408.75)" fill="#2d6c8e"/>
        <path id="Path_1006" data-name="Path 1006" d="M594.345,419.487l.543-1.2a3.906,3.906,0,0,0,.839,1.833c.378.316.632.007.662-.89v-.03a2.469,2.469,0,0,0-.6-1.919.625.625,0,0,0-.627-.138l-.438-1.244.278-4.906,2.257,1.887-.068,1.955-1.564-1.308-.1,1.716a.86.86,0,0,1,.489.23c.714.6,1.253,2.031,1.174,4.318v.029c-.074,2.142-.673,3.042-1.518,2.335A5.209,5.209,0,0,1,594.345,419.487Z" transform="translate(-592.459 -409.689)" fill="#2d6c8e"/>
        <path id="Path_1007" data-name="Path 1007" d="M600.077,420.917v-.029c.1-2.938.843-4.687,1.819-3.87s1.548,3.633,1.447,6.572v.029c-.1,2.938-.837,4.691-1.819,3.87S599.975,423.855,600.077,420.917Zm2.435,2.036v-.029c.064-1.838-.214-3.5-.7-3.9s-.844.679-.908,2.532v.029c-.065,1.852.208,3.5.7,3.9S602.448,424.791,602.511,422.953Z" transform="translate(-594.852 -412.125)" fill="#2d6c8e"/>
        <path id="Path_1008" data-name="Path 1008" d="M606.4,426.2v-.029c.1-2.938.843-4.686,1.819-3.87s1.548,3.633,1.446,6.572v.029c-.1,2.939-.837,4.691-1.819,3.87S606.3,429.144,606.4,426.2Zm2.435,2.037v-.029c.063-1.839-.214-3.5-.7-3.9s-.844.679-.908,2.532v.029c-.064,1.852.209,3.5.7,3.9S608.772,430.08,608.836,428.242Z" transform="translate(-597.498 -414.338)" fill="#2d6c8e"/>
      </g>
    </g>
  </g>
</svg>
