<svg xmlns="http://www.w3.org/2000/svg" width="96.042" height="83.935" viewBox="0 0 96.042 83.935">
  <g id="ready-units-icon" transform="translate(-736.534 -93.469)">
    <g id="Group_563" data-name="Group 563" transform="translate(737.534 94.469)">
      <path id="Path_957" data-name="Path 957" d="M737.55,170.164l47.013,27.515V172.8L758.49,149.247l-20.912-5.988Z" transform="translate(-737.541 -115.744)" fill="#fff" stroke="#2d6c8e" stroke-linejoin="round" stroke-width="2"/>
      <g id="Group_562" data-name="Group 562" transform="translate(3.817 36.308)">
        <g id="Group_555" data-name="Group 555">
          <path id="Path_958" data-name="Path 958" d="M747.722,161.713l-2.668-1.555,0,2.657,2.668,1.555Z" transform="translate(-744.63 -159.421)" fill="#fff"/>
          <path id="Path_959" data-name="Path 959" d="M744.308,162.488l-.006-3.637,3.515,2.049.006,3.636Zm.843-2.163,0,1.677,1.822,1.061,0-1.677Z" transform="translate(-744.302 -158.851)" fill="#49b5d8"/>
        </g>
        <g id="Group_556" data-name="Group 556" transform="translate(5.977 3.485)">
          <path id="Path_960" data-name="Path 960" d="M758.321,167.892l-2.668-1.555,0,2.657,2.668,1.555Z" transform="translate(-755.229 -165.6)" fill="#fff"/>
          <path id="Path_961" data-name="Path 961" d="M754.907,168.667l-.006-3.637,3.514,2.049.006,3.636Zm.843-2.163,0,1.677,1.821,1.062,0-1.677Z" transform="translate(-754.901 -165.03)" fill="#49b5d8"/>
        </g>
        <g id="Group_557" data-name="Group 557" transform="translate(11.954 6.969)">
          <path id="Path_962" data-name="Path 962" d="M768.919,174.071l-2.668-1.555,0,2.657,2.668,1.555Z" transform="translate(-765.827 -171.779)" fill="#fff"/>
          <path id="Path_963" data-name="Path 963" d="M765.505,174.845l-.006-3.636,3.515,2.049.006,3.637Zm.842-2.163,0,1.677,1.821,1.061,0-1.677Z" transform="translate(-765.499 -171.209)" fill="#49b5d8"/>
        </g>
        <g id="Group_558" data-name="Group 558" transform="translate(17.931 10.453)">
          <path id="Path_964" data-name="Path 964" d="M779.518,180.249l-2.668-1.555,0,2.657,2.668,1.555Z" transform="translate(-776.426 -177.957)" fill="#fff"/>
          <path id="Path_965" data-name="Path 965" d="M776.1,181.024l-.006-3.637,3.515,2.049.006,3.636Zm.843-2.163,0,1.676,1.822,1.062,0-1.677Z" transform="translate(-776.098 -177.387)" fill="#49b5d8"/>
        </g>
        <g id="Group_559" data-name="Group 559" transform="translate(23.909 13.938)">
          <path id="Path_966" data-name="Path 966" d="M790.116,186.428l-2.668-1.555,0,2.657,2.668,1.555Z" transform="translate(-787.025 -184.136)" fill="#fff"/>
          <path id="Path_967" data-name="Path 967" d="M786.7,187.2l-.006-3.636,3.515,2.049.006,3.637Zm.842-2.163,0,1.677,1.821,1.061,0-1.676Z" transform="translate(-786.697 -183.566)" fill="#49b5d8"/>
        </g>
        <g id="Group_560" data-name="Group 560" transform="translate(29.886 17.422)">
          <path id="Path_968" data-name="Path 968" d="M800.715,192.606l-2.668-1.555,0,2.657,2.668,1.555Z" transform="translate(-797.623 -190.314)" fill="#fff"/>
          <path id="Path_969" data-name="Path 969" d="M797.3,193.381l-.006-3.637,3.515,2.049.006,3.636Zm.843-2.163,0,1.677,1.822,1.061,0-1.677Z" transform="translate(-797.295 -189.744)" fill="#49b5d8"/>
        </g>
        <g id="Group_561" data-name="Group 561" transform="translate(35.863 20.907)">
          <path id="Path_970" data-name="Path 970" d="M811.314,198.785l-2.668-1.555,0,2.657,2.668,1.555Z" transform="translate(-808.222 -196.493)" fill="#fff"/>
          <path id="Path_971" data-name="Path 971" d="M807.9,199.559l-.006-3.636,3.515,2.049.006,3.637Zm.843-2.163,0,1.677,1.822,1.062,0-1.677Z" transform="translate(-807.894 -195.923)" fill="#49b5d8"/>
        </g>
      </g>
      <path id="Path_972" data-name="Path 972" d="M770.777,202.237l-20.961-12.219a.565.565,0,0,1-.28-.487V178.345a.564.564,0,0,1,.848-.487l20.96,12.219a.564.564,0,0,1,.28.487V201.75a.564.564,0,0,1-.848.487Zm-20.112-22.91v9.879L770.5,200.768v-9.879Z" transform="translate(-742.768 -130.797)" fill="#2d6c8e"/>
      <path id="Path_973" data-name="Path 973" d="M867.936,146.73l-47.017,27.515v24.947l47.017-27.515Z" transform="translate(-773.894 -117.257)" fill="#fff" stroke="#929497" stroke-linejoin="round" stroke-width="2"/>
      <path id="Path_974" data-name="Path 974" d="M847.74,128.518l-47.017,27.515L774.6,132.478l47.016-27.515Z" transform="translate(-753.698 -99.045)" fill="#fff" stroke="#929497" stroke-linejoin="round" stroke-width="2"/>
      <path id="Path_975" data-name="Path 975" d="M805.456,100.387,758.44,127.9l-20.905-5.918,47.016-27.515Z" transform="translate(-737.534 -94.469)" fill="#fff" stroke="#929497" stroke-linejoin="round" stroke-width="2"/>
    </g>
  </g>
</svg>
