<svg xmlns="http://www.w3.org/2000/svg" width="86.708" height="124.02" viewBox="0 0 86.708 124.02">
  <g id="Service-product-icon" transform="translate(-76.093 -79.64)">
    <g id="Group_532" data-name="Group 532" transform="translate(77.093 140.307)">
      <path id="Path_828" data-name="Path 828" d="M159.866,180.047,139.84,191.729,152.7,207.6l20.026-11.682Z" transform="translate(-87.516 -156.901)" fill="#fff" stroke="#929497" stroke-linejoin="round" stroke-width="1"/>
      <path id="Path_829" data-name="Path 829" d="M155.259,210.758v11.658l20.026-11.682V199.076Z" transform="translate(-90.077 -160.062)" fill="#fff" stroke="#929497" stroke-linejoin="round" stroke-width="1"/>
      <path id="Path_830" data-name="Path 830" d="M144.006,182.274,123.98,193.956l13.225-2.227,20.026-11.682Z" transform="translate(-84.881 -156.901)" fill="#fff" stroke="#929497" stroke-linejoin="round" stroke-width="1"/>
      <path id="Path_831" data-name="Path 831" d="M100.631,180.981,120.657,169.3l19.47,11.19L120.1,192.171Z" transform="translate(-81.003 -155.116)" fill="#fff" stroke="#929497" stroke-linejoin="round" stroke-width="1"/>
      <path id="Path_832" data-name="Path 832" d="M103.265,152.291,83.238,163.973l14.5,17.929v-3.746L115.7,167.683Z" transform="translate(-78.114 -152.291)" fill="#fff" stroke="#929497" stroke-linejoin="round" stroke-width="1"/>
      <path id="Path_833" data-name="Path 833" d="M96.515,184l-14.3-17.7-5.124,4.859,32.854,40.675,23.511.071,8.817,5.067V205.314l-12.858-15.868-13.225,2.227-19.47-11.19v9.249l21.491,12.351" transform="translate(-77.093 -154.618)" fill="#fff"/>
      <path id="Path_834" data-name="Path 834" d="M96.515,184l-14.3-17.7-5.124,4.859,32.854,40.675,23.511.071,8.817,5.067V205.314l-12.858-15.868-13.225,2.227-19.47-11.19v9.249l21.491,12.351" transform="translate(-77.093 -154.618)" fill="none" stroke="#49b5d8" stroke-linecap="round" stroke-linejoin="round" stroke-width="2"/>
    </g>
    <g id="Group_535" data-name="Group 535" transform="translate(81.815 80.14)">
      <path id="Path_835" data-name="Path 835" d="M149.613,105.482l-8.344,4.9-8.35-10.2,8.345-4.9Z" transform="translate(-91.088 -82.655)" fill="#fff" stroke="#929497" stroke-linejoin="round" stroke-width="1"/>
      <path id="Path_836" data-name="Path 836" d="M156.871,116.983l-8.345,4.9L153.375,134l8.345-4.9Z" transform="translate(-93.68 -86.26)" fill="#fff" stroke="#929497" stroke-linejoin="round" stroke-width="1"/>
      <path id="Path_837" data-name="Path 837" d="M164.487,140.663l-8.344,4.9v11.254l8.344-4.9Z" transform="translate(-94.945 -90.193)" fill="#fff" stroke="#929497" stroke-linejoin="round" stroke-width="1"/>
      <path id="Path_838" data-name="Path 838" d="M161.444,160.332l-8.345,4.9-5.264,7,8.345-4.9Z" transform="translate(-93.565 -93.46)" fill="#fff" stroke="#929497" stroke-linejoin="round" stroke-width="1"/>
      <path id="Path_839" data-name="Path 839" d="M121.741,81.828l-8.344,4.9,10.093,5.895,8.344-4.9Z" transform="translate(-87.845 -80.421)" fill="#fff" stroke="#929497" stroke-linejoin="round" stroke-width="1"/>
      <path id="Path_840" data-name="Path 840" d="M113.2,80.14l-8.345,4.9-9.087.492,8.344-4.9Z" transform="translate(-84.917 -80.14)" fill="#fff" stroke="#929497" stroke-linejoin="round" stroke-width="1"/>
      <path id="Path_841" data-name="Path 841" d="M133.845,95,125.5,99.9V93.8l8.344-4.9Z" transform="translate(-89.855 -81.595)" fill="#fff" stroke="#929497" stroke-linejoin="round" stroke-width="1"/>
      <path id="Path_842" data-name="Path 842" d="M133.845,96.215l-8.344,4.9s2.583,2.114,3.39,2.941l2.8-3.722,4.165-2.447Z" transform="translate(-89.855 -82.81)" fill="#fff" stroke="#929497" stroke-linejoin="round" stroke-width="1"/>
      <path id="Path_843" data-name="Path 843" d="M115.014,80.14l-8.345,4.9,2.779,6.942,2.831-1.663,0-3.872,4.258-2.5Z" transform="translate(-86.727 -80.14)" fill="#fff" stroke="#929497" stroke-linejoin="round" stroke-width="1"/>
      <path id="Path_844" data-name="Path 844" d="M112.832,92.35,110,94.013a25.532,25.532,0,0,1,2.833.771Z" transform="translate(-87.281 -82.168)" fill="#fff" stroke="#929497" stroke-linejoin="round" stroke-width="1"/>
      <path id="Path_845" data-name="Path 845" d="M147.957,111.2l-8.344,4.9,2.768-3.683,8.344-4.9Z" transform="translate(-92.199 -84.687)" fill="#fff" stroke="#929497" stroke-linejoin="round" stroke-width="1"/>
      <path id="Path_846" data-name="Path 846" d="M150.6,116.4l-8.344,4.9s-1.26-2.352-2.644-4.472l8.344-4.9S149.617,114.523,150.6,116.4Z" transform="translate(-92.199 -85.421)" fill="#fff" stroke="#929497" stroke-linejoin="round" stroke-width="1"/>
      <path id="Path_847" data-name="Path 847" d="M151.128,117.243l-8.344,4.9,4.788-.259,8.345-4.9Z" transform="translate(-92.726 -86.26)" fill="#fff" stroke="#929497" stroke-linejoin="round" stroke-width="1"/>
      <path id="Path_848" data-name="Path 848" d="M157.7,136.426l-8.344,4.9s-.325-2.146-.841-4.14l4.862-.264,4-2.35Z" transform="translate(-93.677 -89.182)" fill="#fff" stroke="#929497" stroke-linejoin="round" stroke-width="1"/>
      <path id="Path_849" data-name="Path 849" d="M157.863,136.794l-8.344,4.9,5.523,3.226,8.344-4.9Z" transform="translate(-93.845 -89.551)" fill="#fff" stroke="#929497" stroke-linejoin="round" stroke-width="1"/>
      <path id="Path_850" data-name="Path 850" d="M159.226,156.954l2.3,2.817-8.345,4.9-4.827-5.9,2.595-1.524,3.9,2.275Z" transform="translate(-93.652 -92.899)" fill="#fff" stroke="#929497" stroke-linejoin="round" stroke-width="1"/>
      <path id="Path_851" data-name="Path 851" d="M150.954,157.1l-1.821-1.063a19.394,19.394,0,0,1-.774,2.588Z" transform="translate(-93.652 -92.746)" fill="#fff" stroke="#929497" stroke-linejoin="round" stroke-width="1"/>
      <path id="Path_852" data-name="Path 852" d="M142.558,175.5l3.8-2.232-4.8-5.868a16.255,16.255,0,0,1-1.855.976Z" transform="translate(-92.215 -94.634)" fill="#fff" stroke="#929497" stroke-linejoin="round" stroke-width="1"/>
      <path id="Path_853" data-name="Path 853" d="M99.407,83.23l-8.344,4.9,4.923,6.017a15.6,15.6,0,0,1,1.855-.976l-2.851-7.125,4.54-2.668Z" transform="translate(-84.135 -80.653)" fill="#fff" stroke="#929497" stroke-linejoin="round" stroke-width="1"/>
      <path id="Path_854" data-name="Path 854" d="M82.755,103.037,85.98,99.8l3.266,3.989a22.525,22.525,0,0,0-.774,2.588Z" transform="translate(-82.755 -83.405)" fill="#fff" stroke="#929497" stroke-linejoin="round" stroke-width="1"/>
      <path id="Path_855" data-name="Path 855" d="M84.557,125.818l4.343-2.552.52,2.289Z" transform="translate(-83.054 -87.304)" fill="#fff" stroke="#929497" stroke-linejoin="round" stroke-width="1"/>
      <path id="Path_856" data-name="Path 856" d="M137.75,177.3,137,181.545l-8.344,4.9,1.354-7.767,2.268-1.332.014.249Z" transform="translate(-90.38 -96.279)" fill="#fff" stroke="#929497" stroke-linejoin="round" stroke-width="1"/>
      <g id="Group_534" data-name="Group 534" transform="translate(0 4.902)">
        <path id="Path_857" data-name="Path 857" d="M128.4,174.01l-23.245-13.551.521-4.534,24.913,13.864Z" transform="translate(-86.476 -97.631)" fill="#fff"/>
        <g id="Group_533" data-name="Group 533">
          <path id="Path_858" data-name="Path 858" d="M102.272,148.551l-7.153-8.742,2.724-3.625a59.666,59.666,0,0,1-3.229-5.455l-4.718.255-4.129-10.318,4.713-.255a42.561,42.561,0,0,1-1.176-5.565l-5.45-3.183v-9.129l5.45,3.183a19.1,19.1,0,0,1,1.176-4.192l-4.713-5.761L89.9,90.27l4.718,5.766a11.4,11.4,0,0,1,3.229-1.684l-2.724-6.805,7.153-.388,2.721,6.8a22.509,22.509,0,0,1,4.414,1.279V89.214l8.259,4.823v6.024a46.875,46.875,0,0,1,4.414,3.877l2.721-3.621,7.153,8.743-2.724,3.624a59.691,59.691,0,0,1,3.23,5.455l4.717-.256,4.129,10.319-4.712.255a42.651,42.651,0,0,1,1.175,5.565l5.45,3.183v9.13l-5.45-3.183a19.157,19.157,0,0,1-1.175,4.193l4.712,5.76-4.129,5.495-4.717-5.766a11.384,11.384,0,0,1-3.23,1.683l2.724,6.806-7.153.387" transform="translate(-82.938 -86.209)" fill="#fff"/>
          <path id="Path_859" data-name="Path 859" d="M122.424,165.251l-13.78-10.742a5.032,5.032,0,0,1-1.865-3.416,56.891,56.891,0,0,0-5.086-20.93c-.007-.015-.038-.078-.045-.093-.041-.082-.081-.163-.12-.246l-.108-.214a4.784,4.784,0,0,1-.324-.782,30.717,30.717,0,0,1-2.643-11.75c0-10.672,7.854-14.767,17.509-9.128s17.508,18.907,17.508,29.578c0,3.6-.906,6.579-2.622,8.637a1.179,1.179,0,0,1-.342.43l-.12.1c-.041.038-.088.079-.151.133-1.209,1.1-5.153,5.63-5.153,17.514a1.387,1.387,0,0,1-.809,1.444,1.8,1.8,0,0,1-1.454-.264A3.553,3.553,0,0,1,122.424,165.251Z" transform="translate(-85.362 -89.241)" fill="#fff"/>
          <path id="Path_860" data-name="Path 860" d="M103.614,129.6l.009-.047a27.012,27.012,0,0,1-2.457-10.59c0-9.307,6.825-12.865,15.245-7.948s15.245,16.449,15.245,25.755c0,3.381-.909,5.991-2.46,7.724l.013.054s-.075.056-.186.15c-.05.052-.108.092-.159.142-1.254,1.146-5.6,6.024-5.6,18.741l-13.78-10.741a61.266,61.266,0,0,0-5.525-22.534c-.056-.121-.12-.239-.174-.36C103.684,129.731,103.614,129.6,103.614,129.6Z" transform="translate(-85.813 -89.803)" fill="#fff" stroke="#49b5d8" stroke-linejoin="round" stroke-width="2.2"/>
          <path id="Path_861" data-name="Path 861" d="M125.894,180.732l.788-4.466L109.406,162.76l-.788,4.466Z" transform="translate(-87.051 -98.766)" fill="#fff"/>
          <path id="Path_862" data-name="Path 862" d="M125.435,184.882l.788-4.466-16.177-12.537-.788,4.466Z" transform="translate(-87.157 -99.616)" fill="#fff"/>
          <path id="Path_863" data-name="Path 863" d="M123.673,188.187l.788-4.466L112.685,174.5l-.788,4.466Z" transform="translate(-87.596 -100.716)" fill="#fff"/>
          <line id="Line_5" data-name="Line 5" x1="16.397" y1="12.783" transform="translate(22.4 66.623)" fill="none" stroke="#49b5d8" stroke-miterlimit="10" stroke-width="2.2"/>
          <line id="Line_6" data-name="Line 6" x1="15.265" y1="11.9" transform="translate(22.966 70.875)" fill="none" stroke="#49b5d8" stroke-miterlimit="10" stroke-width="2.2"/>
          <line id="Line_7" data-name="Line 7" x1="10.928" y1="8.519" transform="translate(25.135 76.377)" fill="none" stroke="#49b5d8" stroke-miterlimit="10" stroke-width="2.2"/>
          <path id="Path_864" data-name="Path 864" d="M124.668,162.436l8.43-.457-2.851-7.125a12.362,12.362,0,0,0,1.855-.976l4.922,6.017,5.264-7-4.827-5.9a19.5,19.5,0,0,0,.774-2.588l5.717,3.339V136.489l-5.523-3.226c-.208-1.365-.49-2.753-.841-4.14l4.862-.264L137.6,116.742l-4.788.259c-.815-1.523-1.7-3.023-2.644-4.472l2.769-3.683-8.35-10.2-2.8,3.722c-1.1-1.046-2.233-2.031-3.39-2.941v-6.1l-10.093-5.895v6.306a22.927,22.927,0,0,0-2.833-.771L102.7,86.019l-9.086.492,2.851,7.125a12.356,12.356,0,0,0-1.855.976l-4.923-6.017-5.264,7,4.827,5.9a19.627,19.627,0,0,0-.774,2.588l-5.716-3.338V112l5.523,3.226c.208,1.367.49,2.754.842,4.141l-4.862.263,4.848,12.117,4.789-.26c.812,1.519,1.7,3.02,2.644,4.472l-2.768,3.683,7.608,9.3,1.42-1.162L96.1,139.6l2.682-3.568-.359-.541a58.5,58.5,0,0,1-3.179-5.37l-.274-.524-4.651.252-3.411-8.52,4.58-.248-.309-1.1a41.723,41.723,0,0,1-1.151-5.445l-.063-.44-5.379-3.141v-7l5.217,3.046.221-1.309a18.234,18.234,0,0,1,1.118-3.992l.211-.508-4.606-5.63,3-3.984,4.533,5.54.7-.525a10.494,10.494,0,0,1,2.971-1.548l.922-.308L96.263,88.2l5.219-.283,2.668,6.664.5.088a21.671,21.671,0,0,1,4.233,1.227l1.255.5V90.622l6.425,3.753v5.948l.357.275a46.206,46.206,0,0,1,4.327,3.8l.748.742,2.65-3.527,5.957,7.281-2.683,3.568.36.54a58.959,58.959,0,0,1,3.18,5.371l.273.523,4.65-.252,3.411,8.52-4.578.248.309,1.1a41.883,41.883,0,0,1,1.151,5.445l.062.44,5.379,3.14v7.006L136.9,141.5l-.221,1.31a18.272,18.272,0,0,1-1.117,3.992l-.212.508,4.606,5.629-3,3.984-4.533-5.54-.7.525a10.518,10.518,0,0,1-2.971,1.549l-.922.308,2.61,6.521-5.876.319Z" transform="translate(-82.755 -86.019)" fill="#2d6c8e"/>
        </g>
      </g>
      <path id="Path_865" data-name="Path 865" d="M126.019,189.735l8.344-4.9.18-1.019-6.324,3.715-1.593-1.235Z" transform="translate(-89.941 -97.361)" fill="#fff" stroke="#929497" stroke-linejoin="round" stroke-width="1"/>
      <path id="Path_866" data-name="Path 866" d="M130.054,178.578l2.1-1.234-1.138-.664-1.528.873a1.281,1.281,0,0,1-.575.132Z" transform="translate(-90.422 -96.176)" fill="#fff" stroke="#929497" stroke-linejoin="round" stroke-width="1"/>
      <path id="Path_867" data-name="Path 867" d="M130.275,176.077l.874.5-1.43.815S130.265,177.112,130.275,176.077Z" transform="translate(-90.556 -96.076)" fill="#fff" stroke="#929497" stroke-linejoin="round" stroke-width="1"/>
    </g>
  </g>
</svg>
