<svg xmlns="http://www.w3.org/2000/svg" width="154" height="92" xmlns:v="https://vecta.io/nano"><style><![CDATA[.B{fill:none}.C{opacity:.24}.D{fill:#fcfcfc}]]></style><defs><clipPath id="A"><path d="M962.45 3819.226l-23.9 23.354 10.65 10.806 23.886-23.4z" transform="translate(-938.545 -3819.226)" class="B"/></clipPath><linearGradient id="B" x1="-8.089" y1="-39.622" x2="-8.08" y2="-39.622"><stop offset="0" stop-color="#00886e"/><stop offset=".494" stop-color="#5ea464"/><stop offset="1" stop-color="#97c352"/></linearGradient><clipPath id="C"><path d="M922.132 3791.615l23.355 23.905 10.806-10.65-23.4-23.885z" transform="translate(-922.132 -3780.984)" class="B"/></clipPath><linearGradient id="D" x1="-6.892" y1="-39.253" x2="-6.883" y2="-39.253"><stop offset="0" stop-color="#5dbec0"/><stop offset="1" stop-color="#2981a6"/></linearGradient><clipPath id="E"><path d="M894.513 3832.207l23.9-23.354-10.65-10.806-23.886 23.4z" transform="translate(-883.881 -3798.047)" class="B"/></clipPath><linearGradient id="F" x1="-6.316" y1="-38.281" x2="-6.307" y2="-38.281"><stop offset="0" stop-color="#025680"/><stop offset="1" stop-color="#2680a5"/></linearGradient><clipPath id="G"><path d="M0 0h.616v1.344H0z" class="B"/></clipPath><clipPath id="H"><path d="M0 0h1.007v.57H0z" class="B"/></clipPath><clipPath id="I"><path d="M0 0h1.16v2.303H0z" class="B"/></clipPath><clipPath id="J"><path d="M0 0h1.15v2.013H0z" class="B"/></clipPath><clipPath id="K"><path d="M0 0h2.317v1.08H0z" class="B"/></clipPath><clipPath id="L"><path d="M0 0h.856v.67H0z" class="B"/></clipPath><clipPath id="M"><path d="M0 0h.845v2.355H0z" class="B"/></clipPath><clipPath id="N"><path d="M0 0h1.92v1.722H0z" class="B"/></clipPath><clipPath id="O"><path d="M0 0h2.31v1.115H0z" class="B"/></clipPath><clipPath id="P"><path d="M0 0h.9v.933H0z" class="B"/></clipPath><clipPath id="Q"><path d="M0 0h1.976v1.645H0z" class="B"/></clipPath><clipPath id="R"><path d="M0 0h1.178v1.22H0z" class="B"/></clipPath><clipPath id="S"><path d="M0 0h1.824v1.813H0z" class="B"/></clipPath><clipPath id="T"><path d="M0 0h1.74v1.913H0z" class="B"/></clipPath><clipPath id="U"><path d="M0 0h2.134v1.446H0z" class="B"/></clipPath><clipPath id="V"><path d="M0 0h1.517v2.107H0z" class="B"/></clipPath><clipPath id="W"><path d="M0 0h1.978v1.685H0z" class="B"/></clipPath><clipPath id="X"><path d="M0 0h2.308v1.117H0z" class="B"/></clipPath><clipPath id="Y"><path d="M0 0h2.34v.925H0z" class="B"/></clipPath><clipPath id="Z"><path d="M0 0h2.32v1.125H0z" class="B"/></clipPath><clipPath id="a"><path d="M0 0h1.063v2.33H0z" class="B"/></clipPath><clipPath id="b"><path d="M0 0h2.363v.858H0z" class="B"/></clipPath><clipPath id="c"><path d="M0 0h.938v2.346H0z" class="B"/></clipPath><clipPath id="d"><path d="M0 0h.934v.7H0z" class="B"/></clipPath><clipPath id="e"><path d="M0 0h1.347v2.198H0z" class="B"/></clipPath><clipPath id="f"><path d="M0 0h.968v2.364H0z" class="B"/></clipPath><clipPath id="g"><path d="M0 0h1.738v1.91H0z" class="B"/></clipPath><clipPath id="h"><path d="M0 0h.997v.6H0z" class="B"/></clipPath><clipPath id="i"><path d="M0 0h.85v2.372H0z" class="B"/></clipPath><clipPath id="j"><path d="M0 0h1.906v1.778H0z" class="B"/></clipPath><clipPath id="k"><path d="M0 0h.953v2.343H0z" class="B"/></clipPath><clipPath id="l"><path d="M0 0h1.135v2.3H0z" class="B"/></clipPath><clipPath id="m"><path d="M0 0h1.995v1.648H0z" class="B"/></clipPath><clipPath id="n"><path d="M0 0h2.31v1.102H0z" class="B"/></clipPath><clipPath id="o"><path d="M0 0h2.03v1.604H0z" class="B"/></clipPath><clipPath id="p"><path d="M0 0h2.385v.858H0z" class="B"/></clipPath><clipPath id="q"><path d="M0 0h1.45v2.08H0z" class="B"/></clipPath><clipPath id="r"><path d="M0 0h1.94v1.716H0z" class="B"/></clipPath><clipPath id="s"><path d="M0 0h2.004v1.645H0z" class="B"/></clipPath><clipPath id="t"><path d="M0 0h.963v2.17H0z" class="B"/></clipPath><clipPath id="u"><path d="M0 0h2.304v1.058H0z" class="B"/></clipPath><clipPath id="v"><path d="M0 0h1.3v2.213H0z" class="B"/></clipPath><clipPath id="w"><path d="M0 0h1.406v2.16H0z" class="B"/></clipPath><clipPath id="x"><path d="M0 0h.946v2.346H0z" class="B"/></clipPath><clipPath id="y"><path d="M0 0h1.05v2.32H0z" class="B"/></clipPath><clipPath id="z"><path d="M0 0h2.135v1.455H0z" class="B"/></clipPath><clipPath id="AA"><path d="M0 0h1.444v2.16H0z" class="B"/></clipPath><clipPath id="AB"><path d="M0 0h2v1.63H0z" class="B"/></clipPath><clipPath id="AC"><path d="M0 0h2.246v1.212H0z" class="B"/></clipPath><clipPath id="AD"><path d="M935.063 3859.59l-23.355-23.905-10.808 10.65 23.4 23.886z" transform="translate(-900.902 -3835.686)" class="B"/></clipPath><linearGradient id="AE" x1="-6.545" y1="-39.886" x2="-6.536" y2="-39.886"><stop offset="0" stop-color="#afa597"/><stop offset="1" stop-color="#eae8e1"/></linearGradient><clipPath id="AF"><path d="M900.88 3846.337l23.4 23.886 10.76-10.632-23.355-23.9z" transform="translate(-900.879 -3835.686)" class="B"/></clipPath><clipPath id="AG"><path d="M0 0h39.31v39.377H0z" class="B"/></clipPath><linearGradient id="AH" x1=".261" y1=".971" x2=".786" y2=".229"><stop offset="0" stop-color="#266891"/><stop offset="1" stop-color="#74ba6a"/></linearGradient></defs><g transform="translate(-754.674 -3770.368)"><g transform="translate(756.674 3783.335)"><g transform="translate(81.948)"><g clip-path="url(#A)" transform="translate(34.141 23.885)"><path transform="matrix(.73969 -.672948 .672948 .73969 -17.004 15.47)" fill="url(#B)" d="M0 0h48.535v48.5H0z"/></g><g clip-path="url(#C)" transform="translate(23.89)"><path transform="matrix(.666663 -.74536 .74536 .666663 -17.161 19.187)" fill="url(#D)" d="M0 0h48.516v48.486H0z"/></g><g clip-path="url(#E)" transform="translate(0 10.657)"><path transform="matrix(.748 -.663 .663 .748 -16.957 15.036)" fill="url(#F)" d="M0 0h48.505v48.473H0z"/></g><g clip-path="url(#G)" transform="translate(36.817 49.945)" style="mix-blend-mode:overlay" class="C D"><path d="M.06.975l.446.37C.647.987.652.6.52.23.475.07.314-.028.152.007-.032.04-.01.194.02.307a1.58 1.58 0 0 1 .04.672"/></g><g clip-path="url(#H)" transform="translate(64.892 37.639)" style="mix-blend-mode:overlay" class="C D"><path d="M.218.498C.335.51.45.535.564.57l.443-.4C.816.086.614.03.407.004.245-.018.042.018.007.238c-.012.064.005.13.047.18S.156.495.22.495"/></g><g clip-path="url(#I)" transform="translate(52.656 31.463)" style="mix-blend-mode:overlay" class="C D"><path d="M.754 1.94l-.293.29c-.053.05-.124.075-.196.07s-.14-.038-.187-.093C.023 2.16-.005 2.088 0 2.015s.045-.138.106-.178C.564 1.474.752.866.58.308.543.16.54.03.75.002c.07-.02.143-.008.203.03s.103.1.116.17a1.8 1.8 0 0 1-.315 1.736"/></g><g clip-path="url(#J)" transform="translate(64.733 30.726)" style="mix-blend-mode:overlay" class="C D"><path d="M.905 1.426C.657 1.18.526.838.546.488L.085 0a1.82 1.82 0 0 0 .411 1.776c.167.17.375.337.572.15s-.024-.364-.162-.5"/></g><g clip-path="url(#K)" transform="translate(61.252 29.416)" style="mix-blend-mode:overlay" class="C D"><path d="M2.084.422c.195.154.322.36.157.565s-.332 0-.468-.118C1.415.55.914.45.46.607.25.67.06.654.008.425S.152.155.32.098a1.89 1.89 0 0 1 1.763.324"/></g><g clip-path="url(#L)" transform="translate(39.951 53.764)" style="mix-blend-mode:overlay" class="C D"><path d="M.575.633L.628.67C.75.658.846.557.853.434.884.185.66.172.498.15a1.52 1.52 0 0 1-.5-.149l.576.632"/></g><g clip-path="url(#M)" transform="translate(55.58 30.256)" style="mix-blend-mode:overlay" class="C D"><path d="M.518 2.22a.27.27 0 0 1-.411.071c-.06-.04-.1-.104-.107-.176s.02-.143.07-.193C.384 1.477.408.89.13.42.05.25.008.112.2.03.344-.04.46.03.563.2a1.83 1.83 0 0 1-.045 2.024"/></g><g clip-path="url(#N)" transform="translate(47.858 37.196)" style="mix-blend-mode:overlay" class="C D"><path d="M1.332.46c.297.218.502.54.574.9.036.17 0 .3-.15.344s-.247-.01-.316-.183A1.49 1.49 0 0 0 .203.497C.052.478-.02.417.003.25A.28.28 0 0 1 .34-.001a1.41 1.41 0 0 1 .991.457"/></g><g clip-path="url(#O)" transform="translate(50.885 36.371)" style="mix-blend-mode:overlay" class="C D"><path d="M2.16.505c-.49.543-1.26.74-1.95.5C.063.948-.032.872.01.7.017.617.057.552.118.513S.256.465.325.5C.873.683 1.483.532 1.878.105c.113-.105.272-.162.37-.038.152.195-.012.348-.09.433"/></g><g clip-path="url(#P)" transform="translate(43.052 56.514)" style="mix-blend-mode:overlay" class="C D"><path d="M.825.07C.706-.06.525.005.412.137S.157.383-.001.463a5 5 0 0 1 .234.469A1.57 1.57 0 0 0 .728.583C.87.446 1.002.26.828.07"/></g><g clip-path="url(#Q)" transform="translate(55.222 34.317)" style="mix-blend-mode:overlay" class="C D"><path d="M.544 1.2A1.38 1.38 0 0 1 .017.339C-.01.28-.01.216.012.157S.08.05.14.026a.24.24 0 0 1 .343.15 1.38 1.38 0 0 0 1.2.958c.16.02.322.1.286.3s-.24.227-.376.205A1.58 1.58 0 0 1 .541 1.19"/></g><g clip-path="url(#R)" transform="translate(50.151 30.969)" style="mix-blend-mode:overlay" class="C D"><path d="M.448 0L0 .366a1.91 1.91 0 0 1 .774.748c.09.143.235.136.365.012.053-.128.053-.272 0-.4C.99.42.75.166.45.003"/></g><g clip-path="url(#S)" transform="translate(48.791 33.052)" style="mix-blend-mode:overlay" class="C D"><path d="M.575 1.358C.288 1.142.093.826.028.473-.026.293-.024.064.212.008s.27.146.317.32c.125.48.504.85.985.966.18.055.35.1.3.33s-.25.2-.416.17C1.08 1.75.79 1.595.574 1.357"/></g><g clip-path="url(#T)" transform="translate(58.156 25.922)" style="mix-blend-mode:overlay" class="C D"><path d="M.552 1.544C.266 1.207.075.8 0 .363-.01.183.044.04.225.006c.2-.037.23.106.276.28.132.514.343.977.954 1.093.166.032.353.134.26.36-.08.2-.274.2-.442.134l-.72-.33"/></g><g clip-path="url(#U)" transform="translate(41.724 48.598)" style="mix-blend-mode:overlay" class="C D"><path d="M1.713.486c.17.157.303.35.388.567.038.062.046.137.023.206s-.074.124-.14.15c-.06.04-.135.047-.202.022s-.117-.082-.136-.152A1.26 1.26 0 0 0 .397.523c-.22 0-.4-.072-.395-.3S.246.006.41-.002a1.8 1.8 0 0 1 1.3.484"/></g><g clip-path="url(#V)" transform="translate(58.908 40.686)" style="mix-blend-mode:overlay" class="C D"><path d="M.613 1.743C.207 1.4-.02.907 0 .382c0-.2.093-.357.275-.38.214-.026.23.17.232.33a1.41 1.41 0 0 0 .743 1.228c.154.094.373.195.208.432-.15.214-.342.078-.5 0-.12-.072-.236-.155-.343-.247"/></g><g clip-path="url(#W)" transform="translate(46.057 44.505)" style="mix-blend-mode:overlay" class="C D"><path d="M1.57 1.068c-.3.357-.715.58-1.174.614-.163.014-.365 0-.392-.238s.175-.252.31-.272c.508-.066.94-.402 1.13-.877.066-.14.152-.367.367-.27.25.11.166.357.092.536-.094.18-.206.35-.334.51"/></g><g clip-path="url(#X)" transform="translate(58.043 38.049)" style="mix-blend-mode:overlay" class="C D"><path d="M2.142.555c-.476.497-1.196.675-1.85.46C.135.94-.054.857.015.64s.24-.124.4-.1c.48.138.994.001 1.342-.355.135-.153.312-.28.48-.093s.03.354-.093.462"/></g><g clip-path="url(#Y)" transform="translate(39.99 41.476)" style="mix-blend-mode:overlay" class="C D"><path d="M2.32.815a.23.23 0 0 1-.358.042 1.49 1.49 0 0 0-1.6-.182C.216.738.12.722.038.603c-.093-.135 0-.24.084-.33A1.77 1.77 0 0 1 2.278.49c.066.095.08.217.04.325"/></g><g clip-path="url(#Z)" transform="translate(65.215 34.441)" style="mix-blend-mode:overlay" class="C D"><path d="M2.2.497a1.82 1.82 0 0 1-1.893.539C.144.97-.04.887.008.674.065.438.285.49.44.53.93.675 1.462.537 1.82.17c.126-.115.275-.273.437-.078.138.166.01.32-.06.4"/></g><g clip-path="url(#a)" transform="translate(55.177 25.894)" style="mix-blend-mode:overlay" class="C D"><path d="M.412.318c.03-.035.06-.072.094-.1C.637.086.766-.1.973.08c.183.162.05.312-.065.444a1.43 1.43 0 0 0-.312 1.394c.04.145.137.327-.073.4-.23.08-.357-.11-.416-.282A1.74 1.74 0 0 1 .241.548C.293.47.35.395.412.324"/></g><g clip-path="url(#b)" transform="translate(35.055 46.731)" style="mix-blend-mode:overlay" class="C D"><path d="M2.143.293c.185.156.273.308.186.458-.107.188-.28.08-.413.007A1.37 1.37 0 0 0 .487.712C.344.793.147.88.033.662s.08-.317.21-.415a1.8 1.8 0 0 1 1.9.047"/></g><g clip-path="url(#c)" transform="translate(62.247 32.601)" style="mix-blend-mode:overlay" class="C D"><path d="M.47.103a1.83 1.83 0 0 1 .24 2.1c-.087.11-.19.18-.324.124-.06-.02-.1-.068-.134-.128s-.02-.128.01-.185a1.49 1.49 0 0 0-.2-1.626C.017.342-.004.277.005.213S.053.093.11.062C.162.016.23-.006.3.002s.132.045.173.102"/></g><g clip-path="url(#d)" transform="translate(52.879 28.409)" style="mix-blend-mode:overlay" class="C D"><path d="M.728.198a1.34 1.34 0 0 0-.338-.2l-.4.42C.175.46.345.52.507.597c.14.065.3.2.4-.008C.996.42.853.298.73.195"/></g><g clip-path="url(#e)" transform="translate(44.355 41.597)" style="mix-blend-mode:overlay" class="C D"><path d="M.895 1.814a.81.81 0 0 1-.137.117c-.225.1-.452.447-.69.157s.166-.366.3-.51A1.42 1.42 0 0 0 .809.436C.8.253.773.01 1.037.002c.23-.006.293.208.306.4a2.09 2.09 0 0 1-.447 1.407"/></g><g clip-path="url(#f)" transform="translate(62.224 36.27)" style="mix-blend-mode:overlay" class="C D"><path d="M.42.204C.54.076.67-.08.858.045c.227.147.05.3-.04.435C.514.89.45 1.432.65 1.902c.063.152.143.363-.082.443-.19.07-.31-.084-.4-.246A1.8 1.8 0 0 1 .42.199"/></g><g clip-path="url(#g)" transform="translate(41.762 44.398)" style="mix-blend-mode:overlay" class="C D"><path d="M.694 1.566A1.83 1.83 0 0 1 .006.413C-.018.22.023.06.228.013c.23-.055.237.123.274.28.072.528.456.96.97 1.094.157.04.3.114.252.323-.062.225-.257.222-.42.175a1.6 1.6 0 0 1-.613-.317"/></g><g clip-path="url(#h)" transform="translate(61.842 40.493)" style="mix-blend-mode:overlay" class="C D"><path d="M.237.547L.487.6l.5-.508A1.42 1.42 0 0 1 .371.03C.214-.02.046-.032.007.2-.014.268 0 .35.043.42s.114.114.194.128"/></g><g clip-path="url(#i)" transform="translate(39.181 48.721)" style="mix-blend-mode:overlay" class="C D"><path d="M.513 2.247c-.043.066-.11.11-.19.123S.168 2.36.107 2.3c-.055-.033-.092-.09-.103-.152S.01 2.03.05 1.98A1.4 1.4 0 0 0 .118.389C.04.234.052.12.202.034s.237 0 .33.1a1.88 1.88 0 0 1-.018 2.119"/></g><g clip-path="url(#j)" transform="translate(51.639 48.992)" style="mix-blend-mode:overlay" class="C D"><path d="M1.812.068c.164.2.1.358-.125.42a1.4 1.4 0 0 0-1.2 1.155c-.02.13-.142.148-.264.127a.27.27 0 0 1-.217-.272C-.057.878 1.075-.12 1.685.012c.045.014.09.033.13.055"/></g><g clip-path="url(#k)" transform="translate(55.245 42.161)" style="mix-blend-mode:overlay" class="C D"><path d="M.887.06c.086.086.088.224.006.313a1.46 1.46 0 0 0-.218 1.586c.036.063.042.14.017.207s-.078.122-.146.147c-.18.1-.268-.037-.347-.146A1.81 1.81 0 0 1 .521.086.27.27 0 0 1 .887.061"/></g><g clip-path="url(#l)" transform="translate(48.352 48.909)" style="mix-blend-mode:overlay" class="C D"><path d="M.513 2.12A1.93 1.93 0 0 1 .092.257C.16.096.255-.028.437.005.667.045.61.237.58.38.43.87.56 1.4.92 1.764c.134.133.33.286.134.46-.163.145-.384.07-.54-.1"/></g><g clip-path="url(#m)" transform="translate(48.791 43.382)" style="mix-blend-mode:overlay" class="C D"><path d="M.446 1.155C.248.937.104.675.026.39-.01.32-.012.234.02.16S.12.032.197.01C.37-.043.454.06.504.21c.146.513.6.878 1.134.9.19.024.4.094.35.343s-.28.174-.43.16c-.4-.035-.8-.2-1.11-.47"/></g><g clip-path="url(#n)" transform="translate(50.7 46.885)" style="mix-blend-mode:overlay" class="C D"><path d="M2.114.567a1.76 1.76 0 0 1-1.82.46C.132.99-.055.918.014.684.077.468.238.454.427.515.9.662 1.418.542 1.78.2c.144-.116.29-.316.466-.118.16.18-.014.344-.132.483"/></g><g clip-path="url(#o)" transform="translate(53.555 39.888)" style="mix-blend-mode:overlay" class="C D"><path d="M1.64.976a1.62 1.62 0 0 1-1.219.626c-.18.015-.374-.023-.415-.226-.05-.252.165-.253.335-.28A1.44 1.44 0 0 0 1.457.331c.085-.154.172-.454.437-.278.224.15.132.386 0 .58l-.252.34"/></g><g clip-path="url(#p)" transform="translate(54.365 37.557)" style="mix-blend-mode:overlay" class="C D"><path d="M2.345.71c-.16.224-.29.147-.412.07A1.4 1.4 0 0 0 .424.723C.252.817.115.814.032.642s0-.285.166-.38a1.81 1.81 0 0 1 1.914.018c.176.1.355.238.233.427"/></g><g clip-path="url(#q)" transform="translate(44.878 36.365)" style="mix-blend-mode:overlay" class="C D"><path d="M.328.005C.31.002.294.001.277 0l-.278.244a.24.24 0 0 0 .128.167c.528.273.847.83.816 1.424-.001.073.03.143.087.2s.13.067.202.055c.16-.017.193-.134.208-.27A1.8 1.8 0 0 0 .858.299a1.14 1.14 0 0 0-.53-.294"/></g><g clip-path="url(#r)" transform="translate(53.821 45.701)" style="mix-blend-mode:overlay" class="C D"><path d="M1.423.483c.22.204.383.46.474.747.047.076.06.167.038.253s-.08.16-.157.203c-.223.106-.313-.088-.367-.248A1.25 1.25 0 0 0 .329.525C.155.5-.03.42.003.198c.035-.244.26-.2.417-.183.375.043.727.207 1 .468"/></g><g clip-path="url(#s)" transform="translate(58.349 33.554)" style="mix-blend-mode:overlay" class="C D"><path d="M.502 1.215L.042.457A.3.3 0 0 1 .193.025c.18-.083.267.056.3.2.175.542.672.914 1.24.93.168.024.29.066.254.25a.29.29 0 0 1-.3.245A2.51 2.51 0 0 1 .504 1.22"/></g><g clip-path="url(#t)" transform="translate(45.831 54.75)" style="mix-blend-mode:overlay" class="C D"><path d="M.204 2.17l.4-.4C.466 1.328.546.846.82.47.9.346 1.06.22.87.07.654-.1.535.1.426.196-.01.72-.118 1.445.144 2.075l.057.1"/></g><g clip-path="url(#u)" transform="translate(44.858 47.899)" style="mix-blend-mode:overlay" class="C D"><path d="M2.25.98c-.136.144-.255.065-.367-.034A1.38 1.38 0 0 0 .41.618C.268.667.083.678.017.472c-.072-.228.09-.3.26-.37A1.81 1.81 0 0 1 2.15.52c.16.173.2.34.1.458"/></g><g clip-path="url(#v)" transform="translate(52.082 42.599)" style="mix-blend-mode:overlay" class="C D"><path d="M.877.71c-.286.297-.412.714-.34 1.12.01.157.062.343-.154.382S.094 2.073.04 1.9A1.86 1.86 0 0 1 .729.109c.16-.1.362-.195.51-.01.13.165-.04.282-.148.392L.874.7"/></g><g clip-path="url(#w)" transform="translate(42.512 38.458)" style="mix-blend-mode:overlay" class="C D"><path d="M.452.462A1.8 1.8 0 0 1 .991.045c.143-.064.284-.074.374.063s.015.274-.12.352a1.37 1.37 0 0 0-.711 1.372.3.3 0 0 1-.277.328c-.2 0-.22-.177-.24-.34A1.71 1.71 0 0 1 .452.462"/></g><g clip-path="url(#x)" transform="translate(45.856 51.084)" style="mix-blend-mode:overlay" class="C D"><path d="M.59.224c.403.545.47 1.27.17 1.88-.092.17-.21.308-.4.22S.246 2.062.3 1.9A1.4 1.4 0 0 0 .096.444C-.018.308-.033.177.09.077c.16-.13.322-.084.506.147"/></g><g clip-path="url(#y)" transform="translate(38.787 44.386)" style="mix-blend-mode:overlay" class="C D"><path d="M.964.053a.25.25 0 0 1 0 .379 1.45 1.45 0 0 0-.345 1.524c.048.144.06.3-.117.352-.15.044-.257-.047-.343-.183-.317-.73-.113-1.58.5-2.088.124-.076.2-.02.3.016"/></g><g clip-path="url(#z)" transform="translate(58.113 30.116)" style="mix-blend-mode:overlay" class="C D"><path d="M1.693.454c.144.182.278.372.4.57.045.067.057.15.034.228s-.08.14-.152.172a.23.23 0 0 1-.34-.145C1.425.773.905.468.362.532.18.527.005.486.002.254S.193.03.337.013a1.98 1.98 0 0 1 1.357.443"/></g><g clip-path="url(#AA)" transform="translate(46.96 39.512)" style="mix-blend-mode:overlay" class="C D"><path d="M.542.385l.46-.328c.063-.05.146-.07.225-.054s.147.07.183.14c.037.063.043.14.017.208s-.08.122-.15.146a1.33 1.33 0 0 0-.751 1.311c0 .14.02.345-.22.35s-.276-.183-.3-.354A2 2 0 0 1 .539.384"/></g><g clip-path="url(#AB)" transform="translate(41.966 52.042)" style="mix-blend-mode:overlay" class="C D"><path d="M.56 1.2C.328.995.15.746.038.466c-.084-.145-.04-.33.1-.42.2-.12.305.05.36.185.198.515.676.87 1.226.91.157.02.293.1.255.27s-.16.234-.356.226C1.23 1.6.853 1.454.556 1.19"/></g><g clip-path="url(#AC)" transform="translate(50.143 40.347)" style="mix-blend-mode:overlay" class="C D"><path d="M2.053.604C1.636 1.1.986 1.308.36 1.172c-.192-.04-.395-.1-.355-.35S.278.644.428.666C.9.75 1.38.586 1.705.234 1.83.107 1.953-.12 2.16.08s0 .365-.105.523"/></g><g style="mix-blend-mode:overlay" fill="#1d1d1b"><path d="M33.16 1.526c.373.015.72.197.946.494s.307.68.222 1.044a.96.96 0 0 1-1.444.644 1.82 1.82 0 0 1-.9-1.024l1.174-1.158M53.546 25a2 2 0 0 1 .136 2.865c-.715.788-1.925.867-2.737.18-.828-.882-.993-2.4-.258-3.083a2.1 2.1 0 0 1 2.859.038M37.854 13.087a2.09 2.09 0 0 1-.123 2.921c-.777.785-2.074.433-2.982-.415a1.87 1.87 0 0 1-.473-1.37c.027-.503.277-.967.666-1.287a2.08 2.08 0 0 1 2.912.15m4.734 11.794a1.18 1.18 0 0 1-1.948-.189c-.284-.406-.425-.894-.4-1.4a1.3 1.3 0 0 1 2.11-.892 1.67 1.67 0 0 1 .673 1.18c.047.47-.1.94-.43 1.3m-11.27-13.666c-.362-.385-.4-.788-.092-1.062.392-.354.776-.376 1.07-.064.364.385.4.8.12 1.065-.132.163-.327.263-.536.275s-.414-.066-.564-.213M45.738 13.3c-.417.376-.75.4-1.047.072-.36-.4-.393-.782-.092-1.06.394-.364.777-.38 1.085-.046.388.42.4.716.054 1.034m-6.444-5.618a.58.58 0 0 1-.748.041.7.7 0 0 1-.033-.913.48.48 0 0 1 .746-.008.65.65 0 0 1 .035.88M50.86 23.084a.48.48 0 0 1-.725-.043.62.62 0 0 1 .026-.9.5.5 0 0 1 .725.068.61.61 0 0 1-.027.875"/><path d="M47.923 15.094a.53.53 0 0 1-.82 0c-.1-.106-.15-.25-.136-.394a.51.51 0 0 1 .205-.362.54.54 0 0 1 .823-.016c.24.24.217.5-.07.775m-.95 5.578c-.12-.112-.188-.27-.186-.435s.073-.32.196-.43a.51.51 0 0 1 .734-.021.71.71 0 0 1 .006.889.49.49 0 0 1-.375.182c-.147 0-.284-.067-.375-.182m.662 7.822a.48.48 0 0 1-.36.172c-.14.002-.273-.058-.365-.163a.65.65 0 0 1-.051-.882.49.49 0 0 1 .753.008.59.59 0 0 1 .023.865m-1.81 2.384c.12.113.187.274.18.44s-.088.32-.22.422c-.092.098-.22.15-.355.146s-.26-.067-.345-.17c-.25-.25-.255-.654-.012-.9a.48.48 0 0 1 .749.072m-2.74-13.34c.244.236.26.622.034.877a.49.49 0 0 1-.723.011.63.63 0 0 1-.065-.87.49.49 0 0 1 .372-.183c.145-.003.284.057.38.165m-6.12 2.77c-.106.114-.253.18-.408.186s-.307-.052-.42-.158a.55.55 0 0 1 .061-.767.56.56 0 0 1 .426-.206c.166-.002.323.07.43.196.2.223.18.483-.1.75m-6.2-12.943c-.1.105-.223.166-.36.166s-.27-.06-.36-.166A.63.63 0 0 1 30 6.499a.5.5 0 0 1 .75.005.6.6 0 0 1 .193.43c.003.163-.064.322-.182.436m9.072 11.118a.66.66 0 0 1-.059-.9.54.54 0 0 1 .768.028c.118.115.18.274.175.44a.57.57 0 0 1-.207.424c-.24.215-.474.266-.677.013"/><path d="M48.082 25.22a.45.45 0 0 1-.354.183.44.44 0 0 1-.358-.174.72.72 0 0 1-.051-.893c.245-.195.6-.16.805.076s.186.593-.042.807m-2.15-2.252c-.086-.053-.142-.143-.15-.244s.03-.2.107-.266c.175-.136.425-.1.57.057.066.066.1.157.096.25s-.048.18-.12.24a.31.31 0 0 1-.26.105c-.1-.008-.187-.06-.24-.142m3.542-3.787a.3.3 0 0 1 .005.461c-.062.077-.156.123-.255.125a.34.34 0 0 1-.26-.114.35.35 0 0 1-.066-.516.4.4 0 0 1 .576.043m-5.92 6.438c-.16-.136-.214-.335-.073-.474.176-.155.443-.14.6.035a.34.34 0 0 1 .097.25c-.003.094-.045.18-.116.24a.32.32 0 0 1-.508-.051M34.5 10.563a.4.4 0 0 1-.031.545c-.062.07-.15.1-.245.112s-.183-.037-.247-.106c-.078-.063-.122-.16-.12-.26s.05-.194.13-.254c.063-.073.152-.118.248-.124a.37.37 0 0 1 .263.087M35.87 21.97c-.064.062-.15.097-.24.095s-.175-.04-.237-.103a.4.4 0 0 1 .016-.562c.168-.185.362-.1.5.038.16.168.092.354-.04.532m2.358.234a.35.35 0 0 1 .517-.069.37.37 0 0 1 .108.284c-.006.106-.056.204-.138.27-.06.07-.15.1-.242.108s-.18-.047-.237-.12a.3.3 0 0 1-.008-.473M45.95 26.2c-.12-.144-.18-.348-.022-.475a.41.41 0 0 1 .565.068.32.32 0 0 1-.018.488c-.175.152-.36.085-.524-.08m-9.563-14.936c-.05.075-.136.12-.226.12s-.175-.045-.226-.12a.32.32 0 0 1-.13-.235.3.3 0 0 1 .1-.253.38.38 0 0 1 .27-.143c.107-.008.2.026.3.097.16.15.117.36-.064.535m14.614 10.466c-.068-.06-.106-.145-.106-.235s.04-.176.106-.235a.37.37 0 0 1 .553.043c.176.168.12.327-.03.473-.18.177-.35.128-.525-.045m-10.97-10.107c.176.15.1.332-.026.458a.38.38 0 0 1-.539-.533c.084-.068.192-.098.3-.084s.203.072.266.16m2.735-2.274c.085.062.136.16.138.267s-.047.206-.13.27c-.15.152-.315.2-.47.018a.38.38 0 0 1 .011-.557c.055-.067.138-.106.226-.106s.17.04.226.106m-.585 18.347a.31.31 0 0 1-.256.14c-.103 0-.2-.048-.26-.132-.142-.15-.2-.314-.043-.478.07-.08.173-.123.28-.12s.206.05.274.132c.074.052.118.137.12.227a.28.28 0 0 1-.113.23m6.252-10.792c-.2.2-.364.2-.53.02-.14-.15-.2-.316-.04-.477.073-.076.175-.118.28-.115s.205.05.274.128a.28.28 0 0 1 .016.443m.607 11.94c.06-.068.15-.106.24-.105s.178.043.236.114a.35.35 0 0 1-.019.522c-.06.073-.146.118-.24.122a.33.33 0 0 1-.25-.1c-.083-.07-.13-.175-.123-.284s.063-.208.154-.268m-.688 3.008c-.184.2-.38.2-.528.03a.34.34 0 0 1 .005-.491c.062-.078.154-.127.254-.133s.198.03.27.1c.076.06.12.15.12.247s-.044.187-.12.247m-9.425-6.92c-.193-.205-.237-.4-.067-.55a.4.4 0 0 1 .557.051.35.35 0 0 1-.015.474.35.35 0 0 1-.474.026m-7.247-8.355c.085.06.14.157.146.262s-.033.207-.1.28a.3.3 0 0 1-.474.034c-.082-.067-.13-.167-.133-.274a.36.36 0 0 1 .12-.28c.05-.073.13-.12.22-.123s.174.033.23.1"/><path d="M42.77 20.198c-.212.22-.376.2-.54.025-.14-.15-.2-.315-.037-.475a.39.39 0 0 1 .283-.11c.106.003.204.05.274.128.068.05.1.127.113.2s-.03.165-.094.22M34.716 18.5c-.15-.164-.206-.366-.056-.5a.4.4 0 0 1 .562.053c.07.06.1.15.1.244s-.045.18-.117.24c-.175.17-.352.1-.5-.04m3.02-12.753a.37.37 0 0 1-.01.52.3.3 0 0 1-.473.012c-.08-.07-.124-.17-.124-.274s.045-.205.124-.274c.16-.17.323-.1.487.016m15.405 17.43c.07.06.1.147.112.238s-.036.18-.103.243c-.07.07-.165.107-.263.1s-.188-.056-.247-.135c-.152-.147-.22-.364-.053-.508a.4.4 0 0 1 .555.062M36.4 4.4c.14.147.136.377-.006.52-.053.077-.14.124-.232.127s-.182-.038-.24-.1c-.08-.067-.128-.167-.13-.272s.042-.206.12-.276c.16-.172.32-.107.487.01m-4.39 4.124c-.08-.05-.133-.13-.145-.224a.3.3 0 0 1 .086-.252.42.42 0 0 1 .594.042.32.32 0 0 1-.043.482.3.3 0 0 1-.492-.048m-1.798 4.2a.29.29 0 0 1-.126-.236c-.001-.094.043-.184.12-.24.078-.073.184-.1.3-.1a.36.36 0 0 1 .267.15.33.33 0 0 1 .095.252.32.32 0 0 1-.127.237c-.074.068-.174.1-.274.088a.34.34 0 0 1-.244-.152m-.285-2.756c-.2.2-.36.17-.5.008a.35.35 0 0 1 .012-.521.31.31 0 0 1 .481 0 .36.36 0 0 1 .115.257c.002.097-.037.192-.106.26"/><path d="M41.885 13.162c-.073-.056-.115-.143-.113-.235s.05-.177.127-.228c.15-.143.327-.228.507-.04a.35.35 0 0 1-.041.545.3.3 0 0 1-.48-.043m1.795 1.183c.188-.107.424-.076.578.076.07.062.1.153.106.246s-.047.18-.12.24c-.177.17-.362.094-.5-.063-.14-.13-.162-.343-.053-.5m-6.34 3.097c.118-.126.316-.133.443-.016.194.18.1.394-.036.55a.3.3 0 0 1-.475-.006c-.14-.148-.18-.312.07-.527m3.475-1.303c-.2-.235-.233-.42-.07-.553a.36.36 0 0 1 .548 0c.17.2.063.36-.084.5-.167.17-.32.13-.4.04m-8.475 2.76c-.048.077-.133.125-.224.126s-.177-.044-.227-.12a.39.39 0 0 1-.015-.535.34.34 0 0 1 .519 0c.16.15.127.355-.053.53m-1.45-14.412c-.127-.154-.227-.315-.062-.486a.36.36 0 0 1 .282-.118c.107.004.206.054.272.138a.31.31 0 0 1-.011.481c-.16.167-.327.1-.48-.016M47.3 30.03c.265.248.2.393.044.538a.3.3 0 0 1-.243.105c-.093-.005-.18-.048-.234-.122a.33.33 0 0 1-.024-.512c.06-.062.14-.098.227-.1s.17.03.23.1m-8.823-9.97c.178.138.134.3 0 .454-.062.078-.157.123-.257.12s-.192-.053-.25-.135c-.128-.136-.2-.32-.054-.48.176-.182.372-.122.56.042"/><path d="M38.28 11.025c-.167-.176-.217-.378-.07-.5a.4.4 0 0 1 .562.05.34.34 0 0 1 .076.328c-.034.115-.13.203-.247.23s-.24-.01-.322-.098m-4.2-4.458c-.16.188-.33.082-.472-.06s-.228-.3-.048-.464a.36.36 0 0 1 .547.027c.152.14.154.316-.026.5M45.816 27.5c.08.054.13.14.136.237s-.034.2-.107.252a.33.33 0 0 1-.263.107.34.34 0 0 1-.25-.134c-.077-.052-.126-.136-.134-.23a.3.3 0 0 1 .095-.247.34.34 0 0 1 .523.014m-2.273 2.54c-.12-.162-.208-.316-.02-.484a.35.35 0 0 1 .27-.098c.1.007.192.056.253.134a.31.31 0 0 1 0 .482c-.183.2-.35.086-.507-.035M27.6 12.853c-.17.134-.365.18-.5.014-.14-.17-.122-.42.042-.565a.32.32 0 0 1 .481.042c.17.173.1.353-.033.5m.732 1.418c-.054.077-.143.122-.237.12a.29.29 0 0 1-.233-.127c-.07-.06-.114-.145-.117-.238a.32.32 0 0 1 .1-.245c.07-.08.168-.127.273-.13s.206.042.278.12a.32.32 0 0 1 .087.265.33.33 0 0 1-.15.235m16.933 1.808c.127.157.102.386-.054.513-.054.068-.137.108-.224.108s-.17-.04-.224-.108c-.08-.07-.127-.17-.127-.278s.047-.208.127-.278c.157-.162.328-.115.5.038m10.586 9.79c-.152.13-.285.2-.447.028a.4.4 0 0 1-.018-.561.34.34 0 0 1 .513.034c.2.2.053.35-.05.5m-9.588-1.583a.35.35 0 0 1 .132.268c.002.104-.042.205-.12.274-.055.074-.14.12-.233.122a.31.31 0 0 1-.242-.105c-.076-.073-.117-.176-.112-.282s.055-.204.138-.27a.27.27 0 0 1 .438-.006m3.193 1.21c-.178.2-.355.132-.5-.013s-.22-.308-.057-.474c.073-.076.175-.116.28-.112s.203.054.27.136a.28.28 0 0 1 .013.462m-8.872-11.076a.28.28 0 0 1-.465-.006.32.32 0 0 1 .008-.506.35.35 0 0 1 .262-.11c.1.002.193.044.258.118.178.2.084.353-.062.5M37.596 8.3a.36.36 0 0 1-.016.537.3.3 0 0 1-.473.008c-.074-.057-.118-.144-.12-.236s.038-.182.1-.242c.12-.156.343-.186.5-.067m16.456 13.66c-.172-.187-.2-.352-.017-.5a.35.35 0 0 1 .273-.09c.1.01.2.065.247.147a.31.31 0 0 1-.016.479c-.193.18-.354.07-.487-.037M31.834 5.506a.4.4 0 0 1 .1.27c0 .1-.058.188-.136.25a.34.34 0 0 1-.48-.004.34.34 0 0 1 .004-.48.35.35 0 0 1 .254-.13c.1-.005.196.03.268.097M47.932 22.8c-.126-.16-.218-.324-.048-.488a.37.37 0 0 1 .55.038c.073.058.115.146.115.24s-.042.18-.115.24c-.18.188-.347.087-.5-.028M40.37 8.426c-.147-.167-.213-.34-.045-.493.077-.072.18-.107.286-.097s.2.064.262.15a.31.31 0 0 1-.009.479c-.187.18-.35.072-.495-.037"/><path d="M40.843 21.102c-.152.2-.325.148-.468.005s-.266-.3-.062-.5c.183-.176.366-.1.522.03.08.05.13.137.133.232s-.045.184-.125.236m-6.46-12.508a.27.27 0 0 1 .018-.448c.145-.127.325-.234.5-.043s.107.38-.05.538-.322.136-.48-.047m8.968 2.843c-.134-.16-.217-.327-.05-.487.075-.074.178-.113.283-.105a.37.37 0 0 1 .266.143c.07.06.112.148.112.24s-.04.18-.112.24c-.18.18-.35.083-.5-.03m12.055 11.89c-.127-.164-.2-.326-.02-.483a.37.37 0 0 1 .547.061.31.31 0 0 1-.021.478c-.184.167-.354.068-.506-.056m-25.232-8.563c-.13-.147-.216-.3-.04-.474a.36.36 0 0 1 .524.018c.075.055.122.14.126.235s-.034.184-.104.245c-.17.2-.344.12-.507-.024m16.982 3.753a.3.3 0 0 1-.484 0c-.147-.15-.234-.328-.036-.5s.375-.078.525.053c.076.052.12.138.12.23s-.048.177-.125.227M28.5 7.396c.072-.08.175-.123.282-.12s.208.052.276.136a.3.3 0 0 1 .008.475c-.182.2-.35.115-.5-.027s-.2-.3-.064-.462m14.15 8.56c-.183-.16-.212-.366-.053-.508s.385-.023.525.1a.31.31 0 0 1-.009.478.3.3 0 0 1-.463-.065m-9.504.428a.27.27 0 0 1-.12-.24.28.28 0 0 1 .14-.23c.157-.133.33-.22.5-.02s.07.38-.066.516c-.056.074-.145.116-.238.1a.28.28 0 0 1-.224-.137m-.033-3.023c-.1-.1-.116-.257.062-.406.154-.13.332-.237.517-.05s.1.374-.04.522-.317.162-.54-.065m11.89 5.28c-.165.2-.34.124-.5-.024-.134-.132-.22-.3-.057-.472a.36.36 0 0 1 .544.02.29.29 0 0 1 0 .477M40.516 10.8c-.08-.05-.13-.14-.13-.233s.05-.183.13-.234c.152-.133.322-.237.5-.044s.086.374-.043.52a.28.28 0 0 1-.467-.008m-8.556 3.346c.156-.127.34-.188.5-.01a.35.35 0 0 1-.055.518.3.3 0 0 1-.477-.023c-.072-.063-.1-.155-.105-.25s.055-.182.134-.235m12.78 8.11c-.14-.162-.2-.318-.038-.485.068-.072.165-.112.264-.108s.193.05.256.126a.3.3 0 0 1 .018.476c-.177.2-.344.1-.5-.01M35.85 2.886c-.224.24-.392.217-.542.067s-.252-.318-.06-.5.37-.092.526.033c.068.04.115.106.13.183s-.005.156-.054.217M27.4 9.684c.13-.1.208-.05.267.023.062.068.092.158.084.25s-.054.175-.126.23c-.1.093-.26.126-.315.04-.132-.205.132-.364.1-.544"/></g><g clip-path="url(#AD)" transform="translate(10.63 34.165)"><path transform="matrix(.746359 -.665543 .665543 .746359 -17.156 15.298)" fill="url(#AE)" d="M0 0h48.482v48.513H0z"/></g><g clip-path="url(#AF)" transform="translate(10.616 34.165)"><g opacity=".46" style="mix-blend-mode:overlay"><g clip-path="url(#AG)" transform="translate(-1.345 -3.332)" fill="#1d1d1b"><path d="M4.422 8.697c.088 1.008.112 2.02.07 3.03l.162 15.542c0 .3-.008.48-.337.477-.312 0-.262-.227-.257-.442.1-4.1-.007-8.2-.015-12.313L4 9.528c0-.12.024-.24-.094-.324l.508-.507M13.117 0l.067 4.143.05 7.567c0 .382-.072.483-.475.475l-4.5-.032c-.154 0-.453.1-.443-.252s.258-.228.445-.228l4.15.012c.27 0 .345-.017.342-.3l-.07-10.73c0-.045-.042-.1-.064-.135l.507-.507"/><path d="M8.26 4.856a12.94 12.94 0 0 0 2.333.092c.043.004.086-.01.117-.042s.047-.073.045-.116c.046-.776.013-1.555-.1-2.325l.507-.507c.097.835.124 1.677.082 2.516.037.963.01.988-.967.962-.84.034-1.683.01-2.52-.073l.507-.507M2.9 10.218a6.25 6.25 0 0 1 .09 1.8l.03 3.353c0 .154.107.394-.234.375-.3-.016-.236-.208-.236-.392q-.008-2.2-.024-4.4a1.59 1.59 0 0 0-.059-.3l.435-.435M.508 12.6c.34.1.815-.146 1 .138.165.25.058.683.062 1.034l.015 1.772c0 .137.1.317-.188.3-.223-.014-.3-.117-.3-.315V13.7c.03-.478-.132-.66-.6-.594a3.49 3.49 0 0 1-.51 0l.508-.507m6.463-6.44c.084.15.22.13.357.105.536-.1.684.15.63.65a7.81 7.81 0 0 0 0 1.107c.006.174-.01.3-.222.318-.26.025-.257-.14-.26-.318a3.3 3.3 0 0 0-.038-1.1c-.162-.425-.7 0-.98-.26l.508-.507M9.7 3.402c.024.2.133.458-.054.6-.117.095-.323.03-.453-.1l.507-.507m-3.937 26.35c-.14-.155-.286-.27-.268-.523.15-2.034.066-4.07.068-6.106 0-.373.08-.46.435-.456q6.2.067 12.383.1l4.4.038c.327 0 .422-.128.414-.453l-.054-4a1.16 1.16 0 0 1 .063-.438c.02-.047.185-.052.282-.047.174.01.152.158.152.27l.036 4.834c.007.384-.24.3-.435.3q-3.28-.012-6.557-.04-5.087-.043-10.173-.1c-.365-.005-.478.1-.467.48l.127 5.917c0 .142.125.338-.054.42s-.237-.142-.35-.215M26.036 6.53c-1.112-.557-1.116-1.6-.664-2.78.048-.25.124-.493.226-.726.2-.283.446-.45.78-.246s.322.5.1.785a1.85 1.85 0 0 0 .023 2.1c.382.593.956 1.1.86 1.9-.002.034.012.067.038.1.547.327.356.857.36 1.327q.053 6.018.1 12.037c0 .194.074.46-.226.48-.375.025-.257-.3-.26-.483q-.063-6.478-.1-12.957a.55.55 0 0 0-.185-.481c-.318-.284-.608-.6-1.056-1.047M37.6 27.17a.38.38 0 0 1 .067.322c-.05.18-.183.1-.3.1-1.67 0-3.34 0-5-.013q-6-.038-11.978-.086c-.118.008-.236.003-.353-.015-.175-.04-.475.17-.475-.247 0-.468.342-.244.513-.244l6.466.046q5.354.045 10.708.083a.75.75 0 0 1 .352.052M18.498 38.534a.37.37 0 0 1-.313.105l-2.528.025c-.177 0-.38.038-.392-.255s.134-.34.378-.333l2.042.052c.282.014.353-.062.342-.34l-.016-1.934c-.007-.306.035-.453.417-.425.66.05 1.324.007 1.986.02.24.005.32-.05.3-.315l-.014-2.12c0-.167.014-.275.187-.278.156 0 .3.047.3.254l.026 2.73c0 .254-.22.214-.382.214-.664 0-1.328 0-2-.025-.28-.012-.342.1-.335.337l.026 1.973a2.54 2.54 0 0 1-.034.317m14.214-3.38c-.102-.037-.208-.063-.316-.078-.63-.01-1.262.005-1.9-.016-.33-.012-.486.033-.46.437.044.653 0 1.313 0 1.97 0 .162.048.3-.2.3s-.282-.134-.283-.317l-.02-2.548c-.006-.295.162-.335.388-.332l1.886.03c.373.025.462-.133.455-.45l-.034-1.813c-.02-.334.073-.47.412-.46q1.2.03 2.42.025c.2 0 .328-.006.355.238.03.3-.154.243-.323.243-.66 0-1.322.01-1.982-.013-.323-.013-.413.088-.4.4l.008 1.976c0 .1-.01.2-.024.4M6.402 10.633c-.107.092-.04.2-.04.294v2.03c0 .122.132.324-.158.327-.206 0-.312-.058-.313-.288l-.03-2.6c0-.262.13-.3.356-.294l1.83.028c.424.028.555-.135.54-.53L8.55 7.78c-.02-.313.107-.378.373-.375q1.268.018 2.537.018c.17 0 .287.006.295.234.01.255-.12.268-.314.265l-1.99-.027c-.28-.007-.43.02-.407.387.044.67-.006 1.348.016 2.022.008.252-.037.308-.3.3l-2.077-.01c-.1 0-.2-.047-.275.047m10.063 4.956a.86.86 0 0 1 .312-.015c.1.03.114.13.114.25l.013 2.08c-.01.3.08.377.357.374h1.93c.308-.006.453.038.433.417-.036.654.03 1.313.015 1.968-.006.276.055.334.335.327l2.016.025c.172 0 .332-.057.358.214.032.324-.2.273-.363.273-.842 0-1.684-.036-2.526-.022-.28 0-.3-.092-.3-.323l-.013-1.932c.027-.423-.146-.476-.5-.47-.63.014-1.26 0-1.9-.007-.175 0-.35.017-.353-.242L16.4 15.89a1.3 1.3 0 0 1 .072-.3m-2.304 9.357a.91.91 0 0 1 .023.27c-.04.2-.217.122-.335.122-1.367 0-2.736.013-4.1-.022-.414-.012-.516.106-.5.5l.043 4c0 .152.14.44-.23.45-.388.01-.263-.254-.265-.458l-.05-4.542c-.007-.36.106-.46.47-.453l4.53.05c.145-.024.294.005.42.082M36.5 22.2l.034.313.03 2.5c0 .27-.083.382-.4.38l-6.4-.05c-.158 0-.425.1-.486-.147-.076-.3.146-.353.4-.35l5.184.054c1.2.017 1.2.026 1.188-1.194l-.006-1.27c0-.115.023-.212.14-.235.105-.008.2-.005.315.01m-5.6 1.75a.54.54 0 0 1-.447.113c-1.378-.01-2.758.012-4.136-.024-.366-.008-.453.1-.418.42.01.118.014.237.01.355 0 .162-.02.3-.243.3s-.27-.1-.253-.28a.4.4 0 0 0-.006-.05c-.1-1.257-.1-1.25 1.177-1.232l3.393.03c.318.01.37-.087.365-.36l-.01-1.967c-.007-.216-.017-.365.252-.38.316-.017.227.216.23.37l.022 2.486a.57.57 0 0 0 .066.212M17.602 20.3a1.53 1.53 0 0 1-.267.042c-.828 0-1.656-.024-2.484-.015-.3 0-.358-.123-.36-.4l-.028-4.16c0-.336-.056-.43-.408-.42-.222.006-.7.208-.645-.287.04-.35.435-.165.67-.165.855 0 .855 0 .862.83l.028 3.7c0 .308.062.4.388.4l2.04.017c.117 0 .253-.036.286.13.03.113-.003.233-.086.315m3.047 17.26a.52.52 0 0 1 .337-.061l4.192.025c.352.008.4-.1.383-.393l-.008-1.92c-.007-.207-.05-.38.228-.4s.253.18.253.36l.02 2.5c.008.3-.083.35-.38.345-1.378-.027-2.758 0-4.137-.032-.354-.01-.467.07-.423.408a2.79 2.79 0 0 1 0 .457c.006.052-.01.103-.044.142s-.082.063-.134.066c-.106.012-.2.02-.276-.08a7.36 7.36 0 0 1-.013-1.408m1.507-5.58l-.463-.053c-.6-.008-1.183-.04-1.77 0-.354.024-.46-.095-.46-.417l-.007-2.423c-.006-.23.007-.354.274-.358.293-.005.206.2.2.347l.012 1.932c0 .3.028.46.415.44.67-.038 1.343.022 2.014.015.214 0 .3.018.293.26l.006 2.626c0 .142.066.32-.195.3-.216-.016-.285-.123-.282-.333v-1.88c0-.15-.03-.3-.048-.463m-3.544-20.422l.026.32-.007 1.773c-.026.468.154.6.6.577.575-.033 1.155.023 1.73 0 .325-.015.413.1.4.4v2.48c0 .14.083.314-.188.313-.235 0-.3-.118-.3-.314l-.012-1.936c0-.333-.058-.488-.457-.465-.638.037-1.28-.025-1.92-.013-.27.005-.342-.064-.338-.337l-.02-2.62c0-.112-.033-.216.107-.226a1.65 1.65 0 0 1 .35.048m13.12 25.107c-.12.106-.066.2-.065.3l.013 2.08c.007.255-.077.33-.315.326l-2.543-.022c-.164 0-.342.01-.34-.244 0-.293.173-.24.38-.237h2.018c.26.008.3-.042.3-.3V36.56c-.01-.285.02-.38.342-.37l2.435.015c.146 0 .415-.072.4.25-.01.294-.2.227-.393.224-.673-.01-1.346 0-2.018.008-.08 0-.16-.01-.217-.013m-17.24-34.32c.1.08.05.188.052.285q.033 3.806.06 7.612c0 .158.07.344-.23.338-.274 0-.247-.166-.248-.336l-.056-7.624c0-.1-.072-.292.14-.33.1-.017.2-.047.282.053M6.04 19.2l.32-.016c.168-.01.127.12.142.2.044.263-.12.6.1.78.237.2.588.07.888.076l4.088.032c.33 0 .45.078.408.425a6.09 6.09 0 0 0 0 .916c0 .144-.037.227-.2.218-.145-.007-.277-.02-.283-.2a.21.21 0 0 0 0-.05c-.082-.26.177-.63-.157-.776a2.2 2.2 0 0 0-.8-.034l-4.015-.016c-.424.007-.53-.15-.505-.522.017-.253 0-.508 0-.763 0-.08.01-.163.017-.268m10.995-9.8l.35-.023 1.674.016c.452.033.63-.07.58-.568-.06-.583-.01-1.178-.035-1.766-.012-.3.137-.4.387-.395l2.525.032c.182 0 .283.025.288.243s-.123.244-.3.24c-.186-.006-.422.062-.547-.027a1.43 1.43 0 0 0-1.535-.02c-.244.105-.347.178-.328.462l.035 1.764c.016.345-.137.5-.452.512-.833.006-1.666-.006-2.5-.012-.107 0-.218-.022-.245-.136-.04-.117-.003-.246.095-.322m-8.628 6.044a4.47 4.47 0 0 1 .017.557c-.03.35.028.513.462.507l4.67.03c.257 0 .36.053.34.328-.023.32 0 .645 0 .967.01.068-.01.138-.058.188s-.115.076-.184.07c-.178.01-.2-.093-.235-.248-.057-.266.166-.635-.152-.783a2.09 2.09 0 0 0-.807-.045l-4.124-.02c-.292 0-.4-.1-.4-.36l-.01-.905c0-.114.01-.25.164-.276.107-.01.215-.013.322-.01m25.57 13.774a1.1 1.1 0 0 1 .044.22l-.01.958c-.005.125.066.32-.2.287-.2-.02-.255-.07-.27-.27-.057-.8-.066-.8-.882-.8l-4.16-.022c-.34 0-.46-.083-.417-.432a4.94 4.94 0 0 0 0-.86c-.01-.154-.017-.28.184-.277.175 0 .294.08.3.27.007.27-.157.633.1.78.274.078.56.093.842.046q2.025.013 4.05.02a.64.64 0 0 1 .417.085m-4.56-6.525c-.1.105-.193.06-.275.057-.32-.007-.64 0-.96 0-.12 0-.292.085-.294-.143 0-.185.05-.316.284-.337.264-.023.623.2.77-.122.06-.263.067-.535.02-.8l-.055-4.107c-.006-.313.084-.46.42-.43a7.92 7.92 0 0 0 .813.013c.193 0 .322.044.33.274.01.25-.145.212-.3.2-.1-.007-.2.025-.3.01-.36-.055-.475.086-.466.45l.053 4.44c0 .177-.026.355-.036.495m1.24 10.2c.092.083.12.216.068.328-.062.167-.223.14-.35.14-.678 0-1.355-.017-2.032-.023l-4.482-.042c-.166 0-.407.085-.407-.228 0-.295.235-.252.4-.252q3.248.015 6.5.05c.1 0 .242-.04.3.025m-12.4-3.475c-.1.13-.183.063-.26.064h-2.732c-.13 0-.222 0-.2-.2.02-.22.122-.3.323-.3l1.88.033c.385.018.556-.088.53-.5-.04-.6-.024-1.186-.022-1.78 0-.194-.042-.434.288-.417.3.015.2.245.2.38l.018 2.452-.01.262m4.35-13.343a.56.56 0 0 0-.061.341l.016 1.933c0 .166.064.38-.262.374-.3 0-.2-.183-.213-.34l-.04-2.434c0-.264.06-.437.4-.424l2.435.03c.193 0 .376-.022.385.254.01.342-.256.214-.4.218h-1.92c-.116-.02-.236-.002-.34.05m-9.977 5.274c.127-.136.247-.07.363-.07l4.965.022c.182 0 .408-.023.413.254.006.306-.23.227-.4.226-1.643 0-3.286-.008-4.93-.023-.135 0-.327.052-.393-.143a.89.89 0 0 1-.014-.265m4.375-7.796c.07.083.098.194.076.3-.052.2-.2.16-.326.16q-1.375 0-2.75-.014c-.665 0-1.33-.01-2-.025-.15 0-.362.074-.356-.22 0-.248.145-.265.337-.264q2.366.025 4.732.042c.1 0 .2.01.285.016m-6.308 12.985a3.77 3.77 0 0 1 .419-.042l4.558.048c.2 0 .425-.076.413.263s-.262.208-.413.208c-1.557 0-3.115-.023-4.672-.034-.14 0-.3.024-.337-.14a.87.87 0 0 1 .032-.3M18.9 24.77a1.36 1.36 0 0 1 .084.352c0 .143-.156.12-.24.12l-3.7-.046c-.2 0-.266-.113-.257-.284s.127-.2.283-.2l3.477.01a2.62 2.62 0 0 1 .354.048m5.87.065c.078.078.1.192.084.3-.02.15-.137.134-.232.134-.934 0-1.867-.007-2.8 0-.215 0-.25-.115-.263-.3-.01-.154.047-.217.2-.216l2.893.032c.042.007.083.02.12.04m-.398 3.463c.17.243.078.492.084.716.024.8.007.8-.78.793-.337 0-.673-.01-1-.015-.172 0-.28-.056-.272-.26s.12-.246.3-.225c.132.015.268-.008.4 0 .834.02.834.02.9-.776.007-.1-.087-.257.113-.27a1.26 1.26 0 0 1 .273.04M9.738 18.3a2.04 2.04 0 0 0-.613-.06c-.164-.008-.452.075-.434-.266.016-.3.236-.2.413-.212 1.153-.012 1.153-.014 1.15 1.142l.008.66c.01.183-.03.275-.247.264-.2-.01-.26-.07-.253-.26v-.967c0-.1-.014-.2-.022-.3m27.646 18.23a.51.51 0 0 1 .044.394c-.02.157-.15.172-.268.174a6.62 6.62 0 0 1-.955-.01c-.337-.05-.38.1-.357.37.01.118-.013.238 0 .355.016.187.02.345-.238.344s-.238-.18-.245-.35c-.05-1.218-.05-1.215 1.17-1.214.284 0 .567-.038.85-.06m-9.97-6.01a.32.32 0 0 1-.3.1c-.13-.02-.144-.117-.14-.23v-.458c0-.84 0-.848-.84-.893-.172-.01-.265-.028-.233-.22.022-.13-.06-.34.214-.27h.05c1.255-.07 1.262-.07 1.28 1.194a1.81 1.81 0 0 1-.035.783m-1.6-11.133l.02.26q.01 1.275.017 2.55c0 .148.05.314-.2.32s-.284-.125-.285-.32l-.02-2.6c0-.1 0-.248.155-.284.1-.043.233-.015.314.07M7.12 14.294l.03.27.016 1.427c0 .2-.03.306-.274.318-.277.015-.2-.157-.207-.3l-.01-.406c0-.8 0-.8-.777-.9-.167-.02-.292-.018-.292-.242s.15-.233.3-.235l.9.014c.1.01.2.025.3.047m13.624-3.185c-.5-.145-.57.075-.546.458l.02 1.9c0 .167.052.346-.232.343-.26 0-.253-.158-.254-.336l-.02-2.187c-.015-.375.115-.48.46-.375.17.05.376-.03.574.206m-3.382.194l.032.308.007.763c-.007.187.077.454-.244.454s-.27-.28-.237-.45c.106-.567-.16-.7-.655-.638-.2.026-.424.062-.425-.258s.264-.2.408-.22c.284-.02.568-.02.852 0a2.04 2.04 0 0 1 .26.039M21.93 30.32a.37.37 0 0 1 .12.39c.007.144-.072.162-.192.16-.372-.006-.744 0-1.117 0-.26 0-.267-.253-.232-.372.116-.385-.25-.85.18-1.16.113-.082.315-.093.3.17a1.88 1.88 0 0 1 .012.3c-.1.5.125.655.585.577l.34-.065M11.13 17.673l.22-.017c1.27-.147 1.4-.032 1.36 1.24-.005.208-.047.316-.28.324-.266.01-.2-.17-.2-.3a.8.8 0 0 1-.017-.2c.085-.457-.1-.608-.555-.575-.172.012-.57.193-.5-.3-.001-.056-.01-.113-.024-.167M9.488 14.54a1.45 1.45 0 0 1 .038.3c-.015.087-.092.15-.18.146-.066 0-.134-.023-.2-.022-1.26.014-1.353-.1-1.185-1.352.013-.092 0-.236.152-.195.114.03.3-.06.325.154.005.033.005.067 0 .1-.15.708.2.9.836.832a.95.95 0 0 1 .21.03m5.144-3.333l-.1.537c-.055.4.123.56.518.512a1.97 1.97 0 0 1 .406.008c.216.017.123.195.148.308.03.145-.057.175-.175.168-.05 0-.1-.012-.15-.01-1.325.01-1.328 0-1.234-1.3.01-.122 0-.25.17-.25.1 0 .193.01.417.024m14.068 19.445l.033.975c.056.45-.135.588-.555.544a6.83 6.83 0 0 0-.755-.01c-.2 0-.247-.1-.253-.288-.007-.23.144-.17.26-.194a.28.28 0 0 1 .1-.013c.6.125.8-.14.7-.716-.017-.108-.062-.28.093-.33a1.04 1.04 0 0 1 .367.033m-3.79-13.497a1.05 1.05 0 0 1 .056.594c-.02.334.036.5.443.46.174-.01.628-.256.615.225-.01.422-.378.23-.6.23-.92 0-.92 0-.917-.93a2 2 0 0 1 .009-.453c.056-.234.232-.182.4-.125m14.362 16.995c-.062.078-.146.063-.23.062l-1.017-.013c-.142 0-.272 0-.257-.212.012-.167.08-.283.24-.25.746.147.92-.232.82-.87-.022-.147.077-.173.172-.195.098-.037.208-.008.275.072a6.85 6.85 0 0 1 0 1.405M19.13 15.887c.117.1.055.205.068.3.026.183-.115.12-.2.142-.05.01-.1.013-.15.006-.52-.073-.8.067-.687.67.026.133.07.386-.242.394s-.244-.2-.235-.374v-.1c.006-.347-.115-.895.047-1 .346-.22.843-.056 1.277-.065.04.003.082.012.12.027m2.36 2.613a1.07 1.07 0 0 1 .03.554c-.01.3.028.5.415.413a2.19 2.19 0 0 1 .353.008c.187-.017.285.043.306.242.026.24-.13.23-.282.23l-1 .01a.22.22 0 0 1-.252-.248v-1.12c0-.088.012-.16.124-.184a.29.29 0 0 1 .317.09M10.564 14.77c.1-.1.2-.02.293-.02l.953-.007c.15-.008.3-.03.273.17-.01.13.03.32-.224.3l-1.1-.006c-.148 0-.208-.08-.22-.22-.008-.082-.05-.165.03-.225m-4.537 2.576c-.154-.02-.4.143-.417-.17-.023-.386-.013-.774 0-1.16 0-.074-.044-.236.14-.187.106.03.295-.047.306.1.03.438.02.878.022 1.317 0 .028-.027.06-.05.1M35.367 34.4a1.39 1.39 0 0 1 .022.233c-.001.05-.023.1-.06.135s-.088.053-.14.05c-.386 0-.774-.028-1.16-.01-.194.01-.187-.105-.188-.214s0-.267.16-.267l1.25.03a.48.48 0 0 1 .116.044m-.073-1.32a.33.33 0 0 1 .1.335c-.026.095-.055.172-.2.167-.385-.012-.77.008-1.157 0a.16.16 0 0 1-.173-.195c.007-.1-.04-.255.074-.264l1.352-.048m-15.804-8.222a2.18 2.18 0 0 1 1.486.04.2.2 0 0 1-.047.342 2.15 2.15 0 0 1-1.322-.151c-.083-.08-.175-.164-.117-.23M6.53 7.77a3.95 3.95 0 0 1 .027 1.428.32.32 0 0 1-.28.084c-.134-.01-.15-.085-.146-.207l-.01-1.113a.2.2 0 0 1 .158-.224.75.75 0 0 1 .254.031m5.47 1.667c.057.086.07.194.04.292s-.115.1-.2.1c-.37 0-.742-.008-1.113 0a.2.2 0 0 1-.229-.21c0-.083-.02-.23.12-.244a6.03 6.03 0 0 1 1.307.009c.03 0 .056.036.082.056m12.035 26.576a4.01 4.01 0 0 1-1.433-.034c-.085-.086-.052-.2-.044-.3.01-.115.1-.125.187-.125l1.155.024c.052-.004.103.014.14.052s.055.1.05.14c0 .078.033.173-.055.233m3.122-10.6c.16-.13.295-.067.425-.066h.9c.144 0 .223.046.215.2s-.04.277-.22.273l-1.094-.032c-.154 0-.223-.056-.243-.185a.69.69 0 0 1 .018-.2m2.933 5.727a4.42 4.42 0 0 1 1.406 0 .28.28 0 0 1 .089.273c-.023.128-.093.16-.2.16l-1.1-.01c-.104.012-.202-.053-.23-.154a.29.29 0 0 1 .057-.274m-13.89-21.85c-.15.056-.338.15-.42.018a.7.7 0 0 1 0-.659c.064-.122.283-.074.354.01.153.18.065.416.062.63m12.64 26.497c-.2-.056-.458.106-.644-.083-.08-.08-.118-.3.02-.356.206-.073.468-.152.65.048a.3.3 0 0 1-.026.392m-8.565-19.727a2.2 2.2 0 0 1-.054.662c-.044.117-.322.1-.38-.034a.54.54 0 0 1 .031-.608c.114-.094.277-.103.4-.02M7.847 18.34a.73.73 0 0 1-.021.615.22.22 0 0 1-.349 0 .61.61 0 0 1 0-.66c.063-.1.248-.06.373.048m30.17 13.23c.045.14.118.314-.02.38a.67.67 0 0 1-.632-.015c-.094-.06-.156-.317.024-.385a.75.75 0 0 1 .628.019M13.608 20.168a.81.81 0 0 1-.024.635c-.046.05-.113.078-.182.073s-.13-.04-.17-.097c-.122-.188-.125-.43-.006-.62.054-.1.232-.117.382.008m20.294 17.73c.06.043.1.1.1.185s-.016.15-.066.204a.58.58 0 0 1-.661 0c-.1-.054-.094-.228-.012-.314.195-.206.435-.053.63-.077m-9.028-6.97a1.16 1.16 0 0 1 .714 0c.05.044.08.108.084.175s-.022.133-.068.182a.61.61 0 0 1-.656.01c-.068-.036-.05-.235-.074-.37M10.4 13.864c-.207-.058-.428.106-.62-.062-.1-.1-.155-.305-.044-.36a.65.65 0 0 1 .659.014c.12.084.067.24.005.407m17.837 22.7c.16.158.156.34.06.4-.206.12-.46.115-.664-.01-.1-.058-.083-.228 0-.3.2-.194.428-.058.6-.078"/></g></g></g><g style="mix-blend-mode:overlay" fill="#fff"><path d="M22.86 9.8a.43.43 0 0 1 .07.3q.057 3.627.122 7.253c.005.027.005.056 0 .083-.038.1.025.268-.132.273-.18.007-.112-.165-.115-.258l-.052-2.025q-.062-2.6-.124-5.2a1.31 1.31 0 0 1 .02-.337c.03-.122.124-.132.213-.093M12.98 44.432a2.97 2.97 0 0 1-.034-.3q-.07-3.625-.14-7.252c0-.117-.02-.268.1-.276.18-.013.14.158.142.28q.08 3.647.157 7.294c0 .1.02.237-.1.294-.025.01-.072-.025-.117-.042m12.245-20.2a3.1 3.1 0 0 1 .039.325q.063 3.617.12 7.235c0 .115.1.3-.087.3s-.143-.2-.146-.332q-.076-3.6-.15-7.207a1.07 1.07 0 0 1 .022-.293c.032-.1.116-.1.2-.037m-8.29 6.06a3.95 3.95 0 0 1-.135-1.394l-.112-6.1.006-.253c-.004-.084.012-.142.1-.122.05.01.112.007.1.094s.03.167.03.252q.066 3.515.13 7.03a.64.64 0 0 1-.139.483"/><path d="M18.95 23.157c-.033 0-.087.03-.108.012a.33.33 0 0 1-.1-.269l-.12-7.228-.006-.2c.005-.1.044-.182.14-.18.122 0 .092.12.093.195l.06 2.685.082 4.656a.53.53 0 0 1-.046.335M8.782 32.04c-.24-.034-.214-.187-.216-.33l-.13-7.258c0-.1-.116-.345.114-.327.207.016.122.266.126.393q.07 2.864.107 5.728a14.13 14.13 0 0 1 0 1.794m12.197-1.407l-.06-3.554-.082-4.034c0-.127-.07-.34.117-.336.16 0 .116.2.12.353q.067 3.557.144 7.115c0 .16.08.35-.238.456m6.28-1.653c.274.185.16.445.165.644l.13 6.9a.53.53 0 0 1 .01.126c-.02.087 0 .222-.13.227-.152.005-.12-.138-.122-.222l-.043-1.94q-.05-2.7-.1-5.4a.48.48 0 0 1 .09-.34"/><path d="M31.553 30.94c-.032.012-.066.017-.1.015-.14-.032-.094-.138-.1-.235l-.062-2.648-.076-4.1c0-.12-.07-.295.1-.3.154 0 .13.2.134.313q.06 2.94.112 5.88l.008.84c0 .07.04.14-.027.215m-.234-12.673a.46.46 0 0 1 .066.263l.05 4.03c0 .112.056.3-.132.3-.16 0-.1-.156-.1-.264q-.05-2-.107-4.02c0-.107-.042-.233.087-.3a.34.34 0 0 1 .14-.006M8.967 41.818c-.053.02-.1.053-.128.042-.1-.04-.076-.14-.078-.22q-.027-1.118-.047-2.236l-.027-1.9c0-.1-.044-.22.1-.236.2-.02.124.15.127.24q.05 2.008.1 4.017a1.89 1.89 0 0 1-.036.282M12.86 27.24l.006.26q.046 1.965.092 3.93c0 .042-.015.083-.015.125 0 .1.014.227-.118.23s-.115-.13-.117-.227l-.043-2.235-.03-1.926c0-.084-.03-.18.1-.18a.64.64 0 0 1 .122.024M2.58 35.533c-.016 0-.062.018-.1 0-.1-.064-.074-.175-.076-.27q-.027-1.257-.047-2.515l-.023-1.6c0-.1-.035-.207.126-.195.12.01.106.095.108.184l.086 4.135c.02.092-.012.2-.084.25m18.306-19.357a.58.58 0 0 1-.109-.055c-.088-.07-.08-.168-.083-.268q-.02-1.053-.043-2.106l-.04-1.9c0-.1-.046-.27.106-.284.208-.02.144.18.147.282q.053 2.03.086 4.06a1.34 1.34 0 0 1-.064.268M4.714 32.5c-.163.13-.235.06-.256-.013-.025-.1-.035-.222-.03-.334l-.08-3.8c0-.113-.073-.334.126-.34.177-.006.123.2.125.3l.07 3.928a1.2 1.2 0 0 0 .046.242m6.035-7.057c-.045.01-.088.033-.117.02-.117-.043-.1-.156-.114-.25l-.05-1.552-.036-2.425c0-.126-.034-.3.1-.312.157-.016.154.16.156.287q.033 1.984.07 3.97l-.01.262M15.245 44.4c-.05.006-.1.03-.128.014-.064-.057-.096-.14-.084-.226l-.056-1.932-.033-2.14c0-.107 0-.227.107-.24s.143.1.144.213q.037 2.047.075 4.1c-.004.07-.013.14-.026.2m2.006-4.18c-.048.02-.092.055-.117.044-.086-.037-.106-.114-.107-.206l-.042-1.556-.044-2.5c0-.12-.02-.26.117-.26s.126.148.128.267l.08 3.966c0 .083-.01.166-.014.253m1.7-10.53a.29.29 0 0 1 .2.327l.066 3.96c0 .1.06.266-.08.288s-.157-.14-.158-.247q-.037-2.1-.065-4.184a.57.57 0 0 1 .04-.145m2.22 1.66c.1.086.056.175.058.255q.046 2.028.1 4.056c0 .1.006.22-.115.23s-.134-.115-.136-.214q-.04-2.036-.074-4.074c0-.094-.03-.207.086-.26.03-.014.074 0 .1.005m8.13-9.787a2.79 2.79 0 0 1 .048.336l.063 3.85c0 .124.033.3-.112.3s-.135-.177-.138-.3q-.036-1.978-.07-3.957c.005-.093.018-.186.038-.277l.17.04m6.103 4.33l-.027-.3-.078-2.884c0-.13-.028-.284.144-.3.135 0 .154.145.155.257q.027 1.495.046 3c0 .1-.008.2-.127.24a.4.4 0 0 1-.112 0m-8.266-10.28a.75.75 0 0 1 .038.175l.012 3c0 .1.07.253-.1.25-.125 0-.1-.128-.112-.232l-.07-2.983c0-.1-.044-.2.07-.268.056-.032.108-.012.172.055M14.886 26.12c-.04.017-.08.05-.112.044-.1-.024-.1-.116-.1-.2l-.04-1.854-.02-1.256c0-.1.006-.168.124-.166.087 0 .115.044.117.134l.055 3.17a.79.79 0 0 1-.024.128M10.96 36.5l.022.18.05 3.05c0 .1.032.226-.095.233-.16.01-.136-.126-.14-.243l-.06-2.948c0-.106-.047-.234.106-.28.04-.004.078-.001.115.01m5.844-19.33l.016.246.063 2.9c0 .1.044.277-.095.287-.176.012-.147-.16-.148-.287q-.02-1.48-.043-2.958c0-.08-.036-.176.07-.216.032-.012.078.014.14.027m-1.83 16.434c.07.06.106.154.093.247q.033 1.47.064 2.94c0 .1 0 .226-.12.232s-.126-.122-.13-.22q-.034-1.512-.066-3.025c0-.073 0-.147.068-.187.024-.015.072.01.1.013m4.095-6.142c-.08.082-.154.053-.182-.01a.62.62 0 0 1-.038-.243l-.064-2.824c0-.1-.074-.338.132-.338.17 0 .1.2.113.315q.04 1.4.067 2.78a2.86 2.86 0 0 1-.027.32m4.13-5.42c-.037.07-.06.144-.07.222l.066 2.868c0 .1.05.3-.1.32-.182.012-.13-.175-.132-.293q-.026-1.484-.05-2.967c0-.078-.048-.18.076-.205.036-.008.08.018.22.055m-6.127 9.362a1.1 1.1 0 0 1 .033.173l.047 3.1c0 .1.047.218-.1.226s-.125-.1-.126-.208l-.042-3.115c0-.128.055-.17.2-.168M6.824 38.45c-.044.01-.1.037-.117.024-.095-.042-.084-.143-.087-.223l-.042-1.948-.01-1.013c0-.1-.078-.257.094-.262.145 0 .146.152.148.262l.042 2.32.02.63a.95.95 0 0 1-.049.211m20.275-13.226l-.058-2.728-.015-.585c-.007-.1.018-.18.1-.194s.14.075.142.166q.03 1.562.056 3.126c0 .12-.073.172-.235.215m-7.872 10.292l.03.34.046 2.8c0 .115.044.262-.1.274s-.133-.136-.135-.25q-.03-1.48-.062-2.956c0-.1-.012-.207.1-.25.027-.01.072.02.117.033m5.77-15.48c-.1-.032-.082-.2-.085-.328l-.054-2.842c0-.1 0-.222.1-.25s.157.082.155.162l-.114 3.26M8.86 36.176c-.145.084-.2 0-.195-.113l-.023-.75-.053-2.27c0-.1-.037-.266.117-.264.136 0 .135.16.137.27q.03 1.44.054 2.883a1.45 1.45 0 0 1-.037.246M25 11.9a.87.87 0 0 1 .059.214l.015 1.13c0 .086-.01.2-.143.223-.16.014-.137-.133-.142-.2l-.037-1.224a.3.3 0 0 1 .076-.185c.042-.047.1 0 .17.05m-14.228 16.2c-.152.068-.192-.012-.2-.13l-.027-1.266c0-.092.03-.175.137-.168.05.018.1.06.1.113l.012 1.342c-.004.037-.01.073-.023.108m14.398-6.604a.92.92 0 0 1 .036.17l.024 1.164c0 .064.026.226-.14.205-.116-.014-.107-.126-.1-.2l-.024-1.214c-.008-.07.033-.138.1-.164.028-.01.072.02.112.034m-4.16-.308c-.03.016-.065.026-.1.03-.07 0-.094-.063-.1-.116l-.02-1.336c0-.036.015-.07.04-.096s.06-.038.097-.036c.073 0 .08.063.08.12q.017.67.03 1.34c-.005.032-.015.063-.03.093M6.7 31.27c-.032.01-.077.038-.1.027-.07-.02-.1-.07-.1-.158l-.023-1.3c0-.1.035-.163.13-.18.07-.012.107.055.1.1l.03 1.426c0 .023-.022.047-.04.08m6.328 3.783c-.06.017-.1.045-.133.036-.07-.016-.116-.082-.1-.153q0-.65-.024-1.3c0-.1.034-.178.128-.18s.113.1.115.184q.01.625.02 1.25v.16m1.966-2.657c-.134.088-.186-.015-.2-.113l-.016-1.34c0-.087.01-.144.1-.13.047.007.126.05.127.08l.025 1.432c0 .022-.03.045-.05.072m-4.28-.2c-.014-.016-.03-.026-.03-.036l-.036-1.5c0-.027.082-.068.13-.077.027 0 .1.044.092.07l.01 1.507c0 .05-.1.1-.168.04m.21 2.454c-.13.074-.187-.03-.193-.12l-.044-1.335c0-.045.05-.092.08-.138.046.027.13.05.133.084a8.45 8.45 0 0 1 .049 1.466c0 .012-.013.025-.024.044m-4.033 6.258c-.132.1-.193-.017-.2-.1l-.013-1.3c0-.07.028-.145.123-.137.07.006.088.06.1.12l.032 1.34c0 .024-.022.05-.036.082M23.14 29.55a2.69 2.69 0 0 1 .06 1.576c-.172-.5-.192-1.056-.06-1.576m10.223-5.28c.205.1.185.26.182.418l.02.88c0 .124.035.3-.125.3-.14.006-.136-.167-.125-.27a5.73 5.73 0 0 1 .048-1.323M2.703 37.543c-.38-.272-.216-.573-.235-.83 0-.013.065-.043.1-.042a.1.1 0 0 1 .105.1l.03.77m24.652-10.37c-.086.056-.194.024-.2-.052-.023-.232-.01-.468-.01-.7.05.01.126 0 .15.034.156.208.04.455.084.683 0 .01-.013.023-.02.038M8.992 43.942a.1.1 0 0 1-.146-.025 1.09 1.09 0 0 1 .017-.72c.02-.02.046-.03.074-.028s.053.017.068.04c.058.24.054.493-.012.732m12.342-6.62c-.062.07-.125.084-.16.036a.82.82 0 0 1-.047-.666.08.08 0 0 1 .152-.031 1.25 1.25 0 0 1 .054.661m1.956-4.224a.93.93 0 0 1-.026.75c-.06.036-.125.026-.13-.034a1.44 1.44 0 0 1 .014-.7c.014-.025.038-.04.066-.045s.056.006.076.027m-4.34-4.86c.273.224.1.485.164.7.007.03-.06.1-.1.113-.1.028-.124-.07-.125-.124a1.19 1.19 0 0 1 .065-.689m8.262-7.563c-.05.048-.113.046-.144 0a.96.96 0 0 1-.038-.687c.013-.034.045-.056.08-.056s.068.022.08.056a1.33 1.33 0 0 1 .021.7m-12.26 8.34c-.064.076-.14.1-.164.062a1.37 1.37 0 0 1-.05-.729c.01-.1.132-.082.163-.025a1.34 1.34 0 0 1 .051.692M10.8 28.88a1.37 1.37 0 0 1 0 .673c-.017.058-.164.1-.17.046a4 4 0 0 1-.014-.742c.006-.075.112-.043.182.023"/><path d="M23.2 27.398c-.042.038-.08.068-.14.02a1.08 1.08 0 0 1-.038-.716c.014-.024.037-.04.065-.044s.055.006.074.025a1.09 1.09 0 0 1 .039.715m6.227.38c-.092.038-.18.03-.187-.047-.02-.224-.12-.457.03-.668.03-.042.1-.028.134.037a1.35 1.35 0 0 1 .024.68M6.52 33.457a1.64 1.64 0 0 1 .019-.538c.004-.028.023-.052.05-.063a.08.08 0 0 1 .08.01c.114.072.1.2.094.3-.01.148.068.3-.053.44-.043.044-.1.024-.188-.147m8.558 5.51h-.128l-.012-.74c0-.047.085-.052.14-.015.1.242.1.518 0 .76m-2.345-14.653a.9.9 0 0 1 .015.754.2.2 0 0 1-.113.021 1.03 1.03 0 0 1-.051-.52c.01-.1-.067-.2.05-.265.028-.015.075.006.1.01m12.302-9.492c.068.214.068.444 0 .658a.1.1 0 0 1-.139.046.98.98 0 0 1-.025-.754c.062-.046.1 0 .162.05m-4.06 2.837l-.016.6c-.003.014-.01.026-.02.035-.065.063-.133.052-.162-.026a.95.95 0 0 1 0-.675c.032-.085.1-.044.2.075m-9.94 24.1c-.136.07-.2 0-.2-.058.012-.224-.115-.468.073-.668.028-.03.1 0 .124.07a1.54 1.54 0 0 1 0 .655m12.04-21.414c-.065.053-.13.1-.16.04a.97.97 0 0 1-.023-.691c.008-.028.032-.048.06-.05s.057.012.07.037c.14.22.055.454.052.667M4.5 34.133a1.1 1.1 0 0 1 .013-.674c.01-.027.033-.046.06-.053s.057.001.078.02a1.3 1.3 0 0 1 .012.729c-.05.044-.1.03-.164-.02"/></g></g><path d="M37.536 0a7 7 0 0 0-7 7v6.66a1.6 1.6 0 0 1-1.6 1.6h-6.663a7 7 0 0 0-7 7v6.664a1.6 1.6 0 0 1-1.6 1.6H7.006a7 7 0 0 0-7 7v8.27a22.9 22.9 0 0 0 34.35 19.832 22.9 22.9 0 0 0 11.45-19.832v-15.27H37.54a7 7 0 0 0-7 7v8.27c0 4.216-3.418 7.633-7.634 7.633S15.274 50 15.274 45.794V32.13a1.6 1.6 0 0 1 1.6-1.605h6.663a7 7 0 0 0 7-7V16.86a1.6 1.6 0 0 1 1.6-1.6h6.665a7 7 0 0 0 7-7V-.005h-8.265z" fill="url(#AH)"/></g><path fill="#61b7df" d="M818.617 3781.368h1.917v67.935h-1.917z"/></g></svg>