<svg xmlns="http://www.w3.org/2000/svg" width="82.58" height="104.345" viewBox="0 0 82.58 104.345">
  <g id="Target-industries-icon" transform="translate(-72.793 -319.794)">
    <g id="Group_587" data-name="Group 587" transform="translate(82.891 325.191)">
      <g id="Group_585" data-name="Group 585" transform="translate(45.793)">
        <path id="Path_1064" data-name="Path 1064" d="M152.552,406.028l21.125,12.331V343.744l-21.125-12.331Z" transform="translate(-152.552 -328.535)" fill="#fff" stroke="#929497" stroke-linejoin="round" stroke-width="1"/>
        <path id="Path_1065" data-name="Path 1065" d="M165.288,352.671l1.874,1.041v-5.427l-1.874-1.041Z" transform="translate(-156.381 -333.295)" fill="#6d6e70"/>
        <path id="Path_1066" data-name="Path 1066" d="M165.288,369.331l1.874,1.041v-5.427l-1.874-1.041Z" transform="translate(-156.381 -338.305)" fill="#6d6e70"/>
        <path id="Path_1067" data-name="Path 1067" d="M165.288,385.991l1.874,1.041v-5.427l-1.874-1.041Z" transform="translate(-156.381 -343.315)" fill="#6d6e70"/>
        <path id="Path_1068" data-name="Path 1068" d="M187.825,344.93l-5.065,2.878v74.615l5.065-2.878Z" transform="translate(-161.635 -332.599)" fill="#fff" stroke="#929497" stroke-linejoin="round" stroke-width="1"/>
        <path id="Path_1069" data-name="Path 1069" d="M157.616,327.3l-5.065,2.878,21.125,12.331,5.065-2.878Z" transform="translate(-152.552 -327.297)" fill="#fff" stroke="#929497" stroke-linejoin="round" stroke-width="1"/>
      </g>
      <g id="Group_586" data-name="Group 586" transform="translate(0 37.987)">
        <path id="Path_1070" data-name="Path 1070" d="M139.59,444.689V407.381L110.325,390.3s.387,36.759-23.257,23.733Z" transform="translate(-87.068 -384.229)" fill="#fff" stroke="#929497" stroke-linejoin="round" stroke-width="1"/>
        <path id="Path_1071" data-name="Path 1071" d="M172.705,406.046l-10.531,6.07v37.308l10.531-6.07Z" transform="translate(-109.652 -388.964)" fill="#fff" stroke="#929497" stroke-linejoin="round" stroke-width="1"/>
        <path id="Path_1072" data-name="Path 1072" d="M130.857,381.619l-10.531,6.07,29.265,17.082,10.531-6.07Z" transform="translate(-97.068 -381.619)" fill="#fff" stroke="#929497" stroke-linejoin="round" stroke-width="1"/>
        <path id="Path_1073" data-name="Path 1073" d="M97.6,415.556l-10.531,6.071s12.616,7.942,18.76-3.311A19.71,19.71,0,0,1,97.6,415.556Z" transform="translate(-87.068 -391.824)" fill="#fff" stroke="#929497" stroke-linejoin="round" stroke-width="1"/>
      </g>
    </g>
    <g id="Group_589" data-name="Group 589" transform="translate(73.176 320.294)">
      <path id="Path_1074" data-name="Path 1074" d="M99.832,348.74l-4.1-2.387.1-8.49,4.1,2.387a23.122,23.122,0,0,1,.937-4.022l-3.519-4.862,3.194-5.544,3.522,4.866a10.164,10.164,0,0,1,2.47-1.906l-2-6.043,5.436-1.113,2,6.037a13.117,13.117,0,0,1,3.338.725l.064-5.6,6.222,3.617-.064,5.6a31.293,31.293,0,0,1,3.311,3.141l2.1-3.653,5.34,7.378-2.107,3.657a49.558,49.558,0,0,1,2.394,4.734l3.586-.734,3.027,9.162-3.582.733a44.033,44.033,0,0,1,.834,5.052l4.106,2.387-.1,8.49-4.106-2.387a23.059,23.059,0,0,1-.937,4.022l3.519,4.862-3.194,5.544-3.522-4.866a10.163,10.163,0,0,1-2.47,1.906l2,6.043-5.436,1.112L124.3,382.55a13.15,13.15,0,0,1-3.339-.724l-.064,5.6-6.222-3.617.064-5.6a31.3,31.3,0,0,1-3.311-3.141l-2.1,3.653-5.34-7.378,2.107-3.657a49.558,49.558,0,0,1-2.394-4.734l-3.586.734-3.027-9.162,3.582-.733A44.035,44.035,0,0,1,99.832,348.74Z" transform="translate(-79.957 -320.695)" fill="#fff" stroke="#929497" stroke-linejoin="round" stroke-width="1"/>
      <path id="Path_1075" data-name="Path 1075" d="M98.727,348.83l-4.159-2.419.117-10.341,4.293,2.5a23.516,23.516,0,0,1,.646-2.6l-3.584-4.952,4.075-7.073,3.71,5.124a10.893,10.893,0,0,1,1.392-1.048l-2.077-6.286,7.024-1.438,2.055,6.219a13.749,13.749,0,0,1,1.946.385l.067-5.9,7.822,4.548-.065,5.687a31.709,31.709,0,0,1,2.345,2.178l2.186-3.793,6.373,8.807-2.137,3.709c.692,1.229,1.342,2.507,1.938,3.813l3.655-.748,3.536,10.7-3.672.751c.27,1.31.481,2.629.631,3.935L141,363l-.117,10.341-4.293-2.5a23.435,23.435,0,0,1-.646,2.6l3.584,4.952-4.075,7.073-3.709-5.124a10.894,10.894,0,0,1-1.392,1.048l2.077,6.285-7.024,1.438-2.055-6.22a13.666,13.666,0,0,1-1.946-.386l-.067,5.9-7.821-4.547.064-5.686A31.723,31.723,0,0,1,111.238,376l-2.185,3.794-6.374-8.807,2.137-3.71c-.692-1.229-1.342-2.508-1.938-3.813l-3.655.749-3.536-10.7,3.673-.751C99.09,351.456,98.878,350.137,98.727,348.83Z" transform="translate(-79.609 -320.294)" fill="#fff" stroke="#929497" stroke-linejoin="round" stroke-width="1"/>
      <path id="Path_1076" data-name="Path 1076" d="M110.438,320.294l-14.96,8.516,2.055,6.219,14.96-8.516Z" transform="translate(-79.882 -320.294)" fill="#fff" stroke="#929497" stroke-linejoin="round" stroke-width="1"/>
      <path id="Path_1077" data-name="Path 1077" d="M98.417,337.7s1.257.188,1.945.385l14.96-8.516a14.262,14.262,0,0,0-1.946-.385Z" transform="translate(-80.766 -322.968)" fill="#fff" stroke="#929497" stroke-linejoin="round" stroke-width="1"/>
      <path id="Path_1078" data-name="Path 1078" d="M109.117,334.361l14.96-8.516-7.821-4.547-14.96,8.516Z" transform="translate(-81.632 -320.596)" fill="#fff" stroke="#929497" stroke-linejoin="round" stroke-width="1"/>
      <path id="Path_1079" data-name="Path 1079" d="M127.412,327.8l-14.96,8.516L112.387,342l14.96-8.516Z" transform="translate(-84.967 -322.551)" fill="#fff" stroke="#929497" stroke-linejoin="round" stroke-width="1"/>
      <path id="Path_1080" data-name="Path 1080" d="M127.347,335.932l-14.96,8.516s1.55,1.35,2.345,2.178l14.96-8.516S128.144,336.575,127.347,335.932Z" transform="translate(-84.967 -324.996)" fill="#fff" stroke="#929497" stroke-linejoin="round" stroke-width="1"/>
      <path id="Path_1081" data-name="Path 1081" d="M133.826,333.622l-14.96,8.516,6.374,8.807,14.96-8.516Z" transform="translate(-86.915 -324.302)" fill="#fff" stroke="#929497" stroke-linejoin="round" stroke-width="1"/>
      <g id="Group_588" data-name="Group 588" transform="translate(0 8.516)">
        <path id="Path_1082" data-name="Path 1082" d="M74.334,358.53l.1-8.49,4.1,2.387a23.216,23.216,0,0,1,.937-4.022l-3.518-4.861L79.149,338l3.522,4.866a10.164,10.164,0,0,1,2.471-1.9l-2-6.043L88.58,333.8l2,6.037a13.113,13.113,0,0,1,3.338.724l.064-5.6,6.222,3.617-.064,5.6a31.162,31.162,0,0,1,3.311,3.141l2.1-3.653,5.34,7.378-2.107,3.657a49.647,49.647,0,0,1,2.4,4.734l3.586-.734,3.027,9.162-3.583.733a44.19,44.19,0,0,1,.834,5.052l4.1,2.387-.1,8.49-4.1-2.387a23.2,23.2,0,0,1-.937,4.022l3.518,4.862-3.194,5.544-3.522-4.866a10.146,10.146,0,0,1-2.471,1.9l2,6.043-5.436,1.113-2-6.036A13.116,13.116,0,0,1,99.57,394l-.064,5.6-6.222-3.617.064-5.6a31.02,31.02,0,0,1-3.311-3.141l-2.1,3.653-5.34-7.378,2.107-3.657a49.65,49.65,0,0,1-2.4-4.734l-3.586.734L75.691,366.7l3.583-.734a43.983,43.983,0,0,1-.834-5.052Z" transform="translate(-73.524 -332.873)" fill="#fff"/>
        <path id="Path_1083" data-name="Path 1083" d="M101.96,395.077a13.646,13.646,0,0,1-1.945-.386l-.067,5.9-7.822-4.547.065-5.686a31.71,31.71,0,0,1-2.345-2.178l-2.185,3.794-6.375-8.807,2.137-3.71c-.692-1.229-1.342-2.508-1.937-3.813l-3.656.749-3.535-10.7,3.672-.751c-.27-1.309-.482-2.628-.631-3.934l-4.159-2.419.117-10.341,4.294,2.5a23.21,23.21,0,0,1,.646-2.6l-3.585-4.952,4.075-7.073,3.71,5.124a10.893,10.893,0,0,1,1.392-1.048l-2.077-6.286,7.024-1.438,2.055,6.219a13.721,13.721,0,0,1,1.945.385l.067-5.9,7.822,4.548-.065,5.687a31.716,31.716,0,0,1,2.345,2.178l2.186-3.793L111.5,350.6l-2.137,3.709c.692,1.229,1.341,2.507,1.937,3.813l3.656-.748,3.535,10.7-3.672.751c.27,1.31.482,2.629.631,3.935l4.159,2.418-.117,10.341-4.294-2.5a23.285,23.285,0,0,1-.646,2.6l3.585,4.952-4.075,7.072-3.71-5.124a10.883,10.883,0,0,1-1.392,1.048l2.077,6.285-7.024,1.438Zm5.059-2.254.59-.322a9.329,9.329,0,0,0,2.274-1.755l.668-.7,3.359,4.641,2.314-4.015-3.456-4.775.131-.392a22.364,22.364,0,0,0,.9-3.883l.172-1.178,3.941,2.292.076-6.641-4.052-2.356-.043-.406a43.28,43.28,0,0,0-.818-4.96l-.18-.8,3.5-.715-2.519-7.622-3.52.72-.262-.594a49.017,49.017,0,0,0-2.356-4.657l-.232-.4,2.079-3.607-4.306-5.948-2.034,3.529-.743-.812a30.428,30.428,0,0,0-3.225-3.06l-.3-.245.063-5.521-4.622-2.687-.06,5.341-1.059-.369a12.368,12.368,0,0,0-3.134-.683l-.535-.04-1.939-5.867-3.848.787,1.924,5.821-.59.322a9.355,9.355,0,0,0-2.274,1.755l-.668.7-3.359-4.641-2.314,4.015,3.457,4.775-.132.393a22.31,22.31,0,0,0-.9,3.882l-.172,1.178-3.941-2.291-.076,6.64,4.052,2.357.043.406a43.238,43.238,0,0,0,.818,4.959l.18.8-3.5.716,2.519,7.622,3.52-.72.262.594a49.28,49.28,0,0,0,2.356,4.657l.232.4L83.2,383.069l4.3,5.949,2.034-3.529.743.811a30.5,30.5,0,0,0,3.225,3.061l.3.245-.063,5.52,4.622,2.687.06-5.341,1.059.369a12.3,12.3,0,0,0,3.134.682l.535.041,1.939,5.867,3.848-.787Z" transform="translate(-73.176 -332.472)" fill="#49b5d8"/>
      </g>
      <path id="Path_1084" data-name="Path 1084" d="M147.883,355.9l-14.96,8.516,3.535,10.7,14.96-8.516Z" transform="translate(-91.142 -331.002)" fill="#fff" stroke="#929497" stroke-linejoin="round" stroke-width="1"/>
      <path id="Path_1085" data-name="Path 1085" d="M142.022,346.216l-14.96,8.516-2.137,3.709,14.96-8.516Z" transform="translate(-88.737 -328.089)" fill="#fff" stroke="#929497" stroke-linejoin="round" stroke-width="1"/>
      <path id="Path_1086" data-name="Path 1086" d="M139.884,351.52l-14.959,8.516s1.43,2.664,1.937,3.813l14.96-8.516S140.258,352.04,139.884,351.52Z" transform="translate(-88.737 -329.684)" fill="#fff" stroke="#929497" stroke-linejoin="round" stroke-width="1"/>
      <path id="Path_1087" data-name="Path 1087" d="M142.655,356.651l-14.96,8.516,3.656-.748,14.96-8.516Z" transform="translate(-89.57 -331.002)" fill="#fff" stroke="#929497" stroke-linejoin="round" stroke-width="1"/>
      <path id="Path_1088" data-name="Path 1088" d="M154.488,381.364l-14.96,8.516-.117,10.34,14.96-8.516Z" transform="translate(-93.093 -338.658)" fill="#fff" stroke="#929497" stroke-linejoin="round" stroke-width="1"/>
      <path id="Path_1089" data-name="Path 1089" d="M148.319,376.733l-14.96,8.516s-.371-2.676-.631-3.935l3.672-.751,11.52-6.557S148.183,375.491,148.319,376.733Z" transform="translate(-91.083 -336.445)" fill="#fff" stroke="#929497" stroke-linejoin="round" stroke-width="1"/>
      <path id="Path_1090" data-name="Path 1090" d="M148.59,377.906l-14.96,8.516,4.16,2.418,14.96-8.516Z" transform="translate(-91.355 -337.618)" fill="#fff" stroke="#929497" stroke-linejoin="round" stroke-width="1"/>
      <path id="Path_1091" data-name="Path 1091" d="M150.891,402.078l-14.96,8.516-3.584-4.952,2.589-1.474,2.351,1.368,11.408-6.494Z" transform="translate(-90.969 -343.974)" fill="#fff" stroke="#929497" stroke-linejoin="round" stroke-width="1"/>
      <path id="Path_1092" data-name="Path 1092" d="M134.936,405.887l-1.943-1.127a25.738,25.738,0,0,1-.646,2.6Z" transform="translate(-90.969 -345.693)" fill="#fff" stroke="#929497" stroke-linejoin="round" stroke-width="1"/>
      <path id="Path_1093" data-name="Path 1093" d="M150.68,403.383,135.72,411.9l-4.075,7.073,14.96-8.516Z" transform="translate(-90.758 -345.279)" fill="#fff" stroke="#929497" stroke-linejoin="round" stroke-width="1"/>
      <path id="Path_1094" data-name="Path 1094" d="M141.387,416.48,126.428,425l-2.077-6.285,1.524-.867,3.578,4.943,11.8-6.717Z" transform="translate(-88.564 -349.094)" fill="#fff" stroke="#929497" stroke-linejoin="round" stroke-width="1"/>
      <path id="Path_1095" data-name="Path 1095" d="M125.743,418.347a13.333,13.333,0,0,1-1.392,1.048l1.523-.867Z" transform="translate(-88.564 -349.779)" fill="#fff" stroke="#929497" stroke-linejoin="round" stroke-width="1"/>
      <path id="Path_1096" data-name="Path 1096" d="M107.418,320.294l-7.024,1.437-14.96,8.516,7.024-1.437Z" transform="translate(-76.862 -320.294)" fill="#fff" stroke="#929497" stroke-linejoin="round" stroke-width="1"/>
      <path id="Path_1097" data-name="Path 1097" d="M81.108,336.915l3.159-1.8,1.942,5.875a15.68,15.68,0,0,0-1.392,1.048Z" transform="translate(-75.561 -324.751)" fill="#fff" stroke="#929497" stroke-linejoin="round" stroke-width="1"/>
      <path id="Path_1098" data-name="Path 1098" d="M73.343,354.164l3.55-2.02,1.39,1.916s-.371,1.209-.646,2.6Z" transform="translate(-73.226 -329.871)" fill="#fff" stroke="#929497" stroke-linejoin="round" stroke-width="1"/>
      <path id="Path_1099" data-name="Path 1099" d="M74.776,379.137l3.441-1.959.231,1.208Z" transform="translate(-73.657 -337.399)" fill="#fff" stroke="#929497" stroke-linejoin="round" stroke-width="1"/>
      <path id="Path_1100" data-name="Path 1100" d="M111.459,427.348l3.227-1.837-1.215-3.68a18.069,18.069,0,0,1-1.945-.386Z" transform="translate(-84.688 -350.71)" fill="#fff" stroke="#929497" stroke-linejoin="round" stroke-width="1"/>
      <path id="Path_1101" data-name="Path 1101" d="M93.889,415.931l3.857-2.2-1.672-1.6Z" transform="translate(-79.404 -347.911)" fill="#fff" stroke="#929497" stroke-linejoin="round" stroke-width="1"/>
      <path id="Path_1102" data-name="Path 1102" d="M97.824,375.242l5.51-2.935,2.2-9.215-5.038-6.129-1.259,4.765L93.347,364.6l-5.126-3.012v14.013l5.126,3.012,2.43,4.764L110.1,391.8l2.047-17.816-8.12-4.588" transform="translate(-77.7 -331.32)" fill="#fff" stroke="#2d6c8e" stroke-miterlimit="10" stroke-width="2"/>
    </g>
  </g>
</svg>
