<svg xmlns="http://www.w3.org/2000/svg" width="74.818" height="95.318" viewBox="0 0 74.818 95.318">
  <g id="Training-services-icon" transform="translate(-81.548 -565.327)">
    <g id="Group_678" data-name="Group 678" transform="translate(81.548 565.827)">
      <g id="Group_669" data-name="Group 669" transform="translate(18.551)">
        <g id="Group_665" data-name="Group 665" transform="translate(0 32.207)">
          <g id="Group_664" data-name="Group 664" transform="translate(0 2.389)">
            <path id="Path_1429" data-name="Path 1429" d="M108.848,618.779l51.688,30.544v-2.04L108.848,616.74Z" transform="translate(-108.848 -616.74)" fill="#2d6c8e"/>
            <rect id="Rectangle_413" data-name="Rectangle 413" width="11.543" height="1.359" transform="matrix(0.407, -0.913, 0.913, 0.407, 0.483, 14.872)" fill="#2d6c8e"/>
            <rect id="Rectangle_414" data-name="Rectangle 414" width="1.359" height="16.708" transform="translate(45.199 28.557) rotate(-16.453)" fill="#2d6c8e"/>
          </g>
          <path id="Path_1430" data-name="Path 1430" d="M188.993,658.174l-4.08,2.389v2.04l4.08-2.389Z" transform="translate(-133.226 -627.63)" fill="#fff" stroke="#929497" stroke-linejoin="round" stroke-width="1"/>
          <path id="Path_1431" data-name="Path 1431" d="M112.928,613.224l-4.08,2.389,51.688,30.544,4.08-2.389Z" transform="translate(-108.848 -613.224)" fill="#fff" stroke="#929497" stroke-linejoin="round" stroke-width="1"/>
          <path id="Path_1432" data-name="Path 1432" d="M186.323,672.6l-4.08,2.389L177.989,660.6l4.706,2.781.769-.45Z" transform="translate(-131.007 -628.407)" fill="#fff" stroke="#929497" stroke-linejoin="round" stroke-width="1"/>
          <path id="Path_1433" data-name="Path 1433" d="M111.385,634.822l4.08-2.389,2.668-5.99-2.387-1.411Z" transform="translate(-109.661 -617.009)" fill="#a6a8ab"/>
        </g>
        <g id="Group_667" data-name="Group 667" transform="translate(2.138 4.139)">
          <g id="Group_666" data-name="Group 666" transform="translate(0 2.389)">
            <path id="Path_1434" data-name="Path 1434" d="M112.994,603.778,159.231,631.1V604.509l-46.237-27.323Z" transform="translate(-112.315 -575.995)" fill="#fff"/>
            <path id="Path_1435" data-name="Path 1435" d="M112.328,603.8l-.334-.2V575.433l47.262,27.929.334.2v28.171Zm1.025-25.986v25.014l44.878,26.519V604.335Z" transform="translate(-111.994 -575.433)" fill="#49b5d8"/>
          </g>
          <path id="Path_1436" data-name="Path 1436" d="M186.118,613.311l-4.08,2.389V643.87l4.08-2.389Z" transform="translate(-134.442 -585.184)" fill="#fff" stroke="#929497" stroke-linejoin="round" stroke-width="1"/>
          <path id="Path_1437" data-name="Path 1437" d="M116.074,571.918l-4.08,2.389,47.6,28.127,4.08-2.389Z" transform="translate(-111.994 -571.918)" fill="#fff" stroke="#929497" stroke-linejoin="round" stroke-width="1"/>
        </g>
        <g id="Group_668" data-name="Group 668">
          <path id="Path_1438" data-name="Path 1438" d="M108.848,571.383l51.688,30.544v-2.04l-51.688-30.544Z" transform="translate(-108.848 -566.954)" fill="#2d6c8e"/>
          <path id="Path_1439" data-name="Path 1439" d="M188.993,610.777l-4.08,2.389v2.04l4.08-2.389Z" transform="translate(-133.226 -580.233)" fill="#fff" stroke="#929497" stroke-linejoin="round" stroke-width="1"/>
          <path id="Path_1440" data-name="Path 1440" d="M112.928,565.827l-4.08,2.389,51.688,30.544,4.08-2.389Z" transform="translate(-108.848 -565.827)" fill="#fff" stroke="#929497" stroke-linejoin="round" stroke-width="1"/>
        </g>
      </g>
      <g id="Group_673" data-name="Group 673" transform="translate(0 22.61)">
        <path id="Path_1441" data-name="Path 1441" d="M89.6,616.957l3.565,1.269,4.4-15.676a4.567,4.567,0,0,1,7.391-2.428c5.148,3.042,6.65,9.746,6.712,10.034l4.544,21.566,3.444,2.845,1.055,18.466-32.155-19Z" transform="translate(-83.793 -599.101)" fill="#6d6e70"/>
        <g id="Group_672" data-name="Group 672" transform="translate(0 2.805)">
          <g id="Group_670" data-name="Group 670" transform="translate(0.703 0.682)">
            <path id="Path_1442" data-name="Path 1442" d="M102.92,628l-4.142-5.2-.633-9.674,9.55,5.643-.633,8.926Z" transform="translate(-87.571 -607.083)" fill="#fff"/>
            <path id="Path_1443" data-name="Path 1443" d="M113.283,656.249l-.965-16.9-3.4-2.808-4.593-21.8s-1.441-6.662-6.393-9.588-6.394,2.032-6.394,2.032l-4.593,16.369-3.4-1.209-.965,15.759Z" transform="translate(-82.583 -604.232)" fill="#fff"/>
            <path id="Path_1444" data-name="Path 1444" d="M96.3,620.905l.521,7.522,6.369,8.028" transform="translate(-86.981 -609.575)" fill="#fff"/>
          </g>
          <g id="Group_671" data-name="Group 671">
            <path id="Path_1445" data-name="Path 1445" d="M97.568,622.411l-.732-11.17,11.02,6.512-.7,9.932-5.086.368Zm8.873-3.917-8.08-4.774L98.9,621.9l3.785,4.748,3.2-.232Z" transform="translate(-86.448 -605.796)" fill="#49b5d8"/>
            <path id="Path_1446" data-name="Path 1446" d="M81.548,638.159l1.045-17.075,3.564,1.268,4.4-15.675a4.566,4.566,0,0,1,7.391-2.428c5.148,3.042,6.65,9.746,6.712,10.033l4.543,21.566,3.444,2.844L113.7,657.16Zm26.424-1.566-4.641-22.026c-.014-.064-1.432-6.4-6.075-9.147a3.99,3.99,0,0,0-3.458-.657,3.869,3.869,0,0,0-1.935,2.289l-4.79,17.069-3.234-1.15-.885,14.442L112.2,654.694l-.875-15.331Z" transform="translate(-81.548 -603.229)" fill="#2d6c8e"/>
            <path id="Path_1447" data-name="Path 1447" d="M101.342,638.856l1.064-.844-6.238-7.864-.506-7.311-1.356.094.535,7.732Z" transform="translate(-85.637 -609.513)" fill="#2d6c8e"/>
          </g>
        </g>
        <path id="Path_1448" data-name="Path 1448" d="M132.075,651.293l-4.76,2.8,1.054,18.466,4.76-2.8Z" transform="translate(-96.216 -615.827)" fill="#bbbdbf"/>
        <path id="Path_1449" data-name="Path 1449" d="M103.172,599.53l-4.621,2.737s2.285-1.307,5.832,1.325,5.268,7.2,5.927,10.332l4.342,20.609,4.76-2.805-4.207-19.965s-.97-7.159-6.023-10.946C109.182,600.817,105.951,598.124,103.172,599.53Z" transform="translate(-86.997 -599.108)" fill="#fff" stroke="#929497" stroke-linejoin="round" stroke-width="1"/>
        <path id="Path_1450" data-name="Path 1450" d="M125.691,652.756l4.76-2.8-3.445-2.845-4.76,2.8Z" transform="translate(-94.591 -614.486)" fill="#d0d2d3"/>
        <path id="Path_1451" data-name="Path 1451" d="M83.086,628.195l4.7-2.78-1.136,4.049Z" transform="translate(-82.041 -607.534)" fill="#fff" stroke="#929497" stroke-linejoin="round" stroke-width="1"/>
      </g>
      <g id="Group_677" data-name="Group 677" transform="translate(9.124 37.905)">
        <g id="Group_676" data-name="Group 676" transform="translate(0 2.805)">
          <g id="Group_674" data-name="Group 674" transform="translate(0.709 0.707)">
            <path id="Path_1452" data-name="Path 1452" d="M117.42,654.082l-5.223-6.551-.335-11.926,5.558,3.657,5.558,2.911-.335,11.53Z" transform="translate(-101.096 -629.607)" fill="#fff"/>
            <path id="Path_1453" data-name="Path 1453" d="M105.108,648.675l2.227-20.93,15.842,9.361,3.123,33.048-7.454-15.108-3.59.26-3.59-4.5Z" transform="translate(-98.931 -627.088)" fill="#fff"/>
            <path id="Path_1454" data-name="Path 1454" d="M122.466,669.727l5.258,4.524.919,13.57L96.018,668.543l.919-12.484,11.809,3.789" transform="translate(-96.018 -636.162)" fill="#fff"/>
            <path id="Path_1455" data-name="Path 1455" d="M108.349,627.421l7.933-.643,7.933,10.018Z" transform="translate(-99.97 -626.778)" fill="#fff"/>
          </g>
          <g id="Group_675" data-name="Group 675">
            <path id="Path_1456" data-name="Path 1456" d="M123.331,641.163l-5.934-3.108-6.589-4.341.378,13.457,5.588,7.008,6.192-.45Zm-1.383.81-.305,10.491-4.253.308-4.857-6.094-.292-10.395,4.468,2.94Z" transform="translate(-100.05 -628.294)" fill="#49b5d8"/>
            <path id="Path_1457" data-name="Path 1457" d="M94.975,659.2l.363.215,33.735,19.934L128.048,664.2l-5.242-4.509-2.076-21.968-.144-1.527-.014-.145-8.27-10.316-8.78.241-.05.475-.108,1.011-2.092,19.664-5.285-1.7Zm22.341-25.063-11.488-6.793,6.052-.073Zm1.969,2.739,2.743,29.028L116,653.693l-3.689.268-3.493-4.383-6.228-2.022,2.057-19.33ZM96.392,658.455l.825-11.2,4.435,1.426h0l6.361,2.066,3.686,4.623,3.491-.253,8.885,18.008-1.085-11.476,3.739,3.218.812,12Z" transform="translate(-94.975 -625.738)" fill="#2d6c8e"/>
          </g>
        </g>
        <path id="Path_1458" data-name="Path 1458" d="M148.406,678.219l-4.76,2.8,1.025,15.142,4.76-2.8Z" transform="translate(-110.574 -639.752)" fill="#fff" stroke="#929497" stroke-linejoin="round" stroke-width="1"/>
        <path id="Path_1459" data-name="Path 1459" d="M137.405,636.793l-4.76,2.8,2.234,23.64,4.76-2.8Z" transform="translate(-107.048 -626.476)" fill="#fff" stroke="#929497" stroke-linejoin="round" stroke-width="1"/>
        <path id="Path_1460" data-name="Path 1460" d="M140.693,671.583l-4.76,2.8,5.241,4.509,4.76-2.8Z" transform="translate(-108.102 -637.626)" fill="#fff" stroke="#929497" stroke-linejoin="round" stroke-width="1"/>
        <path id="Path_1461" data-name="Path 1461" d="M125.235,621.61l-4.76,2.8,8.27,10.317,4.76-2.8Z" transform="translate(-103.148 -621.61)" fill="#fff" stroke="#929497" stroke-linejoin="round" stroke-width="1"/>
        <path id="Path_1462" data-name="Path 1462" d="M112.314,621.851l-4.76,2.8,8.78-.241,4.76-2.8Z" transform="translate(-99.007 -621.61)" fill="#fff" stroke="#929497" stroke-linejoin="round" stroke-width="1"/>
        <path id="Path_1463" data-name="Path 1463" d="M101.226,650.591l-4.76,2.8,5.285,1.7.446-4.191Z" transform="translate(-95.453 -630.898)" fill="#fff" stroke="#929497" stroke-linejoin="round" stroke-width="1"/>
      </g>
    </g>
  </g>
</svg>
