<svg xmlns="http://www.w3.org/2000/svg" width="86.56" height="95.18" viewBox="0 0 86.56 95.18">
  <g id="Truck-yard-icon" transform="translate(-979.163 -547.865)">
    <g id="Group_730" data-name="Group 730" transform="translate(979.164 548.405)">
      <path id="Path_1633" data-name="Path 1633" d="M985.359,593.424v-7.16a1.237,1.237,0,0,1,.546-1.114c.673-.408,1.507.086,1.781.247l2.37,1.4v1.416h0l-2.991-1.771a1.885,1.885,0,0,0-.488-.221v7.2a2.726,2.726,0,0,0,.788,1.62l5.676,6.52V587.113a3.208,3.208,0,0,1,1.124-2.643,2.832,2.832,0,0,1,2.857.159c.258.121,7.748,3.631,15,7.924,7.343,4.347,14.924,9.784,14.99,9.831a7.547,7.547,0,0,1,3.372,6.1v15.511l6.156.218.077.007a.29.29,0,0,0,.171-.027.435.435,0,0,0,.059-.28v-7.222c0-.007-.01-.772-1.109-1.422l-2.366-1.4v-1.417l2.986,1.769a2.985,2.985,0,0,1,1.707,2.5v7.19a1.5,1.5,0,0,1-.5,1.217,1.422,1.422,0,0,1-.913.31,1.746,1.746,0,0,1-.189-.01l-6.082-.216v10.1h.011V646.3h-.011v1.855a2.564,2.564,0,0,1-.944,2.293,1.877,1.877,0,0,1-.9.3V652.9a1.525,1.525,0,0,1-.56,1.4,1.114,1.114,0,0,1-.617.177,2.324,2.324,0,0,1-1.151-.382l-5.718-3.385a3.115,3.115,0,0,1-1.706-2.863V645.5l-14.146-8.372v1.624a1.525,1.525,0,0,1-.559,1.4,1.113,1.113,0,0,1-.618.177,2.328,2.328,0,0,1-1.15-.382l-5.718-3.385a3.117,3.117,0,0,1-1.706-2.863v-2.551a6.447,6.447,0,0,1-1.848-4.387V623.6l.009,0v-3.769l-.009-.005V603.419l-6.566-7.544A3.95,3.95,0,0,1,985.359,593.424Z" transform="translate(-981.583 -562.371)" fill="#a6a8ab"/>
      <path id="Path_1634" data-name="Path 1634" d="M988.1,587.332l-3.775,2.206-2.523-1.49a2.092,2.092,0,0,0-1.459-.252l3.605-2.115a1.365,1.365,0,0,1,1.446.066Z" transform="translate(-979.623 -562.902)" fill="#fff" stroke="#929497" stroke-linejoin="round" stroke-width="1"/>
      <path id="Path_1635" data-name="Path 1635" d="M986.874,592.122l3.029-1.771a3.254,3.254,0,0,1,.746-1.7V588.5l-3.775,2.206Z" transform="translate(-982.176 -564.068)" fill="#fff" stroke="#929497" stroke-linejoin="round" stroke-width="1"/>
      <path id="Path_1636" data-name="Path 1636" d="M984.937,592.995l-.3.172L981.65,591.4a2.917,2.917,0,0,0-.488-.221v6.946a2.6,2.6,0,0,0,.006.374l3.775-2.209v-.678C984.943,595.315,984.937,592.995,984.937,592.995Z" transform="translate(-979.943 -565.114)" fill="#fff" stroke="#929497" stroke-linejoin="round" stroke-width="1"/>
      <path id="Path_1637" data-name="Path 1637" d="M981.175,601.771a2.011,2.011,0,0,0,.635,1.31c.93,1.085,5.823,6.709,5.823,6.709v-6.542l-1.9-2.185a3.593,3.593,0,0,1-.782-1.5Z" transform="translate(-979.949 -568.39)" fill="#fff" stroke="#929497" stroke-linejoin="round" stroke-width="1"/>
      <path id="Path_1638" data-name="Path 1638" d="M1051.275,608.44a8.247,8.247,0,0,0-2.772-5.384l41-23.983s2.79,2.173,2.79,5.374Z" transform="translate(-1006.252 -560.386)" fill="#fff" stroke="#929497" stroke-linejoin="round" stroke-width="1"/>
      <path id="Path_1639" data-name="Path 1639" d="M1051.51,654.114s.944-.429.944-2.409,0-39.819,0-39.819l41.02-23.993v39.961s.145,1.684-.938,2.293Z" transform="translate(-1007.427 -563.831)" fill="#fff" stroke="#929497" stroke-linejoin="round" stroke-width="1"/>
      <path id="Path_1640" data-name="Path 1640" d="M1049.109,685.256a1.486,1.486,0,0,0,.566-1.292v-2.8l41.015-23.429V660s.048.91-.455,1.2Z" transform="translate(-1006.489 -591.115)" fill="#fff" stroke="#929497" stroke-linejoin="round" stroke-width="1"/>
      <path id="Path_1641" data-name="Path 1641" d="M1012.751,676.075l-2.861,1.667s.559-.305.559-1.4v-1.624Z" transform="translate(-991.167 -597.749)" fill="#fff" stroke="#929497" stroke-linejoin="round" stroke-width="1"/>
      <path id="Path_1642" data-name="Path 1642" d="M1027.209,591.075s-9.587-6.882-17.49-11.388-13.83-7.117-13.83-7.117a2.773,2.773,0,0,0-1.893,0l40.791-23.826a2.3,2.3,0,0,1,2.286-.085c1.355.617,9.035,4.36,15.094,7.887s11.125,7.03,16.044,10.546Z" transform="translate(-984.958 -548.405)" fill="#fff" stroke="#929497" stroke-linejoin="round" stroke-width="1"/>
      <path id="Path_1643" data-name="Path 1643" d="M1053.059,681.592l2.448-1.445a.54.54,0,0,1,.84.183,8.165,8.165,0,0,1,.5,1.536s-.2,1.392-.575,1.613l-3.212,1.882Z" transform="translate(-1008.032 -599.819)" fill="#fff" stroke="#929497" stroke-linejoin="round" stroke-width="1"/>
      <path id="Path_1644" data-name="Path 1644" d="M1096.5,595.677l-37.229,21.787v24.46l37.229-21.787Z" transform="translate(-1010.46 -566.872)" fill="#fff" stroke="#929497" stroke-linejoin="round" stroke-width="1"/>
      <path id="Path_1645" data-name="Path 1645" d="M1096.061,622.62a3.677,3.677,0,0,0,1.925-3.079V602.577s.241-2.026-2.592-.369l-26.56,15.551a3.677,3.677,0,0,0-1.926,3.079V637.8s-.241,2.027,2.592.369Z" transform="translate(-1013.44 -569.169)" fill="#808184"/>
      <path id="Path_1646" data-name="Path 1646" d="M1096.1,622.845a3.4,3.4,0,0,0,1.779-2.844V604.33s.222-1.872-2.395-.341l-25.772,15a3.4,3.4,0,0,0-1.779,2.844V637.51s-.222,1.872,2.395.341Z" transform="translate(-1013.84 -569.884)" fill="#fff" stroke="#929497" stroke-linejoin="round" stroke-width="1"/>
      <path id="Path_1647" data-name="Path 1647" d="M1093.651,634.982V614.161l.426-.241v20.821Z" transform="translate(-1023.89 -573.999)" fill="#808184"/>
      <path id="Path_1648" data-name="Path 1648" d="M1069.077,637.387,1065.3,639.6v7.317a1.59,1.59,0,0,1-.572,1.273l3.751-2.192a1.429,1.429,0,0,0,.595-1.288C1069.076,643.747,1069.077,637.387,1069.077,637.387Z" transform="translate(-1012.591 -583.167)" fill="#fff" stroke="#929497" stroke-linejoin="round" stroke-width="1"/>
      <path id="Path_1649" data-name="Path 1649" d="M1061.739,630.588l-3.775,2.207,3.073,1.822a3.413,3.413,0,0,1,1.621,2.323l3.774-2.209a3.237,3.237,0,0,0-1.535-2.267C1063.51,631.637,1061.739,630.588,1061.739,630.588Z" transform="translate(-1009.948 -580.511)" fill="#fff" stroke="#929497" stroke-linejoin="round" stroke-width="1"/>
      <path id="Path_1650" data-name="Path 1650" d="M1056.834,649.532l-3.775,2.206,6.234.226s.227.055.227-.249,0-2.088,0-2.088Z" transform="translate(-1008.032 -587.912)" fill="#fff" stroke="#929497" stroke-linejoin="round" stroke-width="1"/>
      <g id="Group_729" data-name="Group 729" transform="translate(0 23.99)">
        <path id="Path_1651" data-name="Path 1651" d="M979.164,597.045v-7.16a1.236,1.236,0,0,1,.545-1.114c.673-.408,1.508.086,1.782.247l2.37,1.4v1.416h0l-2.991-1.771a1.884,1.884,0,0,0-.487-.221v7.2a2.73,2.73,0,0,0,.788,1.62l5.676,6.519V590.734a3.2,3.2,0,0,1,1.124-2.643,2.831,2.831,0,0,1,2.856.16c.258.121,7.748,3.63,15,7.924,7.343,4.346,14.924,9.783,14.991,9.83a7.543,7.543,0,0,1,3.371,6.1v15.511l6.157.218.077.008a.3.3,0,0,0,.171-.027.442.442,0,0,0,.059-.28v-7.222c0-.007-.01-.771-1.11-1.422l-2.366-1.4V616.07l2.987,1.768a2.986,2.986,0,0,1,1.707,2.5v7.19a1.5,1.5,0,0,1-.5,1.217,1.423,1.423,0,0,1-.913.31,1.552,1.552,0,0,1-.188-.011l-6.082-.216v10.1h.012l-.012,10.985v1.856a2.562,2.562,0,0,1-.944,2.292,1.872,1.872,0,0,1-.9.3v2.153a1.527,1.527,0,0,1-.56,1.4,1.113,1.113,0,0,1-.617.177,2.329,2.329,0,0,1-1.151-.381l-5.718-3.385a3.114,3.114,0,0,1-1.706-2.862v-2.353l-14.146-8.372v1.624a1.525,1.525,0,0,1-.559,1.4,1.116,1.116,0,0,1-.617.177,2.329,2.329,0,0,1-1.151-.381l-5.718-3.385a3.118,3.118,0,0,1-1.707-2.863v-2.551a6.449,6.449,0,0,1-1.847-4.387v-3.169l.008,0v-3.769l-.008-.005V607.04l-6.566-7.544A3.944,3.944,0,0,1,979.164,597.045Z" transform="translate(-979.164 -587.775)" fill="#fff"/>
        <path id="Path_1652" data-name="Path 1652" d="M1042.6,697.215a1.112,1.112,0,0,0,.617-.177,1.527,1.527,0,0,0,.56-1.4v-2.691h-1.219l0,2.788a.9.9,0,0,1-.018.261,1.523,1.523,0,0,1-.474-.207l-5.718-3.385a1.918,1.918,0,0,1-1.113-1.72l0-.068v-2.721h-1.219v2.7a3.114,3.114,0,0,0,1.706,2.862l5.718,3.385A2.329,2.329,0,0,0,1042.6,697.215Z" transform="translate(-1000.593 -626.887)" fill="#49b5d8"/>
        <path id="Path_1653" data-name="Path 1653" d="M1003.376,674a1.116,1.116,0,0,0,.617-.177,1.525,1.525,0,0,0,.559-1.4v-2.691h-1.219l0,2.787a.892.892,0,0,1-.018.261,1.529,1.529,0,0,1-.473-.206l-5.717-3.385a1.925,1.925,0,0,1-1.114-1.711l0-.077v-2.72H994.8v2.695a3.118,3.118,0,0,0,1.707,2.863l5.718,3.385A2.329,2.329,0,0,0,1003.376,674Z" transform="translate(-985.271 -617.816)" fill="#49b5d8"/>
        <path id="Path_1654" data-name="Path 1654" d="M1024.167,628.014a79.844,79.844,0,0,1-10.988-5.35,113.039,113.039,0,0,1-11.125-7.739l0,0c-2.847-2.3-2.7-4.859-2.69-4.923V599.515l28.093,16.632v9.724a2.486,2.486,0,0,1-.823,2.05,1.894,1.894,0,0,1-1.163.361A3.754,3.754,0,0,1,1024.167,628.014Zm-23.586-26.362v8.388c0,.083-.087,2.053,2.238,3.936a111.58,111.58,0,0,0,10.982,7.64,78.639,78.639,0,0,0,10.8,5.258c.6.224,1.063.25,1.306.072a1.352,1.352,0,0,0,.334-1.033v-9.07Z" transform="translate(-987.053 -592.361)" fill="#49b5d8"/>
        <path id="Path_1655" data-name="Path 1655" d="M1019.777,657.457l2.815-3.424,4.183,2.478a.609.609,0,1,0,.621-1.049l-5.083-3.01-2.815,3.424-12.682-7.508L1004,641.61l-4.806-2.846a.609.609,0,0,0-.621,1.049l4.46,2.64,2.815,6.758Z" transform="translate(-986.63 -607.662)" fill="#49b5d8"/>
        <path id="Path_1656" data-name="Path 1656" d="M1024.624,646.471a.609.609,0,0,0,.311-1.133l-14.485-8.576a.609.609,0,0,0-.622,1.048l14.486,8.576A.6.6,0,0,0,1024.624,646.471Z" transform="translate(-991.027 -606.879)" fill="#2d6c8e"/>
        <path id="Path_1657" data-name="Path 1657" d="M1023.961,654.745a.609.609,0,0,0,.311-1.133l-10.791-6.389a.609.609,0,0,0-.621,1.049l10.791,6.389A.613.613,0,0,0,1023.961,654.745Z" transform="translate(-992.211 -610.966)" fill="#2d6c8e"/>
        <path id="Path_1658" data-name="Path 1658" d="M1023.256,671.14a.609.609,0,0,0,.311-1.133l-6.861-4.062a.61.61,0,1,0-.622,1.049l6.862,4.062A.606.606,0,0,0,1023.256,671.14Z" transform="translate(-993.471 -618.28)" fill="#2d6c8e"/>
        <path id="Path_1659" data-name="Path 1659" d="M980.281,599.5l6.566,7.544v16.408l5.577,3.3a4.574,4.574,0,0,1,1.679,1.991s.63,1.933.857,2.8c.034.13.058.235.076.314l-.121.058a4.671,4.671,0,0,1-1.551-.836l-.055-.038-6.462-3.825v3.169a6.64,6.64,0,0,0,2.438,4.936l.06.04,31.8,18.822a2.793,2.793,0,0,0,1.007.195,1.941,1.941,0,0,0,1.092-.313,2.562,2.562,0,0,0,.944-2.292v-2.448l-5.909-3.493a4.767,4.767,0,0,1-1.86-1.37l-.169-.28a3.2,3.2,0,0,1-.277-.5,1.15,1.15,0,0,1,.082-.268c.189-.5.684-1.45.815-1.7.069-.056.388-.256,1.119.177l6.2,3.669V628.831l6.082.216a1.552,1.552,0,0,0,.188.011,1.423,1.423,0,0,0,.913-.31,1.5,1.5,0,0,0,.5-1.217v-7.19a2.986,2.986,0,0,0-1.707-2.5l-2.99-1.771,0,1.419,2.366,1.4c1.1.651,1.111,1.415,1.11,1.422v7.222a.442.442,0,0,1-.059.28.3.3,0,0,1-.171.027l-.077-.008-6.157-.218V612.1a7.543,7.543,0,0,0-3.371-6.1c-.066-.047-7.648-5.484-14.991-9.83-7.253-4.294-14.743-7.8-15-7.924a2.831,2.831,0,0,0-2.856-.16,3.2,3.2,0,0,0-1.124,2.643v14.451l-5.676-6.519a2.73,2.73,0,0,1-.788-1.62v-7.2a1.884,1.884,0,0,1,.487.221l2.991,1.771v-1.416l-2.37-1.4c-.273-.161-1.108-.655-1.782-.247a1.236,1.236,0,0,0-.545,1.114v7.16A3.944,3.944,0,0,0,980.281,599.5Zm7.784-8.782c-.009-.329.078-1.286.569-1.6.429-.274,1.139-.024,1.66.232l.013.005c.075.035,7.609,3.555,14.9,7.871s14.835,9.725,14.91,9.779a6.332,6.332,0,0,1,2.853,5.081v31.338l-4.358-2.581c-1.443-.856-2.421-.267-2.736.163l-.047.074c-.027.051-.667,1.252-.913,1.906-.3.8-.167,1.073.293,1.832l.164.273a5.8,5.8,0,0,0,2.386,1.849l5.211,3.086v1.752c0,.653-.142,1.107-.4,1.278a1.174,1.174,0,0,1-.922.02L990,634.337a5.478,5.478,0,0,1-1.938-3.95v-1.031l4.593,2.72c.856.64,2.02,1.315,2.749.957l.155-.074c.823-.383.8-.84.576-1.72-.236-.911-.864-2.83-.89-2.911a5.751,5.751,0,0,0-2.2-2.626l-4.979-2.949Z" transform="translate(-979.164 -587.775)" fill="#2d6c8e"/>
      </g>
    </g>
  </g>
</svg>
