<svg xmlns="http://www.w3.org/2000/svg" width="95.702" height="93.749" viewBox="0 0 95.702 93.749">
  <g id="Warehouses-icon" transform="translate(-507.663 -75.492)">
    <g id="Group_760" data-name="Group 760" transform="translate(508.663 76.492)">
      <g id="Group_756" data-name="Group 756">
        <path id="Path_1732" data-name="Path 1732" d="M618.122,104.6l-46.851,27.418-26.635-26.529,46.851-27.418Z" transform="translate(-524.42 -77.186)" fill="#fff" stroke="#929497" stroke-linejoin="round" stroke-width="2"/>
        <path id="Path_1733" data-name="Path 1733" d="M575.729,77.382,528.878,104.8l-20.216-.89,46.851-27.418Z" transform="translate(-508.662 -76.492)" fill="#fff" stroke="#929497" stroke-linejoin="round" stroke-width="2"/>
        <path id="Path_1734" data-name="Path 1734" d="M638.883,125.283,592.032,152.7v36.912l46.851-27.418Z" transform="translate(-545.181 -97.864)" fill="#fff" stroke="#929497" stroke-linejoin="round" stroke-width="2"/>
        <path id="Path_1735" data-name="Path 1735" d="M508.662,162.194V125.283l20.216.918,26.635,26.5v36.912Z" transform="translate(-508.662 -97.864)" fill="#fff" stroke="#2d6c8e" stroke-linecap="round" stroke-linejoin="round" stroke-width="2"/>
      </g>
      <line id="Line_16" data-name="Line 16" x1="31.601" y1="18.494" transform="translate(7.143 33.637)" fill="none" stroke="#49b5d8" stroke-linecap="round" stroke-linejoin="round" stroke-width="2"/>
      <g id="Group_757" data-name="Group 757" transform="translate(31.163 61.856)">
        <path id="Path_1736" data-name="Path 1736" d="M564.116,189.738l11.523,6.744v18.941l-11.523-6.744Z" transform="translate(-564.116 -187.954)" fill="none" stroke="#49b5d8" stroke-linecap="round" stroke-linejoin="round" stroke-width="2"/>
        <line id="Line_17" data-name="Line 17" x1="8.498" y1="4.973" transform="translate(1.513 6.851)" fill="none" stroke="#2d6c8e" stroke-linecap="round" stroke-linejoin="round" stroke-width="2"/>
        <path id="Path_1737" data-name="Path 1737" d="M580.431,192.569l-5.377-3.147v-2.859l5.377,3.147Z" transform="translate(-568.908 -186.563)" fill="none" stroke="#49b5d8" stroke-linecap="round" stroke-linejoin="round" stroke-width="2"/>
        <line id="Line_18" data-name="Line 18" x1="11.482" y1="6.719" transform="translate(0.021 9.455)" fill="none" stroke="#49b5d8" stroke-linecap="round" stroke-linejoin="round" stroke-width="2"/>
      </g>
      <g id="Group_758" data-name="Group 758" transform="translate(17.184 53.655)">
        <path id="Path_1738" data-name="Path 1738" d="M539.24,175.144l11.523,6.744v18.941l-11.523-6.744Z" transform="translate(-539.24 -173.36)" fill="none" stroke="#49b5d8" stroke-linecap="round" stroke-linejoin="round" stroke-width="2"/>
        <line id="Line_19" data-name="Line 19" x1="8.498" y1="4.973" transform="translate(1.513 6.851)" fill="none" stroke="#2d6c8e" stroke-linecap="round" stroke-linejoin="round" stroke-width="2"/>
        <path id="Path_1739" data-name="Path 1739" d="M555.555,177.976l-5.377-3.147V171.97l5.377,3.147Z" transform="translate(-544.032 -171.97)" fill="none" stroke="#49b5d8" stroke-linecap="round" stroke-linejoin="round" stroke-width="2"/>
        <line id="Line_20" data-name="Line 20" x1="8.498" y1="4.973" transform="translate(1.513 10.328)" fill="none" stroke="#2d6c8e" stroke-linecap="round" stroke-linejoin="round" stroke-width="2"/>
        <line id="Line_21" data-name="Line 21" x1="8.498" y1="4.973" transform="translate(1.513 13.804)" fill="none" stroke="#2d6c8e" stroke-linecap="round" stroke-linejoin="round" stroke-width="2"/>
        <line id="Line_22" data-name="Line 22" x1="8.498" y1="4.973" transform="translate(1.513 17.281)" fill="none" stroke="#2d6c8e" stroke-linecap="round" stroke-linejoin="round" stroke-width="2"/>
      </g>
      <g id="Group_759" data-name="Group 759" transform="translate(3.204 45.474)">
        <path id="Path_1740" data-name="Path 1740" d="M514.364,160.586l11.524,6.744V186.27l-11.524-6.744Z" transform="translate(-514.364 -158.802)" fill="none" stroke="#49b5d8" stroke-linecap="round" stroke-linejoin="round" stroke-width="2"/>
        <line id="Line_23" data-name="Line 23" x1="8.498" y1="4.973" transform="translate(1.513 6.851)" fill="none" stroke="#2d6c8e" stroke-linecap="round" stroke-linejoin="round" stroke-width="2"/>
        <path id="Path_1741" data-name="Path 1741" d="M530.679,163.417l-5.377-3.147v-2.859l5.377,3.147Z" transform="translate(-519.155 -157.411)" fill="none" stroke="#49b5d8" stroke-linecap="round" stroke-linejoin="round" stroke-width="2"/>
        <line id="Line_24" data-name="Line 24" x1="8.498" y1="4.973" transform="translate(1.513 10.328)" fill="none" stroke="#2d6c8e" stroke-linecap="round" stroke-linejoin="round" stroke-width="2"/>
        <line id="Line_25" data-name="Line 25" x1="8.498" y1="4.973" transform="translate(1.513 13.804)" fill="none" stroke="#2d6c8e" stroke-linecap="round" stroke-linejoin="round" stroke-width="2"/>
        <line id="Line_26" data-name="Line 26" x1="8.498" y1="4.973" transform="translate(1.513 17.281)" fill="none" stroke="#2d6c8e" stroke-linecap="round" stroke-linejoin="round" stroke-width="2"/>
      </g>
    </g>
  </g>
</svg>
