<?xml version="1.0" encoding="utf-8"?>
<!-- Generator: Adobe Illustrator 23.0.1, SVG Export Plug-In . SVG Version: 6.00 Build 0)  -->
<svg version="1.1" id="Layer_1" xmlns="http://www.w3.org/2000/svg" xmlns:xlink="http://www.w3.org/1999/xlink" x="0px" y="0px"
	 viewBox="0 0 130.1 166" style="enable-background:new 0 0 130.1 166;" xml:space="preserve">
<style type="text/css">
	.st0{fill:#565656;}
	.st1{fill:#8cc340;}
	.st2{fill:#ED2700;}
	.st3{fill:#FFFFFF;}
</style>
<title>img404_1</title>
<g>
	<g id="Layer_1-2">
		<path class="st0" d="M105.9,59.5c0.7-0.1,1.2-0.7,1.2-1.4c-0.1-0.6-0.5-1.1-1.2-1.2h-1.3c0.1-0.7-0.5-1.3-1.2-1.4
			c-0.7-0.1-1.3,0.5-1.4,1.2c0,0.1,0,0.2,0,0.2H81.9c0.1-0.7-0.5-1.3-1.2-1.4c-0.7-0.1-1.3,0.5-1.4,1.2c0,0.1,0,0.2,0,0.2h-1.3
			c-0.7,0.1-1.2,0.7-1.2,1.4c0.1,0.6,0.5,1.1,1.2,1.2h1.3v3.8h-1.3c-0.7,0-1.3,0.6-1.3,1.3c0,0.7,0.6,1.3,1.3,1.3l0,0h1.3V67h-1.3
			c-0.7,0.1-1.2,0.7-1.2,1.4c0.1,0.6,0.5,1.1,1.2,1.2h1.3v3.8H57.9V62.9c1.9,1.1,4,1.6,6.1,1.6c7.2-0.1,12.9-6,12.8-13.2
			c0,0,0,0,0,0c0-5-2.7-9.6-7.2-11.8c1.5-2,2.2-4.4,2.2-6.9c0-5.5-3.8-10.2-9.2-11.3c2.2-4.9,0.1-10.7-4.9-13
			c-1.2-0.5-2.5-0.8-3.8-0.9H54c-0.7-4.8-5.2-8.2-10.1-7.4c-3.9,0.6-7,3.7-7.5,7.6c-3.4,0.7-5.7,4-5,7.4c0.6,3,3.2,5.1,6.2,5.1H45
			c0.1,0.4,0.2,0.7,0.4,1.1c-6.3,1.4-10.2,7.5-8.9,13.8c0.3,1.6,1,3.1,2,4.4c-4.5,2.3-7.2,6.8-7.2,11.8c-0.1,7.2,5.6,13.1,12.8,13.2
			c0,0,0,0,0,0c2.1,0,4.3-0.6,6.1-1.6v10.5H5.7c-0.7,0.1-1.2,0.7-1.2,1.4c0.1,0.6,0.5,1.1,1.2,1.2h100.2c0.7-0.1,1.2-0.7,1.2-1.4
			c-0.1-0.6-0.5-1.1-1.2-1.2h-1.3v-3.8h1.3c0.7-0.1,1.2-0.7,1.2-1.4c-0.1-0.6-0.5-1.1-1.2-1.2h-1.3v-1.3h1.3c0.7,0,1.3-0.6,1.3-1.3
			c0-0.7-0.6-1.3-1.3-1.3h-1.3v-3.8H105.9z M37.6,17.7c-2.1-0.1-3.7-1.9-3.6-4c0.1-1.9,1.7-3.5,3.6-3.6c0.3,0,0.7-0.1,0.9-0.4
			c0.2-0.2,0.4-0.6,0.4-0.9c0-3.5,2.8-6.3,6.2-6.4c3.1,0,5.8,2.3,6.3,5.4c-4.1,1.3-6.9,5.1-6.9,9.4c0,0.1,0,0.3,0,0.4L37.6,17.7z
			 M33.8,51.3c-0.1-4.6,2.8-8.7,7.2-10.1c0.7-0.2,1-1,0.8-1.6c-0.1-0.2-0.2-0.3-0.3-0.5c-1.7-1.7-2.7-4-2.7-6.5
			c-0.1-4.8,3.7-8.9,8.6-9c0.5,0.1,1-0.2,1.3-0.6c0.2-0.4,0.2-0.9-0.1-1.3c-0.9-1.3-1.5-2.8-1.5-4.4c0-3.9,3.1-7,7-7s7,3.1,7,7
			c0,1.6-0.5,3.1-1.4,4.4c-0.3,0.4-0.3,0.9-0.1,1.3c0.2,0.4,0.7,0.7,1.2,0.7c4.9,0.1,8.7,4.1,8.7,9c0,0,0,0,0,0c0,2.4-1,4.8-2.7,6.5
			c-0.3,0.3-0.5,0.8-0.3,1.2c0.1,0.4,0.4,0.8,0.8,0.9c5.5,2.1,8.4,8.2,6.3,13.8c-1.5,4-5.2,6.7-9.4,6.9c-3.4,0-6.7-1.8-8.5-4.7
			l8.3-8.3c0.5-0.5,0.5-1.3,0-1.8s-1.3-0.5-1.8,0l-6.7,6.7V41l6-6c0.5-0.5,0.4-1.3-0.1-1.8c-0.5-0.4-1.2-0.4-1.6,0l-4.2,4.2v-5.8
			c0.1-0.7-0.5-1.3-1.2-1.4c-0.7-0.1-1.3,0.5-1.4,1.2c0,0.1,0,0.2,0,0.2v5.8l-4.2-4.2c-0.5-0.5-1.3-0.4-1.8,0.1
			c-0.4,0.5-0.4,1.2,0,1.6l6,6v12.9l-6.7-6.7c-0.5-0.5-1.3-0.5-1.8,0c-0.5,0.5-0.5,1.3,0,1.8l0,0l8.3,8.3c-1.9,2.9-5.1,4.7-8.5,4.7
			C38.3,61.9,33.7,57.1,33.8,51.3C33.8,51.3,33.8,51.3,33.8,51.3z M52.8,73.3V61c0.5-0.4,0.9-0.9,1.3-1.4c0.4,0.5,0.8,0.9,1.3,1.4
			v12.3L52.8,73.3z M102.2,73.3H81.9v-3.8h20.2L102.2,73.3z M102.2,67H81.9v-1.2h20.2L102.2,67z M102.2,63.2H81.9v-3.7h20.2
			L102.2,63.2z"/>
		<path class="st0" d="M102.1,19.1c-0.6-4.9-5.1-8.3-9.9-7.6c-4,0.5-7.1,3.7-7.6,7.6c-3.4,0.7-5.7,4-5,7.4c0.6,3,3.2,5.1,6.2,5.1
			h15.2c3.5,0,6.3-2.9,6.3-6.4C107.2,22.3,105,19.7,102.1,19.1z M100.9,29.1H85.7c-2.1,0.1-3.9-1.5-4-3.6c-0.1-2.1,1.5-3.9,3.6-4
			c0.1,0,0.3,0,0.4,0c0.3,0,0.7-0.1,0.9-0.4c0.2-0.2,0.4-0.6,0.4-0.9c0.1-3.5,3.1-6.2,6.6-6.1c3.3,0.1,5.9,2.8,6.1,6.1
			c0,0.3,0.1,0.7,0.4,0.9c0.2,0.2,0.6,0.4,0.9,0.4c2.1,0.1,3.7,1.9,3.6,4C104.4,27.4,102.8,29,100.9,29.1z"/>
		<polygon class="st0" points="100.3,40.2 99.5,39.4 98.4,40.4 97.4,39.4 96.6,40.2 97.7,41.2 96.6,42.2 97.4,43 98.4,42 99.5,43 
			100.3,42.2 99.3,41.2 		"/>
		<polygon class="st0" points="27.8,26.1 27,25.2 25.9,26.3 24.8,25.2 24,26.1 25.1,27.2 24,28.3 24.8,29.1 25.9,28 27,29.1 
			27.8,28.3 26.7,27.2 		"/>
		<circle class="st0" cx="20.4" cy="10.3" r="1.5"/>
		<circle class="st0" cx="116.9" cy="24.8" r="1.1"/>
		<path class="st1" d="M0,154v-4.8c0-0.3,0.1-0.7,0.3-1L19,107.7c0.2-0.5,0.7-0.7,1.2-0.7h5.7c0.6,0,0.8,0.3,0.6,0.8L8,148.1v0.2
			h15.4c0.2,0,0.5-0.1,0.5-0.4c0,0,0-0.1,0-0.1v-15.2c-0.1-0.4,0.2-0.8,0.6-0.9c0.1,0,0.1,0,0.2,0h5.5c0.4-0.1,0.8,0.2,0.9,0.6
			c0,0.1,0,0.1,0,0.2v15.2c0,0.2,0.1,0.5,0.4,0.5c0,0,0.1,0,0.1,0h5.3c0.4-0.1,0.8,0.2,0.9,0.7c0,0.1,0,0.1,0,0.2v4.9
			c0.1,0.4-0.2,0.8-0.6,0.9c-0.1,0-0.1,0-0.2,0h-5.3c-0.2,0-0.5,0.1-0.5,0.4c0,0,0,0.1,0,0.1v8.8c0.1,0.4-0.2,0.8-0.7,0.9
			c-0.1,0-0.1,0-0.2,0h-5.5c-0.4,0.1-0.8-0.2-0.9-0.6c0-0.1,0-0.1,0-0.2v-8.8c0-0.2-0.1-0.5-0.4-0.5c0,0-0.1,0-0.1,0H0.9
			c-0.4,0.1-0.8-0.2-0.9-0.7C0,154.1,0,154.1,0,154z"/>
		<path class="st1" d="M48.9,155c-0.2-0.7-0.3-1.3-0.5-2c-0.2-0.8-0.3-1.8-0.4-3.2s-0.2-3.1-0.3-5.3s-0.1-5-0.1-8.4s0-6.2,0.1-8.4
			c0.1-2.2,0.2-4,0.3-5.3s0.3-2.4,0.4-3.2c0.1-0.7,0.3-1.3,0.5-2c0.9-3.3,3-6.2,5.8-8.2c3-2,6.5-2.9,10.1-2.8
			c3.6-0.1,7.1,0.9,10.1,2.8c2.8,2,4.8,4.9,5.8,8.2c0.2,0.7,0.4,1.3,0.5,2c0.1,0.8,0.3,1.8,0.4,3.2s0.2,3.1,0.3,5.3
			c0.1,2.2,0.1,5,0.1,8.4s0,6.2-0.1,8.4s-0.2,4-0.3,5.3s-0.3,2.4-0.4,3.2c-0.1,0.7-0.3,1.3-0.5,2c-0.9,3.3-3,6.2-5.8,8.2
			c-3,2-6.5,3-10.1,2.8c-3.6,0.1-7.1-0.9-10.1-2.8C51.9,161.2,49.9,158.3,48.9,155z M56,153.5c0.6,1.8,1.7,3.3,3.3,4.4
			c3.4,1.9,7.6,1.9,11,0c1.6-1,2.7-2.6,3.3-4.4c0.2-0.5,0.3-1.1,0.4-1.6c0.2-0.9,0.3-1.9,0.3-2.8c0.1-1.3,0.1-2.9,0.2-5s0-4.8,0-8.1
			s0-6,0-8.1c0-2.1-0.1-3.7-0.2-5c0-0.9-0.1-1.9-0.3-2.8c-0.1-0.6-0.2-1.1-0.4-1.6c-0.6-1.8-1.7-3.3-3.3-4.3c-3.4-1.9-7.6-1.9-11,0
			c-1.6,1-2.7,2.6-3.3,4.4c-0.2,0.5-0.3,1.1-0.4,1.6c-0.1,0.9-0.2,1.9-0.3,2.8c-0.1,1.3-0.2,2.9-0.2,5c0,2.1,0,4.8,0,8.1s0,6,0,8.1
			s0.1,3.7,0.2,5c0,0.9,0.1,1.9,0.3,2.8C55.7,152.5,55.8,153,56,153.5z"/>
		<path class="st1" d="M92.4,154v-4.8c0-0.3,0.1-0.7,0.3-1l18.8-40.5c0.2-0.4,0.7-0.7,1.2-0.7h5.7c0.6,0,0.8,0.3,0.6,0.8l-18.5,40.2
			v0.2h15.3c0.2,0,0.5-0.1,0.5-0.4c0,0,0-0.1,0-0.1v-15.2c-0.1-0.4,0.2-0.8,0.7-0.9c0.1,0,0.1,0,0.2,0h5.5c0.4-0.1,0.8,0.2,0.8,0.6
			c0,0.1,0,0.1,0,0.2v15.2c0,0.2,0.1,0.5,0.4,0.5c0,0,0.1,0,0.1,0h5.3c0.4-0.1,0.8,0.2,0.9,0.7c0,0.1,0,0.1,0,0.2v4.9
			c0.1,0.4-0.2,0.8-0.6,0.9c-0.1,0-0.1,0-0.2,0h-5.3c-0.2,0-0.5,0.1-0.5,0.4c0,0,0,0.1,0,0.1v8.8c0.1,0.4-0.2,0.8-0.6,0.9
			c-0.1,0-0.1,0-0.2,0h-5.5c-0.4,0.1-0.8-0.2-0.8-0.6c0-0.1,0-0.1,0-0.2v-8.8c0-0.2-0.1-0.5-0.4-0.5c0,0-0.1,0-0.1,0H93.3
			c-0.4,0.1-0.8-0.2-0.9-0.7C92.4,154.1,92.4,154.1,92.4,154z"/>
	</g>
</g>
<path class="st0" d="M25.9,46.9c0-5.8-4.7-10.4-10.4-10.4S5,41.2,5,46.9c0,5.4,4.2,9.9,9.5,10.4v18h2v-18
	C21.8,56.7,25.9,52.3,25.9,46.9z"/>
<path class="st2" d="M15.5,55.3c-4.6,0-8.4-3.8-8.4-8.4s3.8-8.4,8.4-8.4s8.4,3.8,8.4,8.4S20.1,55.3,15.5,55.3z"/>
<g>
	<path class="st3" d="M8.1,48.2c0.3,0.1,0.7,0.3,1.1,0.3c0.4,0,0.6-0.1,0.6-0.4c0-0.2-0.2-0.3-0.7-0.5c-0.7-0.3-1.2-0.7-1.2-1.3
		c0-0.8,0.6-1.4,1.7-1.4c0.5,0,0.9,0.1,1.2,0.2l-0.2,0.9c-0.2-0.1-0.5-0.2-0.9-0.2c-0.4,0-0.5,0.1-0.5,0.3c0,0.2,0.2,0.3,0.8,0.5
		C10.6,47,11,47.4,11,48c0,0.7-0.6,1.4-1.8,1.4c-0.5,0-1-0.1-1.3-0.3L8.1,48.2z"/>
	<path class="st3" d="M12.5,46h-1.1v-1h3.4v1h-1.1v3.4h-1.2V46z"/>
	<path class="st3" d="M17,49.4c-1.3,0-2.1-1-2.1-2.2c0-1.3,0.8-2.3,2.2-2.3c1.4,0,2.1,1,2.1,2.2C19.2,48.5,18.3,49.4,17,49.4
		L17,49.4z M17,48.5c0.6,0,0.9-0.5,0.9-1.3c0-0.7-0.3-1.3-0.9-1.3c-0.6,0-0.9,0.6-0.9,1.3C16.1,48,16.5,48.5,17,48.5L17,48.5z"/>
	<path class="st3" d="M19.8,45.1c0.3-0.1,0.8-0.1,1.4-0.1c0.6,0,1.1,0.1,1.4,0.3c0.3,0.2,0.5,0.6,0.5,1c0,0.4-0.1,0.8-0.4,1.1
		c-0.3,0.3-0.9,0.4-1.4,0.4c-0.1,0-0.2,0-0.3,0v1.5h-1.1V45.1z M20.9,47c0.1,0,0.1,0,0.3,0c0.4,0,0.7-0.2,0.7-0.6
		c0-0.3-0.2-0.5-0.7-0.5c-0.2,0-0.3,0-0.3,0V47z"/>
</g>
</svg>
