<svg xmlns="http://www.w3.org/2000/svg" width="80.862" height="107.318" viewBox="0 0 80.862 107.318">
  <g id="modon-lake-icon" transform="translate(-303.575 -337.101)">
    <g id="Group_1072" data-name="Group 1072" transform="translate(303.575 337.601)">
      <g id="Group_1066" data-name="Group 1066" transform="translate(29.605)">
        <path id="Path_2137" data-name="Path 2137" d="M365.025,367.723l-2.3,1.813.231,18.044v0l-8.3-20.238,2.675-7.14-10.492-6.129,8.036-9.318,4.527,4.057-.972-2.685-9.584-8.527L361,339.168l9.064,12.839,5.5-2.53L392.067,367.1l-13.251-4.177,8.6,12.014.248,8.842.249,8.842v0l-8.951-19.9-2.487-1.468,3.035,9.759-3.1,11.029h0l-5.686-20.856-.92-.572,1.319,6.272,6.273,29.821,16.335,20.635-3.723-2.175h0L354.445,404.4h0l-3.314-1.936,19.277,2.184Z" transform="translate(-342.972 -337.601)" fill="#4d4d4d"/>
        <path id="Path_2138" data-name="Path 2138" d="M365.4,407.563l-19.277-2.183,42.6,24.88L372.39,409.624,364.8,373.53l.921.573,5.686,20.856,3.1-11.029-3.035-9.759,2.487,1.468,8.952,19.9-.5-17.683-8.6-12.015,13.25,4.177L370.558,352.4l-5.5,2.531L356,342.088l-12.149-1.567,9.584,8.526.972,2.685-4.528-4.057-8.036,9.318,10.492,6.129-2.675,7.14,8.3,20.238-.231-18.044,2.3-1.813Z" transform="translate(-341.84 -338.262)" fill="#fff"/>
        <g id="Group_1065" data-name="Group 1065" transform="translate(0 2.259)">
          <path id="Path_2139" data-name="Path 2139" d="M367.226,409.326l-6.058-41.557-5,3.942.136,10.68-4.982-12.155,2.92-7.793-10.013-5.848,5.792-6.715,7.933,7.111-3.2-8.838-6.132-5.456,6.5.839,9.042,12.81,1.265-.893L356,342.088l-12.149-1.567,9.584,8.527.972,2.685-4.527-4.057-8.036,9.318,10.492,6.129-2.675,7.14,8.3,20.237-.231-18.044,2.3-1.813,5.383,36.921-19.277-2.184,3.314,1.935Z" transform="translate(-341.84 -340.521)" fill="#5eb0c3"/>
          <path id="Path_2140" data-name="Path 2140" d="M390.16,431.559l3.723,2.175L377.548,413.1,369.955,377l.92.572,5.687,20.856,3.1-11.029-3.035-9.759,2.487,1.468,8.951,19.9-.5-17.683-8.6-12.014,13.251,4.177L375.715,355.87l-11.087,5.1.647,1.405,10.073-4.637,11.708,12.5-12.042-3.8,11.022,15.4.267,9.472-5.977-13.287-6.367-3.76,4.091,13.156-1.464,5.208-4.377-16.05-4.514-2.808,8.415,40,.113.143Z" transform="translate(-346.997 -343.994)" fill="#294c74"/>
        </g>
        <path id="Path_2141" data-name="Path 2141" d="M378.958,355.21l3.871-2.259,16.506,17.621-3.871,2.259Z" transform="translate(-350.24 -341.075)" fill="#fff" stroke="gray" stroke-linejoin="round" stroke-width="1"/>
        <path id="Path_2142" data-name="Path 2142" d="M373.074,352.466l-3.872,2.259-9.063-12.839,3.871-2.259Z" transform="translate(-345.981 -338.06)" fill="#fff" stroke="gray" stroke-linejoin="round" stroke-width="1"/>
        <path id="Path_2143" data-name="Path 2143" d="M401.533,447.553l-3.871,2.259-16.335-20.635,3.871-2.259Z" transform="translate(-350.776 -357.814)" fill="#fff" stroke="gray" stroke-linejoin="round" stroke-width="1"/>
        <path id="Path_2144" data-name="Path 2144" d="M398.151,385.856l-3.871,2.259.5,17.683,3.871-2.259Z" transform="translate(-353.707 -348.522)" fill="#fff" stroke="gray" stroke-linejoin="round" stroke-width="1"/>
        <path id="Path_2145" data-name="Path 2145" d="M380.053,407.226l3.871-2.259,2.445-8.695-.7-1.544-2.517,1.469Z" transform="translate(-350.488 -350.529)" fill="#fff" stroke="gray" stroke-linejoin="round" stroke-width="1"/>
        <path id="Path_2146" data-name="Path 2146" d="M362.6,399.435l3.87-2.261-.073-5.683-1.666-11.479-2.363,1.379Z" transform="translate(-346.486 -347.199)" fill="#fff" stroke="gray" stroke-linejoin="round" stroke-width="1"/>
        <path id="Path_2147" data-name="Path 2147" d="M351.253,421.431l-3.871,2.259,19.277,2.184-.4-2.742Z" transform="translate(-343.094 -356.572)" fill="#fff" stroke="gray" stroke-linejoin="round" stroke-width="1"/>
        <path id="Path_2148" data-name="Path 2148" d="M381.221,352.951l-3.871,2.259-5.5,2.53,3.872-2.259Z" transform="translate(-348.632 -341.075)" fill="#fff" stroke="gray" stroke-linejoin="round" stroke-width="1"/>
        <path id="Path_2149" data-name="Path 2149" d="M348.307,337.6l-3.871,2.259,12.149,1.567,3.871-2.259Z" transform="translate(-342.427 -337.601)" fill="#fff" stroke="gray" stroke-linejoin="round" stroke-width="1"/>
        <path id="Path_2150" data-name="Path 2150" d="M352.227,349.559l1.215-.709,2.34,2.082.972,2.685Z" transform="translate(-344.191 -340.147)" fill="#fff" stroke="gray" stroke-linejoin="round" stroke-width="1"/>
        <path id="Path_2151" data-name="Path 2151" d="M391.764,385.261,395.635,383l-5.384-7.522-7.087-2.234Z" transform="translate(-351.192 -345.668)" fill="#fff" stroke="gray" stroke-linejoin="round" stroke-width="1"/>
        <path id="Path_2152" data-name="Path 2152" d="M383.173,393.772l-3.035-9.759,2.487,1.468,3.066,6.822Z" transform="translate(-350.507 -348.105)" fill="#fff" stroke="gray" stroke-linejoin="round" stroke-width="1"/>
        <path id="Path_2153" data-name="Path 2153" d="M379.106,419.28l-7.593-36.094.92.572,5.686,20.856,2-1.167,2.856,13.575Z" transform="translate(-348.555 -347.917)" fill="#fff" stroke="gray" stroke-linejoin="round" stroke-width="1"/>
        <path id="Path_2154" data-name="Path 2154" d="M364.668,379.452l-2.3,1.813,2.363-1.379Z" transform="translate(-346.486 -347.073)" fill="gray"/>
      </g>
      <g id="Group_1067" data-name="Group 1067" transform="translate(12.592 11.546)">
        <path id="Path_2155" data-name="Path 2155" d="M326.629,368.88l.844-3.733a3.317,3.317,0,0,1,1.7-2.572c1.533-.628,3.615.658,3.636.672l.834-1.3c-.112-.071-2.766-1.742-5.058-.8a3.758,3.758,0,0,0-1.677,1.377,14.7,14.7,0,0,0-6.323-8.243l-.73,1.365.364-.682-.366.682a13.8,13.8,0,0,1,6.107,9.47Z" transform="translate(-319.85 -352.922)" fill="#5eb0c3"/>
        <path id="Path_2156" data-name="Path 2156" d="M330.706,362.825l2.361-1.377a4.076,4.076,0,0,1,2.882-.314,8,8,0,0,1,2.469.977l-2.323,1.356a7.832,7.832,0,0,0-2.706-1.011A4.164,4.164,0,0,0,330.706,362.825Z" transform="translate(-322.307 -354.447)" fill="#fff" stroke="gray" stroke-linejoin="round" stroke-width="1"/>
        <path id="Path_2157" data-name="Path 2157" d="M338.916,363.735l-2.323,1.357.834-1.3,2.323-1.357Z" transform="translate(-323.639 -354.767)" fill="#fff" stroke="gray" stroke-linejoin="round" stroke-width="1"/>
        <path id="Path_2158" data-name="Path 2158" d="M328.612,371.256l2.323-1.356.844-3.733a5.9,5.9,0,0,1,.487-1.385,2.5,2.5,0,0,0-1.552.417,3.824,3.824,0,0,0-1.25,2.29Z" transform="translate(-321.833 -355.298)" fill="#fff" stroke="gray" stroke-linejoin="round" stroke-width="1"/>
        <path id="Path_2159" data-name="Path 2159" d="M323.118,352.525l-2.323,1.356a14.923,14.923,0,0,1,6.323,8.243,4.051,4.051,0,0,1,1.345-1.221l.855-.5A15.221,15.221,0,0,0,323.118,352.525Z" transform="translate(-320.064 -352.525)" fill="#fff" stroke="gray" stroke-linejoin="round" stroke-width="1"/>
      </g>
      <g id="Group_1068" data-name="Group 1068" transform="translate(19.519 36.347)">
        <path id="Path_2160" data-name="Path 2160" d="M334.459,399.2l.844-3.733a2.621,2.621,0,0,1,1.322-2.032c1.2-.5,2.868.534,2.884.545l.834-1.3c-.094-.06-2.344-1.475-4.307-.672a3.178,3.178,0,0,0-1.29.977,12.25,12.25,0,0,0-5.212-6.649l-.73,1.365.364-.682-.367.681a11.069,11.069,0,0,1,4.983,7.738Z" transform="translate(-328.803 -384.977)" fill="#5eb0c3"/>
        <path id="Path_2161" data-name="Path 2161" d="M337.283,391.229l-.272.174a3.471,3.471,0,0,0-2.05,1.183,12.93,12.93,0,0,0-5.212-6.649l2.323-1.357A12.153,12.153,0,0,1,337.283,391.229Z" transform="translate(-329.017 -384.58)" fill="#fff" stroke="gray" stroke-linejoin="round" stroke-width="1"/>
        <path id="Path_2162" data-name="Path 2162" d="M340.014,392.032l-2.158,1.267s1.817-1.023,4.536.566l2.323-1.356S342.125,390.792,340.014,392.032Z" transform="translate(-330.852 -386.165)" fill="#fff" stroke="gray" stroke-linejoin="round" stroke-width="1"/>
        <path id="Path_2163" data-name="Path 2163" d="M344.963,394.084l-2.323,1.357.834-1.3,2.323-1.357Z" transform="translate(-331.935 -386.436)" fill="#fff" stroke="gray" stroke-linejoin="round" stroke-width="1"/>
        <path id="Path_2164" data-name="Path 2164" d="M336.113,401.241l2.323-1.357.83-3.67a5.006,5.006,0,0,1,.245-.828,2.139,2.139,0,0,0-1.513.242,2.884,2.884,0,0,0-1.021,1.794C336.836,398.041,336.113,401.241,336.113,401.241Z" transform="translate(-330.457 -387.015)" fill="#fff" stroke="gray" stroke-linejoin="round" stroke-width="1"/>
      </g>
      <g id="Group_1069" data-name="Group 1069" transform="translate(0 21.857)">
        <path id="Path_2165" data-name="Path 2165" d="M309.232,380.473l.844-3.732a2.617,2.617,0,0,1,1.322-2.032c1.2-.5,2.868.533,2.884.544l.834-1.3c-.094-.061-2.344-1.475-4.306-.672a3.186,3.186,0,0,0-1.29.977,12.258,12.258,0,0,0-5.212-6.649l-.73,1.365.365-.682-.367.681a11.074,11.074,0,0,1,4.984,7.738Z" transform="translate(-303.575 -366.249)" fill="#5eb0c3"/>
        <path id="Path_2166" data-name="Path 2166" d="M312.461,374.643l2.294-1.341s1.691-1.248,4.694.48l-2.323,1.357S314.612,373.492,312.461,374.643Z" transform="translate(-305.586 -367.439)" fill="#fff" stroke="gray" stroke-linejoin="round" stroke-width="1"/>
        <path id="Path_2167" data-name="Path 2167" d="M306.845,365.852l-2.323,1.356a12.554,12.554,0,0,1,5.212,6.649,3.435,3.435,0,0,1,1.046-.86c.777-.463,1.2-.711,1.2-.711A12.949,12.949,0,0,0,306.845,365.852Z" transform="translate(-303.789 -365.852)" fill="#fff" stroke="gray" stroke-linejoin="round" stroke-width="1"/>
        <path id="Path_2168" data-name="Path 2168" d="M317.413,376.712l2.323-1.357.834-1.3-2.323,1.357Z" transform="translate(-306.707 -367.707)" fill="#fff" stroke="gray" stroke-linejoin="round" stroke-width="1"/>
        <path id="Path_2169" data-name="Path 2169" d="M310.886,382.512l2.323-1.356.844-3.733a5.364,5.364,0,0,1,.231-.765,2.271,2.271,0,0,0-1.4.174,2.694,2.694,0,0,0-1.1,1.735C311.616,379.281,310.886,382.512,310.886,382.512Z" transform="translate(-305.23 -368.288)" fill="#fff" stroke="gray" stroke-linejoin="round" stroke-width="1"/>
      </g>
      <g id="Group_1070" data-name="Group 1070" transform="translate(13.139 66.563)">
        <path id="Path_2170" data-name="Path 2170" d="M343.375,425.359l11.247,13.4,12.569.575,16.058,18.22-57.689-33.922Z" transform="translate(-321.689 -423.634)" fill="#4d4d4d"/>
        <path id="Path_2171" data-name="Path 2171" d="M320.557,426.554l17.815,1.725,11.247,13.4,12.569.576,16.058,18.22Z" transform="translate(-320.557 -424.295)" fill="#fff"/>
        <path id="Path_2172" data-name="Path 2172" d="M373.964,457.949l4.282,2.527-16.058-18.22-12.569-.575-11.247-13.4-17.815-1.725,3.2,1.871,13.832,1.334L348.87,443.2l12.6.577Z" transform="translate(-320.557 -424.295)" fill="#294c74"/>
        <path id="Path_2173" data-name="Path 2173" d="M394.294,462.149l-3.871,2.259-16.058-18.22,3.871-2.259Z" transform="translate(-332.734 -428.227)" fill="#fff" stroke="gray" stroke-linejoin="round" stroke-width="1"/>
        <path id="Path_2174" data-name="Path 2174" d="M358.7,439.265l-3.871,2.259-11.247-13.4,3.871-2.259Z" transform="translate(-325.768 -424.139)" fill="#fff" stroke="gray" stroke-linejoin="round" stroke-width="1"/>
        <path id="Path_2175" data-name="Path 2175" d="M374.56,443.76l-12.569-.575-3.871,2.259,12.569.575Z" transform="translate(-329.058 -428.059)" fill="#fff" stroke="gray" stroke-linejoin="round" stroke-width="1"/>
        <path id="Path_2176" data-name="Path 2176" d="M324.428,423.634l-3.871,2.259,17.815,1.725,3.871-2.259Z" transform="translate(-320.557 -423.634)" fill="#fff" stroke="gray" stroke-linejoin="round" stroke-width="1"/>
      </g>
      <g id="Group_1071" data-name="Group 1071" transform="translate(6.643 77.134)">
        <path id="Path_2177" data-name="Path 2177" d="M331.569,437.735l8.594,11,9.93-.13,12.944,15.618L317.165,437.3Z" transform="translate(-313.294 -437.297)" fill="#333"/>
        <path id="Path_2178" data-name="Path 2178" d="M312.162,440.216l14.4.438,8.594,11,9.93-.13,12.944,15.618Z" transform="translate(-312.162 -437.958)" fill="#fff"/>
        <path id="Path_2179" data-name="Path 2179" d="M354.117,464.842l3.916,2.3L345.1,451.532l-9.933.13-8.6-11.008-14.4-.437,2.787,1.636,10.843.326,8.626,11.041,9.96-.131Z" transform="translate(-312.162 -437.958)" fill="#5eb0c3"/>
        <path id="Path_2180" data-name="Path 2180" d="M367.667,469.788l3.871-2.259-12.944-15.618-3.864,2.267Z" transform="translate(-321.795 -440.604)" fill="#fff" stroke="gray" stroke-linejoin="round" stroke-width="1"/>
        <path id="Path_2181" data-name="Path 2181" d="M343.243,448.862l-3.867,2.267-8.6-11.008,3.873-2.259Z" transform="translate(-316.374 -437.425)" fill="#fff" stroke="gray" stroke-linejoin="round" stroke-width="1"/>
        <path id="Path_2182" data-name="Path 2182" d="M316.033,437.3l-3.871,2.259,14.4.438,3.873-2.259Z" transform="translate(-312.162 -437.297)" fill="#fff" stroke="gray" stroke-linejoin="round" stroke-width="1"/>
        <path id="Path_2183" data-name="Path 2183" d="M345.759,452.042l9.93-.13-3.864,2.267-9.933.13Z" transform="translate(-318.89 -440.604)" fill="#fff" stroke="gray" stroke-linejoin="round" stroke-width="1"/>
      </g>
    </g>
  </g>
</svg>
